/* XPM */
static char *_d76286cb2d44454ad8e315972bdc4f68aoZNMWNsIyN16wB[] = {
/* columns rows colors chars-per-pixel */
"24 24 63 1 ",
"  c None",
". c black",
"X c #250000",
"o c #2A0000",
"O c #340000",
"+ c #3A0000",
"@ c #4F0000",
"# c #540000",
"$ c #580000",
"% c #5C0000",
"& c #5F0000",
"* c #680000",
"= c #710000",
"- c #482800",
"; c #563300",
": c #673F00",
"> c #794C00",
", c #850000",
"< c #940000",
"1 c #980000",
"2 c #9A0000",
"3 c #980D00",
"4 c #A30000",
"5 c #A70000",
"6 c #AB0000",
"7 c #B10000",
"8 c #B70000",
"9 c #C00000",
"0 c #C50100",
"q c #CE0A00",
"w c #CE0F00",
"e c #C81800",
"r c #D21200",
"t c #DA1900",
"y c #DD2100",
"u c #E42800",
"i c #E73000",
"p c #ED3600",
"a c #8E5C00",
"s c #915200",
"d c #A46D00",
"f c #F64000",
"g c #FF5400",
"h c #FF5C00",
"j c #FF6100",
"k c #FF6400",
"l c #FF6700",
"z c #FF6B00",
"x c #FF7A00",
"c c #FF7D00",
"v c #BD8000",
"b c #DA9500",
"n c #ED9800",
"m c #F9AD00",
"M c #FFC300",
"N c #FFC600",
"B c #FFC800",
"V c #FFCB00",
"C c #FFCE00",
"Z c #FFD200",
"A c #FFD800",
"S c #FFDE00",
"D c #FFE400",
/* pixels */
"                        ",
"                        ",
"                        ",
"    ................    ",
"   .SS.AlxfqSD77uu9D.   ",
"   .ZV.Ahcli0DD5yyyD.   ",
"  .AufN.Nzhft7DD9tt7D.  ",
"  .AufM.Cgfp.....997D.  ",
"  .AtpV.DDSS.DDD.DDDD.  ",
"  ...........D.D......  ",
"  .s*o:.;%%#.DDD.$#%d.  ",
"  .nqqD.m@%O.....=22D.  ",
"  .ZyrD.D4<3#X;>+$55D.  ",
"  .ApuS.D9queqDD7777D.  ",
"  .SupM.D9tpuqDD7777D.  ",
"  .NwrN.m50yy8DD5555N.  ",
"  .m62N.v,9977DD7722b.  ",
"  .:=%b.d=,772NN2==@a.  ",
"  .-::>.:>>>dvvaadaa>.  ",
"  ....................  ",
"                        ",
"                        ",
"                        ",
"                        "
};
