/* XPM */
static char *collectible_resized[] = {
/* columns rows colors chars-per-pixel */
"72 72 226 2 ",
"   c None",
".  c #010100",
"X  c #0B0400",
"o  c #0E0B00",
"O  c #130100",
"+  c #1B0100",
"@  c #130D00",
"#  c #190D00",
"$  c #151200",
"%  c #1B1400",
"&  c #1C1900",
"*  c #161800",
"=  c #0C1300",
"-  c #2B0000",
";  c #250800",
":  c #340100",
">  c #3B0100",
",  c #370C00",
"<  c #221600",
"1  c #251900",
"2  c #2C1D00",
"3  c #2D1700",
"4  c #3A1800",
"5  c #2C2200",
"6  c #2C2B00",
"7  c #332300",
"8  c #332D00",
"9  c #3B2900",
"0  c #3C2500",
"q  c #353200",
"w  c #440300",
"e  c #4A0000",
"r  c #470B00",
"t  c #540000",
"y  c #5C0100",
"u  c #5D0A00",
"i  c #481600",
"p  c #551600",
"a  c #650200",
"s  c #6B0100",
"d  c #660A00",
"f  c #750200",
"g  c #7C0200",
"h  c #770900",
"j  c #691900",
"k  c #791B00",
"l  c #442C00",
"z  c #492800",
"x  c #542800",
"c  c #4C3300",
"v  c #453C00",
"b  c #4B3C00",
"n  c #433100",
"m  c #523400",
"M  c #5C3B00",
"N  c #563800",
"B  c #692800",
"V  c #7A2700",
"C  c #633800",
"Z  c #783500",
"A  c #4C4400",
"S  c #4D4A00",
"D  c #454100",
"F  c #514500",
"G  c #524C00",
"H  c #5B4700",
"J  c #555100",
"K  c #634200",
"L  c #694800",
"P  c #734400",
"I  c #784A00",
"U  c #665800",
"Y  c #7A5600",
"T  c #6D6300",
"R  c #746800",
"E  c #7F7600",
"W  c #830100",
"Q  c #8C0100",
"!  c #8C0B00",
"~  c #820900",
"^  c #940100",
"/  c #9C0000",
"(  c #990A00",
")  c #8A1600",
"_  c #981700",
"`  c #A40000",
"'  c #AB0000",
"]  c #AD0B00",
"[  c #A50A00",
"{  c #B30100",
"}  c #BB0100",
"|  c #B40C00",
" . c #BC0D00",
".. c #A61600",
"X. c #B51600",
"o. c #862500",
"O. c #9A2900",
"+. c #883600",
"@. c #963800",
"#. c #AA2800",
"$. c #A93800",
"%. c #B93000",
"&. c #C30200",
"*. c #CA0500",
"=. c #C40D00",
"-. c #CC0B00",
";. c #D30C00",
":. c #D30500",
">. c #CC1400",
",. c #C81800",
"<. c #D41400",
"1. c #D91500",
"2. c #D51A00",
"3. c #DC1C00",
"4. c #E21C00",
"5. c #DC2300",
"6. c #D82800",
"7. c #C53900",
"8. c #D63600",
"9. c #C32A00",
"0. c #E32400",
"q. c #E82500",
"w. c #E52B00",
"e. c #EB2C00",
"r. c #E63200",
"t. c #EB3A00",
"y. c #E83600",
"u. c #F53B00",
"i. c #F12B00",
"p. c #844600",
"a. c #964900",
"s. c #845200",
"d. c #8A5800",
"f. c #935C00",
"g. c #A94800",
"h. c #BB4600",
"j. c #A65900",
"k. c #B55800",
"l. c #886500",
"z. c #986600",
"x. c #897900",
"c. c #9D7800",
"v. c #A76900",
"b. c #A67600",
"n. c #B67700",
"m. c #B56B00",
"M. c #CC4B00",
"N. c #C54800",
"B. c #D24D00",
"V. c #DA4D00",
"C. c #D34400",
"Z. c #CB5400",
"A. c #D85400",
"S. c #E74800",
"D. c #FB4B00",
"F. c #F74600",
"G. c #EB5C00",
"H. c #E65400",
"J. c #FD5700",
"K. c #C46600",
"L. c #C47900",
"P. c #D86C00",
"I. c #EB6800",
"U. c #F36400",
"Y. c #FE6400",
"T. c #FE6C00",
"R. c #F46C00",
"E. c #E47800",
"W. c #FF7300",
"Q. c #FF7B00",
"!. c #9E8800",
"~. c #9F9200",
"^. c #AA8400",
"/. c #A38C00",
"(. c #AA8A00",
"). c #A58300",
"_. c #A29300",
"`. c #AA9400",
"'. c #AB9C00",
"]. c #A49800",
"[. c #B19D00",
"{. c #B78500",
"}. c #ADA200",
"|. c #B3A200",
" X c #B9A500",
".X c #C88700",
"XX c #DA8800",
"oX c #D89600",
"OX c #C29D00",
"+X c #E78800",
"@X c #FE8400",
"#X c #F98800",
"$X c #E59A00",
"%X c #EC9C00",
"&X c #E79600",
"*X c #FC9300",
"=X c #F79900",
"-X c #CFB900",
";X c #D1AF00",
":X c #EDA300",
">X c #E8AA00",
",X c #F2A200",
"<X c #FDA400",
"1X c #FEAA00",
"2X c #EEB100",
"3X c #E8BA00",
"4X c #FFB300",
"5X c #F3BB00",
"6X c #FCBD00",
"7X c #F3B400",
"8X c #EEC300",
"9X c #E3CB00",
"0X c #EDCB00",
"qX c #E4C300",
"wX c #F2C300",
"eX c #FEC400",
"rX c #F3CD00",
"tX c #FCCE00",
"yX c #ECD300",
"uX c #F4D400",
"iX c #FBD400",
"pX c #F3DA00",
"aX c #FDDB00",
"sX c #FEE300",
"dX c #FFEB00",
"fX c #FFF200",
/* pixels */
"                                                                                                                                                ",
"                                                                                                                                                ",
"                                                                                                                                                ",
"                                                                                                                                                ",
"                                                                                                                                                ",
"                                                                                                                                                ",
"                                                                                                                                                ",
"                                                                                                                                                ",
"                                                                                                                                                ",
"                          . . . . . . . . . . . . . . . . . . . . . . . . . . . . . . . . . . . . . . . . . . . . . .                           ",
"                        o @ o o o o . . . o o @ o X @ X X O o X X X X X o @ @ = o @ X X X X X X X X X O X X X X X o o @                         ",
"                      6 v A G G A q $ X % 8 b b x x i x x z p i r w w i c A G G A z 4 : : : > > w r r r r w w , i n A v 8                       ",
"                    o v E /.[.[.~.U 8 $ 8 U ).b.j.g.g.g.j.g.$.O._ ! ) +.v./.}.}./.z.+.f s f f ~ ) _ _ O._ ! W ~ +.z./.E D $                     ",
"                  . o A /.qXaXaXqX!.b & v ~.3X1X#XU.U.R.R.U.S.t.6.<.,.M.XX7XuXpXrXoXN.X.` ` ' | ,.5.6.6.5.>.}  .C.$XqX].S o .                   ",
"                  . X S `.iXdXfXiX`.v % A '.tXeX*XT.T.W.Q.W.Y.D.u.q.4.y.E.=XeXaXsX6X+XB.9.{ { *.2.q.q.e.q.4.;.2.G.1XpX}.S X .                   ",
"                  . X b `.uXdXdXuX(.v $ b [.tXeX*XT.Y.W.Q.W.T.J.D.y.w.w.y.A.+X6XsXaX5X&XP.%.{ } >.0.q.q.0.4.1.5.I.4XpX}.S X .                   ",
"                  . & H (.5XiXiX5X^.F 2 A /.3X4X#XT.T.W.Q.W.T.Y.D.F.w.3.<.,.V.&XtXsXsXrX$XN.X. .>.2.3.5.5.3.3.6.G.<X5X'.J & .                   ",
"                5 q H l.L.%X=X<X=XL.l.H U x.`..X+XQ.Q.Q.Q.W.T.Y.J.F.t.5.;.<.6.P.&X5XaXsX5XXXZ.7.6.2.1.3.3.3.3.0.S.E.oX{.l.G v 6                 ",
"              o v E (..XP.I.U.U.R.E..Xb.x.U U d..X=X*X@XW.T.Y.Y.J.S.u.e.4.1.2.6.B.+XeXsXsXwX%XE.8.<.;.1.3.3.3.3.6.8.M.K.{._.E v o               ",
"            . o A ~.3X=XI.t.r.u.D.W.=X>Xb.A 2 F ^.7X1X*XT.Y.Y.J.D.D.u.r.5.<. .| X.N.oX0XpXpX8XXXN. .&.-.1.3.3.2.>. .X.Z.$XqX].S o .             ",
"            . o G [.eX1XU.e.q.e.F.T.<X6X(.v # v ).7X4X@XY.J.J.D.D.F.u.6.X._ W f f o.z.!.}.}._.z.+.Q / { -.;.;.-.&.{ { B.,XuX}.G o .             ",
"            . o F '.wX1XU.r.q.i.F.T.<X7X^.v # v /.5X1X@XJ.D.D.F.F.u.w.%.) r : : - , l v S S A n 4 w s ^ } *.*.&.} { { B.,XrX}.G o .             ",
"            . o F `.wX<XU.r.q.i.F.T.=X7X^.b % D (.5X1X@XY.J.D.F.D.F.y.#.p + . o @ % % & & & % = o O e !  .-.-.=.&.| X.Z.:X0X'.G o .             ",
"            . o F '.wX1XU.r.q.i.F.W.1X7X^.b & A `.rXeX1X*XQ.Q.Q.W.Q.I.a.z o = 6 A G G A G A v 6 = X 4 @.M.H.V.V.C.B.A.+XeXuX|.G o .             ",
"            . o G '.eX1XU.w.q.e.u.W.1X7X(.A < A '.iXsXtX6X6X4X4X4X4X,Xb.c $ 6 T ~.}.|.'.|.'.~.T 6 $ n z.$X,X<X,X,X%X,XeXaXpX|.G o .             ",
"            . o A /.3X%XA.2.<.5.y.I.=X>Xc.b % D !.9XpXiXuX0XrXwXrXiX3X!.v % v ~.9XpXyX9XyXpX9X/.D & v !.3XuXuX0X0X0X0XuXpX9X_.A o .             ",
"            . o q T c.v.a._ ( _ O.g.v.b.U 8 $ 8 T _.|.}.}.'.'.'.'.|._.T 6 % S [.pXpX-X X-XpXpX[.S $ 8 R ].}.}.}.}.}.}.}.[._.T 8 X .             ",
"            . . % q v c i r r r r x c b 8 $ X $ q A G G G S G S G J S 6 $ $ G |.yX-Xx.U x.-XyX|.G $ = q S J J G J G J S G D 8 & X .             ",
"            . . X o # @ O O O O O @ # @ o . . X o $ # @ @ @ @ @ @ @ @ X . o G |.9X XU q U  X9X|.J @ . . @ @ @ @ @ @ @ # $ # o X . .             ",
"            . . X # % ; + O X X . . X @ X X . X X X O + O O + O O O O . . o J  XyX-Xx.U x.-XyX XJ @ . X O O X O O O O + < 3 % o . .             ",
"            . . % 0 x x i w - + + # 3 4 1 @ . X % 3 , , > > > > > : - + . @ J |.pXpX-X X-XpXpX|.G @ X + : : : - - : > i x M l < X .             ",
"            . X 2 C p.+.k d t w > i N C c & X % 0 m x u t t t t t t w - O # A _.9XpXyX9XyXpX9X_.A @ O : e t t t t t u V a.z.L 7 X .             ",
"            . X 0 I j.j.O.! g s d V d.z.U 6 @ 1 M s.I V a t y y t t w - X O q R _.|. X[. X[._.T q o O > a a s s s s h @.m.{.l.n o .             ",
"            . X l d.L.Z.9.| ` ` _ g.L.OXx.n $ 9 d.n.j.V u t y t t e : - X . * q A G G J J G A 8 * X ; w a f g W W W ! g..X;X!.A o .             ",
"            . o l z.XXI.8.,.*.&.>.A.%XqX_.A & c b.oXL.+.u t y a t e > - O X X X @ @ @ # # # @ o . X ; e s W Q ^ / ^ ( h.$XqX`.S o .             ",
"            . o b b.$X#XS.3.:.:.1.G.1XuX}.S & b ^.>XXXa.h a s s a y t > - + X . . . . X @ # # @ O O - w a g Q / / ` [ Z.:XuX}.G o .             ",
"            . o F ^.>X*XH.5.;.;.3.G.1X0X}.S & D `.5XoXh.! W g W W h h d e > - O O O ; 2 4 l z 4 , ; : e y f Q ` ` ` [ Z.:X0X}.S o .             ",
"            . o F (.5X=XG.w.;.;.2.G.1X0X].S & A '.8X>XN.[ / ^ ^ ^ ( ! ~ d t w > : 4 z M K I I C p w w e a f ^ ` ` ` ] M.:X0X}.J o .             ",
"            . o F `.wX1XU.r.1.1.5.G.1X9X].S & A '.0X:XZ.| ' ` ' ] X.X._ ( h s a d B I l.c.).b.d.V d a s f Q / ` ' ` ] Z.:X0X'.S o .             ",
"            . @ S `.5X1XR.t.0.4.w.I.1X0X'.A & S }.0X,XB. .{ } &.=.,.2.X.X.[ ( / [ $.n.;X-X-X;XL.$.) Q Q ^ / ` ' ' ' | M.:X0X}.G o .             ",
"            . o F `.wX1XW.t.w.0.r.U.1XwX_.A & S '.0X:XV.=.} &.-.<.3.5.6.2.,. .=.,.C.&XrXdXdXyXoXN.] ' ' ' ' { ' { ' | B.:X0X}.G o .             ",
"            . o S `.8X1XR.t.q.q.y.U.1X8X`.b & A '.0X,XV.-.&.*.<.3.0.w.w.6.2.<.;.2.H.,XaXfXfXaX%XM. .{ { { { { { ' { | B.:X0X}.G o .             ",
"            . o G `.wX1XR.y.w.e.t.R.<X5X(.b & S '.0X,XV.=.&.;.1.4.e.e.r.w.5.1.;.1.H.,XaXfXfXpX%XM. .{ { { { { { { ' | B.:X0X}.S o .             ",
"            . o S '.8X1XU.y.0.q.t.R.*X7X).b % S '.0X,XV.=.&.*.1.5.e.y.r.w.0.1.;.2.V.%XaXfXfXaX$XM.| ' ' { { { { ' { | B.:X0X'.G o .             ",
"            . o G `.wX1XG.6.3.4.r.U.*X7X^.b % A _.5X%XC. .&.*.<.3.0.w.r.w.0.2.-.,.V.%XaXdXfXiX$XN.| ' ' ' ' ' ' ' ' | M.%X8X`.G o .             ",
"            . o F (.7X=XG.5.1.1.0.G.*X2X(.v % b ^.>X+XC. .{ } -.2.3.0.w.w.0.<.*.=.B.&XaXfXfXpX$XN.] ` ` ' ' ' ' ' ` | M.&X5X`.F o .             ",
"            . o F ^.>X*XS.2.*.*.2.H.*X>X^.b % n c.$XE.7.] ' } &.-.2.3.5.5.3.-.&. .M.&XiXfXdXaX$XN.] ` ' ` ' ` ` ` ` ] N.+X>X(.F o .             ",
"            . o F ^.>X#XV.,.} } ,.V.=X2X(.A & n z.oXP.%.[ ` { &.*.;.<.2.<.,.=.}  .M.$XaXfXfXiX$XN.| ` ' ' ' ` ` ` ` ] 7.+X>Xb.b o .             ",
"            . o b n.>X#XC. .{ ' | M.=X2X(.D % 0 l..XK.#.( / { &.&.*.=.-.=.=.} { | M.$XiXfXfXaX$XN.X.' ' { ' ` ` / / [ %.E.oXc.c o .             ",
"            . o b b.oXE.7.] / / ( N.+X>X^.A % 8 Y m.v.O.Q ^ ' } &.&.&.} { { { ' | N.$XiXfXdXiX&XM.| ' ' ' ` / / ^ ^ / $.K..Xz.n o .             ",
"            . o 9 l.n.Z.$./ Q W Q $.XXoX^.b # 7 Y v.j.O.W Q / ' { { } } { { ' ` | N.$XiXdXsXiX&XN.| ` / / ^ ^ Q W W W O.k.n.Y 9 o .             ",
"            . X 5 K f.a.) W f f h @.L.oXc.c # 5 I z.g.o.g g Q ^ ` { { { { { ' ` ] %.+XeXaXsXeX&X7.[ ^ Q W W g g f s d o.a.z.I 8 X .             ",
"            . . < z K Z k h s s d +.m..Xz.l # 5 L z.a.o.h f g Q ^ [ ' | { { ' ` ..N.XX7XtXtX7XXXh.( ^ W h f h f d y y B I s.C 7 X .             ",
"            . X % 0 N B B j j d j +.v.m.Y 8 @ 2 H s.p.+.V k k ) ) _ O...#.#.#.#.$.k.XX>X2X3XoXL.g.O.) o.o.o.V ) k j B Z p.Y M 2 X .             ",
"            . . # 4 z x B B B B C p.f.d.L 2 o < m I I I Z Z Z +.+.+.@.@.g.g.k.k.k.L..XoXoX.X{.v.j.a.a.a.a.a.p.p.+.I Z s.s.I N 1 X .             ",
"            . . # 2 z c M M C C C C I P m < X % l M Z P P P P P Z P P s.d.f.v.v.m.n.n.n.b.z.d.d.d.s.a.f.z.d.d.s.s.s.s.s.Y P c < X .             ",
"            . . o # 3 0 0 l l z l l m z 7 # X @ 2 0 l c m m b c b c b M K L Y Y Y Y Y Y I C M M M K K L L P K H C H H M N c 4 % . .             ",
"            . . X X @ % % < < % & < < < # X . X @ < < 1 1 1 1 < 1 1 1 1 5 7 7 8 9 9 9 9 7 5 2 1 2 5 5 5 7 7 2 5 2 2 2 2 1 < $ X . .             ",
"            . . . . . . X . . X . X X X . . . . . X . X X X X X X X X X X X X o X o o X X X X X X X X X o X X X X X X X X X . . . .             ",
"              . . . . . . . . . . . . . . . . . . . . . . . . . . . . . . . . . . . . . . . . . . . . . . . . . . . . . . . . . .               ",
"                                                                                                                                                ",
"                                                                                                                                                ",
"                                                                                                                                                ",
"                                                                                                                                                ",
"                                                                                                                                                ",
"                                                                                                                                                ",
"                                                                                                                                                ",
"                                                                                                                                                ",
"                                                                                                                                                ",
"                                                                                                                                                ",
"                                                                                                                                                ",
"                                                                                                                                                "
};
