/* XPM */
static char *laaaaast_resized[] = {
/* columns rows colors chars-per-pixel */
"72 72 250 2 ",
"   c #040301",
".  c #0B0401",
"X  c #0D0A02",
"o  c #0C0B07",
"O  c #120301",
"+  c #130C03",
"@  c #170805",
"#  c #190D03",
"$  c #051709",
"%  c #151202",
"&  c #1A1403",
"*  c #1B1803",
"=  c #1B130A",
"-  c #161713",
";  c #280500",
":  c #340100",
">  c #3B0100",
",  c #380D00",
"<  c #231501",
"1  c #2B1603",
"2  c #261907",
"3  c #2B1C00",
"4  c #341B02",
"5  c #351906",
"6  c #3B1D02",
"7  c #241C15",
"8  c #162610",
"9  c #2C2600",
"0  c #372605",
"q  c #3C2203",
"w  c #373200",
"e  c #2A241D",
"r  c #392716",
"t  c #3E3010",
"y  c #1D2B20",
"u  c #2E2824",
"i  c #332C28",
"p  c #36332A",
"a  c #3A332C",
"s  c #430300",
"d  c #480600",
"f  c #540000",
"g  c #5C0200",
"h  c #481A00",
"j  c #551600",
"k  c #650400",
"l  c #6B0100",
"z  c #750200",
"x  c #7C0200",
"c  c #770900",
"v  c #711A00",
"b  c #442305",
"n  c #442B00",
"m  c #4D2A05",
"M  c #472608",
"N  c #4C2B0B",
"B  c #562B03",
"V  c #522D0B",
"C  c #4C3300",
"Z  c #463A00",
"A  c #4B3C00",
"S  c #583800",
"D  c #54310E",
"F  c #5A330E",
"G  c #492D13",
"H  c #4B3218",
"J  c #543313",
"K  c #5A3512",
"L  c #5D3914",
"P  c #55371A",
"I  c #5C3B1B",
"U  c #692800",
"Y  c #792C00",
"T  c #633900",
"R  c #623B14",
"E  c #643D18",
"W  c #402F26",
"Q  c #463727",
"!  c #563D25",
"~  c #623E21",
"^  c #38432D",
"/  c #4C4400",
"(  c #4D4A00",
")  c #554600",
"_  c #534D00",
"`  c #59510F",
"'  c #674600",
"]  c #764700",
"[  c #6B510D",
"{  c #795500",
"}  c #694119",
"|  c #6C431C",
" . c #6F6500",
".. c #59432B",
"X. c #564B35",
"o. c #634324",
"O. c #6A4621",
"+. c #674728",
"@. c #6B4B2B",
"#. c #744C24",
"$. c #734E2A",
"%. c #6C522C",
"&. c #76522E",
"*. c #684E35",
"=. c #6B5236",
"-. c #745434",
";. c #785836",
":. c #7B5B3B",
">. c #79613F",
",. c #695846",
"<. c #7A5D42",
"1. c #6E5F50",
"2. c #7B6245",
"3. c #766856",
"4. c #726858",
"5. c #7B6C5A",
"6. c #7B6E5B",
"7. c #830200",
"8. c #8C0100",
"9. c #8B0A00",
"0. c #940100",
"q. c #9C0000",
"w. c #990A00",
"e. c #891700",
"r. c #981600",
"t. c #A40000",
"y. c #AB0000",
"u. c #AB0B00",
"i. c #B30100",
"p. c #BB0100",
"a. c #B80C00",
"s. c #A61600",
"d. c #B51600",
"f. c #912C00",
"g. c #883500",
"h. c #AE2F00",
"j. c #C30200",
"k. c #C90A00",
"l. c #D30B00",
"z. c #C91600",
"x. c #D41400",
"c. c #D71800",
"v. c #DC1C00",
"b. c #E21C00",
"n. c #DC2300",
"m. c #D82800",
"M. c #CD3600",
"N. c #E32400",
"B. c #E82A00",
"V. c #E83600",
"C. c #F43700",
"Z. c #844600",
"A. c #964900",
"S. c #885600",
"D. c #935C00",
"F. c #A94700",
"G. c #B25200",
"H. c #8F6C00",
"J. c #986600",
"K. c #897904",
"L. c #AA6900",
"P. c #A47500",
"I. c #B67800",
"U. c #825D37",
"Y. c #83613C",
"T. c #89633E",
"R. c #C54800",
"E. c #CC4B00",
"W. c #D64C00",
"Q. c #D25400",
"!. c #E74800",
"~. c #F94800",
"^. c #E85800",
"/. c #FD5700",
"(. c #CA7100",
"). c #EB6800",
"_. c #F76600",
"`. c #FE6C00",
"'. c #E47800",
"]. c #FF7300",
"[. c #FF7B00",
"{. c #836343",
"}. c #8A6947",
"|. c #926E49",
" X c #94714C",
".X c #866D53",
"XX c #8A7259",
"oX c #937558",
"OX c #957A5D",
"+X c #9A7D5D",
"@X c #847561",
"#X c #987D61",
"$X c #9E8900",
"%X c #9F9200",
"&X c #A88800",
"*X c #A39400",
"=X c #AA9400",
"-X c #AB9C00",
";X c #B39400",
":X c #ADA100",
">X c #B2A200",
",X c #B9A500",
"<X c #C88600",
"1X c #DA8800",
"2X c #C29D00",
"3X c #D89600",
"4X c #E78800",
"5X c #FB8600",
"6X c #E79A00",
"7X c #F99700",
"8X c #D1AF00",
"9X c #CFB900",
"0X c #EBA600",
"qX c #F2A200",
"wX c #FDA400",
"eX c #FEAA00",
"rX c #EAB700",
"tX c #F8B800",
"yX c #E7C700",
"uX c #EDCB00",
"iX c #F6C900",
"pX c #ECD300",
"aX c #FBD400",
"sX c #F4D800",
"dX c #FDDB00",
"fX c #FEE700",
"gX c #FFF200",
"hX c #9C805F",
"jX c #A0815F",
"kX c #9D8263",
"lX c #938369",
"zX c #9C846A",
"xX c #A28564",
"cX c #A58768",
"vX c #A68A6B",
"bX c #A98C6B",
"nX c #AE906E",
"mX c #A68D71",
"MX c #AA9276",
"NX c #AE967A",
"BX c #B19678",
"VX c #B39A7D",
"CX c #B69E81",
"ZX c #B89F81",
"AX c #BBA284",
"SX c #BDA588",
"DX c #C1A889",
"FX c #C2AA8C",
"GX c #C6AE90",
"HX c #C9B192",
/* pixels */
"m V V F F R F R R } } } R F R R R R E R R E R R L R R E E E | E E E E E U V V V V D D C J K F F D m m m m m m m h h 6 h M m V m N V V V N 6 6 , ",
"m V D R } | | | } } | | | | | | O.+.O.O.O.O.O.| E | E } ] | Z.&.Z.U.~ E E R J K J o.} o.o.} } L D V m m m m V m m b q h M V V D J K I K J M 6 4 ",
"V J E $.:.Y.Y.:.&.#.| #.-.U.>.Y.U.Y.U.{.U.U.{.:.U.-.&.#.} #.U.T.}.}.T.U.~ I ~ @.-.;.;.:.;.:.:.$.E V V V V F F V V h b h N V K ~ +.$.;.-.o.J q 6 ",
"F E @.}.+XxXxX+X|.;.$.;.|.+XxXxXxXxXcX#XzXxXkX+XoX.XU.&.U.U. XjXmXbX#X X&.O.&.}.hXkXkXkXkXkXhX}.+.J V F U R R R D V m m N D ~ -.{..XOXOX2.o.G b ",
"R E :.+XVXSXSXVXxXT.&.Y.kXVXAXAXCXCXZXCXAXZXZXNXmX#X}.;.&.T.+XBXVXAXBX+XU.@.U.#XVXAXAXAXAXSXVXOX-.I P E | #.| E E ~ P j V K ~ {.oXmXNXNXoX=.J M ",
"R O.U.xXAXGXGXAXvX}.;.}.vXAXFXFXDXFXFXDXFXFXSXVXvXOX}.&.#.U. XcXnXnXxX X:.$.{.bXAXFXFXSXFXFXAXzX:...} &.U.Y.U.;.$.~ ~ I K I ~ .X#XMXZXZXkX-.P M ",
"R O.Y.xXAXFXGXAXvX}.U.|.bXAXFXFXDXSXFXDXSXFXSXMXjX}.U.$.#.&.U.|. X|.}.U.$.$.{.xXAXFXFXSXFXFXAXkX:.+.%.}.OX+XoX X}.{.<.~ ~ I ~ .X#XmXZXCXkX;.P N ",
"R O.Y.xXZXFXFXZXbX|.Y.|.cXAXDXDXDXSXZXSXSXSXAXvX|.;.$.#.#.&.;.U.Y.U.U.$.O.O.<.xXAXFXSXSXSXSXAXkX{.%.:.OXbXMXbXkXoX.X.X~ ~ ~ ~ {.XXvXVXCXkX=.P N ",
"E O.Y.xXAXSXDXAXbX|.T.|.bXDXDXDXFXFXDXDXFXFXSXlX>.` X.;.{.|.|.|.|.|.|.U.$.@.>.kXAXDXFXDXSXGXZXkX{.&.>.lXCXCXCXNX#X#XXX<.~ ~ ~ .XoXcXCXCX#X=.I M ",
"R O.:.jXAXFXDXAXbX|.T.|.cXVXDXFXFXFXFXFXFXHXSX#XX.^ X.3.xXnXmXvXnXnXbX X:.@.Y.kXVXDXFXDXSXSXCXkXY.-.T.kXCXAXSXCXCXCX#X{.~ ~ ~ {.XXcXCXCX#X-.P G ",
"R O.>.xXAXSXDXAXbX|.Y.|.bXZXDXAXCXCXCXCXZXCXMX5.^ y ^ 4.MXVXCXCXVXVXnXOX;.+.;.XXmXNXVXVXCXNXmXXX:.@.:.XXzXCXCXNX#X#X#X{.~ P ~ {.oXvXCXCX#X;.P N ",
"} O.Y.kXAXFXDXAXcX|.T.|.bXAXNXlX6.3.3.5.@X@X3.X.y $ y X.3.@X6.6.6.6.6.,...Q Q X.1.3.5.5.3.3.4.*...Q Q ,.1.4.6.5.@X1.,.Q W W ! 1.#XMXCXCX#X:.~ V ",
"L O.>.xXVXFXFXAXcX|.T. XnXZXzX,.a i i i a a p e $   $ y p a a p a a p u e - 7 e u i i i p p i e - = e e i p p p p u u 7 @ - W 1.#XCXZXZXzX:.} F ",
"} | Y.kXAXFXFXAXbX|.U.|.bXmX6.X.7 + % = = o X X $ X + @ # = = = = - # # O X + + % - = % = o o @ X O X + @ + o = o @ @ O @ = W ,.#XMXCXNXhX:.} K ",
"R O.Y.kXAXFXGXAXcX}.&.;.2.6.,.` ( / / / 9 +   % 9 A S m j h h m h h d d s s h C / ( ( A n , : : : : > > d h s d > > : 6 m / } *.,..X#X+X}.%.I D ",
"R O.Y.xXAXGXGXAXxXY.+.P Q a %.K.&X-X-X$X .9 + 9  .&XI.L.F.F.F.F.F.h.f.r.9.9.g.L.=X:X:X*XJ.e.z l z x 7.e.r.r.r.r.9.7.9.f.J.$XK.` Q Q =.:.-.I N M ",
"L | :.+XVXSXSXVX#X:.I 5 = = ) *XyXaXdXyX$XZ * Z $XrXeX5X_.)._.'.).~.!.m.z.z.E.1XtXsXsXuX3XG.d.t.t.y.a.z.m.n.n.m.z.j.a.W.6XyX*X_ = 7 ! @.+.J M q ",
"F R %.}.+XxXkXOX{.@.G 1   . / =XaXgXgXsX=XA * / ;XaXiX5X`.`.].[.].`.~.C.B.b.V.'.7XiXdXfXtX4XQ.M.a.i.k.c.B.B.B.N.b.l.c.^.eXsX:X( O - ! <.-.I N q ",
"D K } @.;.:.:.=.+.H r ;   . / =XsXgXfXiX&XZ % / -XaXtX7X`.`.`.[.].`./.~.C.N.m.V.Q.4XtXfXdXiX6XQ.h.i.p.z.N.N.B.N.v.c.n.).eXsX:X( o y ,.hX|.+.G 0 ",
"m V D K I o.o.! P M 5 < O * ) ;XrXaXaXtX&XA 9 / &XyXeX5X`.`.].[.].`././.!.B.v.x.c.W.6XiXfXdXiX3XE.d.a.z.v.N.v.n.v.v.N.^.wXyX-X_ 9 a 3.zXoX-.J M ",
"M M N D L o.+.*.Q r 1 3 n ) H.(.6XeXeX6X(.S._  .K.&X<X'.5X[.[.[.].`._./.!.C.N.x.l.m.).6XtXdXfXtX4XQ.M.z.m.c.v.v.v.v.m.!.'.3X&XH.` %.,.6.1...J G ",
"6 6 M V I $.{..X,.u < n  .P.;X'.^./._._.'.<X&XH. .' H.;X7X7X5X].`.`././.~.C.B.b.c.v.M.Q.4XiXfXdXiX6X).V.x.k.c.v.v.v.n.n.M.E.(.I.*XK.` X.W H J V ",
", 6 b V } U.OXzX3.i = / =XrXqX).V.C.C.~.].7X0X$X/ 3 ) &X0XeX5X`._./././.~.C.V.m.x.a.y.d.R.3XuXsXsXyX1XR.a.p.k.c.v.v.x.z.k.d.E.6XyX*X_ = = 5 G V ",
"4 4 b V O.T.cXMX5.i % ( -XiXeX^.B.N.B.~.`.wXtX&XA # Z &XrXeX5X`./././.~.~.C.m.d.r.7.z z Y J.&X:X:X*XJ.g.9.q.p.k.l.l.l.j.i.i.E.qXsX,X( X @ 2 G J ",
"1 4 b F | |.bXNX6.p = / =XiXeX_.V.N.B.~.`.eXtX&XA & Z &XrXeX5X/.~.~.~.C.C.V.d.e.d > : : , n A ( ( / C 6 s l q.j.j.l.j.p.y.i.W.qXpX>X_ X . 1 M G ",
", 6 b F #.T.cXMX6.p * / =XiXwX_.V.N.C.~.].7X0X&XA & A &XtXeX5X`./.~.~.~.~.!.h.j + . . # & & * * * * +   O s 9.a.l.k.k.k.p.d.Q.0XuX:X_ + @ 1 M G ",
", 6 M V } ;. XoX,.e % ( -XiXeX_.C.B.B.C.].wXtX&XA * / =XiXiXeX5X5X[.[.[.].).A.m X $ 9 ( ( / / / ( / 9 $ . h g.W.W.W.W.W.W.Q.4XiXsX>X_ + o 1 5 M ",
"q b M N J o.;.;.Q 7 % _ ;XiXeX^.B.b.B.~.`.eXtX=XA * ( =XaXfXaXtXtXeXeXtXtXqXP.C $ 9  .%X>X>X>X>X-X$X .9 % n J.0XeXwXqXqXqXqXtXdXsX:X_ % . < 6 h ",
"b b N D P o.@.+.W 7 % / *XrX6X^.v.c.v.V.).6X8XP.A & Z %XyXsXsXpXpXuXuXiXaXrX$Xw * / %XyXsXpXyXpXsXyX%XZ * / $X9XsXsXuXuXuXuXsXsXyX*X( X . < 4 6 ",
"m V J o.*.;.>.;.! 7 + 9  .P.L.A.r.w.r.h.F.L.P.{ 9 + w  .%X:X:X:X-X-X-X>X>X=X .9 * ( -XsXsX9X:X9XsXsX:X( * 9  .%X>X:X:X:X:X:X>X>X*X .w X . 1 6 q ",
"D L +.>.XXkXkXOX,.e @ % 9 / n h d d d h m C A w &   * w ( _ ( ( _ _ ( _ _ ( w + % _ :XpX9X$X_ $X9XpX>X_ % + w ( _ _ _ _ _ _ _ ( / 9 * . O 4 h M ",
"L } ;.oXvXVXAXNX5.a o   X % % O . O X . O O + X .     X X % % + + + + + + X     + _ ,XyX,X_ w  .,XyX,X_ X     + % % + + % + + % % X     + 5 M V ",
"E O.U.+XBXSXHXZX@Xa o   O # ; ; O O . . . O O X       . . O O O O O O O O .     X _ ,XpX9XK. .K.9XpX:X_ O     O O O . . O O O 1 1 & . . + 5 M N ",
"E #.U.+XNXDXGXVX@Xa + # 6 B m h s : O O # 1 0 < +   . < 3 , > > > > > : > : O   % _ ,XsXsX9X,X9XpXsX,X_ + . O : : : : : : > j B S n * . + 5 M N ",
"| #.U.oXmXCXAXBX5.p + < S Z.g.v k f s : h B T C < . & 0 B B j f g f f f f s : . X ( %XyXsXpXyXsXsXyX*X/ + O : f f f f f f k v A.D.] 0 X # 2 G V ",
"R | &.}.+XcXbX+X,.u @ 6 ] L.G.f.9.x l k Y S.H.[ 9 + < ' Z.Z.v g g g g g f s ; O X w  .*X>X,X:X>X:X%X .w O O > g l l k l l c f.I.;XH.w X + 5 N V ",
"R E #.U.U.T.|.U...7 + n S.(.Q.M.a.t.q.w.F.(.2XK.w & q S.I.L.Y j f f g f s > ; .   * 9 ( _ _ _ _ _ ( w %   O s l x x 7.7.7.9.F.<X8X$XA + @ r V J ",
"T E E #.U.U.T.U.! 7 + C J.1X'.M.k.j.j.z.Q.qXyX-X( * Z P.3X(.g.g f g k f d > ; O . . X + & + % + % % X . . ; s l x 8.0.0.0.u.G.6XyX-X( + + 5 J P ",
"R E #.U.}.|.|.}...7 # A P.6X5X!.v.l.l.c.^.eXpX:X( * A &XrX1XF.l l l l k g f s : O O       . . + + # + . O : s k x 0.q.q.q.s.E.0XpX>X_ + o 5 G V ",
"E E U. XxXbXbX#X,.u % A &X0X7X^.v.l.l.c.^.eXiX-X( < / =XrX6XF.9.7.x 7.7.c l k s : ; O O O ; 1 q b b 6 , ; : s k z 8.t.t.t.u.E.0XuX:X_ + . 1 M M ",
"E Z.U.+XZXDXDXBX5.i = A &XrXwX^.N.x.l.m.^.eXuX-X( % ( -XyX0XR.s.q.0.0.0.w.9.9.l g s : : , m S ' { ] T h s s f g x 8.t.t.t.u.Q.0XuX:X_ % . < q M ",
"E U.}.cXDXGXGXZX5.p = / =XiXwX_.V.v.c.n.^.eXyX-X( * ( -XyX0XQ.a.y.t.y.u.d.d.r.9.c c k k U { H.P.P.P.D.Y k k l x 7.q.t.y.y.u.Q.6XuX:X_ % @ 1 M m ",
"#.Z.}.bXAXGXGXCX6.p = ( =XrXeX_.V.N.v.N.).eXuX-X/ * ( -XuXqXQ.a.p.p.a.k.z.z.z.d.u.w.0.r.h.I.2X9X9X8XI.h.9.8.8.0.q.t.y.i.y.a.E.qXuX:X( % + 5 V K ",
"E U.T.#XZXFXFXVX5.i % / =XyXeX].C.N.N.V._.eXuX*X/ * ( -XuXqXW.k.j.j.k.x.n.m.m.z.z.a.k.z.W.6XsXfXfXsX6XR.u.y.y.y.y.i.i.y.y.u.E.qXyX:X_ % @ r I R ",
"#.#.T.xXAXGXFXVX3.i = / =XuXeX`.C.B.B.V._.eXrX=X/ * ( :XuXqXQ.k.j.j.l.v.N.B.N.n.m.x.l.x.^.qXdXgXgXdX0XE.a.i.i.i.i.i.i.i.i.a.W.0XuX:X_ + = 0 J } ",
"| #.T.bXAXFXFXBX3.i = / -XuXeX_.V.B.B.V._.wXtX&XA * ( -XuXqXW.k.j.l.c.n.N.C.V.N.n.x.l.c.^.6XdXgXgXdX6XE.a.i.i.i.i.i.i.i.y.a.E.qXuX:X_ % @ 0 F } ",
"| #.T.jXVXZXCXmX1.i * / =XuXeX_.V.N.N.C.`.7XrX&XA & ( -XuXqXW.k.j.l.x.b.B.V.B.V.N.c.l.x.W.7XdXgXgXdX6XE.a.i.y.i.y.i.i.y.i.a.Q.qXiX-X( % @ r H J ",
"T | &.|.#XcXkXXXX.e = / -XrXeX^.m.v.b.V._.7X0X&XA & / =XrX7XW.a.j.k.x.v.N.V.B.B.N.c.l.z.W.6XdXgXgXsX6XE.u.y.y.i.y.y.y.y.y.u.E.6XyX-X_ + X = t t ",
"R R | -.Y.}.{.;.Q 7 % / =XrX7X^.n.l.c.m.^.7X0X&XA * A &X0X4XE.a.i.j.k.x.n.N.B.B.N.x.k.z.W.6XaXgXgXaX6XR.u.y.y.y.t.y.y.t.y.u.E.6XrX;X_ %   $ 8 8 ",
"D F R O.%.&.&.+.W - + / &XtX7X!.x.k.k.c.!.7XtX&X/ < C P.0X'.M.u.y.p.j.l.c.v.n.n.v.k.j.a.E.6XaXgXgXaX3XR.u.t.t.y.y.t.y.t.t.u.E.4X0X=X) X   $ $ 8 ",
"F L O.-.Y.}.}.:.! 7 @ S &X0X5XW.z.p.p.z.!.7X0X&XA & n J.1X(.h.u.y.i.j.k.k.x.x.z.z.k.p.a.E.6XsXgXgXaX6XR.u.y.y.y.y.t.t.t.q.u.M.4X0XP./ X   $ $ $ ",
"R | &.|.jXvXvXOX,.e % A I.0X[.W.a.y.y.u.E.6XrX&X/ & 0 H.I.(.h.0.q.i.j.j.k.k.k.k.a.p.i.a.E.6XaXgXgXsX0XE.a.y.y.y.y.t.q.q.q.u.M.(.3XP.C X   $ $ $ ",
"} #.T.jXVXDXDXNX3.i % A P.6X'.M.u.t.0.u.G.1X0X&XA & 0 { I.G.f.9.0.y.p.j.j.j.p.i.i.i.y.a.R.6XiXgXgXaX6XR.a.y.y.y.t.t.q.0.0.w.h.(.<XH.C X   $ $ $ ",
"| #.T.cXDXHXHXAX6.p = q S.&XG.h.0.8.7.9.h.1X0X&XA & 9 { P.G.f.9.8.q.y.i.i.p.p.i.i.y.y.u.R.6XaXfXfXaX6XE.u.t.t.q.0.8.8.7.x 7.f.G.I.S.w .   8 8 8 ",
"| #.}.bXDXHXHXAX@Xa + 3 ' D.A.f.7.x z c h.(.3XH.C % 9 { J.F.g.x x 8.0.t.y.i.i.i.y.y.t.t.M.4XiXdXdXiX4XE.u.0.8.7.7.x x z l l e.D.D.] 0 X o 9 r t ",
"] #.U.jXBXDXDXBX5.p + & n T Y v z l k k g.I.<XJ.n + 4 ' D.A.f.l x x 9.0.u.y.i.a.y.y.q.s.G.1XtXaXaXtX1Xh.w.8.7.x x z c l g g U Z.S.' 3 o o 0 D J ",
"} | &.}.kXbXvXOX,.u o # 0 B T v v v k v Y L.L.S.w O 3 ' S.S.g.v v v v r.r.s.s.h.h.s.h.h.Q.3X0XrXrX3X(.G.f.e.e.f.Y e.Y v v U Y { ] T 3 X & r J R ",
"D L O.-.Y.{.{.:...7 X + 4 m B T U U U T ] S.D.' 4 X < C ] Z.] Y Y g.g.g.g.g.g.F.F.G.G.G.(.<X3X3X<XI.L.D.A.A.A.A.A.Z.Z.g.] Y Z.S.{ S < X # b P E ",
"D F } O.%.&.&.@.Q = X O 3 b B S S T T T ' ] ] C < X & b T ' ] ] ] ] ] ] ] ] S.D.J.L.L.I.I.I.I.P.J.J.D.S.S.S.D.J.J.S.S.S.] S.{ ] ] n <   = r J L ",
"F L O.&.Y.}.{.:.! 7   . # 1 4 q n q n n n B n 9 + . X 1 b n m C C C C C m A S T ' { ] { { { { ' ' S S S T T ' ] ' ' ' S ' ' T S m 9 % . # r V K ",
"R } &.|.kXvXcXOX,.u       . + # & # & # & < < + .     X + # < < < < < < < < 3 9 9 9 0 w 0 0 9 3 < < < < < 9 4 9 0 9 9 3 3 3 3 < < + .   @ 0 G J ",
"} #.Y.jXVXSXDXNX.Xa +   . o @ + o - + + + X .         X @ @ + o o o o o X X . o @ + @ + + = # = % = o % + + X X . . . . X X X X o     . = r C G ",
"[ #.T.bXAXGXGXAX@XX.r 7 e a p a a a a a u 7 7 = = = e e a i u 7 e e e 7 = = = 7 u u u i i i p a a a a a i e 7 + O O + + O @ # = # # # # 1 0 N D ",
"#.#.T.xXAXGXFXAXzX<...X.,.5.@X6.6.6.XX5.,...H t r H ..,.3.3.1.,.,.*.*.! W G W X.*.,.1.1.3.3.5.5.5.5.@X6.3.,.Q r 1 1 1 2 5 5 r r r r r r q G N D ",
"| #.T.cXZXFXFXZXxX}.;.{.hXNXVXAXVXVXAXMXOX2.o.I I ..>.lXMXMXkXXXoXoX.X<.~ ! *.{.#X#XmXmXMXBXCXCXCXCXCXZXBXoX*.J M M H J J ! ! ~ o...! P H G D D ",
"E U.T.cXVXFXDXDXvX}.:.}.bXFXHXGXFXGXSXAXkX2.+.o.%.:.XXvXBXBXmXkX#X#X#X{.~ ~ ~ }.#XBXVXZXDXFXDXFXFXFXHXHXFXcXU.! I o.*.-.:.:.{.{.}.{.<.;.@.o.F D ",
"] U.U.+XVXDXFXZXvX}.;.}.bXDXHXGXGXSXSXNXOX-.I ..=..XOXzXMXmXcX#X#X#XoX{.-.~ -..X#XBXZXSXDXFXFXFXFXGXGXHXSXcX<.O.@.2.XXOX#XcXcXvXcXcXkXoX2.@.L F ",
"E #.U. XmXVXZXVXkXY.&.Y.jXVXAXAXAXVXMXlX3.+.H ..,.XX@XkX#X#XoXoXoXoXoX{.~ ~ *..X#XmXBXCXZXZXZXCXZXCXZXZXVX+X;.o.&..XzXMXNXNXVXVXNXNXMXzX|.%.} F ",
"R } $.{.oX+X#X+X}.%.O.%.}.+XkXkXhXOXXX.X=.P G ! *.{..X.X{.{.{.<.}.{.{.*.! H ! =..XoXoX#X#X#X#X#XOXOXOXOXXX2.+.I +.>.oXOXkXlXkXkXkXkXOXoX2.@.R F ",
"F K } @.;.;.;.;.+.o.J o.+.-.:.:.;.;.-.%.o.H M H ! *.~ ~ ~ +.~ ~ ~ ~ ~ ! G h M ! ~ *.=.-.-.-.=.*.=.*.*.*.+.! J G P +.-.;.-.;.;.;.:.:.;.-.O.} R F ",
"m V F R } | E E J V N D P L E I o.o.K P D M 0 M J K K K J J P P J K J N 5 5 5 G P P P P P H H H H G G G G q q M M J L I P P P o.I I L L F F F F ",
"m m V F K F J V V M b M N V V D V D D V M b b M N V V V N N N N N V V M , 1 1 h g G G N M M M M b M q 4 4 4 4 q b N D G N N N D D J D D F F R F "
};
