/* XPM */
static char *Y29sbGVjdGlibGU_[] = {
/* columns rows colors chars-per-pixel */
"72 72 227 2 ",
"   c #010100",
".  c #0B0400",
"X  c #0E0B00",
"o  c #130100",
"O  c #1B0100",
"+  c #130D00",
"@  c #190D00",
"#  c #151200",
"$  c #1B1400",
"%  c #1C1900",
"&  c #161800",
"*  c #0C1400",
"=  c #2B0000",
"-  c #250800",
";  c #340100",
":  c #3B0100",
">  c #370C00",
",  c #221600",
"<  c #251900",
"1  c #2C1D00",
"2  c #2D1700",
"3  c #3A1800",
"4  c #2C2200",
"5  c #2C2B00",
"6  c #332300",
"7  c #332D00",
"8  c #3C2900",
"9  c #3C2500",
"0  c #343100",
"q  c #3E3800",
"w  c #440300",
"e  c #4A0000",
"r  c #470B00",
"t  c #540000",
"y  c #5C0100",
"u  c #5D0A00",
"i  c #481600",
"p  c #551600",
"a  c #650200",
"s  c #6B0100",
"d  c #660A00",
"f  c #750200",
"g  c #7C0200",
"h  c #780900",
"j  c #691900",
"k  c #781B00",
"l  c #442C00",
"z  c #492800",
"x  c #542800",
"c  c #4C3300",
"v  c #453C00",
"b  c #4B3C00",
"n  c #433100",
"m  c #523400",
"M  c #5C3B00",
"N  c #563800",
"B  c #692800",
"V  c #7A2700",
"C  c #633800",
"Z  c #783400",
"A  c #4C4400",
"S  c #4D4A00",
"D  c #464100",
"F  c #514500",
"G  c #524C00",
"H  c #5B4700",
"J  c #555100",
"K  c #634200",
"L  c #694800",
"P  c #734400",
"I  c #784A00",
"U  c #665800",
"Y  c #7A5500",
"T  c #6D6300",
"R  c #746800",
"E  c #7F7600",
"W  c #830100",
"Q  c #8C0100",
"!  c #8C0A00",
"~  c #820900",
"^  c #940100",
"/  c #9C0000",
"(  c #990A00",
")  c #8A1600",
"_  c #981700",
"`  c #A40000",
"'  c #AC0000",
"]  c #AD0B00",
"[  c #A50A00",
"{  c #B30100",
"}  c #BB0100",
"|  c #B40C00",
" . c #BC0D00",
".. c #A61600",
"X. c #B51600",
"o. c #862500",
"O. c #9A2900",
"+. c #883600",
"@. c #973800",
"#. c #AA2700",
"$. c #A93800",
"%. c #B93000",
"&. c #C30200",
"*. c #CA0500",
"=. c #C40D00",
"-. c #CD0B00",
";. c #D40C00",
":. c #D30500",
">. c #CC1400",
",. c #C81800",
"<. c #D41400",
"1. c #D91500",
"2. c #D51A00",
"3. c #DC1C00",
"4. c #E21C00",
"5. c #DC2300",
"6. c #D82800",
"7. c #C63900",
"8. c #D63600",
"9. c #C32A00",
"0. c #E32400",
"q. c #E82500",
"w. c #E52B00",
"e. c #EB2C00",
"r. c #E63200",
"t. c #EB3A00",
"y. c #E83700",
"u. c #F43B00",
"i. c #F12B00",
"p. c #844600",
"a. c #964900",
"s. c #845200",
"d. c #8C5600",
"f. c #895B00",
"g. c #935C00",
"h. c #A94800",
"j. c #BB4600",
"k. c #A65900",
"l. c #B65900",
"z. c #886500",
"x. c #9C6900",
"c. c #956300",
"v. c #897900",
"b. c #9D7800",
"n. c #A76900",
"m. c #A67700",
"M. c #B67700",
"N. c #B56B00",
"B. c #CC4B00",
"V. c #C54800",
"C. c #D24D00",
"Z. c #DA4D00",
"A. c #D34500",
"S. c #CB5400",
"D. c #D85400",
"F. c #E74800",
"G. c #FB4B00",
"H. c #F74600",
"J. c #EB5C00",
"K. c #E65400",
"L. c #FD5700",
"P. c #C46600",
"I. c #C47900",
"U. c #D86C00",
"Y. c #EB6800",
"T. c #F36400",
"R. c #FE6400",
"E. c #FE6C00",
"W. c #F46C00",
"Q. c #E47800",
"!. c #FF7300",
"~. c #FF7B00",
"^. c #9E8C00",
"/. c #9D8300",
"(. c #9F9200",
"). c #AA8400",
"_. c #A38C00",
"`. c #AA8A00",
"'. c #A58300",
"]. c #A29300",
"[. c #AA9300",
"{. c #AB9C00",
"}. c #A49800",
"|. c #B19D00",
" X c #B78500",
".X c #ADA200",
"XX c #B3A200",
"oX c #B9A500",
"OX c #C88700",
"+X c #DA8800",
"@X c #D89600",
"#X c #C29D00",
"$X c #E68800",
"%X c #FB8600",
"&X c #E59A00",
"*X c #EC9D00",
"=X c #E79600",
"-X c #F99700",
";X c #CFB900",
":X c #D1AF00",
">X c #EDA300",
",X c #E8AA00",
"<X c #F2A200",
"1X c #FDA400",
"2X c #FEAA00",
"3X c #EEB200",
"4X c #E8BA00",
"5X c #FFB300",
"6X c #F3BB00",
"7X c #FBBD00",
"8X c #F3B400",
"9X c #EDC300",
"0X c #E3CB00",
"qX c #EDCB00",
"wX c #E4C300",
"eX c #F2C300",
"rX c #F3CD00",
"tX c #FDC800",
"yX c #ECD300",
"uX c #F4D400",
"iX c #FCD400",
"pX c #F4DA00",
"aX c #FDDB00",
"sX c #FEE300",
"dX c #FFEC00",
"fX c #FFF200",
"gX c None",
/* pixels */
"gXgXgXgXgXgXgXgXgXgXgXgXgXgXgXgXgXgXgXgXgXgXgXgXgXgXgXgXgXgXgXgXgXgXgXgXgXgXgXgXgXgXgXgXgXgXgXgXgXgXgXgXgXgXgXgXgXgXgXgXgXgXgXgXgXgXgXgXgXgXgXgX",
"gXgXgXgXgXgXgXgXgXgXgXgXgXgXgXgXgXgXgXgXgXgXgXgXgXgXgXgXgXgXgXgXgXgXgXgXgXgXgXgXgXgXgXgXgXgXgXgXgXgXgXgXgXgXgXgXgXgXgXgXgXgXgXgXgXgXgXgXgXgXgXgX",
"gXgXgXgXgXgXgXgXgXgXgXgXgXgXgXgXgXgXgXgXgXgXgXgXgXgXgXgXgXgXgXgXgXgXgXgXgXgXgXgXgXgXgXgXgXgXgXgXgXgXgXgXgXgXgXgXgXgXgXgXgXgXgXgXgXgXgXgXgXgXgXgX",
"gXgXgXgXgXgXgXgXgXgXgXgXgXgXgXgXgXgXgXgXgXgXgXgXgXgXgXgXgXgXgXgXgXgXgXgXgXgXgXgXgXgXgXgXgXgXgXgXgXgXgXgXgXgXgXgXgXgXgXgXgXgXgXgXgXgXgXgXgXgXgXgX",
"gXgXgXgXgXgXgXgXgXgXgXgXgXgXgXgXgXgXgXgXgXgXgXgXgXgXgXgXgXgXgXgXgXgXgXgXgXgXgXgXgXgXgXgXgXgXgXgXgXgXgXgXgXgXgXgXgXgXgXgXgXgXgXgXgXgXgXgXgXgXgXgX",
"gXgXgXgXgXgXgXgXgXgXgXgXgXgXgXgXgXgXgXgXgXgXgXgXgXgXgXgXgXgXgXgXgXgXgXgXgXgXgXgXgXgXgXgXgXgXgXgXgXgXgXgXgXgXgXgXgXgXgXgXgXgXgXgXgXgXgXgXgXgXgXgX",
"gXgXgXgXgXgXgXgXgXgXgXgXgXgXgXgXgXgXgXgXgXgXgXgXgXgXgXgXgXgXgXgXgXgXgXgXgXgXgXgXgXgXgXgXgXgXgXgXgXgXgXgXgXgXgXgXgXgXgXgXgXgXgXgXgXgXgXgXgXgXgXgX",
"gXgXgXgXgXgXgXgXgXgXgXgXgXgXgXgXgXgXgXgXgXgXgXgXgXgXgXgXgXgXgXgXgXgXgXgXgXgXgXgXgXgXgXgXgXgXgXgXgXgXgXgXgXgXgXgXgXgXgXgXgXgXgXgXgXgXgXgXgXgXgXgX",
"gXgXgXgXgXgXgXgXgXgXgXgXgXgXgXgXgXgXgXgXgXgXgXgXgXgXgXgXgXgXgXgXgXgXgXgXgXgXgXgXgXgXgXgXgXgXgXgXgXgXgXgXgXgXgXgXgXgXgXgXgXgXgXgXgXgXgXgXgXgXgXgX",
"gXgXgXgXgXgXgXgXgXgXgXgXgX                                                                                            gXgXgXgXgXgXgXgXgXgXgXgXgX",
"gXgXgXgXgXgXgXgXgXgXgXgX+ X X + + X       X X X X X . o X . o X X . . . X + X X X + . . . . . . . . X o . . . . . X X + gXgXgXgXgXgXgXgXgXgXgXgX",
"gXgXgXgXgXgXgXgXgXgXgX5 v A F G D 7 & X & 7 b N x x x i x x i i r w w i c S J G A z 3 ; ; ; : w w r r r r w w : i n A v 7 gXgXgXgXgXgXgXgXgXgXgX",
"gXgXgXgXgXgXgXgXgXgXX v E _.{.|.^.U 7 # 5 T /.M.k.h.h.h.k.h.$.#._ ! ) @.x.`..X.X`.c.o.h s f f h ) _ _ _ _ ! ~ ~ +.x.^.E D X gXgXgXgXgXgXgXgXgXgX",
"gXgXgXgXgXgXgXgXgX  + A _.wXaXaXwX^.b % v ^.4X2X%XT.T.Y.Y.T.F.F.5.>.,.B.$X4XuXpXqX@XV.X.` ` '  .,.5.6.6.5.>.}  .B.&X4X].S #   gXgXgXgXgXgXgXgXgX",
"gXgXgXgXgXgXgXgXgX  X D [.iXfXfXiX[.v % D {.iX7X-XE.E.!.~.!.R.G.u.q.0.t.Y.*XtXaXsXeX$XC.9.| { &.2.0.r.e.q.4.;.<.J.2XpX.XS X   gXgXgXgXgXgXgXgXgX",
"gXgXgXgXgXgXgXgXgX  . b [.uXdXdXrX`.v $ A [.iXtX%XE.R.!.~.!.E.L.G.e.w.6.8.K.$X7XsXaX7X=XU.%.{ } <.0.q.q.0.3.1.5.T.5XpX.XS .   gXgXgXgXgXgXgXgXgX",
"gXgXgXgXgXgXgXgXgX  % H `.6XiXiX6X).F 4 A _.4X5X%XE.E.!.~.!.E.R.G.H.r.3.<.,.Z.$XtXsXsXrX@XV.X.} >.2.5.5.5.3.3.w.J.<XeX[.J % . gXgXgXgXgXgXgXgXgX",
"gXgXgXgXgXgXgXgX4 q H z.I.=X-X1X-XI.f.H U v.[.OX$X%X~.~.~.!.E.R.J.H.y.0.;.<.6.U.*XeXaXsXeX$XS.7.6.2.1.3.3.4.3.5.F.Q.@X Xz.J q 5 gXgXgXgXgXgXgXgX",
"gXgXgXgXgXgXgXX v E `.OXU.Y.T.T.W.Q.OX'.v.U U z.OX*X-X%X!.E.R.R.L.H.u.w.4.1.2.8.C.$X6XsXsXtX*XQ.8.<.;.1.3.3.3.5.6.8.V.P. X`.E D X gXgXgXgXgXgXgX",
"gXgXgXgXgXgX  + A _.4X<XY.t.r.u.G.!.-X,Xm.A 1 b M.8X2X%XE.R.R.L.G.G.u.r.5.<. .| X.j.@XqXpXpXwX+XV. .&.-.2.1.3.1.>.=.X.S.&XwX}.S X   gXgXgXgXgXgX",
"gXgXgXgXgXgX  X F |.eX2XT.w.q.i.H.E.1X8X`.v @ v '.6X2X%XR.L.L.G.G.u.u.6.X._ W g f V c._..X.X].x.+.Q / { -.;.;.-.&.{ { B.<XrX.XG X   gXgXgXgXgXgX",
"gXgXgXgXgXgX  X G [.eX2XT.w.q.i.H.!.1X8X).v @ v '.6X5X%XL.G.H.H.H.u.e.%.k e : ; ; > l b S S A n 3 w a / } *.*.&.} { { B.>XuX.XG X   gXgXgXgXgXgX",
"gXgXgXgXgXgX  X F [.eX1XT.y.q.e.H.E.1X8X).b % b `.6X5X%XR.L.G.G.G.G.y.#.p o . + @ $ $ % % % % X X o w !  .-.-.=.=.} X.D.>XqX.XG X   gXgXgXgXgXgX",
"gXgXgXgXgXgX  X G {.eX2XT.e.q.i.H.E.1X8X).b % D [.rXtX1X%X%X~.~.!.~.Y.a.z X * 5 D S G A G A D 5 X X i +.B.K.Z.Z.C.B.D.$XtXuX{.G X   gXgXgXgXgXgX",
"gXgXgXgXgXgX  X G {.tX1XT.w.q.e.H.E.1X6X`.b % A [.iXsXiX7X5X5X5X5X5X<Xm.c # 5 T (..X.X{.XX{.^.T 5 # n x.&X1X1X<X*X*X<XeXaXpX|.G X   gXgXgXgXgXgX",
"gXgXgXgXgXgX  X A _.4X*XD.6.2.5.y.Y.-X,X'.v % v _.0XaXuXuXrXrXqXrXuX4X/.v % v (.0XpXyX0XyXpX0X^.D % v ^.4XuXuXqXrXrXqXpXaX0X_.A X   gXgXgXgXgXgX",
"gXgXgXgXgXgX  X 0 T b.n.@._ ( _ O.h.n.m.U 6 # 7 T ].{..X.X{.{.{.XXXX].T 5 % S |.pXpX;XoX;XpXpXXXS & 0 T }..X.X.X.X.X.X.X{.].T 0 X   gXgXgXgXgXgX",
"gXgXgXgXgXgX  . % 0 v c i r r r i x c v 7 # X & 0 A G G S G S G G G S 5 # # G XX0X;X/.U v.;XyXXXG + * 5 S J J G G G J S G D 7 % .   gXgXgXgXgXgX",
"gXgXgXgXgXgX    . X @ + o o o . o o + + X .   . X + # # + + + + + + +     X G XX0XoXU 0 U oX0XXXJ +   . + + + + + + @ @ $ # + .     gXgXgXgXgXgX",
"gXgXgXgXgXgX    . @ , - - o o .   . o + X       . X o O o o o o o o o .   X J oXyX;Xv.U v.;XyXoXJ +   . o o . o o o o O - < $ X     gXgXgXgXgXgX",
"gXgXgXgXgXgX    $ 9 x x i : = O o @ 2 3 < + . . $ 2 > : : : : : ; ; ; O . + J XXpXpX;XoX;XpXpXXXG X . O ; ; ; = = ; : i x M l ,     gXgXgXgXgXgX",
"gXgXgXgXgXgX  X 2 M p.+.k a t w ; i N C l , . $ 9 x x p t y t t t t w = . + A ].0XpXyX0XyXpX0X].A + o ; t t e t t t a V d.c.L 6 X   gXgXgXgXgXgX",
"gXgXgXgXgXgX  . 9 P n.h.O.Q g s a Z d.c.L 5 X 2 M s.+.B y y y y y e w = . X 7 T ].XXXXXXXXXX].T 0 X O : y s s s s f h @.N. Xz.n X   gXgXgXgXgXgX",
"gXgXgXgXgXgX  . l d.I.S.7.| ` ` _ $.OX#Xv.q # 8 s.M.n.o.u t y y t e ; - . . % 0 A G J G J G D 7 & . - w a f g W W W ! h.OX:X/.A X   gXgXgXgXgXgX",
"gXgXgXgXgXgX  X c x.+XQ.8.>.*.&.>.Z.*XwX{.S % c m.@XI.+.u t y y y e : = o . . X + + + + @ # # + . . - w s W Q ^ ^ ^ ( j.&X9X{.S X   gXgXgXgXgXgX",
"gXgXgXgXgXgX  X c m.&X~.F.2.:.:.2.J.2XyX.XS % b `.,X+Xa.h a s s a y e w = O .       . X o @ @ + . o = e a g Q / / ` [ S.,XqX.XG X   gXgXgXgXgXgX",
"gXgXgXgXgXgX  X A '.3X-XK.5.;.:.2.J.2XqX.XS % A [.4X&Xj.! ~ g W W h h d e ; = o o o - 2 3 8 z 3 > = ; w y f Q ` ` ` [ S.>XqX.XS X   gXgXgXgXgXgX",
"gXgXgXgXgXgX  X F `.6X-XT.6.1.;.3.J.<XqX{.S & A {.9X,XV.[ / ^ ^ ^ ( ! h s t w : ; 3 z M L I I C i : w t y g ^ ` ` ` ] B.>XqX.XG X   gXgXgXgXgXgX",
"gXgXgXgXgXgX  X F [.9X1XT.r.3.1.5.Y.2XqX{.D % A {.qX>XS.| ' ' ' ] X.X...! g s a a B I z.b.'.m.d.V s a s f Q / ` ' ' ] S.>XqX{.G X   gXgXgXgXgXgX",
"gXgXgXgXgXgX  + A [.eX2XW.t.4.0.6.T.2XqX{.D % S .XqX<XC. .{ } } =.>.,.,.X...( / ..$.M.:X;X;X:XI.h.! Q Q ^ / ` ' ' ' | B.>XqX.XG X   gXgXgXgXgXgX",
"gXgXgXgXgXgX  X F [.9X2X!.t.q.0.r.T.2X9X[.A % S {.qX>XZ.=.&.&.-.<.5.5.5.2.,.=.=.,.C.=XrXdXdXyX@XV.] ` ' ' ' ' { ' ' | B.>XqX{.G X   gXgXgXgXgXgX",
"gXgXgXgXgXgX  X S [.eX2XW.t.q.q.t.W.2X6X[.D % S {.qX<XZ.=.&.-.;.3.0.w.w.6.2.<.-.<.K.<XaXfXfXaX*XB. .{ { { { { { { { X.C.>XqX.XG X   gXgXgXgXgXgX",
"gXgXgXgXgXgX  X F {.rX2XW.t.w.q.t.T.1X6X`.b % A {.qX<XZ.=.*.-.1.0.w.w.r.w.5.1.;.2.K.<XaXfXfXaX*XB. .{ { { { { { ' '  .C.>XqX.XS X   gXgXgXgXgXgX",
"gXgXgXgXgXgX  X S {.9X2XT.r.0.0.t.W.-X8X'.v % S {.rX*XZ.=.&.-.1.5.e.e.r.w.0.1.;.<.Z.*XiXfXfXiX&XB.| ' { { { ' { { ' | C.>XqX{.G X   gXgXgXgXgXgX",
"gXgXgXgXgXgX  X G [.6X<XJ.w.3.4.r.J.-X3X'.b % A ].6X*XA. .&.*.<.3.0.w.r.e.0.2.-.>.Z.*XaXfXfXiX&XV.X.' ' ' { ' ' ' ' | B.*X9X[.G X   gXgXgXgXgXgX",
"gXgXgXgXgXgX  X F `.6X-XK.5.;.1.0.L.-X3X).b % b '.3X$XA.| { &.-.<.5.5.w.w.5.<.*.=.C.&XaXfXfXaX&XV.] ` ' ` ' ' ' ' ' ] B.=X6X[.F X   gXgXgXgXgXgX",
"gXgXgXgXgXgX  X F `.,X-XK.2.*.-.2.K.-X,X`.b % n b.&XQ.7.] ' } &.;.2.3.5.5.3.>.&. .B.*XiXfXfXiX@XV.] ` ` ` ' ' ` ` ` ' V.$X,X`.F X   gXgXgXgXgXgX",
"gXgXgXgXgXgX  X F ).>X%XZ.,.} } ,.Z.-X3X`.b % l c.@XU.%.[ ' { &.*.;.<.2.<.>.=.}  .B.&XaXfXfXiX&XV.| ` ' ' ' ` ` ` / [ V.$X,Xm.N X   gXgXgXgXgXgX",
"gXgXgXgXgXgX  X b M.>X%X8.X.' ' X.B.$X3X`.A $ 8 z.I.P.#./ / { } &.*.-.-.=.=.} { | B.&XiXfXfXiX&XV.| ' ' ' ' ` ` / / [ %.Q.@Xb.v X   gXgXgXgXgXgX",
"gXgXgXgXgXgX  X v m.@XQ.7.] / / [ j.$X3X`.b $ 6 Y M.l.O.! ^ ' } &.&.} } { { { ' | V.&XiXfXfXiX=XB.X.' ' ' ' ` ^ ^ ^ ^ %.P.OXc.n X   gXgXgXgXgXgX",
"gXgXgXgXgXgX  X l f.M.P.$./ Q W ! $.+X&X'.b $ 6 Y n.k.+.~ Q / ' { { } } { { ' ` ] V.=XiXdXsXiX=XB.] ` / / ^ Q Q Q W ~ O.l.M.f.8 X   gXgXgXgXgXgX",
"gXgXgXgXgXgX  . 4 L g.a.) W g f f @.I.@Xb.c @ 4 L n.h.o.g g Q ^ ` { { { { { ` ` [ 7.$XtXaXsXtX=X7.[ ^ Q W W g g f a s V a.c.L 7 .   gXgXgXgXgXgX",
"gXgXgXgXgXgX  . , z K Z k f s a d +.N.OXz.n @ 4 L c.a.o.h f h Q ^ [ ] { { { ' ` ..V.+X8XtXiX8X+Xj.( Q g h h f h s y y B p.s.K 1 .   gXgXgXgXgXgX",
"gXgXgXgXgXgX    $ 9 N B B j j d j +.n.N.s.9 + 1 H f.d.+.k k k ) ) _ #...#.#.#.#.$.l.+X>X6X,X@XI.h.O._ ) o.o.o.k k j B Z I s.M 1 .   gXgXgXgXgXgX",
"gXgXgXgXgXgX  . @ 3 z x B B B B B I d.g.L 4 X , m P p.Z Z Z Z +.+.+.+.@.h.h.l.l.l.I.OX@X@X XM.n.k.a.a.a.a.a.p.p.p.I I p.s.I N 2 .   gXgXgXgXgXgX",
"gXgXgXgXgXgX    @ 1 z c M M C C C K I P m , . $ l C L P I P P P P P P s.d.g.n.n.N.M.M.M.m.x.c.f.s.d.d.g.g.g.d.d.s.s.s.s.I P c < .   gXgXgXgXgXgX",
"gXgXgXgXgXgX    X @ 2 6 9 l l l l l m z 6 @ . + < l c c c m b c c c b M K L Y Y Y Y s.Y L K M M M K K L L L K H M C M M N c 6 @ .   gXgXgXgXgXgX",
"gXgXgXgXgXgX    . X @ @ $ , , , % , , , $ .   . + $ , , < < 2 , < < < < 4 6 6 8 8 8 8 8 6 1 1 < 1 4 4 4 9 6 1 4 1 4 4 1 1 , @ X     gXgXgXgXgXgX",
"gXgXgXgXgXgX        .     . .   .   . . .       . . .   . . . . . . . . . . X . . X . X X . . . . . . . . . . . . . . . . .         gXgXgXgXgXgX",
"gXgXgXgXgXgXgX                                                                                                                    gXgXgXgXgXgXgX",
"gXgXgXgXgXgXgXgXgXgXgXgXgXgXgXgXgXgXgXgXgXgXgXgXgXgXgXgXgXgXgXgXgXgXgXgXgXgXgXgXgXgXgXgXgXgXgXgXgXgXgXgXgXgXgXgXgXgXgXgXgXgXgXgXgXgXgXgXgXgXgXgX",
"gXgXgXgXgXgXgXgXgXgXgXgXgXgXgXgXgXgXgXgXgXgXgXgXgXgXgXgXgXgXgXgXgXgXgXgXgXgXgXgXgXgXgXgXgXgXgXgXgXgXgXgXgXgXgXgXgXgXgXgXgXgXgXgXgXgXgXgXgXgXgXgX",
"gXgXgXgXgXgXgXgXgXgXgXgXgXgXgXgXgXgXgXgXgXgXgXgXgXgXgXgXgXgXgXgXgXgXgXgXgXgXgXgXgXgXgXgXgXgXgXgXgXgXgXgXgXgXgXgXgXgXgXgXgXgXgXgXgXgXgXgXgXgXgXgX",
"gXgXgXgXgXgXgXgXgXgXgXgXgXgXgXgXgXgXgXgXgXgXgXgXgXgXgXgXgXgXgXgXgXgXgXgXgXgXgXgXgXgXgXgXgXgXgXgXgXgXgXgXgXgXgXgXgXgXgXgXgXgXgXgXgXgXgXgXgXgXgXgX",
"gXgXgXgXgXgXgXgXgXgXgXgXgXgXgXgXgXgXgXgXgXgXgXgXgXgXgXgXgXgXgXgXgXgXgXgXgXgXgXgXgXgXgXgXgXgXgXgXgXgXgXgXgXgXgXgXgXgXgXgXgXgXgXgXgXgXgXgXgXgXgXgX",
"gXgXgXgXgXgXgXgXgXgXgXgXgXgXgXgXgXgXgXgXgXgXgXgXgXgXgXgXgXgXgXgXgXgXgXgXgXgXgXgXgXgXgXgXgXgXgXgXgXgXgXgXgXgXgXgXgXgXgXgXgXgXgXgXgXgXgXgXgXgXgXgX",
"gXgXgXgXgXgXgXgXgXgXgXgXgXgXgXgXgXgXgXgXgXgXgXgXgXgXgXgXgXgXgXgXgXgXgXgXgXgXgXgXgXgXgXgXgXgXgXgXgXgXgXgXgXgXgXgXgXgXgXgXgXgXgXgXgXgXgXgXgXgXgXgX",
"gXgXgXgXgXgXgXgXgXgXgXgXgXgXgXgXgXgXgXgXgXgXgXgXgXgXgXgXgXgXgXgXgXgXgXgXgXgXgXgXgXgXgXgXgXgXgXgXgXgXgXgXgXgXgXgXgXgXgXgXgXgXgXgXgXgXgXgXgXgXgXgX",
"gXgXgXgXgXgXgXgXgXgXgXgXgXgXgXgXgXgXgXgXgXgXgXgXgXgXgXgXgXgXgXgXgXgXgXgXgXgXgXgXgXgXgXgXgXgXgXgXgXgXgXgXgXgXgXgXgXgXgXgXgXgXgXgXgXgXgXgXgXgXgXgX",
"gXgXgXgXgXgXgXgXgXgXgXgXgXgXgXgXgXgXgXgXgXgXgXgXgXgXgXgXgXgXgXgXgXgXgXgXgXgXgXgXgXgXgXgXgXgXgXgXgXgXgXgXgXgXgXgXgXgXgXgXgXgXgXgXgXgXgXgXgXgXgXgX",
"gXgXgXgXgXgXgXgXgXgXgXgXgXgXgXgXgXgXgXgXgXgXgXgXgXgXgXgXgXgXgXgXgXgXgXgXgXgXgXgXgXgXgXgXgXgXgXgXgXgXgXgXgXgXgXgXgXgXgXgXgXgXgXgXgXgXgXgXgXgXgXgX",
"gXgXgXgXgXgXgXgXgXgXgXgXgXgXgXgXgXgXgXgXgXgXgXgXgXgXgXgXgXgXgXgXgXgXgXgXgXgXgXgXgXgXgXgXgXgXgXgXgXgXgXgXgXgXgXgXgXgXgXgXgXgXgXgXgXgXgXgXgXgXgXgX"
};
