/* XPM */
static char *_628f866f7424ef4bd54c431f493eb28QMa9MNE703GFYyxy[] = {
/* columns rows colors chars-per-pixel */
"24 24 160 2 ",
"   c black",
".  c #0E0803",
"X  c #100903",
"o  c #110A03",
"O  c #120B04",
"+  c #140C04",
"@  c #160D04",
"#  c #170E05",
"$  c #180F05",
"%  c #1B1005",
"&  c #1C1106",
"*  c #1E1206",
"=  c #29180A",
"-  c #36210D",
";  c #34210F",
":  c #3E260F",
">  c #3B2412",
",  c #3C2412",
"<  c #3E2914",
"1  c #3B2C16",
"2  c #3C2E17",
"3  c #432910",
"4  c #462C13",
"5  c #412916",
"6  c #452B14",
"7  c #442E17",
"8  c #432F1A",
"9  c #493017",
"0  c #493714",
"q  c #423219",
"w  c #45311C",
"e  c #4B3319",
"r  c #49301A",
"t  c #4B321D",
"y  c #4D311C",
"u  c #573615",
"i  c #523D17",
"p  c #503C1D",
"a  c #5C3E1F",
"s  c #433621",
"d  c #443722",
"f  c #483523",
"g  c #4E3922",
"h  c #4F3A29",
"j  c #493A2D",
"k  c #523A21",
"l  c #523B22",
"z  c #553C24",
"x  c #5D3F21",
"c  c #593F24",
"v  c #59451F",
"b  c #624515",
"n  c #664C1C",
"m  c #6B501E",
"M  c #74511A",
"N  c #5A4026",
"B  c #5D4328",
"V  c #5E452B",
"C  c #574634",
"Z  c #5A4331",
"A  c #5E4531",
"S  c #624B20",
"D  c #634C21",
"F  c #634C22",
"G  c #644D21",
"H  c #644E23",
"J  c #624529",
"K  c #675024",
"L  c #6D5424",
"P  c #6F5727",
"I  c #705727",
"U  c #72562B",
"Y  c #785D28",
"T  c #7A5D28",
"R  c #654D38",
"E  c #64523E",
"W  c #6B523B",
"Q  c #6A523C",
"!  c #6D543F",
"~  c #7C602B",
"^  c #7F622A",
"/  c #79623C",
"(  c #645340",
")  c #6F5740",
"_  c #6B5843",
"`  c #6D5843",
"'  c #735A43",
"]  c #715D46",
"[  c #715D48",
"{  c #79634B",
"}  c #79644B",
"|  c #846224",
" . c #8C6827",
".. c #81632A",
"X. c #82642D",
"o. c #83662E",
"O. c #86682D",
"+. c #996F26",
"@. c #9C742B",
"#. c #8A6B30",
"$. c #916F30",
"%. c #926F38",
"&. c #957231",
"*. c #957331",
"=. c #977332",
"-. c #967137",
";. c #9A7633",
":. c #9B7733",
">. c #987534",
",. c #9A7736",
"<. c #9C7833",
"1. c #9A7836",
"2. c #9C7834",
"3. c #9F7B35",
"4. c #A97B29",
"5. c #A67F37",
"6. c #836B42",
"7. c #876E44",
"8. c #8E7448",
"9. c #977A49",
"0. c #95794A",
"q. c #9B7D4D",
"w. c #9B7E4C",
"e. c #9A7E4E",
"r. c #836B52",
"t. c #846B52",
"y. c #846C53",
"u. c #846D54",
"i. c #856F56",
"p. c #867057",
"a. c #88715A",
"s. c #AF812F",
"d. c #A68038",
"f. c #AB843C",
"g. c #AC853C",
"h. c #B3893B",
"j. c #B68C3C",
"k. c #B88D3C",
"l. c #BA8F3E",
"z. c #BC8E3C",
"x. c #BA903F",
"c. c #9F8250",
"v. c #BB9140",
"b. c #BC9142",
"n. c #AE8D55",
"m. c #B3915A",
"M. c #CD9D44",
"N. c #CE9E44",
"B. c #C09C5E",
"V. c #C09C5F",
"C. c #C19D5F",
"Z. c #CFA045",
"A. c #D0A044",
"S. c #D2A247",
"D. c #D3A349",
"F. c #D3A449",
"G. c #D4A44A",
"H. c #D1A351",
"J. c #C6A164",
"K. c #B19C87",
/* pixels */
"* * * * * * ; < < 7 5 = 4 4 7 9 - r r 9 : 9 u 3 ",
"* D.G.G.F.* r.p.u.p.' r W ! ! E < [ p.t.N t.{ x ",
"* N.Z.N.M.* * * * * * t Q ) p.g z i.a.i.V p.r.c ",
"* F.G.S.M.* m.g.m.K.* 5 Z Q t.q C Q a.i.V t.t.v ",
"* G.G.S.S.* d.*.l.C.$ b M A J 8 k y R ' 7 k c 4 ",
"* G.G.S.M.* g.1.N.n.$ X $ * $ * [ > 5 > w r.r.a ",
"* N.D.F.m.% g.:.v.e.X q I h.%.* i.8 h 5 _ i.r.x ",
"* S.Z.Z.J.= g.:.l.e.X s S 5.0.$ ( f ) k 8 z x 4 ",
"& F.F.F.V.& f.:.j.n.X d G 2.7.$ @ $ * * & { t.x ",
"* D.S.Z.V.& 5.&.h.e.X d D <./ @ j U ..u & i.i.x ",
"* D.M.F.J.& 5.&.k.q.X d v >.6.X p o.1.-.& [ { x ",
"* S.H.H.J.= 5.>.b.e.X 1 v 5.8.@ G O.2.b.* O . $ ",
"* *         d.:.x.e.O 1 S :.e.O G o.>.b.$ P X.& ",
"* k.        5.;.x.c.. 2 H :.e.O H T :.b.* U X.$ ",
"* 4.        d.&.k.e.. 2 P ;.0.O n o.:.j.$ T ^ $ ",
"* s.                  1 I &.0.X G o.:.l.* T ..$ ",
"* @.                  1 P $.:.X G 1.>.j.& T ^ $ ",
"* @.                  q N :.d.o G 1.:.j.& Y ^ @ ",
"* +.                            G >.*.j.@ #.o.# ",
"* @.                            G &.3.b.# #.o.# ",
"* @.                                      #.o.@ ",
"* @.                                      #.o.# ",
"* @.@.@.@.@.@.@.@.@. . .@.@.@.n 0 n  .| n n i   ",
"* * * * * * * * * * * * * * * * * * * * * = & & "
};
