/* XPM */
static char *eexit_resized[] = {
/* columns rows colors chars-per-pixel */
"72 72 251 2 ",
"   c #010100",
".  c #0A0402",
"X  c #060907",
"o  c #0D0A04",
"O  c #0D0B09",
"+  c #130201",
"@  c #1C0201",
"#  c #130B03",
"$  c #190E04",
"%  c #130C09",
"&  c #1A0C0A",
"*  c #0E1008",
"=  c #151104",
"-  c #1D1206",
";  c #14110C",
":  c #1C140A",
">  c #1C190B",
",  c #191612",
"<  c #240000",
"1  c #2D0000",
"2  c #260A03",
"3  c #330000",
"4  c #3C0000",
"5  c #390C00",
"6  c #221407",
"7  c #291907",
"8  c #241709",
"9  c #241909",
"0  c #2A1C0B",
"q  c #361C0A",
"w  c #261C13",
"e  c #2C220D",
"r  c #2A240D",
"t  c #33240D",
"y  c #3A250C",
"u  c #36280F",
"i  c #3B290E",
"p  c #2D2212",
"a  c #272418",
"s  c #332512",
"d  c #3B2612",
"f  c #362A12",
"g  c #3A2A12",
"h  c #32261A",
"j  c #3C2D1D",
"k  c #3D3219",
"l  c #322D26",
"z  c #34312B",
"x  c #3A342A",
"c  c #430000",
"v  c #4B0101",
"b  c #470B05",
"n  c #530000",
"m  c #5B0000",
"M  c #570A04",
"N  c #49180A",
"B  c #650000",
"V  c #6C0000",
"C  c #6C0B05",
"Z  c #740000",
"A  c #7B0000",
"S  c #720B02",
"D  c #64140B",
"F  c #43270C",
"G  c #533D00",
"H  c #432C13",
"J  c #492E15",
"K  c #432B18",
"L  c #443214",
"P  c #4A3314",
"I  c #45331A",
"U  c #4C341B",
"Y  c #4C3918",
"T  c #553615",
"R  c #543C1B",
"E  c #5A3C1D",
"W  c #703600",
"Q  c #623714",
"!  c #532821",
"~  c #493927",
"^  c #523B24",
"/  c #543E27",
"(  c #443B32",
")  c #483D32",
"_  c #662E26",
"`  c #3F4137",
"'  c #4D4309",
"]  c #57401B",
"[  c #5A431C",
"{  c #5E481E",
"}  c #6F4400",
"|  c #634A1C",
" . c #684C1C",
".. c #6D511E",
"X. c #72541F",
"o. c #5D4323",
"O. c #5D4821",
"+. c #55422C",
"@. c #5C432A",
"#. c #5A462A",
"$. c #494338",
"%. c #594937",
"&. c #59503F",
"*. c #624C21",
"=. c #654929",
"-. c #665225",
";. c #6D5324",
":. c #755721",
">. c #765A26",
",. c #7A5E29",
"<. c #644B32",
"1. c #664E35",
"2. c #675139",
"3. c #6B543C",
"4. c #755A3B",
"5. c #7E612C",
"6. c #7B6239",
"7. c #4D4D47",
"8. c #524D45",
"9. c #54524D",
"0. c #5C5A53",
"q. c #6B5845",
"w. c #735B42",
"e. c #775E45",
"r. c #675F53",
"t. c #79634A",
"y. c #7C654D",
"u. c #6E6253",
"i. c #7A6956",
"p. c #777064",
"a. c #840000",
"s. c #8C0000",
"d. c #810A02",
"f. c #930000",
"g. c #9C0000",
"h. c #821612",
"j. c #A40000",
"k. c #AC0000",
"l. c #A10A00",
"z. c #B40000",
"x. c #BC0000",
"c. c #B81504",
"v. c #8A2D0F",
"b. c #95290D",
"n. c #B73110",
"m. c #C40000",
"M. c #CC0000",
"N. c #CB0A00",
"B. c #D40000",
"V. c #DB0000",
"C. c #DA0A00",
"Z. c #C61407",
"A. c #E30000",
"S. c #EA0000",
"D. c #E30B00",
"F. c #D22F04",
"G. c #E13E19",
"H. c #A65400",
"J. c #83582E",
"K. c #846224",
"L. c #8D6827",
"P. c #83652C",
"I. c #8B6B2E",
"U. c #926E2C",
"Y. c #95702B",
"T. c #8D6D31",
"R. c #84653B",
"E. c #906F32",
"W. c #957232",
"Q. c #9A7634",
"!. c #9D7935",
"~. c #9A793B",
"^. c #A27D37",
"/. c #CE5100",
"(. c #EF4600",
"). c #D47600",
"_. c #8F7249",
"`. c #856150",
"'. c #836C53",
"]. c #867158",
"[. c #897359",
"{. c #AC694E",
"}. c #897965",
"|. c #917E69",
" X c #837D70",
".X c #DF6857",
"XX c #AE8A00",
"oX c #A68039",
"OX c #AB843A",
"+X c #B2893B",
"@X c #B38A3C",
"#X c #BD913F",
"$X c #F18A00",
"%X c #ECB300",
"&X c #F2CB00",
"*X c #F9CA00",
"=X c #FFE100",
"-X c #AF8A48",
";X c #95826D",
":X c #9C8368",
">X c #948976",
",X c #9C8A74",
"<X c #A68E72",
"1X c #A18C75",
"2X c #C39641",
"3X c #C69943",
"4X c #CB9D46",
"5X c #C39B55",
"6X c #D3A247",
"7X c #D4A449",
"8X c #D1A24C",
"9X c #D8A74A",
"0X c #DAA94B",
"qX c #E59C6C",
"wX c #8D8A81",
"eX c #AA9A84",
"rX c #AA9D8A",
"tX c #AEA08C",
"yX c #BDA68C",
"uX c #A9A69A",
"iX c #B6A793",
"pX c #B1ADA2",
"aX c #C4AB8F",
"sX c #C5AC91",
"dX c #CDB396",
"fX c #D0B79A",
"gX c #D6BB9D",
"hX c #E6A78B",
"jX c #CCBCA6",
"kX c #DBC4A9",
"lX c #D4C8B5",
"zX c #E4C7A7",
"xX c #EBCDAB",
"cX c #EDCEAE",
"vX c #EBD5B9",
"bX c #F3D5B2",
"nX c #F7DAB9",
"mX c #FCE0BD",
"MX c #DBD2C0",
"NX c #E8DCC7",
"BX c #F3DDC1",
"VX c #EEE1CB",
"CX c #FDE4C4",
"ZX c #F9E6CA",
"AX c #EEE7D6",
"SX c #F5EBD7",
"DX c #FBECD4",
"FX c #FBF0D9",
"GX c #FFF2DB",
"HX c #FDF9E6",
"JX c #FFFFF4",
/* pixels */
"- - $ $ # # # # # $ # # # $ $ $ 6 8 0 0 s d d d d g g K K K d g y 0 q q d J J J H J J H J J J H d y y K J J J U J J J F H y F H J J U U J J F F ",
"- 6 6 9 0 7 7 0 0 7 9 0 0 7 8 6 6 9 0 d d K K K K K I K I U J K d p 0 0 d K K K H K F K H K K H y d y K U U U U U U U J H H H K U R T T U J H H ",
"- 6 t H R [ ] ] R E ] [ [ R H e 8 0 K ~ / / / / +.@.@.@.@./ / ^ K 0 6 6 0 0 q 0 0 0 0 0 0 0 s s t d K U / / @.@.#.@.@.^ U P U ^ / =.=.@./ T J J ",
"$ 9 H ;.U.Q.Q.W.Q.W.W.Q.Q.U.;.H 9 h / 2.q.w.q.e.w.q.w.w.w.w.3.<.~ w O . + % & + % # & # & & & > 0 d ~ @.<.3.3.q.w.w.3.1.o.^ / 1.3.3.q.3.<.E ^ T ",
"# 7 R U.-X6X6X4X4X4X3X6X4X-XY.R p j %.e.y.y.y.y.y.y.y.y.y.t.e.2.~ w o     X X . o . . o . . X - 0 j ~ <.q.e.i.'.'.'.`.4.<.o.<.w.t.'.y.e.3.=.E E ",
"# 7 ] Q.6X0X0X9X9X9X9X9X0X6XQ.] 0 w ~ %.2.&.q.2.8.2.2.2.2.%.%.) x p 6 $ - - - - - = = = = - - - 8 p ~ 2.t.'.].].[.].'.e.1.<.1.e.'.'.'.y.e.<.o.o.",
"# 0 R W.4X0X9X6X6X6X6X9X9X3XQ.E 0 8 s l l K x K K l K x l l p w p y q F y y y y N y y y i i y q 2 : l 8.i.[.[.[.[.[.].e.2.=.2.e.'.].].'.e.=.o.Q ",
"$ 7 R W.3X6X6X6X4X6X6X6X6X2XY.] 7 6 8 0 0 p 0 0 p 0 s 0 0 8 % . 6 F Q Q Q Q Q Q Q Q Q Q Q Q T y & O p %.y.[.[.[.[.].].e.1.<.3.e.'.].].`.R.1.o./ ",
"# 0 R W.3X7X7X8X6X6X4X6X6X2XU.E 0 0 g ~ Y U I Y Y Y / / ( l ; . 1 D v.b.b.b.b.b.b.v.b.b.b.b.b.D 2 o , %.y.[.[.[.[.[.'.t.2.<.2.e.'.].[.'.4.1.o.Q ",
"# 9 R W.3X0X7X7X4X6X6X6X6X2XU.R 0 h #.6.R.P.5.6.R._.'.[.i.8.a . 4 d.c.Z.Z.Z.Z.Z.Z.Z.Z.Z.Z.Z.c.d.4 o a ) w.`.[.[.[.[.'.t.2.=.1.t.'.].].'.R.1.o.^ ",
"# 0 ] W.4X0X9X8X6X6X6X7X6X2XU.R t I 6._.-X-X~.^._.-X:X<X|.r.z O 4 s.m.V.B.B.M.B.B.B.M.B.B.V.m.s.c . , ~ 2.q.t.'.].].'.e.<.=.1.4.'.'.'.`.4.<.o.E ",
"# 0 ] W.4X0X9X7X6X6X6X6X6X2XU.R p U R.-X-X-XOX~.E.y.'.i.i.8.a + 1 V f.j.j.g.g.g.g.g.g.g.j.j.f.B 3 . % w ~ ) %.8.q.t.t.w.<./ =.2.3.w.w.w.1.o.E T ",
"# 0 ] Q.4X0X9X8X6X6X6X6X9X3XY.R e I 5.-X-XOXQ.5.#.~ l x l a ;   + 1 c v v v v v v v v v v v v 3 +   X & , w w h ) 2.w.w.@.~ ^ @.<.<.<.<.o.^ U J ",
"# 7 E W.4X0X9X7X6X6X6X6X9X3XU.R 0 P ,.~.OX^.E.;.f ; X o O o X   . . + + + + + + . + + + + + + . .   . X o . X O w ) 3.2./ K I ^ / / o.@.^ T J J ",
"# 0 ] W.4X0X0X7X6X6X6X6X6X3XU.] e P ,.^.+XoXW.*.e .   . $ 6 2 6 6 $ # = = # = # # = = = = = = = 6 6 6 - & +     8 ~ / / ~ I U / =.<.<.<.o.^ U J ",
"# 7 ] Q.4X0X0X7X7X6X6X9X6X3XU.R t P ,.oX@XOXW.-.e . . 7 y F F F F y y y y y y y y y i u u y y y F F F F F 0 #   & w I ~ J I ~ <.4.e.e.e.1.o.R T ",
"# 7 ] Q.4X0X0X7X7X6X6X7X7X2XE.Y e L >.W.oX!.T.O.e o # y J Q T T T Q  .Q E Q Q Q Q _ _ _ Q Q Q Q T T T T J y $ . # 0 d K K ~ / w.`.'.'.`.4.=.E E ",
"# 0 R W.4X7X9X6X7X7X6X7X0X3XE.Y 0 0 Y ;.>.;.-.I > . o 9 y F F H Q 1.J.`.R.R.`.R.J.`.v._ v.J.4.1.E F F F F 7 #   + 8 h K ~ / 2.e.'.[.].'.e.-.=./ ",
"$ 7 R W.3X9X9X7X7X6X7X0X8X5XE.Y ; O - t f f p > O     # = = - 7 ~ y.<X-X:X:X<X:X|.{.n.c.n.{.{.t.~ 7 2 - 6 + .   O 0 d U / 2.q.`.'.].].`.e.1.| Q ",
"# 7 ] Y.2X7X7X7X7X7X7X9X5X<X6.x o   O ; O o o . . . . . + .   % ( ].<XsXsXaXsXsXyX.XG.G.G..XyX}.( %     X .   X - 0 K ^ %.2.e.t.'.'.'.`.4.<.E E ",
"# 9 ] W.3X6X6X7X6X9X6X-X_.6.~ > X O l x l ;   . < 4 4 4 3 @ . X x  XdXkXkXlXzXjXhXhX.XG..XqXhX|.$.X   . ; , , w h j J ^ +.<.q.q.w.w.e.w.1.o.^ T ",
"# 7 R U.2X6X6X6X9X0X6XoX>.k :     l u.;Xu.z . @ v Z a.a.Z v @ O ( ;XfXvXNXVXVXvXzXhXhXhXhXzXzX|.$.O . ; s l ~ ) ~ ^ ^ ^ / / / / <.<.1.<.=.^ T J ",
"$ 0 ] U.3X6X6X6X6X4X-XT.+.> O X , 8.<XfX1X$.& 3 Z k.x.x.k.Z 4 & ( }.aXxXVXFXDXBXbXbXcXcXbXbXzX1X$.% o w K ~ %.&.%./ ^ U I K ~ ^ / <.=.o.^ U J J ",
"# 7 ] Y.3X9X9X6X#XoXI.,.#.$.( ) %.|.dXzXrX$.& 4 a.x.B.M.z.f.B b ! q.;XuXlXZXDXDXBXBXBXnXnXbXzX1X$.O   : h ~ ~ +./ ~ K j h d K ^ / <.<.<./ E J J ",
"# 7 ] W.4X0X0X9XOX-.Y +.i.,X<X1X<XaXzXzX1X7.- c s.M.V.M.x.j.f.A D ! ) }.iXMXZXFXFXFXZXmXmXbXzX,X$.X   . - w p j j s 0 0 0 0 K +.3.4.t.w.1.=.E T ",
"# 0 ] Q.4X0X0X-XU.' a &.<XgXcXxXcXbXbXzX,X$.& 4 f.B.A.M.x.x.x.j.Z 4 w ) |.sXcXNXNXVXvXzXzXzXsX}.( &     X O # - 8 8 6 6 6 8 l %.t.y.y.t.w.=.o.E ",
"$ 7 ] Q.6X4X-XE.>.%.&.p.yXcXCXZXCXCXnXgX>X$.& c g.B.A.V.M.m.m.z.f.m c K q.}.wXuXuXuXrX1X,X;X;Xw.! 4 < .     o # & 6 0 7 6 8 K 2.t.'.'.'.t.1.| E ",
"# 7 [ Q.-XOX;.] %.y.1XaXzXbXCXDXFXZXvXdX}.x & c f.V.S.A.B.B.m.x.j.s.A D ! ( ( 7.7.7.7.$.$.` x U D S n 1       . & q y q 7 8 j &.y.[.[.'.4.1.o.E ",
"# 7 [ ^.#XW.Y 9 $.,XgXbXbXbXCXDXSXVXkXaX}.z # c f.V.S.S.A.V.m.x.x.z.k.A c & % & & & & & & % 2 b s.j.A 4 .       6 H T F q 9 l 2.y.[.[.'.e.<.=.Q ",
"# 0 [ !.2XI.i O ( 1XxXCXCXCXVXZXNXNXkXyXp.z & c f.B.S.S.A.V.B.M.m.m.z.f.B 4 1 1 3 3 3 3 1 1 4 V k.x.f.c         6 U Q E q 0 l 1.y.].].'.e.<.=./ ",
"$ 0 [ ^.2XI.i O x 1XxXCXDXDXZXNXxXkXgXaX}.x ; 4 s.M.A.A.A.A.V.V.B.m.x.j.s.A Z Z A Z A Z Z Z A j.m.B.g.c         0 [ >.=.H 0 j %.t.i.'.`.4.1.o.Q ",
"# 7 E U.+XL.L a 8.1XxXZXGXSXNXjXiXaXyXeXi.z & 4 a.m.V.A.A.S.A.A.B.M.x.z.z.z.k.z.k.z.k.z.k.k.z.x.B.m.f.M & X X ; j =.,.;.g 0 h @.q.e.e.q.1.=.^ R ",
"$ 9 H ..P.,.@.8.p.sXBXZXDXNXjXeX}.].}.i.7.a + 4 a.m.V.V.A.A.A.A.V.B.M.M.M.M.m.m.x.x.m.x.x.m.x.z.k.g.h._ %.7.7.9.&.%.O.P t 9 0 l ( $.( ~ ~ j d y ",
"- 6 9 u I %.y.|.iXlXVXSXBXlXeXu.( x z z a ; . c s.m.V.B.B.V.A.S.A.V.B.V.V.V.B.m.x.x.x.x.x.x.x.f.V M _ `.,XtXuXtX;X%.a : - - : 8 , , > , : $ # % ",
"- - # . ; ) |.sXvXSXFXVXlXtX}.( ; X O * X X . c s.m.B.B.B.B.V.A.A.A.A.A.A.A.B.M.x.x.x.x.m.m.z.A 4 2 $.,XgXmXZXNXuX0.a X % - - ; ; ; ; , ; , ; , ",
"6 - .   X ( |.gXBXDXFXMXtX].$.w   . : 0 > X . c s.m.V.B.M.B.V.V.A.A.V.A.A.V.V.M.M.m.m.M.M.B.x.a.3 O $.,XxXDXGXDXlX X9.z , % w z 7.9.7.9.7.7.7.7.",
"6 $ +   O ( |.gXBXGXSXjXp.$., X   9 Y { I > . 4 s.m.V.B.B.B.B.B.B.V.B.V.B.B.V.B.V.B.V.B.A.A.B.f.4 O ` >XzXmXCXCXMXjXuXp.z ; z p.uXuXuXuXuXuXuXuX",
"- - #   O ( |.fXBXGXAXpX0.,     . g ;.I.;.f - 4 a.x.M.M.M.M.M.M.B.M.M.M.M.B.B.V.V.A.A.A.A.V.M.s.c & ` }.aXzXxXbXBXAXMXrX7.a 7.rXVXFXSXAXSXSXAXSX",
"6 - o   O ( |.fXBXHXAXuX7.O     o g >.!.I.O.g N C a.j.z.m.m.M.M.M.m.m.x.m.m.M.B.V.A.A.V.M.z.g.V b 0 x q.}.<XgXxXZXFXDXjX}.r.p.jXDXHXHXGXHXJXJXJX",
"- - +   O ( |.dXBXFXAXpX7.O     . f >.!.Q.P.;.T N v B s.k.x.M.M.m.x.z.z.k.z.x.M.B.V.V.M.k.Z v N F I ~ x $.i.yXkXnXBXvXjXyXeXiXlXCXCXDXZXDXHXHXJX",
"6 - +   % ( |.fXBXGXAXpX9.O     X f :.Q.oX!.I.*.r @ 4 Z g.x.m.M.m.z.k.j.j.k.z.x.N.D.C.N.s.v $ - k ] L r a $.|.aXgXfXgXgXzXzXxXcXbXbXbXbXCXDXFXHX",
"- - #   O ) |.fXBXGXAXuX7.O     o f >.!.OXOXW.-.r o 1 V j.z.x.m.x.z.k.j.j.k.c.F.F./.(./.b.q o > k O.] f r ~ q.}.|.|.|.rXgXcXnXbXcXcXcXbXbXVXDXDX",
"6 - #   O ( |.fXBXGXAXuX7.X     . f >.!.OXOXW.-.r O 1 V j.z.z.x.z.z.k.k.j.k.c./.).$X$X).H.i o > k { *.{ ] ] ) ( x x ) i.yXzXbXcXxXzXzXxXcXvXvXvX",
"- - .   O ) |.fXNXFXAXpX0.,     X t ;.W.oXQ.I.{ p + 1 V f.j.j.g.g.g.g.g.f.l.n.).%X*X*X%XXXG = = k { -.5.>.O.g > O O w $.|.sXgXgXdXfXfXdXfXfXfXfX",
"6 - #   O ( |.fXBXSXSXlXwX9.z , o 6 Y -.;.;.| k > . + c V V V V V V V V B S H.XX%X=X=X&XXX' * = k { >.P.P.;.Y r 7 e g +.e.}.|.|.|.|.|.;X|.|.|.|.",
"- - +   O ( |.fXBXDXFXAXlXuXp.z O o > s f u r > o   . @ 1 3 1 3 1 1 1 1 < 5 } XX&X=X=X*XXX' * ; k { >.P.P.5.;. . .>.>.-.@.) ( ( ( ( x ( ( ( ) ) ",
"6 - .   O ) |.fXvXSXHXJXHXNXuX7.O     . X . o o . . . + + + + + + @ + + . 2 } XX%X*X*X*XXX} = > f { ;.5.P.I.I.T.!.oX^.,.I ; O O ; = ; ; O O O O ",
"- - #   # ( |.fXvXAXHXJXJXHXpX9.O             . 1 3 4 4 3 4 c c c c c c c n W /.).$X$X$XH.v.M 5 y I [ 5.I.W.!.!.OX#X@XK.g #   # > 9 6 6 = o     ",
"6 - +   O ( ;XfXvXSXHXJXJXHXpX9.O             1 n Z a.A A a.s.f.f.g.g.f.f.g.c.F.(.(.(.(.F.c.g.V b 0 I ;.T.~.Q.oXoX+X+X5.L = - u Y ] ] ] u > o . ",
"- - #   O ) |.fXvXDXHXHXHXAXuX7.O           . 3 Z j.z.z.z.x.M.B.V.V.B.V.V.B.V.D.D.D.D.D.D.D.M.f.c $ f -.T.~.oXW.oXOX+XP.P r r ] ;.5.5.;.[ u - # ",
"6 - .   O ( ;XgXvXZXZXFXGXNXtX7.O           . c a.z.M.M.B.V.A.S.S.S.S.A.S.S.A.V.V.B.B.B.A.S.V.f.4 o a -.W.oX~.Q.oX+XOX5.Y 0 u [ 5.P.P.5.{ i - # ",
"6 - .   X ( ;XgXcXvXvXBXBXlX,X7.O           . 4 a.x.B.V.V.A.S.S.A.A.V.V.A.V.B.M.m.x.x.m.M.V.M.s.4 X a -.W.oX!.~.oX+XOX5.P 7 u [ >.P.P.5.{ u - # ",
"- - # o = ) |.yXgXgXfXgXgXsX|.( O           . 3 Z k.m.B.V.A.A.A.V.V.M.M.m.m.x.k.j.g.g.j.z.m.m.s.c @ s *.T.Q.Q.Q.oX@XOXP.P 0 t [ >.5.P.>.{ u - o ",
"- 6 - 7 f +.t.[.;X;X|.|.,X}.q.l X           . < n A j.x.B.V.V.A.V.V.B.x.j.s.A Z V V V Z s.k.x.g.V v N T =.,.I.Q.oX@XOXK.Y 7 u [ ,.P.P.5.{ u - + ",
"$ 6 y T [ { +.$.) ( ( ) ( ( a ,               + < 4 V g.m.B.B.B.V.V.M.j.Z v 4 3 3 3 3 4 m s.k.z.j.s.C N g ] ;.E.oX+XOXP.P 0 f { 5.T.T.,.{ u - # ",
"$ 8 H ..K. .g ; O O O O o O X                     + c a.z.m.M.M.M.M.x.a.v +   . .     + 4 V g.z.m.z.a.4 $ f -.E.OX@XOXP.P 0 i *.P.T.T.,.{ f - o ",
"# 8 P K.L...t                                       3 Z j.m.M.M.m.j.a.m 1               @ c V f.z.z.a.3 . r =.W.+X#X@XP.Y 0 g | P.E.T.5.{ f - # ",
"$ 6 G X.L...t                                       3 V j.m.B.M.k.Z c 1 .               . < 4 B f.j.A 3 . r -.Q.@X2X-XI.Y 7 d *.P.E.T.6.{ f - o ",
"$ 8 P X.L...u .                                   . 4 Z j.x.m.z.s.c +                       + c A g.A 4 $ s *.E.OX@XOX,.P 9 f *.P.E.T.5.{ f - # ",
"$ 7 P X.L...u .                                 + 3 n a.g.j.g.a.m <                           3 A g.s.V v N E ;.>.5.,.O.p : t *.5.T.T.5.{ f - # ",
"# 8 P X.L...f X                               + 4 n A f.g.s.V c 1 .                           4 A k.z.j.s.C N d f g g e # # p O.P.E.T.5.{ g = + ",
"$ 9 P X.L...u .                             . 1 m A s.g.f.Z 4 +                             . 4 Z j.m.m.z.s.b # X X o     o p O.5.E.T.6.{ d - # ",
"# 7 P X.L...t .                         . + 1 n Z f.f.A B c @                               . < n A j.m.m.f.c               r O.P.E.E.5.O.d - # ",
"= 7 T X.L...r                           @ 4 m Z f.f.a.m 3 @                                   . @ 4 Z k.m.g.c             . r O.P.E.T.5.{ g - # ",
"$ 7 P X.L.X.i #   X o o . X X         . 1 m A s.f.s.C 4 $ o . . . . . . X . o X . . X . .         @ v f.k.s.v O X X .     o r O.P.E.I.5.[ u = # ",
"$ 9 P X.Y.K.[ i t t t u u t 9 = . . @ 3 n Z s.s.a.V M N y r r r e e r t t u u u u u u t 9 *   . @ 1 v Z a.S N t r r e 7 9 r L | 5.5.5.;.] r # . ",
"$ 8 P X.Y.Y.K.X.....X.X.X...L > . @ c B A s.s.A n 4 N T  ... .| | | |  .........X.X.X.| P 9 . @ 4 n n v v N T |  .| [ ] Y Y ] | X.X.;.{ L 9 o   ",
"$ 8 H ..L.Y.L.L.L.L.L.L.L.K.[ r . 1 n A s.s.a.m 1 @ r | K.L.K.5.K.K.X.K.K.L.L.L.L.L.L.K.[ e . < n V n 1 $ q T X.K.X.X.X...| | | | { [ Y f = .   ",
"- 7 y R ..X.X.X.X.X.X.X.X.| P > . < c B V B m 4 < o r Y ..X.X... ... ...X.X.X.X.X.X.X. .Y > . < 4 n 4 < # 9 Y | .. . .| ] ] T Y P P P g e - o   ",
"- - 0 y L P P G P P P P i t 9 O   . @ 1 3 3 1 < # = 6 y L P L L H L L L P P P P P L i t 9 o   . @ 1 < $ # 6 t g L H F i i u y u t t t 0 9 - # # ",
"- - 6 6 9 7 9 9 7 9 6 - = o .         .   . . . # - 6 6 8 7 7 7 6 7 6 7 7 7 7 8 7 - # o X         . . # = 6 6 7 8 8 8 7 6 6 8 6 6 6 6 6 6 - 6 - ",
"- - - $ $ # $ $ $ - # o                       . # - 6 $ $ # $ # $ - # $ $ $ $ - = o                 . # 6 - - = $ $ $ $ = - $ $ - = - $ - - - 6 "
};
