/* XPM */
static char *ZXhpdDE_[] = {
/* columns rows colors chars-per-pixel */
"72 72 222 2 ",
"   c #000000",
".  c #090602",
"X  c #0B0904",
"o  c #140C04",
"O  c #180E04",
"+  c #120E08",
"@  c #161007",
"#  c #1C1206",
"$  c #161009",
"%  c #1C1309",
"&  c #1F180A",
"*  c #221507",
"=  c #2A1A07",
"-  c #231709",
";  c #25190A",
":  c #2A1C0B",
">  c #311E0D",
",  c #251B11",
"<  c #2B1E11",
"1  c #2E210D",
"2  c #33230E",
"3  c #3A250E",
"4  c #35280F",
"5  c #3A2A0F",
"6  c #2E2314",
"7  c #2E2319",
"8  c #332612",
"9  c #3C2612",
"0  c #362912",
"q  c #3B2B13",
"w  c #34271A",
"e  c #362A1A",
"r  c #3B2D1C",
"t  c #3E3013",
"y  c #3E301A",
"u  c #3C2E20",
"i  c #3E3022",
"p  c #41270F",
"a  c #422A0E",
"s  c #46310F",
"d  c #412712",
"f  c #432C14",
"g  c #492E16",
"h  c #432D1A",
"j  c #482F1A",
"k  c #443215",
"l  c #4A3414",
"z  c #4E3A16",
"x  c #45331C",
"c  c #4B341C",
"v  c #47381C",
"b  c #4D3A1B",
"n  c #523616",
"m  c #533B15",
"M  c #593E14",
"N  c #52361A",
"B  c #543D1B",
"V  c #5B3D1D",
"C  c #443520",
"Z  c #4B3521",
"A  c #4D3B23",
"S  c #463829",
"D  c #4D3C2B",
"F  c #513721",
"G  c #533B24",
"H  c #5A3E21",
"J  c #543E2A",
"K  c #583D28",
"L  c #57411B",
"P  c #5B441D",
"I  c #5F481E",
"U  c #644616",
"Y  c #62461B",
"T  c #634A1C",
"R  c #6B4E1C",
"E  c #6E521E",
"W  c #73541F",
"Q  c #78581E",
"!  c #564222",
"~  c #5C4422",
"^  c #5E4921",
"/  c #56422C",
"(  c #5B432B",
")  c #5D492D",
"_  c #544332",
"`  c #5C4531",
"'  c #5D4935",
"]  c #5D4C38",
"[  c #604224",
"{  c #634C22",
"}  c #6B4C22",
"|  c #61472C",
" . c #644A2E",
".. c #6A4D2C",
"X. c #675024",
"o. c #6D5425",
"O. c #6C532B",
"+. c #755722",
"@. c #755A26",
"#. c #7B5C23",
"$. c #755729",
"%. c #765B29",
"&. c #7A5D29",
"*. c #604730",
"=. c #634C33",
"-. c #694E31",
";. c #624E39",
":. c #684F39",
">. c #665133",
",. c #6B5435",
"<. c #6E5936",
"1. c #64513C",
"2. c #6B533C",
"3. c #6F583F",
"4. c #775E31",
"5. c #745B3D",
"6. c #7D612B",
"7. c #7C643A",
"8. c #7C633C",
"9. c #5E4F41",
"0. c #6F5641",
"q. c #6E5942",
"w. c #715A41",
"e. c #735C43",
"r. c #785F44",
"t. c #765F48",
"y. c #776047",
"u. c #786147",
"i. c #77614A",
"p. c #7C654D",
"a. c #7D664E",
"s. c #7E684F",
"d. c #7D6952",
"f. c #7C6A58",
"g. c #815D1F",
"h. c #835F22",
"j. c #836124",
"k. c #8A6624",
"l. c #8C6827",
"z. c #84652C",
"x. c #89672D",
"c. c #87682D",
"v. c #8B6B2E",
"b. c #926E2D",
"n. c #95702C",
"m. c #9A7128",
"M. c #866735",
"N. c #8D6D31",
"B. c #81663A",
"V. c #8B6E3C",
"C. c #906F31",
"Z. c #8E713E",
"A. c #957232",
"S. c #997634",
"D. c #9D7935",
"F. c #94743A",
"G. c #9A7739",
"H. c #9C7B3C",
"J. c #A0762B",
"K. c #A37D36",
"L. c #A87D32",
"P. c #A37E39",
"I. c #846B41",
"U. c #886D42",
"Y. c #826B4B",
"T. c #8D7245",
"R. c #89714D",
"E. c #917543",
"W. c #967945",
"Q. c #9C7D45",
"!. c #937748",
"~. c #967948",
"^. c #997C4B",
"/. c #836C53",
"(. c #877057",
"). c #887157",
"_. c #877158",
"`. c #897259",
"'. c #A07F47",
"]. c #A78037",
"[. c #A68039",
"{. c #AB843A",
"}. c #B0873C",
"|. c #B38A3D",
" X c #B88E3E",
".X c #A58143",
"XX c #AC8641",
"oX c #AF8943",
"OX c #A2824A",
"+X c #AC894C",
"@X c #B68E44",
"#X c #B88E40",
"$X c #B28D4C",
"%X c #BC9242",
"&X c #BB944A",
"*X c #AA8952",
"=X c #BB9554",
"-X c #B79458",
";X c #B89559",
":X c #BA9A66",
">X c #AC9371",
",X c #C49641",
"<X c #C69942",
"1X c #CB9D46",
"2X c #C69A49",
"3X c #C59A4C",
"4X c #C39C54",
"5X c #C29D5B",
"6X c #CFA047",
"7X c #CFA048",
"8X c #D3A246",
"9X c #D4A449",
"0X c #D8A74A",
"qX c #DAA94C",
"wX c #CFA351",
"eX c #CCA35B",
"rX c #D1A552",
"tX c #D8A851",
"yX c #D8AB59",
"uX c #C39E60",
"iX c #C2A26E",
"pX c #D5AC62",
/* pixels */
"# # O O o o o o o o o o o o o # * * : > > 3 9 9 9 9 9 9 q f q 9 8 : ; > 9 d d d d d d d g g f d 9 3 3 d g g g l g g f d d p p f f l n N g g a d ",
"# * * ; = : = : = = = : : ; - * * ; > 9 9 r h h f h h x j c j f 9 > > > d j j j f g g g g g j f 9 3 9 f c c c c c c c g f d d l c N N N n g d p ",
"# * 2 f B L L L V L L L L B g > - : h A J K J J / / / ( ) K K F c 9 8 9 j F F F F F F F F G G c 9 9 f c G / / ) | ) K G c l c G ( | | ( G N g g ",
"O ; f o.b.S.S.A.A.A.S.S.S.v.o.f ; w D 1.0.w.e.e.w.w.w.e.e.0.1.=.K Z h j K | *.*.*.` *.` *.' ` D h h C K =.2.3.w.5.5.2.-.K G / -.2.5.2.:. .H V N ",
"o = m b.%X7X6X1X1X1X<X8X8X%Xb.n > e ` t.a.a.a.a.a.a.a.s.a.i.w.2.*.F j F ( :.2.2.0.2.0.0.2.1.] J Z h A ] q.i.d.d././.a.w.-.( -.w.a.Y.p.t.2. .H V ",
"o ; V S.8XqXqXqX0X0X0XqXqX8XS.L < < S ] 1.1.1.1.1.1.1.;.;.;.' ` K F F K *.2.2.0.0.w.e.t.q.0.] / Z Z / 2.a.f._._.`.`./.r.-.| :.r./._./.a.5...[ V ",
"o = B A.1XqX0X8X8X9X8X0XqX<XA.L : - 6 r u u i u r u r r r r r r r h F K *.2.0.0.e.t.a.s.t.1.) G Z G ` q.d.(._.`.`.`./.i.,.*.-.i././._.Y.e...[ H ",
"o = B A.,X9X8X6X1X8X6X8X8X,Xn.V ; # - : 6 : : : : < 6 < < , - ; < 9 j K *.:.2.0.w.i.d.d.e.' G Z A K =.y./._._._.`.`./.r.2.| 2.r./._._./.r.-.[ V ",
"O : L n.,X8X9X6X8X6X1X9X8X,Xb.B : : q c b c z c v A D S S u < * ; 9 j F K :.0.0.0.t././.e.' A Z J J :.0.p./.).).`.`./.u.2.*.,.t./.`.`./.r...[ V ",
"o ; B A.1XqX9X8X8X8X8X8X8X,Xb.m : e ) 5.B.z.&.&.7.8.Y.(.f.9.u ; - > h F J ' ;.;.0.t.d./.e.) Z C J J ;.0.t.a./.).`.`./.u.,. .,.t./.).`./.r.-.~ V ",
"o ; L A.1XqX0X9X8X8X8X9X9X,Xb.B 2 x 5.OX+X.XP.'..X*X>X>X>Xf.S , = > h j J ( *.:.2.e.t./.0./ c C D ` 9.:.0.w././.`.)./.r.>.| -.e.a././.a.5...H V ",
"o = L A.1XqXtX9X8X8X8X9X9X<Xn.n 2 c B.+X$X@X{.oX$X=XiXiX>Xf./ ; = > g K ~ | -.=.:.0.e.w.2.K h Z S J J K ` 0.t.d././.a.w.*.K ( -.5.w.r.q.-.( V N ",
"o = L A.1XtXqX9X8X8X8X8X9X,Xn.B 2 l 4..XoX[.[.[.@X&X;XiX:X(.D : = p M U R R o.-.=.:.:.:. .K h C Z G G K K ` 2.0.r.a.t.1.) Z F / | *.:.-.[ N n g ",
"o = L A.1XqXtX9X8X8X8X8X0X<XA.B : k &.D.[.D.A.K.}.#X&XeX-XI.A ; = p M U U R } [ K *.( ( K g h h Z G G N F K K :.1.0.0.=.G x v F K ( ( ~ K N g g ",
"o : L S.1XqXqX9X8X8X8X0X0X,Xn.B > k &.D.[.D.S.K.|. X2X4X-XV.A ; * 3 s l n M n c Z j Z j d 9 9 h G / K c j j G K ` *.` K Z x Z G | =.-.*.[ F j g ",
"o = V A.1XqXqX9X9X8X8X8X8X,Xb.B 2 k %.K.[.K.D.].|. X&X=X*XB.v - O * = > > > > = < < < < : : < h J =.` Z d h h j Z Z Z x h x G :.3.r.r.e.-.| V N ",
"o = L S.1XqXqX8X9X9X8X9X9X<Xb.N 2 k &.P.{.P.G.P.}.%X&X&X*X8.C & X o % # # # - - ; = = ; * % - r _ 0.=.A h 9 d d 9 h d h h Z J 0.Y./././.3. .V V ",
"o : V A.<XqX0X9X9X8X8X9X0X&XV.B 2 k &.P.{.P.P.[. X&X&X=XOX8.y % o @ & ; 1 2 0 k l c k q 8 ; - r ] t.1.J h 9 d h 9 9 9 h Z J 9.t./.).)./.r.-.[ V ",
"o ; B A.1X9X0X8X9X9X9X9XeX=XV.b : l &.P.{.P.D.P.|.#X&X$XOX<.y & @ - 6 q k B T @.&.&.$.{ c 2 ; i ] i.w./ h h h Z h d h j J ;.e././.).)./.r.-.[ V ",
"o = B b.,X9X9X9X8X9X9XrXeX=XU.b 2 k &.P.{.P.D.[. X&X@X+XR.<.y & # 1 r b ~ o.z.A.P.P.H.M.} q : u 1.a.e.( Z C Z D S j h Z J 0.e.t.Y././.a.5...V V ",
"O ; L n.,X8X0X8X8X8X8XwXeX;XU.A 1 l &.P.{.P.H.[. X#X@X+X!.<.r % % 6 x L ^ o.z.D.{.|..XF.O.y : e ] i.q.` A Z D _ J Z j F K :.0.0.w.r.r.0.-.( V n ",
"o ; m C.,X8X8X6X8X8X7XwXeX;XI.A 1 k &.P.{.P.H.[.}. X@X+X!.<.r % % 6 y ! ~ o.z.S.[.XXOXE.O.y : w _ q.0._ D D ' ] ;.J J F D D J K *.-.=.-.( V g g ",
"o ; L n.<X8X8X8X1X8X1XwXeX-XU.A 1 l &.P.{.[.D.K.}. XoX+XW.,.r % $ 7 i ! P { &.b.K.{.'.E.<.y ; 6 S ] ] D Z J ` 0.;.K F Z h h Z J K ( | K H c g g ",
"O : L n.<X0X9X8X8X8X8XwXeX;XU.A < k &.P.{.H.D.[.}. X@X+XW.<.r & & 6 y A ~ { @.v.D.'.Q.U.,.y - - u i i i e u S D D Z h r 9 w j G ) *.-. .( V n g ",
"o ; B A.1X0X0X8X8X8X8XrXeX-XU.b 2 l &.P.{.P.D.[.{. X@X+X!.,.r $ $ w i ! ! { 6.N.S.[.W.Z.>.t & # , < < : , < 6 w w < > : ; : j / ,.q.e.5.,.~ V N ",
"o = L A.1XqX0X8X0X8X8XrXeX;XU.A > k &.P.[.[.D.[.}. X@X+XOX<.r $ $ 6 y i ! X.@.v.S.H.Z.p.>.r # @ + % % % * * ; ; ; ; * * * - r ' y.a.d.a.3.-.H V ",
"O : L S.1X0X0X8X8X8X7XwXeX;XU.A > k &.K.].D.S.K.}.#X@X$X~.<.r % & 7 y ! P X.6.z.F.G.Z.7.) e $ @ % , , 8 8 8 9 9 9 > > * o - r ] a.(.(./.r.-.~ V ",
"o = V A.1X0X0X8X8X8X7XwXeX;XU.b 1 k $.D.].D.S.K.}.#X@X+XOX<.r % & 7 ! ! P X.@.v.S.F.Z.7.) 0 % & , e r A B H ~ [ B g p > = - u ;.s.(.(./.t...[ V ",
"o = L A.1XqX0X8X1X8X7XwXeX;XT.A > k @.D.K.S.S.K.{. X@X+XOX<.y % - 6 C ! ! { @.v.S.F.V.<./ w % & u S J | ..$.h.$.$.Y n d = ; j ;.s.(.(./.r.-.[ V ",
"o ; L A.<X0X8X8X8X8X7XwXeX;XU.A : k @.D.K.D.n.K.{. XoX+X!.<.y $ & 6 C v ! { @.v.S.F.V.7./ w % - w S ) O.4.z.M.M.h.$.} n > : u ] a.(.(./.r.-.[ V ",
"o = B A.<X0X8X8X1X8X8XrXeX:XU.A 2 k @.D.K.D.S.D.{. X X+XOX<.e % $ e v S ! { @.6.A.F.Z.7.) w % - e A | $.M.M.C.b.C.M.&.~ 9 : u ] i.f./.a.5. .[ V ",
"o = B n.<X8X8X8X8X8X9XrXpX;XT.G > k @.K.L.D.S.K.{. X X+XR.<.r $ & 7 v v ! { @.6.A.F.E.7.) w % - q b { $.h.x.A.S.G.K.N.} f , e J q.t.t.w.2.| V V ",
"o : L S.1XqXqX9X0XtX9XyXpXuXT.A > l @.G.K.D.A.K.{.|.@X+X~.<.e % $ 6 y v ! ^ o.6.A.F.Z.a.) 0 & & t L X.%.c.v.S.S.].].H.6.k - 6 i _ _ _ _ S v j h ",
"o = M S.8XqXtXtXtXtXtXyXpXuXT.! 1 g @.J.K.K.S.K.}.@X@X+X~.,.r % $ 6 t v v ^ %.N.A..XOX7.>.e & & t P X.6.c.C.A.].[.{.{.6.v - % , 6 7 7 7 6 6 > > ",
"o = B v.,X1X1X3X3X3X3XeX5X-XI.A : k @.S.K.K.D.K.}. X@X+XW.,.y % $ , t v v ^ @.6.A.[..Xs.>.e $ 1 k I o.6.6.C.v.].{. X|.c.z * + O % % % % % % * % ",
"O - h o.N.A.F.N.Z.N.N.Z.T.u.) e - f $.K.K.D.D.P.}. X@X+X~.,.e @ $ 6 t v L ^ X.[.A.[..XT.>.t & & k I o.6.c.v.C.A.{. X|.c.N ; @ - 1 1 1 1 = * O O ",
"# * > f z B c v k v y v C y 7 $ @ q +.D.P.K.D.K.}.#X@X+X~.,.t % $ , t t L ^ @.v.F..XOXT.>.r % 1 k { o.6.c.v.A.].]. XoXc.b ; ; q b L ~ L k 1 # o ",
"# # = : 1 ; @ X . X X X X X     X 0 @.S.K.K.S.K.}. X@X+X~.,.e % @ , t v L { @.v.C.[.OXT.<.r % & t { X.6.c.v.A.S.[.@X}.c.z : 1 b X.&.6.%.P 5 # O ",
"# * : q k 2 @                   . 0 o.D.P.K.S.P.|.@X@X+X~.<.e # @ 1 t v P X.@.v.A..XOX!.<.r & 1 v { o.6.6.c.n.S.{.@X|.c.z : 2 L o.6.z.z.T q & O ",
"O - f R @.P 1                   . 0 +.S.P.D.D.K.}.%X@X+X~.<.y @ $ 1 t v P X.&.v.A.[.OX!.,.r $ 1 k { o.6.6.c.N.S.{. X|.c.z ; 1 B O.6.z.6.T q # o ",
"O = z z.J.6.q X                 . 0 o.D.].D.S.K.|. X@X+XW.<.e % $ 1 t v ^ X.%.[.[..XOXT.<.0 & & v I o.o.6.z.N.A.{.@X|.x.c = 8 b o.6.z.6.I 0 # @ ",
"o = n l.L.z.s X                 X 0 @.D.{.K.D.].|.%X&X$X^.<.y @ $ , 0 L ^ X.6.6.6.[.OXOX<.r $ 1 k { o.@.6.v.N.D.[.|.|.z.m = 2 B o.6.6.6.I 0 # o ",
"o ; n k.J.#.5 X                 . 0 @.D.].K.D.].|. X@X$X^.<.y @ $ , t v ^ X.6.v.7.[.OX7.<.0 & & k I o.6.6.v.A.A.[.|.|.z.z : 2 L +.6.z.6.I 0 # o ",
"O * l g.m.Q 5 .                 . 0 X.A.S.A.n.S.[.{.XXOXT.>.e @ $ , 0 ! ^ @.6.v.].[.OXT.>.t & 1 k I o.6.c.v.A.S.{. X{.z.l : 2 L @.6.z.%.I 4 # O ",
"O = z g.m.Q 5 X                 . ; v X.o.o.R o.%.6.6.%.>.A , + $ , 0 ! ! @.6.N.v.[.OX7.>.0 & & k I @.6.z.N.A.S.].|.{.z.z ; 8 L @.z.z.%.P 5 # X ",
"O * n g.m.Q 5 X                   @ ; 0 0 0 4 4 0 q e e 7 , + X $ 1 0 ! ^ o.6.6.7.[.OXOX>.w & & k { o.6.c.v.A.S.L.|.{.k.l : 4 P %.z.z.6.I 5 & o ",
"O - m g.m.Q 5 X                     . . . X . . X X X X .       + 1 t v ^ o.6.[.[.[.T.R.>.t $ , t ^ @.6.x.N.b.S.].|.{.z.z : 4 L &.z.z.6.I 4 & o ",
"O * l 6.m.Q 5 X                                               . + & t ! ^ o.6.6.6.[.[.7.<.0 & & k ^ 6.6.v.A.A.S.K.|.{.z.l : 8 L #.z.z.&.P 5 # o ",
"O - l Q n.W 4 X                                                 + & e L ^ X.6.c.C.S.H.F.O.q % 1 v { 6.6.A.[.N.[.[.[.{.k.L 1 1 L %.6.c.6.L 4 # o ",
"O = l Q l.E 2 .                                                 + 1 0 t I E 6.6.C.S.K.n.o.0 % ; k { 6.N.N.A.[.N.[.{.{.k.q 1 4 L %.c.c.6.I 4 # o ",
"O * l Q l.E 4 .                                                 + 1 y L I X.6.c.A.D.].D.@.t % ; y { 6.c.F.].A.A.[.|.{.6.l & 4 L @.6.z.%.I 4 # o ",
"O = k Q l.E 4 .                                                 + 6 y L L { 6.c.S.].{.D.@.t % : y ^ 6.c.A.A.[.].[.{.{.6.l 1 4 L @.6.z.6.P 4 # O ",
"O - l Q k.E 4 .                                               . + 6 y t L ! X.6.C.S.D.n.o.5 @ ; L ^ %.c.F.].S.S.].}.{.z.z ; 2 L @.6.c.%.I 4 O o ",
"O = s Q k.R 4 .                                                 X & 6 0 e t v P X.o.@.o.v 1 O - t ^ 6.v.A.A.S.S.].}.{.z.l 1 4 P &.c.c.&.P 3 # X ",
"O ; k W k.E 3 .                                                 . X + $ $ & & 1 8 0 0 8 : + X - t { 6.v.A.S.S.S.K.}.{.j.z ; 4 I 6.v.N.&.I 0 # o ",
"o * s Q k.R 2 .                                                   . . .   . . . . . . .     . & t { @.6.A.A.A.S.].}.{.z.l 1 0 T 6.N.N.6.I 5 O o ",
"O * s W k.E 2 .                                                                               & t I 6.c.A.S.D.D.{. X|.z.z : 5 { M.N.N.6.^ 0 # X ",
"O = l Q k.E 4 .                                                                             . & k ^ 6.c.A.D.D.[.|. X Xc.c : 0 T z.N.N.6.^ 0 # o ",
"O * l W k.E 4 .                                                                             . % t ^ X.6.v.N.A.F.].}.].6.k ; 0 { z.N.N.6.^ 9 @ o ",
"O - l Q l.E 4 .                                                                               @ 6 t L I I X.X.o.%.6.6.P 0 % 2 I z.N.N.6.^ 0 # o ",
"O * l W l.E 4 .                                                                               X $ & & 6 6 1 0 0 e t e : o $ 1 ^ z.Z.N.&.I 0 O o ",
"O = l +.l.E 4 .                                                                                 . . . . . X . . . X X .   . 6 ^ z.N.N.6.I 3 # X ",
"O - l Q l.E 2 .                                                                                                           . 1 ^ z.N.N.&.I 0 # o ",
"O - l Q l.E 2                                                                                                               1 ^ z.A.N.z.T 0 # o ",
"O - l Q k.E 5 +   . . . . . . . . . . . . . . . . . X . . . . . X . . . . . . . . . . . . . . .   . . . . . . . . . .     X 4 I 6.N.c.6.P 4 @ X ",
"O = k +.n.h.P 5 8 2 4 4 4 4 4 4 4 4 2 4 4 4 4 4 4 4 4 4 4 2 2 1 1 1 1 2 4 4 4 4 4 4 4 4 1 1 & % $ % @ & & 1 1 1 1 1 1 1 1 1 t T 6.6.6.o.L 1 + . ",
"O = k Q l.n.j.E E E E W E E E E E E E E E E E E E E E E E E T T T T T T R E E E E E E E U L l t 4 4 4 5 s L L P U U P L z L L R W W E P k ; .   ",
"O * a E l.m.n.l.l.l.k.k.l.l.l.l.l.l.l.l.l.l.l.l.l.l.l.l.k.k.h.6.h.#.#.j.k.k.l.l.l.l.l.k.#.E P m z s z L P T Q #.6.Q Q E T I P I T T P L 4 # .   ",
"@ * 5 m W Q Q W Q Q +.Q Q Q Q Q Q +.Q W +.Q W W Q Q Q Q Q W E E E R E W W Q Q Q Q +.Q Q R P m l s 5 s l L L U R R R T T L L m m z s l 5 1 @ X . ",
"# * = 3 a l s l l s l l l l l s l l s l l l l l k l k k s l k s a a a k l l l s l l l s a 5 3 2 1 1 1 2 4 4 5 s s a a 5 5 3 2 2 2 2 2 = ; % o o ",
"# * * * - - = - - - - - - - - - - = - - - - = - - - - = * = * * - = - - - - - - - = - - = - * * * # # * * * = * - - * = = * * * * * * * # * # # ",
"# # # O O O O O O O O O O O O O O O O O O O O O O O O O O O @ O O O O O O O O O @ O O O O @ O # # # # # # # @ @ O O O O O O # O # O # # # # # # "
};
