/* XPM */
static char *_0b38c828dac48d1a388b78e76667cbfEyT4WjD1ukK95ydo[] = {
/* columns rows colors chars-per-pixel */
"24 24 112 2 ",
"   c black",
".  c #050301",
"X  c #160D04",
"o  c #1B1005",
"O  c #1D1105",
"+  c #251607",
"@  c #2B1300",
"#  c #2B1A09",
"$  c #2D1B09",
"%  c #301500",
"&  c #351800",
"*  c #381B00",
"=  c #3D1B00",
"-  c #331F0B",
";  c #3A2006",
":  c #3D2004",
">  c #36220E",
",  c #37230F",
"<  c #432304",
"1  c #472707",
"2  c #4C2805",
"3  c #48270B",
"4  c #4F2B08",
"5  c #4A290C",
"6  c #482A0E",
"7  c #4C2E0E",
"8  c #512A07",
"9  c #502B08",
"0  c #532F0D",
"q  c #5C340D",
"w  c #4B2D12",
"e  c #4F3012",
"r  c #45311C",
"t  c #44301D",
"y  c #503112",
"u  c #573412",
"i  c #543515",
"p  c #583512",
"a  c #5F3712",
"s  c #5A3715",
"d  c #5F3A13",
"f  c #5A3816",
"g  c #633C16",
"h  c #643D16",
"j  c #643D18",
"k  c #493621",
"l  c #66411B",
"z  c #6C4218",
"x  c #70451C",
"c  c #71471C",
"v  c #734920",
"b  c #8E6B2F",
"n  c #936B2D",
"m  c #946B2D",
"M  c #916D30",
"N  c #967133",
"B  c #967337",
"V  c #9A7030",
"C  c #9C7231",
"Z  c #9C7333",
"A  c #9F7533",
"S  c #9A7435",
"D  c #9D7636",
"F  c #9E7636",
"G  c #997639",
"H  c #9B7739",
"J  c #A07432",
"K  c #A27735",
"L  c #A27836",
"P  c #A57B37",
"I  c #A87A37",
"U  c #A17938",
"Y  c #A67B39",
"T  c #A37C3A",
"R  c #A67D3B",
"E  c #A87B38",
"W  c #A87E3B",
"Q  c #AA7F3A",
"!  c #A47E40",
"~  c #AE803A",
"^  c #A9803C",
"/  c #A8803E",
"(  c #AD823D",
")  c #B0823C",
"_  c #B1843E",
"`  c #A58042",
"'  c #AA8342",
"]  c #AB8342",
"[  c #AD8241",
"{  c #AE8646",
"}  c #AF8847",
"|  c #B38846",
" . c #B48A48",
".. c #B68B48",
"X. c #B38C4B",
"o. c #B38C4C",
"O. c #B58E4D",
"+. c #B98E4C",
"@. c #B6904E",
"#. c #B9904D",
"$. c #BD924F",
"%. c #BA9352",
"&. c #BD9250",
"*. c #BD9450",
"=. c #BF9654",
"-. c #C19752",
";. c #C39956",
":. c #C49A56",
">. c #C49A57",
",. c #C49C58",
"<. c #C59C58",
"1. c #C59D59",
/* pixels */
"q u s e u = ; w 6 e 6 @ q 0 w u : i a i 1 p h 9 ",
"d + + + + + + O + + +                         c ",
"0 + R L A A ,.F A E +                         v ",
"7 + ;.| J V ;.U A R +                         c ",
"f + :.) [ m U U A U +         .               0 ",
"p + :._ J A *.-.*.A + + + + + + + X           c ",
"% + *.-.L *.,.*.Z S + { ..I ....b X           c ",
"4 + R R L ,.,.*.L Z + ^ ~ Y Q ..b X           0 ",
"p + :.O.U #.=.,.#.C + @.( L Z ..b X           v ",
"h + Q U R A H U #.C + %.*.S Z Q b + + + + + + v ",
"= + ( *.$.P S A #.C + %.#.Q Z N b # A L ] H + z ",
"s + ,.:.$.Q C ..B Z + ..*.^ Z #.b > ^ } ] N + a ",
"6 + :.,.,...m C C C + R Q R ^ #.b $ ^ | A H + c ",
"8 + :.:.*...Z Z L #.+ O.;.W Z %.b > ' | ' H + g ",
"* + W ( R A n #.C K + O.:.Q Z Z b , } | | A + < ",
"3 + ,.,.*.$.A @.U A + O.:.+.Z Q b , A L } G + & ",
"e + ,.:.,.O.K #.F A + T ^ Z Z Q b t ] A ] ] + & ",
"7 + ,.+.W K L #.*.! + o.*...Z Q b t W ] ] ] + 4 ",
"= + ^ Z U } Q *.*.A + O.,.+.[ Z b > K } ` T + j ",
"j + +.L :.:.*.Z M U + R :.*._ A b r | | D ] + l ",
"w + | K ..,.U U K U + U :.,.) B b k  .| A ' + l ",
"e + ..K { +.*.A +.+.+ F ) [ ) Z b k o...A ! + l ",
"7 + + + + + + + + o o + + + + + # # $ $ $ $ $ j ",
"* p 0 9 = 9 2 9 h s p 0 x x z p w i i y u g g 4 "
};
