/* XPM */
static char *Zmxvb3I_[] = {
/* columns rows colors chars-per-pixel */
"72 72 230 2 ",
"   c #041B0A",
".  c #101D07",
"X  c #2E1A04",
"o  c #351903",
"O  c #361A02",
"+  c #3C1D02",
"@  c #042807",
"#  c #04220B",
"$  c #09250D",
"%  c #0D2D0B",
"&  c #17250A",
"*  c #1B240D",
"=  c #0C3205",
"-  c #05370B",
";  c #0D320B",
":  c #143C05",
">  c #13340B",
",  c #17380B",
"<  c #0C2610",
"1  c #0D2C12",
"2  c #122C12",
"3  c #1B2B15",
"4  c #023A12",
"5  c #183415",
"6  c #28230A",
"7  c #3E2105",
"8  c #3D220A",
"9  c #36280B",
"0  c #26390B",
"q  c #3B3708",
"w  c #232C14",
"e  c #282E15",
"r  c #3A2D12",
"t  c #273319",
"y  c #3A3218",
"u  c #2C3924",
"i  c #343D26",
"p  c #411F02",
"a  c #442305",
"s  c #4A2606",
"d  c #4D2907",
"f  c #44250B",
"g  c #45280C",
"h  c #482908",
"j  c #4C2A0B",
"k  c #522D0B",
"l  c #552E0A",
"z  c #55310E",
"x  c #5A340E",
"c  c #462A12",
"v  c #4C2C13",
"b  c #4E2F18",
"n  c #512F13",
"m  c #4E3115",
"M  c #4E321A",
"N  c #48391A",
"B  c #543214",
"V  c #5B3513",
"C  c #5D3914",
"Z  c #54351A",
"A  c #5A371B",
"S  c #56391B",
"D  c #5C3B1C",
"F  c #613711",
"G  c #623B14",
"H  c #693F16",
"J  c #623E1C",
"K  c #4A3A20",
"L  c #553720",
"P  c #563B22",
"I  c #5C3D22",
"U  c #613F22",
"Y  c #1D420A",
"T  c #184608",
"R  c #024715",
"E  c #1A4812",
"W  c #065517",
"Q  c #185B15",
"!  c #264A0B",
"~  c #254C0A",
"^  c #324B0C",
"/  c #37480C",
"(  c #2D5709",
")  c #32540E",
"_  c #355A0A",
"`  c #284715",
"'  c #344F17",
"]  c #345414",
"[  c #0D6418",
"{  c #38660A",
"}  c #2C6011",
"|  c #2E4622",
" . c #334A25",
".. c #37472A",
"X. c #3F5922",
"o. c #3B4732",
"O. c #3C4932",
"+. c #465C0B",
"@. c #4C4A18",
"#. c #6C4117",
"$. c #65411D",
"%. c #6B431C",
"&. c #71471D",
"*. c #4B610C",
"=. c #49690B",
"-. c #51690B",
";. c #467609",
":. c #4C740A",
">. c #4C7B0A",
",. c #527409",
"<. c #48442B",
"1. c #5D4123",
"2. c #564528",
"3. c #5D442A",
"4. c #4C592C",
"5. c #424E36",
"6. c #434E38",
"7. c #5A4D34",
"8. c #565639",
"9. c #634324",
"0. c #6A4623",
"q. c #624D21",
"w. c #6C4825",
"e. c #64452A",
"r. c #69462A",
"t. c #66492C",
"y. c #6C4B2C",
"u. c #754C23",
"i. c #784F25",
"p. c #714E2B",
"a. c #6C512F",
"s. c #73512E",
"d. c #7A542E",
"f. c #664B31",
"g. c #654B34",
"h. c #6B4D32",
"j. c #6D5134",
"k. c #665638",
"l. c #6E5439",
"z. c #735434",
"x. c #795633",
"c. c #785737",
"v. c #7C5935",
"b. c #735539",
"n. c #75593C",
"m. c #7B5C3B",
"M. c #56692E",
"N. c #586A2D",
"B. c #7B623F",
"V. c #5B5C43",
"C. c #645C43",
"Z. c #755B42",
"A. c #7B5D42",
"S. c #785F48",
"D. c #5B6345",
"F. c #686549",
"G. c #7D6143",
"H. c #756648",
"J. c #7E6349",
"K. c #707544",
"L. c #696951",
"P. c #796D54",
"I. c #7A7559",
"U. c #7B755A",
"Y. c #80562D",
"T. c #825C35",
"R. c #815E3B",
"E. c #83613D",
"W. c #89643D",
"Q. c #836343",
"!. c #8A6742",
"~. c #876846",
"^. c #8A6946",
"/. c #82654A",
"(. c #85694D",
"). c #8C6C4C",
"_. c #906C47",
"`. c #926E4A",
"'. c #88774E",
"]. c #93714D",
"[. c #856B52",
"{. c #8A6D53",
"}. c #8C7255",
"|. c #89755B",
" X c #8D7459",
".X c #827A5E",
"XX c #927354",
"oX c #997856",
"OX c #92755A",
"+X c #957A5D",
"@X c #9A7D5D",
"#X c #857C62",
"$X c #957C61",
"%X c #997E62",
"&X c #8A8759",
"*X c #9C805F",
"=X c #A0815F",
"-X c #9D8263",
";X c #97876C",
":X c #9D8569",
">X c #96896B",
",X c #998C71",
"<X c #A18565",
"1X c #A68867",
"2X c #A2866A",
"3X c #A5896B",
"4X c #A98B6A",
"5X c #AD906F",
"6X c #A58D71",
"7X c #A98E72",
"8X c #A69174",
"9X c #AB9275",
"0X c #A69874",
"qX c #AD9579",
"wX c #AD997B",
"eX c #B19576",
"rX c #B1967A",
"tX c #B39A7D",
"yX c #B69E81",
"uX c #B89F81",
"iX c #B7A183",
"pX c #BBA385",
"aX c #BEA689",
"sX c #BFA88A",
"dX c #C1A789",
"fX c #C3A98A",
"gX c #C2AA8C",
"hX c #C5AE90",
"jX c #C8AF90",
"kX c #C7B092",
/* pixels */
"d k k x C F C C #.#.#.#.C C C G G G J G J G G G C G G H #.#.#.#.#.#.H G x k k k k k z k x x C x l l s s s s d s s p p p p d k d d k k k h a o o ",
"d k z G $.%.#.%.$.#.#.$.$.%.%.%.0.0.0.%.0.w.0.%.%.$.%.H #.%.&.u.i.u.&.%.G V V V C $.1.$.$.$.$.G z k d d d l l l d p p p d l l n B V S C z f 7 o ",
"k V J p.v.E.E.v.s.u.&.u.d.R.B.E.R.R.R.R.E.E.R.v.v.x.p.u.&.i.T.W.!.!.W.d.%.D D y.z.n.v.n.B.B.v.p.C z k l l x l k d s p p s l V U e.h.c.z.9.B a 7 ",
"x G p.^.*X<X<X*X_.x.p.v.).@X<X<X<X<X:X<X-X<X-X@XOX{.R.s.i.T.].1X4X4X<X).z.0.s.^.*X-X-X=X*X-X*X~.t.z l x F G F F l l d d k l U z.Q.{.+X+XG.3.j 7 ",
"V %.v.*XtXpXpXtX-XE.x.W.*XtXpXpXyXuXuXyXuXpXuXrX6X-X).v.d.W.=XeXtXtXrX@Xm.p.m.*XtXpXpXtXpXpXtX+Xz.D V $.&.&.&.H J F l n l V U /.+X3XrXrX+Xj.Z h ",
"C %.E.<XpXhXkXpX4X^.v.^.4XpXgXfXdXdXdXgXgXgXpXtX3X+X^.d.u.T.].1XeX5X1XXXv.p.E.1XpXhXgXsXgXgXpX-Xn.1.$.s.E.E.T.x.d.U U A A A U /.$X9XuXuX-Xz.Z h ",
"G 0.E.<XpXkXgXpX3X^.T.^.4XpXgXgXdXdXaXaXdXgXaXqX*X^.T.i.w.i.E._.].].^.T.p.w.Q.1XpXgXgXsXgXgXpX:XB.w.a.~.oX@XoX)./.R.Z.U U A p./.+X7XuXuX*Xz.Z h ",
"G w.E.-XtXgXgXpX4X].W.).4XpXdXdXpXaXaXaXaXaXuX3X).v.p.w.u.s.v.T.T.E.Y.s.0.w.B.:XiXsXsXpXsXsXuX:XE.a.m.+X6X0X3X:X%X{./.h.U U U R.OX3XtXtX%Xn.S j ",
"$.w.E.-XtXgXgXpX4X`.W._.1XtXjXfXgXdXdXdXgXgXuX-XB.3.q.m.!.).).^.W._.W.E.w.w.B.-XtXsXsXsXsXsXuX-XQ.s.R.$X%XyXyXyX%X%X{.b.U U U /. X2XyXyX$Xb.S j ",
"C %.E.<XpXgXgXtX4X`.W.`.1XpXfXfXgXhXgXgXhXhXyX#X8.i <.H.<X4X4X:X5X4X=X`.v.y.m.-XtXsXsXsXsXaXrX-XQ.h.A.$XyXyXyXyXyX%XOXR.U U U S. X3XyXyX%Xb.S j ",
"$.%.E.-XpXgXgXpX4X_.W.`.4XpXpXpXyXyXyXyXuXaXyX#X..5 O.P.8XtXyXyXpXpXtX=XB.y.v.+X8XtXtXpXtXtX6XOXc.p.Z.OXyXyXiXiXyX%X%X/.g.U U /.OX3XtXpX@Xc.A j ",
"$.%.E.<XtXgXdXpX1X].E.`.4XpXwX,XU.U.U.#X%X9X6XP.<.t i V.U.,XyXyXfXgXpX4XE.y.j.G. X-X-X-X-X-XOX~.h.r.Z.|.yXyXiXyXuXyX7XOXb.U U /.$X7XyXtX%Xm.A l ",
"C %.B.<XpXdXdXpX4X`.W.].5XtX,XL.5.....6.V.|.$X[.7.y r i 6.L.>XyXpXgXpX1XQ.u.w.y.z.m.E.Q.Q.E.v.y.U I b.OXyXyXyXyXuXuXrX%Xb.U U {.-XqXpXuX<Xm.$.V ",
"$.%.E.=XpXgXgXiX4X^.T._.1XqX&X6.5 # # 2 i C./.A.r.b 9 * 3 O.L.6XtXpXpX4X).x.w.9.1.e.a.x.x.z.y.9.Z A j. X7XyXyXyXuXuXeX%Xh.U U /.@X9XtXtX*Xm.$.C ",
"$.w.E.-XpXgXgXpX1X!.d.v.'.&XF. .= @ @ = u <.7.7.L n 6 . $ i L.:XtXdXtXeX@X~.m.9.$.0.n.W.~.Q.B.a.9.D t.~.OX%X6X7X7X%X%X/.U A U A.).@X<X@X^.s.C z ",
"C %.E.<XpXhXkXpX1XE.$.q.N.M.4.} : : : Y 5 5 u y c c X .   u F.-XeXpXdXtXeX<X).c.w.z.'.*X2X1X*X).z.9.0.h.S.[.OX$X$X{./.U A n A U z.E.W.B.s.D h h ",
"C $.v.*XrXaXpXtX%Xc.D N +.^ ) ) ) ) _ ] ~ , < * X 9 6 . $ i F.@X7XtXpXpXaXtX-XE.x.E.-XtXpXsXtX<X~.s.w.$.t.z.J.[.H.l.9.S B v A 9.j.s.d.s.9.B a 7 ",
"x $.s.~.*X-X-X+XQ.e.v h q / ] +.4.N.N.N.4.E = $ * 6 * & ,  .F.%X4XtXpXsXgXaX3X^.x.^.3XpXkXgXpXqXoXQ.s.9.D 1.h.C.g.9.D D P t.h.m.E.^.W.E.y.A g 7 ",
"l x $.p.n.m.n.l.3.M f 8 7 q @.k.B.'.&X&XN.4.! % & . & , ^ 4.B.&X3XqXtXpXsXaX3X~.x.~.4XpXhXgXaXtX3X@XQ.t.M m P I I D $.y.n./. X@X<X4X4X*XQ.$.N 7 ",
"d l z V $.$.1.1.P c 8 + 7 v 9.n.&X2XwX0X>XN.) 0 = $ = T ^ 4.k.|.%X2X9XtXtXtX-XE.s.E.<XtXpXsXaXpXiX0X}.f.M c b N P 9.a.m.{.-X7XrXtXpXaXtX+Xa.B g ",
"a s d n V $.t.j.g.I P Z v B t.J.-XeXpXaX0X&XN.X.Y > = : Y @.8.A.).XX$X%X:X=X).z.e.s.).1XeXtXdXdXsXtX+Xk.M M P g.j.m.^.OX2XqXtXpXaXhXhXpX*Xl.S g ",
"+ + s k C y.G.[.|.J.Z.g.I A f.(.:XtXpXsXaX0X&XK.4.` = = > e @.e.z.c.R.W.~.E.x.1.S 1.z.^.@XqXpXdXgXtX-Xl.1.3.l./. X%X1X7XrXuXuXaXsXgXgXtX*Xz.A j ",
"o o a k %.m.+X3X8X:XOXA.t.I h.(.;X9XwXtXtXaX0X&XN.] Y % $ w N D U p.h.x.v.x.t.1.M S 9.x.).2XiXsXsXtX-Xn.1.f.[.;X8XrXuXuXpXpXaXaXpXfXfXtX@Xl.V j ",
"o o a z %.E.<XtXtXwX2X{.z.9.y.m.{.+X=X0XtXtXtX0XK.M.' 0 3 y 2.l.R.Q.Q.!.!.~.n.h.3.1.$.e.E.-XtXiXiXqX Xl.1.h.|.8XyXpXpXaXaXaXdXaXaXaXaXwXOXj.Z h ",
"o o a x w.W.4XtXfXiX8XOXm.0.9.y.z.m.G.).@X9XeX8X&XH.k.@.y P Z. X%X%X2X3X1X2X@X{.H.l.e.e.n.+X8XqXwX2X[.g.I g. X9XyXyXuXuXaXdXdXhXfXpXpX7X}.t.B f ",
"o o a x &.W.=XtXiXwX3X+Xm.w.%.9.w.w.y.d.~.@X4X6X-X Xn.1.S t.[.:XyXuXuXuXuXuXwX2X$XJ.g.9.j.(.-X:X%X XA.I Z e.[.2X9X9X7XeXyXuXpXuXtXrX7X-XJ.e.v a ",
"o + a l $.x.).*X-X-XOX~.x.w.y.x.m.x.w.0.s.~.OXoXOX~.n.9.J y.Q.%X7XyXpXgXsXaXuXyX6X}.j.I e.z.Q.(.(.A.g.M c L n.{. XOXOX$X-X<X2X2X<X+X{.J.f.S f + ",
"+ a f h C $.s.m.B.n.b.y.w.u.v.].+X).j.1.9.s.m.B.R.m.s.0.J 9.z.Q.OX7XuXgXhXaXaXiXqXOXb.L A 1.t.y.g.I L c + c I f.j.b.c.R.Q.^.^.~.Q.b.h.e.Z g 8 + ",
"a s h B A 1.e.y.e.9.$.1.9.s.^.1X9X*Xb.D D e.s.d.x.x.s.u.w.w.w.y.~.2XyXaXaXaXaXaXyX$Xb.Z n b A L Z b j + o 8 b S U 9.y.a.c.v.v.c.z.9.A j f a + O ",
"d j A 9.a.z.m.m.a.9.D 9.x.!.@X9XqX@Xb.D 1.x.Q.~.^.~.^.Q.Q.c.p.w.Q.2XpXgXaXaXaXaXtX$Xz.J A A U I I L b f o c L e.h.h.c.A.Q.^.^.~.R.y.Z a + + p p ",
"z C w.B.}.-X-X-X~.z.9.s.).-X9XeX3XXXj.D y.~.<X3X4X1X1X4X<X`.c.s.Q.2XuXhXaXaXuXyX9XOXT.U U r.h.b.j.g.I b f M g.A.(.{.XX@X-X<X4X1X@X^.e.h a a a a ",
"F $.x.}.3XwXiXwX-Xm.y.B.*XtXtXqX:X(.y.9.z.+XtXpXiXiXpXpXtX=XQ.s.Q.<XyXpXaXyXyX9X%X).x.U U b.A././.S.g.M v I Z.OX:X3X7XtXtXiXpXpXrX%Xb.D j a d h ",
"H %.T.@XwXaXgXpX1XQ.a.Q.2XuXpX7X%X/.h.U c.OXeXpXsXsXgXkXpX1XQ.s.c.).<X1X1X<X-XOX).c.r.J w.b.S.[.[./.h.Z b I /.$X2XrXyXuXpXdXdXdXpX3X[.j.D B j d ",
"#.u.R.@XwXaXhXpX2XQ.s.E.2XuXyX6X%X[.U U U {.%XyXuXpXgXgXpX<XQ.y.p.v.Q.!.^.~.E.m.h.r.D A U j.A./.[./.Z.L b I /.OX7XrXuXpXdXdXgXdXpXqX-X(.l.D h f ",
"%.&.T.OX7XyXuXtX-XB.s.G.<XuXrX6XOX/.U U h./.$X%XtXpXdXgXuX<XE.w.%.p.d.c.v.v.x.y.y.D A n I h.A./.[./.h.L b U b.OX%XrXpXdXaXaXaXaXpXtX9X:XJ.e.B s ",
"#.%.d.^.@X-X1X<X).z.y.B.:XuXyX3X{.R.U U U R.OX%XrXpXdXdXpX:XQ.w.y.c.E.^.^.^.~.G.m.t.A b I j./.[.{./.Z.U b U U /.%X7XyXdXaXaXaXaXaXpXtX3X}.t.B h ",
"G H w.x.W.^.^.W.v.0.9.B.:XtXtX3X{.R.U U r.R.{.%XrXpXgXgXpX1XB.y.v.).-X4X2X1X1X:X%XQ.e.Z I b./.{.{.[.b.L v b U c.{.%XyXuXpXaXaXdXsXaXiX0XXXa.C j ",
"F G %.i.Y.T.T.T.p.$.1.n.-XrXeX-X{.b.U L U b.{.%X7XuXdXdXtX-XQ.s.G.*XtXpXpXpXpXpXyX%Xh.Z I j./.{.[./.Z.L v v F U R.OX7XyXuXpXaXiXpXtXwX8X}.z.S z ",
"F H p.T.!._._.W.v.e.1.a.).%X@X).R.U U n A r.c.}.-XqXiXpXuX:XQ.s.E.:XiXsXgXsXgXgXuX%Xj.A L U b.Z.Z.U g.L v v n U R.OX7XuXpXdXyX7X1X-X*X+XG.9.Z h ",
"H &.x.`.1X4X4X=X'.s.$.9.c.R.m.z.U A n v n A r.n.{.:X9XuXwX-XE.s.E.-XtXpXsXdXgXgXyX%Xb.Z M L U J U L I L b b A U T.OX7XyXuXpX%X%X).^.E.m.w.A h a ",
"#.u.R.=XtXdXpXtX%Xm.0.$.p.s.p.r.U U b n v n b U A.}.:X7X6XOXm.a.B.@XqXiXpXpXdXgXpX-XZ.1.Z B v n c v c M L S A 9.c.OX%XyXyX7X%X!.d.s.s.s.$.B s 7 ",
"#.i.W.1XdXgXjXpX<XQ.w.y.v.Q.R.m.b.b.h.U A n n U r.A./.}. XQ.y.t.n.+XqXiXpXpXdXdXpX3X Xn.t.D B d a 8 c c M Z B A U /.OX%XOXOX).T.p.d.T.m.s.S h s ",
"#.i.!.1XpXgXgXpX2X!.s.v.).*X<X@XOXOX{./.g.L v v A e.y.h.h.e.D S l. XqXiXpXdXdXdXpXtX3X@XQ.w.C j h f c c b b v Z U U R.R.A.m.z.p.s.W.XX+X^.j.C k ",
"&.i.W.1XpXgXgXtX<XQ.x.Q.<XtXtXtX%XeX%X%X/.U v v A U 9.9.U A m m f.}.8XtXpXpXpXdXpXiXqX,X}.j.D m B b M S S Z Z Z A A U U I I U U y.~.1XqX*Xm.$.x ",
"&.i.W.1XpXgXgXiX%XQ.z.Q.%XyXaXpXyXyXyX7X{.g.b L t.z.n.n.j.9.Z m 9.G.*X5XtXdXgXgXpXwX>XU.V.N b N 3.h.z.b.j.b.j.g.2.K r r r r r N P H.6XuX4XE.%.V ",
"#.i.W.1XpXdXsXtX$XZ.y.A.%XyXaXaXuXyXyX7X{.g.L U G.@X-X@X}.B.3.Z 1.s.W.=XeXpXhXjXpX,XL.O.u 3 w o.C. X@X+X#X$XOX[.C.K w & . * * * t V.;XyX1XE.J x ",
"#.&.W.=XtXiXtX8X$XZ.U Z.$X7XiXpXyXyXiXyX{.l.g./.-XqXiXtX3X Xj.S C $.v.`.1XtXfXaX0XU.O.5 #   < ..L.>X8XqX6X6X6X#XC...2   # $ #   2 6.U.8X@Xb.S k ",
"G &.d.).=X<X-XOX/.U P U /.$X%X7XyXqX%X$X{.S./.{.0XpXsXpXqX+Xb.D C $.&.W.oX=X1X&XU.D. ., = = ,  .8.U.>XwXyXyX#XL.8.| , > > > > ; E  .D.P.F.2.y 9 ",
"V C %.d.W.E.B.v.y.P S D a.B.}.-X,X$X{././.{.$X6XwXpXaXaXqX+Xb.J H U u.Y.R.^.Z.8.O.| ` ~ ~ ~ ~ ~ | O.L.,XtX,XL.O.| ` ^ ^ ^ ^ ^ ( ( ]  .O.| t * * ",
"z x $.w.s.s.x.a.9.1.S S 1.y.m.[.$X[.Z.g.Z.$X8XyXuXpXaXyXqX+Xn.0.J H u.Y.T.v.7.i 5 E ~ _ { } _ ~ ; 5 6.U.,X.X5.5 , / +.*.*.+.=.=.{ ( Y 2 < # # # ",
"x x $.d.B.~.~.B.m.l.j.3.I U h.G.[.S.g.e.Z.%XyXpXaXaXaXaXyX%XR.0.0.s.T.R.R.T.b.7.O. .` ~ ~ ~ ~ T = > ..D.U.D. .5 0 / *.-.-.,.;.;.;.{ ~ T % # #   ",
"G %.d.'.=X4X<X-X-X|.(.n.9.A 1.l.Z.C.e.U Z.%XyXaXaXaXaXaXuX%XR.w.p.R.`.XX].oX X|.U.D. .: = = ; ; : E `  .<...' ^ _ +.*.-.,.,.>.>.>.;.{ { T ; #   ",
"#.&.W.=XtXdXpXtXrX,X$XS.t.Z A e.C.U I L b.$XyXaXaXpXaXpXrX%XT.r.p.Q.OX+X$X$X%X9X8XU.5.2   $ 1 > ! ! Y > 2 5 / +.*.*.=.=.;.;.;.;.;.;.;.{ ( , $   ",
"&.i.W.1XpXjXjXfXyX:X}.b.I c v L I L b L l.$XyXuXaXyXwX7X%X~.y.A U b./.{.OX$X7XyXqX.X7.t t ..o...` Y ; 4 4 T ) +.-.,.-.=.{ _ _ ( ( _ } ( ~ 0 * * ",
"#.i.W.4XdXjXjXaX6X{.b.I b p c v b v c b g.}.8XyXyXqX:X{.A.y.Z k b U U R./.{.%X3X3X Xk.2.7.H.I.F...> - 4 R W ] +.-.,.:.{ ~ Y : ; : : : : 0 0 q r ",
"#.&.W.=XtXpXaXtX%XZ.I b v c v c v v p v 3.(.%X6X,X:X}.Z.9.Z c f f n Z U h.S.[.OX+X(.c.y.B.@X,XI.5.2 4 4 W Q ] _ *.:.;.{ Y ; $ 1 $ 1 1 2 w c m z ",
"G %.d.'.*X4X1X*X/.t.S m 1.3.9.I I b n v U Z.{. X{.[.R.c.U U L L b n v b U U Z./.Q.R.p.r.T.XX@XP.<.3 2 4 W W Q } } { { ) 0 w u i O.O.O.O.<.K C C ",
"x C $.d.E.Q.Q.m.a.P m 1.l.G.J.A.Z.U A A U U b.n.h.Z.U U U U U U U A v c b b L U y.U U U 9.b.n.l.2.N t 2 4 R Q [ [ E Y 0 y @.7.J.U.U.#XU.H.f.D V ",
"z x $.w.s.s.s.a.9.A Z t./.%X%X$X{.Q.U U U U p.U L L U U R.R.R./.Z.U b c f f c L J U D U U e.t.t.f.e.i w $ 4 W W W 4 % w L p.~.-XqXpXpXqX@Xz.I B ",
"x C $.x.E.Q.G.m.j.9.1.z.OX7XqX7X%X}.Q.h.U h.r.U Z Z U Y.`.XXOX/.Z.U I b f p v L r.y.h.h.b.z.A.~./.G.7.t # @ R W R = * y 3.R.oXeXaXkXhXpX-Xm.C k ",
"G %.d.`.-X4X1X-X).c.y.m.%XrXuXyXeX<X}.Q.A.S.l.g.L Z t.{.%X%X%XOX/.Z.g.I b c b U m././.{. X+X-X3X4X-XF.u # # @ 4 ; 6 r L b.).<XrXfXgXgXtX&Xj.D j ",
"#.&.W.=XtXpXpXtX-XQ.x.~.<XuXaXaXuX7X<X$X{.J.H.k.I I l.@XrXrX%X$X[./.S.U L b I /.{.$X%X%X8XeXiXpXpXwX.X6.2   # $ * r b U n.{.%XeXtXyXtX8X}.a.B h ",
"&.i.W.1XpXkXkXpX1X^.v.^.2XuXdXgXaXyXqX2X$X[.H.t.D 1.n.:XuXyX%XOX{.{./.Z.U L U /.OX%X2X4XqXpXsXgXgXpX,XL.5.u 3 6 6 8 n U h.R.{.+X-X-X+X}.m.9.k g ",
"#.i.W.1XpXgXgXpX3X^.v.^.4XpXgXdXaXpXyXqX-X/.l.3.D 3.m.<XpXuX7XOXOXOX{.S.U U U /.$X<X6X7XrXpXfXgXgXpXqX,X#XC.<.r 9 g v n U r.z.z.B.B.l.j.9.S z z ",
"&.i.!.<XtXgXgXpX4X~.v.~.4XiXdXsXaXaXaXtX-X~.t.1.D t.G.<XtXrX3X%XOXOXOXR.U U Z./.%X%XuXyXrXpXpXaXaXpXaXpXqX Xj.Z h j B Z A U e.y.y.t.3.1.D Z z z ",
"&.u.W.=XpXgXgXpX2X^.v.^.1XpXgXgXaXaXaXtX-Xn.9.1.t.n.(.;XqXqX2X%X$X%XOX/.U U U {.%X%XeXuXpXaXaXaXdXdXfXkXaX1Xn.$.S 9.f.z.b.m.m.G.G.A.n.l.e.C x z ",
"&.i.W.*XtXsXgXpX3X~.d.~.4XpXgXgXaXaXiXqX|.l.P I l.P. X:X7X%X%X%X%X%XOX/.h.U Z.{.%XyXuXuXaXdXdXdXgXdXkXkXaX1XB.$.y.G.}.+X%X-X2X2X1X:X%X}.G.q.C x ",
"#.&.T.oX8XtXtXtX-XE.d.E.*XtXpXpXuXwX9X>X[.3.Z 2.n.|.$X$X%X$X$XOXOXOX{.R.U U U /.%X%XeXuXuXyXuXuXiXtXpXiXtX+Xm.9.j.).:X8XqXrXrXtXqXqX9X:X).s.$.V ",
"G #.s.W.XX@X*X+X(.s.0.a.Q.*X-X=X@X@X X(.l.D m S g.S./.(././.Q.R.Q./.R.h.I v I j.{.OX+X%X%X%X@X+X+X+X+X*X XB.e.D e.B.OX*X-X-X-X-X-X*X*XOXQ.w.G V ",
"z x $.w.v.m.c.x.q.$.A 1.y.z.v.n.n.z.l.y.1.m 8 m U r.h.U U r.U U r.U U U c 8 c P U U h.b.z.h.j.j.j.k.h.f.t.1.m v S q.z.z.n.z.n.n.m.B.z.z.w.$.C x ",
"l k x C $.$.$.C V j j k V D $.C D $.D C m h 7 h b A A V V n L n B A n j + o o c L n A A A b n b m m m g g 9 7 7 h B S C D Z D D D D C C C F x x ",
"s d k x C C z z j h h h h k z z z z z z h a 7 h j l l k j d j k s l k p o X o + v v j j p c f a a 8 7 o o o 7 7 a h k k v h v k z z z z l x x x "
};
