/* XPM */
static char *_36b151b43d64b62da33fd2dd75562b9oDWMpfKRPTV8YUg9[] = {
/* columns rows colors chars-per-pixel */
"24 24 95 2 ",
"   c #001F0B",
".  c #2B1300",
"X  c #311601",
"o  c #361A03",
"O  c #3B1C02",
"+  c #01200D",
"@  c #3C2004",
"#  c #3F2109",
"$  c #452506",
"%  c #4C2806",
"&  c #44230B",
"*  c #49270C",
"=  c #472A0E",
"-  c #4C2B0D",
";  c #512A07",
":  c #522D0C",
">  c #5C340D",
",  c #462B11",
"<  c #4D2C11",
"1  c #522F13",
"2  c #4D3014",
"3  c #543213",
"4  c #593513",
"5  c #5C3915",
"6  c #543518",
"7  c #5A3619",
"8  c #563A1D",
"9  c #5C3C1C",
"0  c #633D16",
"q  c #643D1A",
"w  c #693D18",
"e  c #4E3623",
"r  c #553B21",
"t  c #2D5409",
"y  c #00701C",
"u  c #38640A",
"i  c #005E20",
"p  c #44570B",
"a  c #65411C",
"s  c #6C4218",
"d  c #71471C",
"f  c #4C620C",
"g  c #42710B",
"h  c #4A7C09",
"j  c #5E4122",
"k  c #654423",
"l  c #6A4622",
"z  c #6E4A25",
"x  c #604428",
"c  c #744A23",
"v  c #714D29",
"b  c #795027",
"n  c #74512D",
"m  c #7C542B",
"M  c #6B523D",
"N  c #7A5D46",
"B  c #7E624A",
"V  c #786651",
"C  c #805931",
"Z  c #81654C",
"A  c #896B52",
"S  c #8E7157",
"D  c #86725C",
"F  c #92745A",
"G  c #95785E",
"H  c #8E7B64",
"J  c #967D62",
"K  c #9B7E64",
"L  c #4E8308",
"P  c #948067",
"I  c #958069",
"U  c #9D886E",
"Y  c #A0876B",
"T  c #A2866B",
"R  c #A0876C",
"E  c #A1876D",
"W  c #A08B71",
"Q  c #A08B72",
"!  c #A28C72",
"~  c #AD9376",
"^  c #AD9377",
"/  c #AE9378",
"(  c #AC9479",
")  c #AC957A",
"_  c #AD967B",
"`  c #AE967B",
"'  c #AE987A",
"]  c #AE987B",
"[  c #AF997D",
"{  c #B0997D",
"}  c #BDA387",
"|  c #BCA587",
" . c #BEA587",
".. c #BDA687",
"X. c #BDA688",
/* pixels */
"% 0 0 s 0 a a q 0 s s d : 4 5 0 ; % ; O ; : 4 o ",
"q  . .z  . .X. .U c  . .l X. .| 2 d w : 4 P  .- ",
"a  . .C  . .}  .m l m m a  .| | k [ T Z 4 F } 2 ",
"a  . .C  . . . .+  . . .k ]  ._ l [  .K 4 F } 1 ",
"a  .X.m X.+   S 1   ^  .v 6 v k 2 ] [  .6 Y ..0 ",
"0  .X.4 t t t   &   K  . .z  .| z k D 9 & l z @ ",
"% 5 6 o * G X.t   t G ^  .z | | [ = = z R  . .- ",
"o 0 [ J 7 Q  . .t   6 z v , v X.X.8 Q  . . . .3 ",
"o d  ._ l q v ^ G 3 _ X.} J r U J , _ _  . .U * ",
"$ 2 a 6 z | 3 z v l k X. .| 2 3 < X 1 8 n z $ O ",
"0 _  .k | E 7  . . .z X. .U q Z B & J ^  . .< % ",
"d _  .k } F 7 F  . .a z n q < N A & G  . . .T & ",
"5 b m 6 X.A 4 A | | k  . . .< A A & a ^  .| ] 4 ",
"d  . .9 z 7 & 1 F ] z [  . .6 - & e q ^ ] n a @ ",
"d  . .v  .^ R # 7 7 , _  . ._ 5 - 2 2 9 9 z | 0 ",
"d  ._ 9 ] X.{ r | ] 3 b  . .    ] { U + + + | 4 ",
": z k 2 k I j }  .[ 0 c m + u u    .  f f g     ",
"d  ...U < M 2 | X.X.q K K X.  + t   f f h h h   ",
"d  . .6 & = & Q ! r O 1 B K v  .  i p L + +   4 ",
": z a 2 E S 6 a < m Z < o 7 7 j x   y   c  . .4 ",
"d | | n  . .F V 2 X.S N < S T |  .+   4 F  .] - ",
"d | | n  . . .k j  .G F 7 K ^  . . .- * 7 x 6 : ",
"d ] | z  . .Q , H K G G 6 T | |  . .9 _ |  ._ 5 ",
"% 0 4 $ 4 5 4 @ 4 : : 3 . - 3 - = @ @ > 2 5 4 > "
};
