/* XPM */
static char *_1aeea87cae64854fbcccaa83dc53bb02QLccWOggDhjfZGy[] = {
/* columns rows colors chars-per-pixel */
"24 24 17 1 ",
"  c None",
". c black",
"X c #603913",
"o c #850000",
"O c #860000",
"+ c #920000",
"@ c #A40000",
"# c #A60000",
"$ c #B90000",
"% c #CE0000",
"& c #E50000",
"* c #E5B900",
"= c #FFCE00",
"- c #C4AB8F",
"; c #DABE9F",
": c #F3D4B1",
"> c #FEF8E7",
/* pixels */
"          .....         ",
"         .XXXXX.        ",
"         .&&&&&.        ",
"       ...........      ",
"       .XXXXXXXXX.      ",
"    ......---&-...      ",
"   ..:.$$.;>:::.        ",
"  .:::.&$$.;>:;..       ",
" .::>-.&&$$....$..      ",
" .:>--.%&&$$$$$&..      ",
".;>-...%%&&&$$$.:>. ... ",
".;>.  .%%%%%&&&.;:>.>>>.",
".;>.   .#%##%%. .;;:::>.",
".;>.   .####*=.  ..;;;;.",
".;>>. ......==.    .... ",
".;>>. .$$&&&&&&.        ",
".;;;. .$&&%%##%.        ",
" ...   .$%%...#%.       ",
"       .#%.   .#.       ",
"      .o#.    .$%.      ",
"     .o#.      .%.      ",
"    .++.      .o.       ",
"   ....      ...        ",
"   .....     .....      "
};
