/* XPM */
static char *plaayer2_resized[] = {
/* columns rows colors chars-per-pixel */
"72 72 254 2 ",
"   c #030201",
".  c #0B0301",
"X  c #010B01",
"o  c #0C0A04",
"O  c #070C0B",
"+  c #0C0B09",
"@  c #130301",
"#  c #1B0101",
"$  c #140B03",
"%  c #1A0D04",
"&  c #130D0A",
"*  c #1A0C0A",
"=  c #081707",
"-  c #151105",
";  c #1B1106",
":  c #141B05",
">  c #13110D",
",  c #1D140A",
"<  c #191713",
"1  c #250101",
"2  c #2D0100",
"3  c #270A05",
"4  c #330000",
"5  c #3C0100",
"6  c #390B03",
"7  c #221305",
"8  c #22140B",
"9  c #281808",
"0  c #2C1B0B",
"q  c #361B05",
"w  c #231C16",
"e  c #3C1A14",
"r  c #072507",
"t  c #162407",
"y  c #12330B",
"u  c #392309",
"i  c #3A240C",
"p  c #2C380D",
"a  c #28251B",
"s  c #392816",
"d  c #2C2922",
"f  c #332C23",
"g  c #382D24",
"h  c #393328",
"j  c #3B342B",
"k  c #393A2F",
"l  c #430100",
"z  c #4B0101",
"x  c #4E0905",
"c  c #540100",
"v  c #5B0503",
"b  c #491C10",
"n  c #640100",
"m  c #6C0000",
"M  c #6B0D0A",
"N  c #740000",
"B  c #7B0000",
"V  c #760D08",
"C  c #65130D",
"Z  c #442305",
"A  c #43250B",
"S  c #492808",
"D  c #4C2B0B",
"F  c #522D0B",
"G  c #552E0A",
"H  c #563A00",
"J  c #55310E",
"K  c #5A330E",
"L  c #442B13",
"P  c #4C2C12",
"I  c #48271A",
"U  c #522916",
"Y  c #4C3218",
"T  c #543314",
"R  c #5B3512",
"E  c #5E3915",
"W  c #54351A",
"Q  c #57381A",
"!  c #5C3B1C",
"~  c #643612",
"^  c #623B14",
"/  c #613D1A",
"(  c #532821",
")  c #45382A",
"_  c #533A25",
"`  c #5C3D22",
"'  c #443C32",
"]  c #483E35",
"[  c #662E26",
"{  c #613F21",
"}  c #0C4A10",
"|  c #334607",
" . c #2F500E",
".. c #35550C",
"X. c #2A640F",
"o. c #3B482C",
"O. c #474E0E",
"+. c #6F4400",
"@. c #694119",
"#. c #6B431B",
"$. c #73481D",
"%. c #476D09",
"&. c #5C4226",
"*. c #4A4338",
"=. c #574939",
"-. c #555735",
";. c #634324",
":. c #6B4621",
">. c #644529",
",. c #694828",
"<. c #6C4B2C",
"1. c #744C23",
"2. c #734E29",
"3. c #615A2E",
"4. c #74512E",
"5. c #79552F",
"6. c #654A37",
"7. c #6B4D32",
"8. c #6C5337",
"9. c #735434",
"0. c #765637",
"q. c #7C5935",
"w. c #765A3C",
"e. c #7C5C3B",
"r. c #54672C",
"t. c #7F613F",
"y. c #4C4B47",
"u. c #554D43",
"i. c #575249",
"p. c #5A5852",
"a. c #685846",
"s. c #735A43",
"d. c #7C5D42",
"f. c #695E51",
"g. c #786247",
"h. c #7C634B",
"j. c #736A55",
"k. c #796956",
"l. c #7B7468",
"z. c #830000",
"x. c #8C0000",
"c. c #820B03",
"v. c #930000",
"b. c #9C0000",
"n. c #821612",
"m. c #A30000",
"M. c #AC0000",
"N. c #A10A00",
"B. c #B40000",
"V. c #BC0000",
"C. c #B81504",
"Z. c #8A2C0F",
"A. c #94290D",
"S. c #B73110",
"D. c #C40000",
"F. c #CC0000",
"G. c #CB0A00",
"H. c #D40000",
"J. c #DB0000",
"K. c #DA0A00",
"L. c #C61407",
"P. c #E30000",
"I. c #E80300",
"U. c #D22F04",
"Y. c #E13E19",
"T. c #AC5600",
"R. c #874B2B",
"E. c #825E3A",
"W. c #83613C",
"Q. c #89643E",
"!. c #DF5500",
"~. c #836343",
"^. c #8A6946",
"/. c #856748",
"(. c #8C6C4B",
"). c #926E4A",
"_. c #8E754D",
"`. c #886D53",
"'. c #897359",
"]. c #947454",
"[. c #92755A",
"{. c #957A5D",
"}. c #9B7D5E",
"|. c #AC694E",
" X c #877864",
".X c #8C7A65",
"XX c #937D66",
"oX c #9A7E62",
"OX c #837E75",
"+X c #DF6857",
"@X c #AD8900",
"#X c #C48900",
"$X c #F18A00",
"%X c #ECB300",
"&X c #F2CB00",
"*X c #F9CA00",
"=X c #FFE100",
"-X c #8C8359",
";X c #A0815E",
":X c #9D8163",
">X c #98846B",
",X c #938872",
"<X c #9B8A74",
"1X c #A18464",
"2X c #A48768",
"3X c #A5896A",
"4X c #A98B6A",
"5X c #B08F6F",
"6X c #A48D73",
"7X c #A88E72",
"8X c #AB9275",
"9X c #A9957A",
"0X c #AC957A",
"qX c #B19678",
"wX c #B39A7D",
"eX c #E7937B",
"rX c #8B8981",
"tX c #A79986",
"yX c #B59E81",
"uX c #B89F81",
"iX c #A39E93",
"pX c #BBA284",
"aX c #B9A387",
"sX c #BEA68A",
"dX c #A8A59A",
"fX c #B3A692",
"gX c #AEABA1",
"hX c #C2A88A",
"jX c #C2AA8C",
"kX c #C5AD91",
"lX c #CCAB90",
"zX c #CCB295",
"xX c #D6BA9C",
"cX c #E6A78B",
"vX c #CBBBA6",
"bX c #DDC09F",
"nX c #DCC3A6",
"mX c #D5C9B4",
"MX c #E6C9A8",
"NX c #EBCEAF",
"BX c #EAD4B9",
"VX c #F4D7B5",
"CX c #FCE0BD",
"ZX c #E8DCC8",
"AX c #F4DEC1",
"SX c #EEE1CB",
"DX c #FAE5C8",
"FX c #EDE6D6",
"GX c #F5EBD7",
"HX c #FBECD4",
"JX c #F9F0DB",
"KX c #FEF3DB",
"LX c #FCF8E5",
"PX c #FFFFF4",
/* pixels */
"S S G K R E E ^ ^ @.@.@.^ E E ^ @.@.@.&.@.K @.E E E @.@.@.$.$.$.$.$.$.@.~ K J R E E E E E E R K F S S S S S G S S Z Z Z Z S G Z D F F D D u q q ",
"F F K ^ @.#.#.#.@.@.#.@.#.@.#.#.:.#.@.#.#.#.#.#.@.@.@.@.#.#.^ #./ $./ ^ R F D J P T T R E / @.E K F S G S G G S S Z Z Z Z G G G T E E E T Z Z q ",
"G T / 2.q.t.t.q.5.1.$.1.5.q.t.t.W.W.W.W.t.W.t.e.q.0.2.$.$./ Q P J P P L i u u u i u i A Q 7.q.4./ J G G G K G G G x Z Z S G K [ >.7.9.9.;.T Z q ",
"K E 2.^.;X1X1X;X).5.2.q.(.;X1X:X1X1X:X2X:X:X:X:X[.`.Q.q.1.E i 8 8 8 7 7 ; % % * ; - % 8 ) h.;X_.<.J G G ~ ~ ~ ~ G G S S F K { 4.~.(.}.[.~.&.D i ",
"E #.e.}.wXpXsXwX:XQ.5.Q.1XwXpXpXwXwXsXwXpXwXwXwX6X:X_.q.:.Y 0 $ . . o . . . o . . . X > ) k.<X{.0.Q Q @.#.$.:./ / R U G U R ,.~.[.6XqXqX[.8.T A ",
"^ :.W.1XpXkXkXpX3X^.q.^.3XpXjXjXhXjXjXhXjXjXsXwX3X{.g.<.W i 0 ; - - ; ; ; - - ; ; ; $ , h a.k.h.<.&.#.5.W.W.q.q.2.:.{ ! K E { /.oX8XaXuX:X9.Q S ",
"^ :.E.1XpXjXjXpX4X^.E.^.4XpXjXjXjXhXsXsXjXjXsXqX;X^.<.Y 0 0 u i i i i s i i s i i i i i s h ) ) _ ;.9.(.{.;X]._./.E.9.>.Q ` 7.~.{.7XaXwX;X8.Q D ",
"^ :.W.:XpXhXjXpX4X).Q.).4XwXhXhXwXsXsXsXsXsXwX5X_.5.Y w & ; i K ~ ^ K ~ ~ ~ ~ ~ ~ ~ ~ K A 9 - w L ;.t.-X6X5X3X:XoX`.h.9.[ ` [ ~.[.2XwXwX:Xw.W D ",
"@.:.t.1XwXjXkXhX4X).W.).4XwXlXhXhXhXhXhXjXjXsX:Xg.&.s > . 3 C Z.A.A.A.A.A.A.A.A.A.A.A.Z.C 3 . - s ,.^.:XwXyXwX8X3XXX`.s.[ ` >.d.[.2XyX0XoX9.W D ",
"@.#.W.;XwXjXjXwX4X).Q.).4XwXhXlXjXkXjXhXlXlXpX-X-.p = X . 5 c.C.L.L.L.L.L.L.C.L.L.L.L.C.B 5 . - L <.^.:XwXaXyXwXqXoX[.~.{ [ >.d.[.3XyXyXoX0.W D ",
"@.@.W.1XwXzXkXwX4X).W.).4XpXsXwXwXwXtXfXwXaX8Xl.o.y X X . l x.D.K.H.H.H.H.H.H.H.H.H.J.F.x.l @ > s ,.s.{.6XtXyXaXyX7XoX/.7.[ >.~.[.3XwXwXoX0.Q P ",
"&.#.Q.1XwXkXkXwX4X).W.).5XwXwX<X-Xl.l.l.-X Xj.u.d O X   . 4 m v.m.m.b.b.b.b.b.b.b.m.m.v.n 4 . o a L &.8.k.XX9XyXuXyXoX[.7.{ >.~.oX7XuXuXoXw./ J ",
"@.:.t.:XpXjXjXsX4X).Q._.5XwX<Xj.*.o.o.o.o.' j a < X       @ 4 l z z z z z z z l z z z l 4 @   X - : w a ' a..XyXsXsXqX{.9.{ ,./.:X8XaXuX:Xe.@.K ",
"H :.W.:XwXjXjXwX4XQ.E.).4X8X-Xo.y r y r < = O   O O X   . . . @ @ @ @ . @ @ @ @ @ @ @ @ . . . o o . . . > j k.6XuXaXqX{.9.` >./.oX8XwXwX;Xe.@.E ",
"@.:.W.:XpXkXjXpX4XQ.5.e._.l.j.X.r r r r = X   . $ * 7 7 , , ; $ - - - : - - $ - % - & - % , 7 7 7 ; .   . f f.>X8X7XoX/.>.! { w.(.}.;X;X^.<.E J ",
"E #.W.2XpXkXkXpX2XQ.2.O.r.r.r. .| } } y r X   @ 0 A D L A A i u u i i s u u i u u u u u i A A A S i 9 . o a a..XXX_.W.7.! U Q <.0.t.W.t.4.&.S S ",
"E @.q.;X0XpXsXwX{.0./ T ....X... ...X...p r . ; q T R R R T E ^ / { ~ [ E @.@.@./ / / / E R R J R T u $ + d =.k.h.7.&.Y A L T { <.0.5.4.#.Y S u ",
"J @.4.^.:X:X:X{.~.>.P A p | ..O.r.r.r.r.o.t . . 9 A A A L Q 2.E.R.Z.A.[ R.q.e.t.E.W.W.e.<.! L A i i 9 $   < h *.*.I u 0 0 q Y 7.W.^.^.W.4.Q S u ",
"J K @.<.w.w.w.8.>.Y Z u Z p &.3.g.-X-X-Xa.a X   . ; ; % 0 ) h.}.|.S.C.S.|.}.6X4X2X1X4X:Xh.) 0 * ; ; o X   O < a w , $ . @ ; ) d.:X5X4X;Xg.&.D i ",
"S F J E @.@.&.&.W L A i Z J @.w.'.6X0X8Xk.' >   X . .   + '  XwX+XY.Y.Y.+XwXsXsXjXjXjXyX'.) +   . . @ . . . .   o & > o   + g k.7XpXpXwX{.4.T S ",
"Z Z D F R @.>.7.6.&._ Y P W >.h.:X0XpXsX<Xa.*.a t = X   O ] XXlXcX+X+X+XeXxXnXnXMXnXMXzX.Xk O . # 4 5 5 4 1 . . > f ' f > O < =.k.<XaXpX:Xw.W S ",
"q Z S F ! <.g.'.`.`.s.<.` Q 7.`.>X0XsXsXwX<Xl.3.o.p r X + *.<XxXMXcXeXcXcXMXNXSXSXZXBXxXXXk + # z N z.z.N c 1 . f j.XXf.d     < j f.<XwX1Xw.Q D ",
"q q Z F @.e.].4X7X>X[.g.>.` 7./.>X8XwXwXpXpX0X-Xr. .t X > *.<XnXNXNXMXMXNXVXAXHXGXFXmXkX X) * 5 B m.V.V.m.N 4 & y.<XzX8Xu.<   + w *.'.6X}.8.W D ",
"6 q u J #.Q.:XyXyX0X2X`.9.;.<.w._.{.;X3XqXsXwX-Xr.p r X + *.9XMXVXVXAXAXDXDXHXHXGXmXfXXXa.( x n v.B.F.H.D.z.5 * u.tXMXzXXXu.' ' *.u.f.j.w.&.W D ",
"q q Z G 1.Q.2XwXsXpX6X[.e.:.;.<.9.e.~.(.}.qXqX'.*.t X X + ] <XxXVXVXAXDXHXKXKXDXBXfXl.] ( M B v.M.V.F.J.F.v.5 * *.9XMXMXkX9X6X6X<Xk.u.) s L D D ",
"q q Z K #.Q.:XwXpXwX6X[.e.:.#.,.,.,.2.4./.}.:Xj.f o     * ] .XlXbXMXMXBXSXSXZXBXzXXX] 8 l N m.V.V.V.F.P.H.v.l * *.<XMXVXNXMXNXNXxX7Xu.a 8 0 A Z ",
"q q Z J @.0.(.;X:X:X[.~.0.1.1.q.e.0.,.;.<.s.f.=.w   . 1 6 ( s..XXXrX9XtXdXdXiXrX Xa.( l v v.B.D.D.D.H.P.J.v.l * *.,XxXVXCXDXDXDXNXjX'.*.g e 0 q ",
"q Z Z F R ;.4.w.t.w.8.4.:.,.q._.}.(.9.! Y ) g < + . 1 c V M ( ' *.*.] y.y.y.y.*.k ( C B v.m.V.D.H.H.P.I.J.b.l * k  XzXBXDXHXHXDXVXnXjX6Xf.) 7 $ ",
"Z Z S T Q &.,.<.,.&.&.@.@.4.^.2X8X}.w.W i 8 o     . 5 B b.z.c * & & * * > * & & 3 l B m.V.V.D.D.H.P.I.I.H.v.l * h l.jXmXSXHXHXDXVXVXNXbX>X] +   ",
"S G Q ;.7.0.t.t.9.:.&.:.0./.;X8X0X;Xe.W 0 @       . l v.V.M.m 5 2 4 4 4 4 4 4 2 5 v v.B.D.D.D.H.J.P.I.I.H.v.l * j  XjXnXZXSXSXDXCXDXCXNX6X] +   ",
"K E :.e._.:X:X:X_.9.:.9._.2X8XqX7X[.q.Q q $       . l b.H.D.m.B N N B N N B N N B x.m.V.D.H.J.J.P.P.I.I.F.x.5 * k  XhXxXMXmXBXFXHXHXDXNX6X] .   ",
"^ @.9.].6X0XwX8X[.w.,.w.{.8X0X8X:X`.7.W s 8 & O O & x v.D.H.D.M.M.B.M.M.B.M.M.B.B.B.B.D.D.H.P.P.P.P.P.P.D.z.5 & k j.tXsXsXjXvXZXGXKXDXNX6Xu.<   ",
"^ $.E.}.8XtX>Xk.a._ I _ a.k..XXXoX~.` s s ] y.y.u.] [ n.b.M.B.V.V.D.V.D.V.V.D.D.F.F.D.D.H.P.P.P.P.J.J.J.D.z.5 * a =.k. Xk. XtXvXSXHXHXAXsXl.u.' ",
"^ 1.Q.1X8X.Xa.k w , , < w ) =.h.`.s.g 8 ' l.dXfXfX6X/.[ v m v.B.D.V.V.V.V.V.D.H.J.J.J.J.J.P.P.P.J.J.H.J.D.x.l . O w h h f ' f.tXvXDXHXSXvXaXXX.X",
"$.$.E.].>Xk.] < > > > > > w ) a./.u.a a p.dXZXGXAXxX>X*.8 5 B B.V.D.V.V.V.D.F.J.P.P.P.P.P.P.P.P.H.H.H.H.D.x.l . O O > > & < ]  XfXvXFXGXFXmXxXlX",
"^ $.<.s.j.f.p.y.y.y.i.y.y.y.y.=.6.u.y.p.rXvXHXKXHXNX<X*.+ 4 z.D.H.F.D.D.D.D.F.J.J.P.J.P.P.J.J.J.H.F.H.J.D.x.l . O < d f g h ] a. XiXmXLXHXAXMXbX",
"^ ^ Q Y ' p.OXiXgXdXdXgXgXiXl.y.g *.l.dXvXZXAXDXVXMX,Xk @ 4 x.H.P.J.J.H.J.J.J.H.J.J.H.J.J.H.H.H.H.F.H.J.D.v.5 @ < ] f.k.k.k.a.] *.l.gXGXHXAXMXbX",
"^ ~ A 7 < i.iXZXLXGXFXJXJXZXiXi.d i.iXZXHXAXVXNXMXlX.X*.8 z v.D.P.P.P.P.P.J.J.H.F.F.F.F.F.F.H.H.F.F.H.D.B.z.l * h s.>XqXyX9Xk.h w i.gXJXHXBXxXxX",
"^ ^ u @ + y.dXLXPXLXLXLXLXHXvX'.i. XgXGXHXDXNXzXtXXXj.y.) ( V v.B.D.J.P.P.J.H.D.D.V.D.D.D.F.H.D.D.V.B.m.x.n 6 0 ] '.8XhXlXyXk.f < y.iXFXHXZXnXbX",
"$.^ A % > y.gXJXPXKXDXDXDXDXnXhXtXjXvXAXVXVXMXyXk.u.*.a.s.a.( c B M.F.J.J.H.F.D.B.M.B.B.V.D.F.D.D.B.x.n z 6 Z I 7.'.qXuXhX0Xk.f < y.iXFXHXBXbXxX",
"$.#.D ; > y.dXFXKXDXVXVXVXVXNXMXMXbXxXvXxXxXlX.X] w j j..Xf.h 3 l v.L.K.K.H.G.B.M.M.m.M.B.D.D.D.V.m.N 5 # 7 i ! 0.[.3XwXwX3Xf.a < y.gXFXGXZXnXxX",
"$.#.S ; + y.iXZXHXVXNXNXNXNXVXVXNXxXyXXX.XXX Xa.g , s s.`.8.d o 6 A.U.!.!.T.U.N.M.m.m.M.B.V.D.D.B.b.m 2 . > i / 4./.].oX}.'.6.w O y.dXFXGXZXnXbX",
"1.#.D ; + *.<XmXVXVXNXNXMXMXNXVXMXyXk.] h ' ' g s u Y >.8._ < o u T.$X$X$X!.T.S.M.m.M.M.M.B.B.V.B.m.m 4 . - s T :.4.0.e.t.8._ - O y.dXFXGXBXbXxX",
"R.#.Y 0 < ' >XkXxXxXzXzXzXxXxXxXlXXXu.w + + * w I Q / >.` s * - O.@X%X*X&X%X!.S.N.b.b.b.b.m.b.m.m.v.m 4 . o 0 L T Q ! ;.&.Q s , a p.gXFXGXBXxXxX",
"$.$.@._ ' u.k..XXXXXXXOXOXXXXXXX Xj.=.g w * * s ` w.d.e.9.) > - H @X&X=X=X&X#XT.V n m m m m m m N n z #   . , 0 s L i s i i g *.p.rXmXFXGXBXMXxX",
"$.1.0.~.`.f.u.' ' ' ' ' ] ] k ' k =.a.f.u.) s _ g.}.2X1X'.u.a - | @X&X=X=X&X@X+.6 1 1 2 2 2 2 2 2 2 # .     o - , t t : : w *.l.dXmXFXFXGXBXxXxX",
"#.$.W.}.<X'.] , o o + & & & & + < ' k.>X'.8.>.s.oXqXuX0X:Xa.g 3 O.T.*X=X*X%XT.+.3 . @ @ # @ # @ @ @ @ . . . . X X = r = X > =.dXZXLXLXLXSXBXxXxX",
"@.#.E.].}.h.) , $ . $ $ * * , w d =.h.XX{./.h.'.8XpXtXXXk.6.( x Z.T.$X$X$X$X!.+.x l l l l l l l 5 4 5 5 5 1 . . = r y = X O i.dXLXPXPXLXSXBXMXxX",
"J E #.q.t.9.&.s u u 0 u i L ) =.i.a.d.h.`.'.oX3XaXpX,Xi.) ( V b.L.U.Y.!.!.!.U.C.m.v.b.v.b.b.v.v.z.B B z.N c 1 . = p | y = + y.gXJXPXPXLXSXBXxXxX",
"J J @.:.4.4.<.;.&.W Y W Q &.8./.'.k.8.7.d.{.8XaXpXwX'.k 8 l v.F.I.I.I.I.I.I.K.J.H.H.H.J.H.J.H.F.V.B.B.B.m.N 5 . r | ..p : - y.dXFXPXPXJXZXBXMXxX",
"J E #.9.t.Q._.Q.t.w.3.>.;.>.9.h.'.h.7.>.w.XXwXjXkXaXl.f @ 5 v.J.I.J.H.H.P.J.J.P.I.I.I.I.I.I.I.I.J.F.F.F.B.z.5 . : | O.| : > y.iXZXKXKXSXAXNXnXnX",
"@.@.5._.;X2X4X4X:X[.`.w.;.! >.w.d.s.&.&.w.:XyXjXkXaXj.k . 5 x.F.J.H.D.V.D.D.F.H.P.P.J.J.P.I.I.P.P.J.J.H.V.z.5 . t | O.| : > ] 9XMXAXAXZXBXMXMXxX",
"@.$.Q.;XwXwXwXwX0X6XXXd.>.T W >.6.6.` ` w.oXwXhXsX0Xk.j 3 l x.V.D.B.m.b.b.m.M.V.D.D.F.H.J.J.P.P.P.J.H.D.m.N 4 $ t | %.| : - k .XkXxXxXxXzXzXzXzX",
"$.1.Q.4XwXzXzXhXqX>X'.w.` P P _ ` _ P W 8.oX0X9X>Xk.6.( x m b.V.M.x.N m m m N B x.b.V.F.H.J.J.P.J.H.V.b.B v q 9 p O.%...t = d i. XXXXX.X>X.X>X>X",
"@.1.Q.4XhXzXzXhX7X'.8.` T A A U U P L T 7.'.6X.Xa.) U M x.m.M.M.v.v 4 2 4 4 4 4 l m m.F.J.J.H.J.H.D.b.m l q 0 p ..%.%...y = < d g ' j ' k ' ' ' ",
"@.$.Q.;XwXhXwXwXoXw.` P P P I P P P A P >.`.XXf.k , 5 z.B.V.B.b.m 5 @ . . . . . # z x.V.F.H.F.F.D.B.z.l # : p ..%.%.%...} y = = < > < < > & & & ",
"@.@.5._.;X3X:X:X/.<.W W Q ;.&.&.` ( F U { W.h.-.w . 4 z.B.B.v.m c 3 % . o . o - * 6 n z.m.V.F.F.D.M.N 2 O r } X.X.%... .| a d f h h h f s : - $ ",
"J E #.9.W.h.Q.t.7._ Y &.8.g./.d.s.>.Q W { 7.8.&.< . 4 B m.v.n 5 4 9 0 0 9 7 9 0 i 6 6 l N m.D.H.D.m.m 2 O r } X.X.} } p h O.3.s.j.l.k.k.6._ s u ",
"F K @.,.4.5.4.<.&.Q Q ,./.oXXXoX`.d.<.{ / { ` L 8 $ 5 B b.B 5 # ; q L A i q A P W I 8 1 z z.B.D.V.b.N 5 . r } } } } r p Q 2./.:XwXwXpX0X{.8.&.D ",
"K E #.5.t.t.W.e.4.&.;.9.[.7X8X6XoX[.E.7.{ Y I e 6 z m v.b.N 4   > s _ T P A P @.6.` ) g b M z.b.m.m.z.c 3 : r } } r t h >.E.].qXsXzXkXpX:Xw.@.D ",
"@.@.5.^.:X2X1X:X(.9.<.W.oXqXuXyXqX2X].d.6.s 0 6 n z.m.B.M.B 4 . < I 6.{ W P Q 7.~.d.f.a._ b l n z.m.v.B c 6 : r r t s _ 9.(.1XwXsXkXkXwX:X8.E S ",
"@.$.Q.;XwXsXsXwX:X/.5.~.2XuXsXsXuXqX2X`.=.a * 5 z.V.D.V.m.N 5 & a ] s.7._ T { 0.`.oXoXoXf.g 8 5 m v.b.x.B c 2 $ , u P ;.w.`.1X8XwXwXwX6X_.7.T D ",
"$.1.Q.4XpXkXkXpX4X^.q.^.2XpXhXhXpXuXqX>Xa.d . l v.D.D.m.B C b g ] a.d.s.>.( >.d.[.oX7X3X Xi.' I x m B x.x.N c 4 3 q i _ 6.~.`.}.:X:X:X_.w.&.T S ",
"$.1.Q.1XpXkXjXpX4X^.q.^.2XaXsXhXpXhXuX7Xj.f @ l v.D.M.N l b _ a.s.`.`.e.>.` >./.oXoX7X7X3XXXk.=.I 5 c B b.x.N c l 1 ; e _ <.0.e.t.s.8.8.;.Q J D ",
"$.1.Q.1XwXjXjXwX2X^.e.^.2XwXsXsXsXhXwXwXk.k * l z.M.x.z 3 a =./.'.[.`.~.[ { <./.oXoXqXyXwXwX0Xk.*.7 4 m x.b.x.B c 4 @ 7 s T { >.<.<.>.&.Q T J J ",
"$.1.Q.;XwXlXkXhX2X^.q.^.3XsXjXkXsXsXjXwXk.*.8 6 n B m z 2 e _ a./.'.[./.6.{ 7./.oX7X7XyXhXjXsX>Xf.' ( v m B x.x.N z 5 3 0 A _ 7.d.g.w.8.,.! J J ",
"$.1.Q.;XwXjXjXwX3X^.q.Q.4XpXkXkXsXsXpX8X'.&.s 6 5 l z c c x b g =.h.[./.7.{ 7.`.oXyXyXpXhXjXsXyX<Xk.a.I 5 c N x.x.B n z 4 9 ) s.:X2X:X].t.,.E R ",
"@.$.E.-X8XwXwXwX;Xt.4.t.;XwXwXpXwXwX8X>Xk.>.s 9 % # 4 c m c 2 & f i./.~.7.! ,./.oXoXqXyXaXwXaXwXwX6Xj.g * 4 v z.x.x.B c 1 & h k.6XwX9X>X`.4.@.K ",
"^ @.4.~.].;X:X{.^.4.:.4.^.{.:X:X:X-X'./.w.` L u 9 ; 3 x c 5 #   < ' =.` W P ` 9.`.].[.oXoX{.}.:X:X{.w.h ; 1 l c n m n l # . w =.k.[.{.'.t.<.E R ",
"J J @.1.q.e.e.4.,.&.T &.<.0.q.e.e.e.9.3.&.T S i i i q 3 2 # .   + < a s e i L Q 7.[ 9.0.9.8.8.7.w.3.&.s 0 3 2 2 2 4 2 # . O O d j *.6.9.1.@.E K ",
"F F J ^ @.#.@.&.R D D D R E / E @.&.E E J A i Z D P i 3 .           . $ ; q q D W T W W W W Y Y P Y D i u 3 $ . .   .           o w L T ^ ^ K K ",
"S S J J E H F F D S S S S J J K J J J F S Z Z S J T i -               . $ 3 q u A F D D A S Z A Z i Z Z q 9 o X                   $ q F H K K K "
};
