/* XPM */
static char *cGxheWVy[] = {
/* columns rows colors chars-per-pixel */
"72 72 228 2 ",
"   c #010000",
".  c #0B0101",
"X  c #0A0A04",
"o  c #0D0C0A",
"O  c #070D0B",
"+  c #130100",
"@  c #1C0000",
"#  c #130C04",
"$  c #140B09",
"%  c #1A0B0A",
"&  c #1B0B00",
"*  c #151104",
"=  c #1B1205",
"-  c #17130E",
";  c #191613",
":  c #1A1916",
">  c #0E120F",
",  c #250000",
"<  c #2D0000",
"1  c #280C04",
"2  c #330000",
"3  c #3B0000",
"4  c #390C00",
"5  c #211306",
"6  c #2B1B0A",
"7  c #241B16",
"8  c #3A240B",
"9  c #3B280D",
"0  c #37270C",
"q  c #2A241D",
"w  c #25231E",
"e  c #2A2926",
"r  c #342E26",
"t  c #3B332B",
"y  c #36342C",
"u  c #3C3B33",
"i  c #3C3B38",
"p  c #430000",
"a  c #4B0100",
"s  c #4F0804",
"d  c #540000",
"f  c #5A0000",
"g  c #550804",
"h  c #401500",
"j  c #640000",
"k  c #6B0000",
"l  c #730000",
"z  c #7C0000",
"x  c #720B00",
"c  c #62150B",
"v  c #6C1410",
"b  c #41250C",
"n  c #44290D",
"m  c #472C00",
"M  c #4A2817",
"N  c #553211",
"B  c #5A3312",
"V  c #5B3A19",
"C  c #543D00",
"Z  c #633411",
"A  c #603C19",
"S  c #613916",
"D  c #703600",
"F  c #532821",
"G  c #42392F",
"H  c #4C3A27",
"J  c #433B31",
"K  c #4A3D32",
"L  c #662E26",
"P  c #4C4400",
"I  c #4B4136",
"U  c #44433C",
"Y  c #4B443A",
"T  c #474438",
"R  c #55493C",
"E  c #6F4F2E",
"W  c #7F5C39",
"Q  c #6F4400",
"!  c #4D4B45",
"~  c #4B4B46",
"^  c #514F4A",
"/  c #584E40",
"(  c #595752",
")  c #55534C",
"_  c #6B5D4D",
"`  c #695649",
"'  c #745648",
"]  c #776857",
"[  c #74634E",
"{  c #7A7367",
"}  c #7D7A72",
"|  c #840000",
" . c #8C0000",
".. c #810D04",
"X. c #930000",
"o. c #9C0000",
"O. c #900800",
"+. c #821612",
"@. c #A40000",
"#. c #AC0000",
"$. c #A10A00",
"%. c #B40000",
"&. c #BC0000",
"*. c #B81504",
"=. c #89290A",
"-. c #94280D",
";. c #952B09",
":. c #8C3618",
">. c #B6300A",
",. c #B83320",
"<. c #C40000",
"1. c #CC0000",
"2. c #CB0B00",
"3. c #D40000",
"4. c #DB0000",
"5. c #DA0A00",
"6. c #C41407",
"7. c #C91407",
"8. c #E30000",
"9. c #EA0000",
"0. c #E30B00",
"q. c #D13B00",
"w. c #D32906",
"e. c #EB3F00",
"r. c #D83D32",
"t. c #994F00",
"y. c #BF5E00",
"u. c #825B38",
"i. c #874B2B",
"p. c #83603C",
"a. c #D54A00",
"s. c #EF4600",
"d. c #D37600",
"f. c #83715E",
"g. c #8C6D57",
"h. c #827562",
"j. c #8D7B66",
"k. c #8E7C69",
"l. c #8A7763",
"z. c #917E69",
"x. c #A67F61",
"c. c #AF5E45",
"v. c #EA6858",
"b. c #D86957",
"n. c #AD8900",
"m. c #EA8500",
"M. c #FF9300",
"N. c #F28E00",
"B. c #ECB300",
"V. c #C48900",
"C. c #F9CA00",
"Z. c #F1CB00",
"A. c #FFE100",
"S. c #8F826D",
"D. c #93816C",
"F. c #9C8368",
"G. c #9C8B74",
"H. c #9A8A75",
"J. c #938B7C",
"K. c #A58867",
"L. c #A28C75",
"P. c #A7937B",
"I. c #B4977D",
"U. c #E7937B",
"Y. c #A79885",
"T. c #B39C82",
"R. c #A29F93",
"E. c #BDA68C",
"W. c #B7A28A",
"Q. c #A7A499",
"!. c #ACA99E",
"~. c #A8A499",
"^. c #B6A893",
"/. c #AEA18D",
"(. c #AEABA0",
"). c #C39F83",
"_. c #EA9C83",
"`. c #C3AB8F",
"'. c #C0A68A",
"]. c #C5AC91",
"[. c #CCAB90",
"{. c #CDB396",
"}. c #C7B095",
"|. c #D0B79A",
" X c #D5BA9C",
".X c #D8BB9C",
"XX c #F0B194",
"oX c #C5BBA9",
"OX c #D5BEA3",
"+X c #DDC09F",
"@X c #DBC6AB",
"#X c #DAC4A7",
"$X c #DDCBB3",
"%X c #CEC8BA",
"&X c #E3C5A5",
"*X c #EBCDAB",
"=X c #E6CAA9",
"-X c #F3CDAB",
";X c #EFD1AE",
":X c #F0D1AE",
">X c #EBD2B4",
",X c #EDD6BA",
"<X c #E7D4BB",
"1X c #F2D5B3",
"2X c #F7DBB9",
"3X c #E1CDB3",
"4X c #FCE1BD",
"5X c #EBDCC4",
"6X c #E5DCCA",
"7X c #F3DDC1",
"8X c #EEE1CB",
"9X c #FDE4C4",
"0X c #FDE7CA",
"qX c #FEE9CC",
"wX c #F6E4CA",
"eX c #EEE6D5",
"rX c #EDE7D6",
"tX c #FBECD3",
"yX c #F5EDDB",
"uX c #F7E9D2",
"iX c #FFF2DB",
"pX c #F9F0DB",
"aX c #FBF5E4",
"sX c #FFFDEA",
"dX c #FBF5E1",
"fX c #FFFFF4",
"gX c #FFFFF8",
"hX c None",
/* pixels */
"hXhXhXhXhXhXhXhXhXhXhXhXhXhXhXhXhXhXhXhXhXhXhXhXhXhXhXhXhXhX  .                           hXhXhXhXhXhXhXhXhXhXhXhXhXhXhXhXhXhXhXhXhXhXhXhXhXhXhX",
"hXhXhXhXhXhXhXhXhXhXhXhXhXhXhXhXhXhXhXhXhXhXhXhXhXhXhXhXhXhX          X   X X   . X .     hXhXhXhXhXhXhXhXhXhXhXhXhXhXhXhXhXhXhXhXhXhXhXhXhXhXhX",
"hXhXhXhXhXhXhXhXhXhXhXhXhXhXhXhXhXhXhXhXhXhXhXhXhXhXhXhXhXo * = = = = = = = = = = = = = = o hXhXhXhXhXhXhXhXhXhXhXhXhXhXhXhXhXhXhXhXhXhXhXhXhXhX",
"hXhXhXhXhXhXhXhXhXhXhXhXhXhXhXhXhXhXhXhXhXhXhXhXhXhXhXhX. = 6 9 n 9 9 9 9 9 9 9 9 9 9 9 6 =   hXhXhXhXhXhXhXhXhXhXhXhXhXhXhXhXhXhXhXhXhXhXhXhXhX",
"hXhXhXhXhXhXhXhXhXhXhXhXhXhXhXhXhXhXhXhXhXhXhXhXhXhXhX  . = n B Z Z Z Z Z B Z Z S Z Z B b = .   hXhXhXhXhXhXhXhXhXhXhXhXhXhXhXhXhXhXhXhXhXhXhXhX",
"hXhXhXhXhXhXhXhXhXhXhXhXhXhXhXhXhXhXhXhXhXhXhXhXhXhXhX  . 1 c =.-.-.-.-.-.-.-.-.-.-.-.-.c 1 .   hXhXhXhXhXhXhXhXhXhXhXhXhXhXhXhXhXhXhXhXhXhXhXhX",
"hXhXhXhXhXhXhXhXhXhXhXhXhXhXhXhXhXhXhXhXhXhXhXhXhXhXhX  . 3 ..*.7.7.6.6.6.6.6.6.6.7.6.*...3 .   hXhXhXhXhXhXhXhXhXhXhXhXhXhXhXhXhXhXhXhXhXhXhXhX",
"hXhXhXhXhXhXhXhXhXhXhXhXhXhXhXhXhXhXhXhXhXhXhXhXhXhXhX  . p  .<.4.5.3.2.3.3.1.3.3.3.3.2. .p .   hXhXhXhXhXhXhXhXhXhXhXhXhXhXhXhXhXhXhXhXhXhXhXhX",
"hXhXhXhXhXhXhXhXhXhXhXhXhXhXhXhXhXhXhXhXhXhXhXhXhXhX    . < k X.@.@.o.o.o.o.o.@.o.@.@.X.k < .     hXhXhXhXhXhXhXhXhXhXhXhXhXhXhXhXhXhXhXhXhXhXhX",
"hXhXhXhXhXhXhXhXhXhXhXhXhXhXhXhXhXhXhXhXhXhX              + 2 p a a a a p a a a a a a p 2 +               hXhXhXhXhXhXhXhXhXhXhXhXhXhXhXhXhXhXhX",
"hXhXhXhXhXhXhXhXhXhXhXhXhXhXhXhXhXhXhXhXhX          X .   X + + + + + + + + # + + + + + + X X   .   .       hXhXhXhXhXhXhXhXhXhXhXhXhXhXhXhXhXhX",
"hXhXhXhXhXhXhXhXhXhXhXhXhXhXhXhXhXhXhXhXhX    X # 5 5 5 5 = * * * * * * * * * * * * * * * = 5 5 5 = # X     hXhXhXhXhXhXhXhXhXhXhXhXhXhXhXhXhXhX",
"hXhXhXhXhXhXhXhXhXhXhXhXhXhXhXhXhXhXhXhXhX    # 6 b n n n 9 8 8 0 8 8 8 8 8 8 0 0 0 8 8 8 8 n n n 9 6 # X   hXhXhXhXhXhXhXhXhXhXhXhXhXhXhXhXhXhX",
"hXhXhXhXhXhXhXhXhXhXhXhXhXhXhXhXhXhXhXhXhX    = 8 N B B N V V A A V A A S V V Z Z A S A V B N B B N 8 =     hXhXhXhXhXhXhXhXhXhXhXhXhXhXhXhXhXhX",
"hXhXhXhXhXhXhXhXhXhXhXhXhXhXhXhXhXhXhXhX      * 6 9 n n n V E u.p.p.p.u.p.u.i.=.=.:.i.W E V M n n b 6 #     hXhXhXhXhXhXhXhXhXhXhXhXhXhXhXhXhXhX",
"hXhXhXhXhXhXhXhXhXhXhXhXhX                      X = = * 6 M g.z.K.K.K.K.K.K.c.,.*.,.c.K.[ H 6 = = 5 # .     hXhXhXhXhXhXhXhXhXhXhXhXhXhXhXhXhXhX",
"hXhXhXhXhXhXhXhXhXhXhXhX      o o X         . + . $ .   o G f.T.`.`.E.^.^.I.b.r.r.r.b.I.h.J o     .         hXhXhXhXhXhXhXhXhXhXhXhXhXhXhXhXhXhX",
"hXhXhXhXhXhXhXhXhXhXhX      - r J r ; . + , 3 3 3 2 @ . o u k.}.&X$X$X$X@X+XU.v.r.v._.[.S.J X             hXhXhXhXhXhXhXhXhXhXhXhXhXhXhXhXhXhXhX",
"hXhXhXhXhXhXhXhXhXhX        r _ k.] r o , d l | | l a @ X u z.|.<X4X8X,X<X=XXXU._.XXXXOXH.T o     hXhXhXhXhXhXhXhXhXhXhXhXhXhXhXhXhXhXhXhXhXhXhX",
"hXhXhXhXhXhXhXhXhXo o X X ; / P.{.G.U % < l @.&.&.@.l 3 % G l.].$X8XyXuX4X1X:X:X-X-X1X&XG.I o   hXhXhXhXhXhXhXhXhXhXhXhXhXhXhXhXhXhXhXhXhXhXhXhX",
"hXhXhXhXhXhXhXhXw t I I K / l.{.=XY.! % 3 | <.3.1.&.X.j p F ' z.^.$XeXiXqXqX9X4X2X4X2X=XL.I o     hXhXhXhXhXhXhXhXhXhXhXhXhXhXhXhXhXhXhXhXhXhXhX",
"hXhXhXhXhXhXhX  t ] H.L.L.P.[.*X=XP.R % 3 X.1.4.1.&.@.X.z c F Y { /.<XqXtXiXiX9X2X2X2X+XH.U O       hXhXhXhXhXhXhXhXhXhXhXhXhXhXhXhXhXhXhXhXhXhX",
"hXhXhXhXhXhX  : R L..X;X*X=X1X1X&XG.U % p X.3.4.1.&.&.&.@.z p 6 R S.E.3X8X8X8X,X&X&X+X[.z.K $         hXhXhXhXhXhXhXhXhXhXhXhXhXhXhXhXhXhXhXhXhX",
"hXhXhXhXhXq t R f.'.1X9X0X0X7X2X+XD.J % p X.4.8.4.<.<.<.%. .f 3 M R S.P.R.Q.Q.Y.L.G.H.j.' F 3 , . .     hXhXhXhXhXhXhXhXhXhXhXhXhXhXhXhXhXhXhXhX",
"hXhXhXhXo t ] L.'..X1X9XtXiXwX>X{.S.t * p o.4.9.8.3.1.1.%.@.X.z c M J ~ ~ ~ ~ ! ! J i J F v l g , .       hXhXhXhXhXhXhXhXhXhXhXhXhXhXhXhXhXhXhX",
"hXhXhX  o I H..X1X1X2X9XtXpX5X3XE.{ y % p X.3.9.9.8.3.<.&.&.%.#.z s % $ o $ $ % % > $ % s  .o.z 3 .         hXhXhXhXhXhXhXhXhXhXhXhXhXhXhXhXhXhX",
"hXhXhX  O K L.;X9X9X9X8X8X5X5X@XE.f.y % p X.3.9.9.8.4.3.1.<.<.&. .j 3 2 < 2 2 2 2 2 2 3 k @.&.X.p .         hXhXhXhXhXhXhXhXhXhXhXhXhXhXhXhXhXhX",
"hXhXhX  X K L.*X9XtXtX8X5X3XOXOXE.f.u # p | 1.8.9.9.8.4.4.1.<.%.$. .z l l z l z z l l z o.1.3.o.p           hXhXhXhXhXhXhXhXhXhXhXhXhXhXhXhXhXhX",
"hXhXhX  ; R P.*XqXiXyX6XOXE.'.'.T.] y $ 3 | <.4.8.8.8.8.8.3.1.&.&.%.%.#.%.%.#.#.#.#.#.%.<.3.1.o.s % O o o o hXhXhXhXhXhXhXhXhXhXhXhXhXhXhXhXhXhX",
"hXhX7 r R { ^.,XqXqX6X#XY.h.] f.] / e # p | <.4.4.4.8.9.9.4.3.1.<.1.1.1.<.&.&.<.&.<.<.&.%.#.o.v L R ! ^ ! ~ e hXhXhXhXhXhXhXhXhXhXhXhXhXhXhXhXhX",
"  o r _ D.^.$X8XuX8X@XP._ J y y u w > . p | 1.3.4.3.4.8.8.8.4.4.4.4.4.3.<.&.&.&.&.&.&.%.X.k g L g.L.Y.!.R.} i O hXhXhXhXhX              hXhXhXhX",
"  o G l.].>XuXyX8X@XW.{ J ; X X X O   . p | <.3.3.3.3.4.8.8.8.8.8.8.4.3.1.&.&.&.&.&.<.%.| 3 1 K F.OX2XtX6XQ.( :   hXhXhX> $ > o o - > > o hXhXhX",
"  o G z.OX7XiXyX<X/.h./ e             . p  .<.3.3.3.3.4.4.4.8.4.8.8.4.4.1.1.<.<.1.1.3.&.| 2 o U G.*XqXiXeXoXJ.( i : hXe J ~ ^ ^ ^ ^ ^ ~ ~ e hXhX",
"  o K z.OX7XiXyXoX{ I q ; hXhXhXhX    . p  .1.4.3.1.3.3.4.4.3.4.4.3.4.3.4.4.3.4.3.8.8.3. .3 # T H.&X4X9X9X<XoXQ.} i - u } R.(.(.Q.Q.!.R.} U >   ",
"  o J k.|.7XiXrX!.( ;   hXhXhXhXhXhX  . p | &.1.1.1.1.1.1.3.1.1.1.1.1.3.4.4.8.8.4.8.8.1. .p $ u j.`.&X;X1X9XuX6XR.~ e ^ R.6XyXyXrXdXaX6XR.! >   ",
"  o G j.|.7XiXrXQ.~ o   hXhXhXhXhXhXhX. 2 j | @.%.&.<.1.1.1.<.<.&.<.<.1.3.4.8.8.4.1.%.o.l 3 % y _ S.I.|.*X9XtXuXoX{ ) h.oXyXsXaXpXsXgXpX!.^ >   ",
"  o G j.|.7XiXrXQ.^ O   hXhXhXhXhXhXhXhX, 2 a j  .#.&.1.1.<.&.%.#.%.%.&.1.3.4.4.1.$.z d 3 , hX7 r T ] I.#X1X7X,X#XW.I.E.#X9X0X9XqXiXsXdX(.^ o   ",
"  o J j.|.7XiXrXQ.^ >   hXhXhXhXhXhXhXhXhX  + 3 l @.&.<.1.<.%.#.@.@.#.%.<.2.5.5.2.O.a +   hXhXhX  ; I D.`..X|.|. X+X&X*X;X>X1X1X1X0XiXrXQ.^ o   ",
"  o G z.|.7XiXrXR.~ O   hXhXhXhXhXhXhXhXhX    < k o.%.<.<.&.%.#.#.@.#.*.w.q.a.s.a.=.h     hXhXhXhX  r _ j.S.j.F.T. X:X2X1X-X:X*X:X2XtX5XR.! o   ",
"  o G z.|.7XiXrXQ.~ O   hXhXhXhXhXhXhXhXhX  . 2 l @.%.&.%.%.#.#.#.#.$.>.a.d.m.N.m.t.m X   hXhXhXhXhXw r G G t I ] W.&X1X:X*X=X*X*X>X2X$XH.K o   ",
"  o J z.|.7XiXeXQ.( : O hXhXhXhXhXhXhXhXhX  . < j X.@.@.o.o.o.o.o.o.$.>.d.B.B.C.B.n.C X   hXhXhXhXhXhXo o X X ; I D.`..X X{.{.|.{..X X].k.J o   ",
"  o G j.|.,XiXyXoXY.( i e hXhXhXhXhXhXhX    . @ a j l k k k k k j j x t.V.Z.A.A.Z.n.P X   hXhXhXhXhXhXhX        r _ l.D.z.j.z.z.z.D.z.l._ t o   ",
"  o G z.|.5XtXyX6X%XQ.} ~ > hXhXhXhXhX        . @ < 2 2 < < < < < < 4 Q n.C.A.A.Z.n.P X   hXhXhXhXhXhXhXhXhXhXhXw t G G K G G K G G J G t w hXhX",
"  o G j.|.,XtXaXfXsX6XR.~ o   hXhXhX      . . . + + + + + @ + @ + . 1 C n.B.C.C.B.n.P &   hXhXhXhXhXhXhXhXhXhXhXhXo o o X o o o o o o o o hXhXhX",
"  o J j.|.,XtXaXgXgXpX!.^ >   hXhXhX    + , 3 3 3 2 3 p p p p p 3 3 s D a.m.M.M.N.a.=.s 3 , hXhXhXhXhXhXhXhXhXhXhXhX                    hXhXhXhX",
"  o J j.|.,XtXaXgXgXpX!.^ o   hXhXhX  . , d l z z z | | o.X.o.o.o.X.o.*.w.s.s.s.s.q.*.o.k 3 . hXhXhXhXhXhXhXhXhXhXhXhXhXhXhXhXhXhXhXhXhXhXhXhXhX",
"  o J k.|.,XuXaXsXsXrXQ.^ o   hXhXhX  . 2 l @.%.%.%.<.1.3.4.4.3.3.3.4.5.5.0.0.0.5.0.8.1.X.p .   hXhXhXhXhXhXhXhXhXhXhXhXhXhXhXhXhXhXhXhXhXhXhXhX",
"  o J z. X,X7XuXiXiX5XY.~ o   hXhXhX  . 3 | &.1.1.1.4.8.9.9.9.8.9.9.9.8.4.3.3.3.1.4.9.4.X.p .   hXhXhXhXhXhXhXhXhXhXhXhXhXhXhXhXhXhXhXhXhXhXhXhX",
"  o J z. X>X1X,X7X7X3XG.I o   hXhXhX  . 3 z &.3.3.4.8.9.9.9.8.4.4.8.8.3.1.<.<.&.<.1.4.1.X.3 .   hXhXhXhXhXhXhXhXhXhXhXhXhXhXhXhXhXhXhXhXhXhXhXhX",
"  o J j.`.|. X|. XOX].k.J o   hXhXhX  . 3 l @.<.3.4.8.8.8.4.3.3.1.<.<.&.#.@.o.o.@.%.<.&. .a +   hXhXhXhXhXhXhXhXhXhXhXhXhXhXhXhXhXhXhXhXhXhXhXhX",
"  o t _ j.z.z.j.z.z.l._ t o hXhXhXhXhX. < f | o.&.3.8.4.4.4.3.3.&.o. .z l k k j l | #.&.o.k a 3 , hXhXhXhXhXhXhXhXhXhXhXhXhXhXhXhXhXhXhXhXhXhXhX",
"hXhXq t J K J G G J G t e hXhXhXhXhXhXhX@ < p k o.<.3.3.3.4.4.1.@.l p 2 2 2 2 < 3 j  .#.%.@.| j 2 . hXhXhXhXhXhXhXhXhXhXhXhXhXhXhXhXhXhXhXhXhXhX",
"hXhXhXo o o o o o o o o hXhXhXhXhXhXhXhXhX  + 3 z %.<.1.1.3.1.&.| a @   . .     + 3 l X.%.&.%.| p .   hXhXhXhXhXhXhXhXhXhXhXhXhXhXhXhXhXhXhXhXhX",
"hXhXhXhX              hXhXhXhXhXhXhXhXhXhX  . 2 k #.<.1.1.&.@.| j 2               , a l X.%.&.| 3 .   hXhXhXhXhXhXhXhXhXhXhXhXhXhXhXhXhXhXhXhXhX",
"hXhXhXhXhXhXhXhXhXhXhXhXhXhXhXhXhXhXhXhXhX    2 k @.<.3.1.@.l p < @ hXhXhXhXhXhXhX+ < 3 j X.@.z 2     hXhXhXhXhXhXhXhXhXhXhXhXhXhXhXhXhXhXhXhXhX",
"hXhXhXhXhXhXhXhXhXhXhXhXhXhXhXhXhXhXhXhXhX  . 3 l @.%.<.&.| p @ . hXhXhXhXhXhXhXhXhX  + 3 l o.z p + . hXhXhXhXhXhXhXhXhXhXhXhXhXhXhXhXhXhXhXhXhX",
"hXhXhXhXhXhXhXhXhXhXhXhXhXhXhXhXhXhXhXhX+ @ 2 d z @.@.o.| j 2   hXhXhXhXhXhXhXhXhXhX    2 l @. .k a 2 , hXhXhXhXhXhXhXhXhXhXhXhXhXhXhXhXhXhXhXhX",
"hXhXhXhXhXhXhXhXhXhXhXhXhXhXhXhXhXhXhX  @ 3 f l X.@.| j p 2 @ hXhXhXhXhXhXhXhXhXhXhX  . 2 z #.%.@.| j 2 . hXhXhXhXhXhXhXhXhXhXhXhXhXhXhXhXhXhXhX",
"hXhXhXhXhXhXhXhXhXhXhXhXhXhXhXhXhXhX  + 2 f z X.o.X.k 3 + . hXhXhXhXhXhXhXhXhXhXhXhX  . 3 l @.&.<.&.| p .   hXhXhXhXhXhXhXhXhXhXhXhXhXhXhXhXhXhX",
"hXhXhXhXhXhXhXhXhXhXhXhXhXhXhXhXhX+ @ < a l  . .z k a ,   hXhXhXhXhXhXhXhXhXhXhXhXhXhX. < f z @.<.<.X.p .   hXhXhXhXhXhXhXhXhXhXhXhXhXhXhXhXhXhX",
"hXhXhXhXhXhXhXhXhXhXhXhXhXhXhXhX  @ 3 f l X.o.| f 2 , + hXhXhXhXhXhXhXhXhXhXhXhXhXhXhXhX@ , p l #.<.X.p .   hXhXhXhXhXhXhXhXhXhXhXhXhXhXhXhXhXhX",
"hXhXhXhXhXhXhXhXhXhXhXhXhXhXhX  . < f z  .X. .k 3 +   hXhXhXhXhXhXhXhXhXhXhXhXhXhXhXhXhXhX. @ a  .%.| p .   hXhXhXhXhXhXhXhXhXhXhXhXhXhXhXhXhXhX",
"hXhXhXhXhXhXhXhXhXhXhXhXhXhX@ , 3 d l | | | k a <   hXhXhXhXhXhXhXhXhXhXhXhXhXhXhXhXhXhX+ @ < a k z k 3 . hXhXhXhXhXhXhXhXhXhXhXhXhXhXhXhXhXhXhX",
"hXhXhXhXhXhXhXhXhXhXhXhXhX. , a j z | X.l d 2 < + hXhXhXhXhXhXhXhXhXhXhXhXhXhXhXhXhXhX. < p f d a p 2 , hXhXhXhXhXhXhXhXhXhXhXhXhXhXhXhXhXhXhXhX",
"hXhXhXhXhXhXhXhXhXhXhXhX  . < d z | X.| j 2 +   hXhXhXhXhXhXhXhXhXhXhXhXhXhXhXhXhXhX  . < d k f 2 + . hXhXhXhXhXhXhXhXhXhXhXhXhXhXhXhXhXhXhXhXhX",
"hXhXhXhXhXhXhXhXhXhXhX    . @ p j k j j p ,   hXhXhXhXhXhXhXhXhXhXhXhXhXhXhXhXhXhX      @ p d p ,   hXhXhXhXhXhXhXhXhXhXhXhXhXhXhXhXhXhXhXhXhXhX",
"hXhXhXhXhXhXhXhXhXhX        + @ < 2 2 < , @ hXhXhXhXhXhXhXhXhXhXhXhXhXhXhXhXhXhX        . , < , + hXhXhXhXhXhXhXhXhXhXhXhXhXhXhXhXhXhXhXhXhXhXhX",
"hXhXhXhXhXhXhXhXhX            . . . . . . hXhXhXhXhXhXhXhXhXhXhXhXhXhXhXhXhXhX              . . hXhXhXhXhXhXhXhXhXhXhXhXhXhXhXhXhXhXhXhXhXhXhXhX",
"hXhXhXhXhXhXhXhXhX                          hXhXhXhXhXhXhXhXhXhXhXhXhXhXhXhXhX                    hXhXhXhXhXhXhXhXhXhXhXhXhXhXhXhXhXhXhXhXhXhXhX",
"hXhXhXhXhXhXhXhXhX                            hXhXhXhXhXhXhXhXhXhXhXhXhXhXhXhX                            hXhXhXhXhXhXhXhXhXhXhXhXhXhXhXhXhXhXhX",
"hXhXhXhXhXhXhXhXhX                              hXhXhXhXhXhXhXhXhXhXhXhXhXhXhX                              hXhXhXhXhXhXhXhXhXhXhXhXhXhXhXhXhXhX",
"hXhXhXhXhXhXhXhXhX                              hXhXhXhXhXhXhXhXhXhXhXhXhXhXhX                              hXhXhXhXhXhXhXhXhXhXhXhXhXhXhXhXhXhX"
};
