/* XPM */
static char *plaayer_resized[] = {
/* columns rows colors chars-per-pixel */
"72 72 256 2 ",
"   c #030201",
".  c #0B0301",
"X  c #020A04",
"o  c #0C0A04",
"O  c #040A09",
"+  c #0D0C09",
"@  c #130301",
"#  c #1B0201",
"$  c #140B03",
"%  c #1A0D03",
"&  c #130D0A",
"*  c #1A0C0A",
"=  c #051707",
"-  c #151105",
";  c #1B1105",
":  c #141B05",
">  c #12110D",
",  c #1C130B",
"<  c #091810",
"1  c #1A1612",
"2  c #250200",
"3  c #2D0100",
"4  c #260B05",
"5  c #330100",
"6  c #3C0101",
"7  c #370B03",
"8  c #221305",
"9  c #291808",
"0  c #341B07",
"q  c #3B1D02",
"w  c #241C14",
"e  c #3A1813",
"r  c #07260A",
"t  c #162606",
"y  c #173809",
"u  c #0F2E10",
"i  c #1B2717",
"p  c #3A2309",
"a  c #3B240C",
"s  c #273B09",
"d  c #27241B",
"f  c #392816",
"g  c #313314",
"h  c #342C24",
"j  c #392D24",
"k  c #323229",
"l  c #383429",
"z  c #440101",
"x  c #4A0101",
"c  c #490905",
"v  c #540000",
"b  c #5A0503",
"n  c #4A1A0A",
"m  c #650000",
"M  c #6C0000",
"N  c #630B09",
"B  c #740000",
"V  c #7C0000",
"C  c #780B04",
"Z  c #66110E",
"A  c #442305",
"S  c #4B2706",
"D  c #42250B",
"F  c #45280D",
"G  c #4C2A0B",
"H  c #522D0B",
"J  c #552E0A",
"K  c #563A00",
"L  c #50310F",
"P  c #55310E",
"I  c #5A330E",
"U  c #4B2D12",
"Y  c #462818",
"T  c #4C3319",
"R  c #543313",
"E  c #5A3512",
"W  c #5D3914",
"Q  c #543619",
"!  c #57371A",
"~  c #5C3A1C",
"^  c #703600",
"/  c #643612",
"(  c #623B15",
")  c #613D1A",
"_  c #512821",
"`  c #483829",
"'  c #593C23",
"]  c #443B32",
"[  c #4A3D32",
"{  c #662E26",
"}  c #613E21",
"|  c #11470D",
" . c #284808",
".. c #32480A",
"X. c #2D5709",
"o. c #32530E",
"O. c #156214",
"+. c #38660B",
"@. c #374729",
"#. c #3B4732",
"$. c #475509",
"%. c #6F4400",
"&. c #694119",
"*. c #6B431C",
"=. c #72471C",
"-. c #4A660B",
";. c #516C0B",
":. c #4A760A",
">. c #59432A",
",. c #494438",
"<. c #574839",
"1. c #4D5132",
"2. c #634325",
"3. c #6B4621",
"4. c #644529",
"5. c #694828",
"6. c #6C4B2C",
"7. c #744D25",
"8. c #75522D",
"9. c #674C34",
"0. c #714F32",
"q. c #6A5238",
"w. c #735334",
"e. c #785737",
"r. c #7C5935",
"t. c #745639",
"y. c #7B5B3B",
"u. c #4F6729",
"i. c #4C4C47",
"p. c #534E46",
"a. c #585348",
"s. c #5A5852",
"d. c #675445",
"f. c #675947",
"g. c #795D43",
"h. c #626B45",
"j. c #7A6247",
"k. c #6C6351",
"l. c #796956",
"z. c #7B745A",
"x. c #7D7467",
"c. c #840000",
"v. c #8C0000",
"b. c #800901",
"n. c #930000",
"m. c #9C0000",
"M. c #821612",
"N. c #A40000",
"B. c #AC0000",
"V. c #A10A00",
"C. c #B40000",
"Z. c #BC0000",
"A. c #B81504",
"S. c #8A2C0F",
"D. c #95290D",
"F. c #B73110",
"G. c #C40000",
"H. c #CC0000",
"J. c #CB0A00",
"K. c #D40000",
"L. c #DB0000",
"P. c #DA0A00",
"I. c #C61407",
"U. c #E30000",
"Y. c #EA0000",
"T. c #E30B00",
"R. c #D22F04",
"E. c #E13E19",
"W. c #AC5600",
"Q. c #874B2B",
"!. c #825D39",
"~. c #83613D",
"^. c #8A653F",
"/. c #DF5500",
"(. c #836344",
"). c #8A6946",
"_. c #846548",
"`. c #8B6C4B",
"'. c #926E4A",
"]. c #90724D",
"[. c #876C54",
"{. c #8C7155",
"}. c #85735B",
"|. c #957555",
" X c #93755A",
".X c #957A5D",
"XX c #9B7D5E",
"oX c #A1674C",
"OX c #887964",
"+X c #957C62",
"@X c #9A7E62",
"#X c #917E69",
"$X c #817D73",
"%X c #DF6857",
"&X c #AE8900",
"*X c #C48900",
"=X c #F18A00",
"-X c #ECB300",
";X c #F2CB00",
":X c #F9CA00",
">X c #FFE100",
",X c #9A815D",
"<X c #9D8163",
"1X c #94826B",
"2X c #9A866D",
"3X c #908776",
"4X c #9C8B73",
"5X c #A18464",
"6X c #A38769",
"7X c #A5896B",
"8X c #A98B6A",
"9X c #B08F6F",
"0X c #A38D73",
"qX c #A98E72",
"wX c #AB9275",
"eX c #A8947A",
"rX c #AC9579",
"tX c #B29578",
"yX c #B39A7D",
"uX c #E7937B",
"iX c #A69C8B",
"pX c #B59E81",
"aX c #B89F81",
"sX c #BBA284",
"dX c #BAA487",
"fX c #BEA68A",
"gX c #A9A69B",
"hX c #B4A691",
"jX c #ADABA0",
"kX c #C1A78A",
"lX c #C2AA8D",
"zX c #C5AD91",
"xX c #CCB295",
"cX c #D0B79A",
"vX c #D6BB9D",
"bX c #E6A78B",
"nX c #CBBCA8",
"mX c #DBC4A9",
"MX c #D6C9B5",
"NX c #E7CAA9",
"BX c #EDCEAE",
"VX c #EBD5B9",
"CX c #F4D7B5",
"ZX c #FCE0BD",
"AX c #D9D1C0",
"SX c #E8DCC8",
"DX c #F3DDC1",
"FX c #EEE1CB",
"GX c #FBE5C7",
"HX c #EEE7D6",
"JX c #F5EBD7",
"KX c #FBECD4",
"LX c #FBF0D9",
"PX c #FFF2DB",
"IX c #FDF8E6",
"UX c #FFFFF4",
/* pixels */
"S S J I W W W ( ( &.&.&./ W W ( &.&.&.&.&.K ( ( / W ( &.&.&.&.=.=.=.=.&./ I I R E W W ~ ( &.&.W P J S S S S J S S A q n A S J S G H H P A A q 0 ",
"H H P ( &.*.&.&.&.&.&.&.&.*.3.*.*.=.2.2.3.2.3.3.*.*.&.&.*.=.=.=.=.=.&.W R P G L R R R R R W W R P S S S S S S J S A A A A S J J R R W ! L A q q ",
"H P ) 8.!.!.!.!.8.7.=.7.e.!.y.~.~.~.~.~.y.~.y.y.r.e.7.3.=.Q.!.^.8.>.U F a p p p a a a a a a F U G H J J J J J J S S n A S H E ) 2.8.w.w.4.L A p ",
"I W 8.).,X5X5X,X'.r.7.r.`.,X5X5X5X,X5X8X<X5X<X,X X{.~.8.=.~.|.,X_.>.9 ; % ; $ % % ; ; ; , ; 9 9 A P W / / ( / / J J S S H E } w.(.{..X.Xj.2.U p ",
"W *.y.,XyXdXkXyX<X^.8.~.5XyXsXsXyXyXyXyXfXyXyXyX7X<X`.r.8.^.<X7Xl.] -     . o   O o . o . X o ; p U ! *.=.=.*.&.) / R H H E 5.(. X7XyXtX.Xw.Q A ",
"/ 3.~.5XdXlXlXdX8X).r.).6XsXlXlXfXlXzXzXlXfXfXyX0X.X).r.7.r._.l.d.l 8 ; % ; ; ; ; ; ; ; ; ; ; 9 9 a Q 0.y.~.!.r.0.} } ~ R { 6.(.@XwXsXpX,Xw.Q G ",
"( 3.~.5XsXlXlXsX8X).!.'.8XkXlXlXlXkXfXfXfXlXfXtX,X).!.7.*.>.` ] j f a a a p a f p a a p a f p 9 ; 9 j t..X,X|.]._.!.0.4.) ~ } _..XqXsXpX<Xt.Q F ",
"( 3.y.5XsXlXlXsX8X'.~.'.8XyXkXkXkXlXyXfXfXfXyX8X'.r.7.7.3.T 9 , 8 F I / / I / / I / / / / / E p ; > l k.7XwXqX<X@X{._.q.} { } g.{.4XyXyX,Xt.Q G ",
"&.3.y.,XyXfXxXyX8X'.~.'.8XyXzXlXfXlXlXkXlXlXyX2Xh.2.5.y.!.<.w . 4 Z S.D.D.D.D.D.S.D.D.D.D.D.D.Z 2 + k l.eXsXaXrX@X@X[.g.{ { 4.g. X7XpXyX@Xw.! G ",
"&.3.^.5XyXlXlXfX8X'.^.'.8XyXlXlXfXfXlXlXlXlXyX1X1.@.1.[.@Xf.h @ 5 b.A.I.I.I.I.I.I.I.A.I.I.I.A.b.6 & k l.rXfXkXaXpXqX X(.} ' 4.g.{.7XyXpX@Xw.Q G ",
"$.=.^.5XyXxXlXyX8X'.~.'.8XsXkXyXsXpXpXpXsXdXyXz.1.i #.z.2Xl.l & 6 v.H.L.K.K.K.K.K.K.K.K.K.L.G.v.6 $ k k.4XyXpXrXqXqX@X[.6.' 5.~. X7XyXyX@Xt.! G ",
"( 3.y.8XyXzXlXlX8X'.~.'.8XsXyX7XOXz.z.$X<XwX0Xl.l r i p.l.p.d o 3 m n.N.N.m.m.m.m.m.m.m.N.N.n.m 3 @ w ,.k.l.l.OX#X@X@X X0.} 4._.@XqXsXpX<Xy.~ R ",
"( 3.~.<XyXzXzXyX8X].~.].9XyX4Xh.1.@.@.#.h.}.+Xf.h = > d k d >   @ 5 z x x x x z x x x z x x z 5 @   + w h l l ] f.#XqXXXw.} 4._.<XeXsXpX<Xy.&.I ",
"( 3.~.5XyXlXlXyX8X^.!.].8XwX$X1.u r r u @.q.l.q.d o X O $ o o   . . @ @ @ @ @ @ @ @ @ . @ @ @ . .   o + o o . > ] }.0X@Xt.} 6._.<XqXyXyX,Xy.*.I ",
"( 3.~.5XfXzXxXyX8X^.8.r.,X1Xh.o.r r r t g #.1.` w .   @ ; ; 8 ; ; ; - - $ - - - - - - : - - - ; ; 8 , % % .     h f. X`.5.! { t.].,X5X5X`.6.W L ",
"W 3.~.5XyXzXxXsX5X~.*.2.u.u.u.o. . .| | | @.k i +   $ 9 p F F F D p p p p p p p p a a f a p p p D F F F p 9 . . w [ q.0.~ U Q 5.r.y.~.y.6.2.L S ",
"W *.y.,XyXdXdXyXXXe.~ L $.o.X... .X. . . .y r = X X % a U E R R W W ( ( ( W ) ~ ) { ' { / / ~ / W R I R P p $ . , Y >.W T P Q 2.8.8.r.8.*.L A p ",
"E ( 8.).XX<X5X.X_.4.U F g ....s s y y y t = X X     $ 9 a F F Y ~ 6.!.~.~.~.~.~.!.Q.Q.M.S.Q.!.6.~ Y F F p 9 $   - a R 2.>.2.0.y.y.^.(.y.6.>.S p ",
"P I ) 6.r.r.y.q.>.U D p S g s t : : = = X X X X     X $ ; ; ; 9 ` j.5X8X6X6X6X6XXXoXF.A.F.oXXX_.[ 9 ; ; ; $     ; a ~ 6.g._.{.+X8X8X8X,X(.5.U p ",
"H H P E ~ >.&.>.Q Y D D A a q ; X   o - o X       . . . . .   $ ] }.yXzXzXlXzXzXsX%XE.P.%X%XpXOX] o     . O . o d T 6.~.{.@XqXtXyXsXsXyX.X6.L F ",
"A A G P W 2.5.9.9.>.' T a 9 #     > h ] k 1 . @ 2 6 6 6 5 2   O l #XxXmXMXNXMXvXvXuX%X%X%XuXbX#X] o   . , 1 d k [ q.).|.6XwXpXsXfXlXzXfX,Xq.! F ",
"q A A H W 6.(.{.{.[.g.>.f $       h k.#Xk.l o 2 v B c.c.B x # o l 3XcXVXSXFXSXVXNXbXuXuXbXNXvX7X,.+   9 f ` 9.f.[..X5XwXtXpXaXdXfXlXlXyX<Xt.! G ",
"0 q A H &.y.|.7X0X+X[.d.h *     1 p.eXxX0X,.& 5 B N.Z.Z.N.B 6 * [ OXzXMXFXLXKXDXCXBXBXNXCXCXNX0X,.& o 9 Q q.l.1X0XyXyXsXdXdXdXkXfXfXfXyXXXq.Q G ",
"7 0 A P *.(.5XyX0Xz.d.<.<.,.,.,.<.#XxXNXiX,.* 6 c.G.H.H.Z.n.m c _ d.1XhXMXGXLXGXGXGXCXCXCXCXNX0X,.+   8 Y q.}.wXpXsXdXdXkXfXkXkXfXfXfXtX Xw.R G ",
"0 0 A J =.).8XyX1X<.l ,.l.7XeX0XeXzXNXNXeX,., z v.H.L.H.Z.N.n.V Z Y [ x.hXVXGXLXPXPXGXZXZXCXmX2X] o     w [ }.eXaXaXaXaXfXkXlXlXfXdXpXqX{.6.R A ",
"0 0 A I 3.^.5XwXz.] d <.qXvXBXNXNXBXCXNX4X,.* 6 n.K.U.H.Z.Z.C.B.V z w [ #XxXMXSXFXSXVXNXNXvXlX#X[ &     @ j k.2XqXwXqXtXyXsXsXsXpXyXqX@X_.>.U A ",
"q q A I &.0.j.l.f.p.p.}.kXBXZXGXGXDXCXvX3X,.* z m.K.U.L.H.G.G.C.n.b z Y d.#XiXiXgXgXiX0X4X2XOXg._ 7 2 .   w ,.g.}.{. X@X<X<X5X5X<XXX{._.9.Q A q ",
"q p A H R T T ] d.l.0XkXmXCXGXKXLXGXVXxXOXl * z n.L.Y.U.K.K.G.Z.N.n.V Z _ ] l i.i.i.i.,.,.#.] _ Z B v 2   > w h [ 9.w.y.).).).).(.t.6.>.R Y D q ",
"A A G R T a , 1 ,.4XvXBXCXCXGXKXKXSXMXlX}.l * z n.L.Y.Y.U.L.H.Z.Z.Z.B.V c * & & * * * & & & 4 c v.N.V 6 .     + w T 4.w.e.e.r.e.6.2.! G A q q q ",
"S H W 5.9.T $ O ] eXBXGXGXDXFXGXSXSXmXfXx.l & z n.K.Y.Y.U.L.H.H.G.G.C.n.m 6 3 5 5 5 5 5 5 5 6 M B.Z.n.z         9 ` t.(.).).).).~.w.~ G A A q q ",
"P E 6.).[.<.d + ] 0XBXGXKXKXGXSXBXmXnXfXOXl > 6 v.H.U.U.U.U.L.L.H.G.Z.N.v.V B B B V V B B B V m.H.H.m.z         d 9.{.5X7X<X8X8X5X).6.U A A S S ",
"/ &.r.{.1Xf.h w <.0XNXKXLXKXSXnXzXfXkXpXl.k * 6 c.G.L.U.U.Y.U.U.K.H.Z.C.C.B.C.C.C.B.B.C.B.B.C.G.H.H.m.c & O O 1 l f.<XrXyXyXsXsXwX X9.R A A A A ",
"&.*.6.g.l.d.i.p.x.zXDXGXKXDXnXiXOX}.OXl.p.d $ 6 c.G.L.L.L.U.Y.U.L.K.H.H.H.H.H.G.Z.Z.Z.Z.G.Z.Z.C.B.m.C { <.,.p.p.a.f.l.#XiXdXpX2Xz.d.` 0 0 8 9 0 ",
"=.*.~ ` ] <.k.#XhXMXFXJXDXnXiXk.l h l l d > . 6 v.G.L.K.L.L.U.U.U.L.K.L.L.L.K.G.Z.Z.Z.Z.Z.G.C.n.M b { [.0XiXjXgX$Xp.l d.@XpX4Xf.l w * @ . @ @ . ",
"=.&.U 9 1 ] #XzXBXHXLXHXMXaX}.] 1 + + + O   . z v.G.K.K.K.K.L.U.U.U.U.U.U.U.K.G.Z.Z.Z.Z.Z.Z.C.V 6 * ,.4XvXGXHXSXgXs.d l }.0XOX,.d > > < > > > + ",
"*.&.D # . ] #XvXDXLXLXAXiXOXd.` d w ; $ .   . z v.G.L.K.H.K.L.L.U.U.L.U.U.L.L.H.H.H.G.G.K.K.G.c.5 + ,.eXBXGXPXKXnX3Xs.s.f.l.k.s.i.i.i.i.p.p.i.s.",
"&.W D $ + ] #XcXDXPXJXnXx.,.] [ [ _ _ f , O . z v.G.L.K.K.H.K.K.K.L.K.L.K.K.L.K.K.L.K.L.U.U.K.v.6 & i.4XmXCXGXGXSXnXgXx.p.l s.x.gXgXjXjXjXgXgXgX",
"( I p ; @ ] #XcXDXPXHXjXs.1 w <.(.g.4.U a - @ z c.Z.H.H.H.H.H.K.K.H.H.H.H.K.K.L.U.U.U.U.U.L.H.v.z * l OXzXNXBXBXDXHXSXiXs.h s.gXSXLXJXHXHXJXJXHX",
"&.W D % & ] #XcXSXPXHXgXi.+ * ` t.t.} R D 9 4 7 m v.N.C.Z.H.H.H.H.G.G.Z.G.G.H.K.L.U.L.L.H.C.m.M 6 8 h f.#XpXvXNXDXLXHXnXOXa.x.nXKXIXIXPXIXUXUXUX",
"=.( S ; & ] #XcXDXIXHXgXi.& % T } } E G A p e 0 7 x m v.B.G.G.H.G.Z.C.C.B.C.Z.H.K.L.L.H.B.V v 7 7 0 d f ,.l.pXNXCXDXDXnXaXeXhXmXZXKXGXGXLXPXIXUX",
"=.&.F ; - ] 1XxXDXPXHXgXi.1 * e { ~ _ U U U G e ; # 6 B N.Z.G.H.G.C.B.N.N.B.C.Z.J.P.P.J.n.c # $ 9 e 0 ; w ,.#XlXvXvXvXvXmXNXNXBXBXCXCXCXZXKXIXIX",
"=.*.L 8 > ] 1XcXDXPXHXgXi.+ * ` 0.w.0.} ) ! U 9 o . 3 M N.C.G.G.Z.C.B.N.N.B.A.R.R././.R.S.q o o 9 q 0 % % h f.OX#X#X#XpXvXCXCXCXBXBXBXBXCXGXKXKX",
"7.*.L ; > ] #XxXDXPXHXgXi.O w 9. X|.{.(.q.} U 9 o . 5 M m.C.Z.C.C.B.B.B.B.B.F././.=X=X=XW.p o o 9 D a p 0 f j ` ] l i.l.aXNXCXBXNXNXNXBXBXVXVXVX",
"Q.*.U ; > l 1XcXSXIXHXjXs.d h d.+X0X7X@X_.>.D 4 . . 5 M n.N.N.m.N.m.m.m.m.V.F.*X-X-X;X-X&XK $ $ 9 U Q Q T f d > o . 1 [ +XkXvXvXcXcXcXcXxXcXcXcX",
"7.*.U ; & ] #XxXDXLXJXnXiXs.a.f.l.OX7X2X[.' e $     # x m B M M M M M M m C D.*X;X>X>X;X&X$.$ 1 ` 9.t.t.q.1.` h 1 O O d d.OX#X#X#X#X#X#X1X#X#X#X",
"=.*.U ; > ] 1XxXVXKXLXHXjXjXx.s.] d.OX7X[.[ ;       . # 2 5 3 5 3 3 3 2 2 7 %.*X;X>X>X;X&X$.& d <. X,X<X,X}.[.f.,.i = < d ] [ [ ] ] [ ] ] ] ] ] ",
"=.=.U ; & ] #XxXVXKXIXUXUXHXiXi.w k l.1Xl.l o     . . . @ @ @ @ @ # @ @ . 4 %.&X-X:X:X:XW.%.: j f.1XeXeXeX0X2X1Xs.@.u = = - > > = o + + + + + + ",
"&.( F ; & ] #XcXVXHXIXUXUXIXjXp.> w d.[.d.h o . 2 6 6 6 6 6 z z z z z z z x ^ W.=X=X=X=XW.S.n n 9.l.1XeXyX0X1Xk.1.@.y t : : = : : = X           ",
"( I p % & ] #XcXVXJXIXUXUXIXgXi.> 8 >.q.<.d o 2 x V V V V c.v.n.m.n.n.m.n.m.A.R.E./.E./.R.A.m.C _ ` f.2XsX4Xh.#.@.o.o.....s .. .X.y r = X X X = ",
"I P q $ + ] #XcXVXJXPXUXUXHXgXi.> & j ' T 1 @ 5 B N.C.C.C.Z.H.K.L.L.L.K.L.K.L.T.Y.T.Y.T.T.T.H.n.z * l x.4Xz.#.i y o.$.$.$.-.-.-.+.X.y r = r r = ",
"W I p $ + ] #XvXVXGXHXPXPXSXiXi.> & f Q f > . 6 V Z.H.K.H.L.U.Y.Y.Y.U.Y.Y.U.U.L.Y.L.K.K.U.U.L.n.6   i a.l.h.@.s s o.-.;.;.;.:.:.:.+.X.| u r r r ",
"&./ p $ o ] 1XcXBXVXVXCXDXmXiX] > @ a T f - . 5 V Z.K.K.L.U.Y.Y.U.L.L.L.U.U.K.H.G.G.Z.G.K.L.H.v.6   < k #.#.o...o.$.-.;.:.:.:.:.:.:.+.+. .y r = ",
"=.*.U 8 1 ,.OXzXvXcXcXcXvXzX#X] & % a T f 1 * z V N.G.K.L.U.U.U.U.K.K.H.G.G.Z.B.N.m.N.N.C.G.G.n.x # O = u y ..$.$.-.-.-.;.:.+.:.+.:.:.+.o.y r r ",
"=.=.>.' ,.<.l.OX1X1X#X1X1XOXd.j * 8 0 U T f j Y Z c.m.Z.K.L.U.L.L.L.H.Z.N.v.V B M M m B v.B.Z.m.B z 2 o = t ..-.;.;.:.-.-.+.X.+.X.X.+.X...s t t ",
"=.=.r._.[.k.q.,.] ] ] ] ] l j e e 0 q U ' q.f.<.Y c m m.G.K.K.K.K.L.H.N.M x 5 5 5 3 3 6 b v.B.C.N.c.b 2 . t  .$.;.;.:.+. .| | y y y y y s g g f ",
"&.=.^.,X4Xl.] 1 o o & & & > w f F F D U 4.l.}.s.h # 6 V C.H.H.H.K.H.Z.v.x # . . . . . @ 6 B n.C.Z.C.c.6 . : s o.-.:.:.+. .u r r u u r u g g L E ",
"W &.r.].,Xj.>.8 . o o - w d j ' ' ! _ _ 2.~.[.q.d o 3 B B.G.H.H.Z.N.c.b 5 $ o $ & ; - $ 7 c B n.C.Z.c.6   r y O.+.+.+. .s i g @.@.#.#.#.1.$.E E ",
"I &.=.e.j.t.T f p 9 p f <.q.g.d.t.6.) R ) 0.t.<.i . 2 M N.G.K.H.N.B z 5 4 8 9 9 a e f 0 0 4 6 m n.N.V 6 X r | O.O.| | s l >.9.f.z.OX$Xz.j.4.~ I ",
"P I &.5.8.8.5.2.~ R T 9._.+X+X+X{.g.6.' ) } ' f 8 @ 5 B m.Z.G.C.v.x 2 $ 8 0 F U E ~ ' Q f ; @ 6 V n.V z @ r | O.O.u u g >.7.).<XyXyXdXrX.Xt.2.P ",
"I W *.e.~.~.).~.w.2.2.e. X9XwX0X@X{.~.0.} ' F 0 4 5 v c.m.N.m.c.N e w w 0 a R ) 6.0.0.0.` ,   5 B N.n.M z 8 u | | r u g >.~.|.tXfXzXzXdX<Xt.! L ",
"&.&.8.].<X8X7X5X'.e.6.~.@XyXaXyXwX6X.X_.9.f 9 4 c b B n.m.v.m z e _ ` _ T U ! 6.~._.{._.<.w . 5 B B.C.N.v.b 9 r r i f ' w.).5XyXfXzXfXyX,Xt.! G ",
"&.=.~.,XyXdXsXyX<X).8.).5XaXfXkXsXwX@X`.<.d * 3 v V n.m.n.B 6 * e [ d.9.' T ' g.[.@X@X+Xf.k * 6 B N.G.G.C.c.7 $ - 0 R } t.{.<XwXyXyXyXeX[.6.R G ",
"=.7.^.8XsXzXzXsX8X).r.).6XsXlXzXdXqX[.d.` e 5 x B n.v.V M c e h ] f._.g.} ! } _. X<X7X6X}.f.] _ Z V N.G.H.n.z @ $ 0 U } 0.g.`..X<X<X,X].y.>.L F ",
"=.7.^.5XsXzXlXsX7X).r.).6XsXlXxXsX1Xp.h e z b B v.n.c.v 6 e ` q.f.[.[.g.} ' 4._..X6X0XqX4X1X}.d.Y c M B.G.n.z . o 9 D E } 5.w.t.y.g.q.9.>.&.P G ",
"=.7.^.5XyXlXlXyX7X).r.).5XyXlXfXwXl.l , 3 v V v.n.n.N 6 * h d.[.@X+X{.!.{ } 6._.@X@XtXtXyXyX0Xk.j 2 x v.B.v.z $ - p U ! ~ 2.5.5.6.6.>.>.! E P P ",
"=.7.^.5XsXlXlXkX7X).r.`.8XdXyX4Xz.9.Y 6 x M v.v.V M b n j <.g.+X@X@X X(.9.4.0._.@XwXtXpXeX1X}.d._ 5 z M c.m c 9 d ' 4.q.t.y.y.j.j.g.t.w.5.~ I P ",
"=.7.~.,XyXfXlXsX8X).r.`.9XyX4Xf.] Y b m V v.v.B v 6 n [ d.l.}.+X@X@X X(.6.} 0.[.@XtXaXpX1Xk.[ Y c b v x z 7 e Y >.j.}..X@X<X5X5X<X<X<X{.g.5.W I ",
"%.7.!.|.wXyXsXyX<Xy.8.(.<XwXz.#.* 2 b V v.v.c.m 5 * h <.[.+X X X X X{.g.4.' 5.(.@XqXpXqXz.l * 3 v N b 5 # 8 a ~ w.{.<XwXrXyXyXyXyXrXwX2X].w.&.I ",
"W &.8.~.].XX<X.X_.w.*.6.g.k.p.1 O # 6 b M M b z 7 8 f 9.(._._.(.(.(.g.0.~ U ' q._.[.{.l.,.d . @ 6 v x 4 - ; a ! 6.j.|.,X<X<X<X<X<X<XXX|.y.6.&.P ",
"P I &.6.w.y.r.e.5.&.T T ` l d +   . 2 3 5 3 3 7 9 e T ' } 6.5.{ 6.} } { U p U ~ ' 9.[ l d +     # 3 3 4 8 p p U ! 5.8.t.t.t.t.y.y.t.e.w.6.&.W K ",
"H H I W &.&.&.~ E L A 0 8 + . X             . % a U E R R R Q R E E E G 0 0 q F Y f 8 +           . $ 8 0 q p A G L E ~ ! ! ~ ~ &.~ W ! I ( I I ",
"S S P I E I P P H S D 0 .                     ; a R E H H S G G G J G A q 4 0 D F 0 @               o 9 p A p p A G L L U G G G R P P P I I I I "
};
