/* XPM */
static char *player2_resized[] = {
/* columns rows colors chars-per-pixel */
"72 72 227 2 ",
"   c None",
".  c #010000",
"X  c #0B0101",
"o  c #0A0A04",
"O  c #0D0C0A",
"+  c #070D0B",
"@  c #130100",
"#  c #1C0000",
"$  c #130C04",
"%  c #140B09",
"&  c #1A0B0A",
"*  c #1B0B00",
"=  c #151104",
"-  c #1B1206",
";  c #17130E",
":  c #191613",
">  c #1A1916",
",  c #0E120F",
"<  c #250000",
"1  c #2D0000",
"2  c #280C04",
"3  c #330000",
"4  c #3C0000",
"5  c #390C00",
"6  c #211306",
"7  c #2B1B0A",
"8  c #241B17",
"9  c #3A240B",
"0  c #3B280D",
"q  c #37270C",
"w  c #28231D",
"e  c #292826",
"r  c #342E26",
"t  c #3B332B",
"y  c #36342C",
"u  c #3C3B33",
"i  c #3C3B38",
"p  c #430000",
"a  c #4A0100",
"s  c #4F0803",
"d  c #540000",
"f  c #5A0000",
"g  c #550803",
"h  c #401500",
"j  c #640000",
"k  c #6B0000",
"l  c #730000",
"z  c #7C0000",
"x  c #720B00",
"c  c #62150B",
"v  c #6C1410",
"b  c #44290D",
"n  c #43260A",
"m  c #4A2817",
"M  c #543211",
"N  c #5A3312",
"B  c #5B3A1A",
"V  c #543D00",
"C  c #633411",
"Z  c #603C19",
"A  c #613916",
"S  c #703600",
"D  c #532821",
"F  c #42392F",
"G  c #4C3A27",
"H  c #443B31",
"J  c #493C32",
"K  c #662E26",
"L  c #4C4400",
"P  c #4B4136",
"I  c #44433B",
"U  c #4B443A",
"Y  c #474439",
"T  c #55493D",
"R  c #6E4E2D",
"E  c #7F5C39",
"W  c #6F4400",
"Q  c #4D4B45",
"!  c #4B4B46",
"~  c #514F4A",
"^  c #584E40",
"/  c #595751",
"(  c #54534C",
")  c #6A5C4D",
"_  c #695648",
"`  c #745648",
"'  c #776857",
"]  c #74634E",
"[  c #7A7367",
"{  c #7C7A72",
"}  c #840000",
"|  c #8C0000",
" . c #810D04",
".. c #930000",
"X. c #9C0000",
"o. c #900800",
"O. c #821612",
"+. c #A30000",
"@. c #AC0000",
"#. c #A10A00",
"$. c #B40000",
"%. c #BC0000",
"&. c #B81504",
"*. c #89290A",
"=. c #94290E",
"-. c #962B09",
";. c #8B3518",
":. c #B6300A",
">. c #B83320",
",. c #C40000",
"<. c #CC0000",
"1. c #CB0A00",
"2. c #D40000",
"3. c #DB0000",
"4. c #DA0A00",
"5. c #C41407",
"6. c #C91407",
"7. c #E30000",
"8. c #EA0000",
"9. c #E30B00",
"0. c #D13B00",
"q. c #D32806",
"w. c #EB3F00",
"e. c #D83D31",
"r. c #994F00",
"t. c #BF5E00",
"y. c #825B38",
"u. c #874B2B",
"i. c #83603C",
"p. c #D54A00",
"a. c #EF4600",
"s. c #D47600",
"d. c #83715E",
"f. c #8C6D58",
"g. c #827562",
"h. c #8D7B66",
"j. c #8E7C68",
"k. c #897763",
"l. c #917E69",
"z. c #A67F61",
"x. c #AF5E45",
"c. c #EA6857",
"v. c #D86957",
"b. c #AD8900",
"n. c #EA8500",
"m. c #FF9400",
"M. c #F28E00",
"N. c #ECB300",
"B. c #C48900",
"V. c #FFCD00",
"C. c #F6C800",
"Z. c #F2CB00",
"A. c #FFE100",
"S. c #93816C",
"D. c #9C8368",
"F. c #9C8B74",
"G. c #9A8A75",
"H. c #928877",
"J. c #A58868",
"K. c #A18C75",
"L. c #A7937B",
"P. c #B4977D",
"I. c #E7937B",
"U. c #A79885",
"Y. c #B39C81",
"T. c #A29F93",
"R. c #BDA68C",
"E. c #B7A28A",
"W. c #A7A499",
"Q. c #ACA99E",
"!. c #A8A499",
"~. c #B6A893",
"^. c #AEA08D",
"/. c #AEABA0",
"(. c #C39F83",
"). c #EA9C82",
"_. c #C3AB8F",
"`. c #C0A68A",
"'. c #C5AC91",
"]. c #CCAB90",
"[. c #CDB396",
"{. c #C7B095",
"}. c #D0B79A",
"|. c #D5BA9D",
" X c #D8BB9C",
".X c #F0B194",
"XX c #C5BBA9",
"oX c #D5BEA3",
"OX c #DDC09F",
"+X c #DBC6AB",
"@X c #DAC4A7",
"#X c #DDCBB2",
"$X c #CEC8BA",
"%X c #E3C6A5",
"&X c #EBCDAB",
"*X c #E6CAA9",
"=X c #F3CDAB",
"-X c #EED0AE",
";X c #F0D1AE",
":X c #EBD2B4",
">X c #EDD6BA",
",X c #E7D4BB",
"<X c #F2D5B3",
"1X c #F7DBB9",
"2X c #E1CDB3",
"3X c #FCE1BD",
"4X c #EBDCC5",
"5X c #E5DCCB",
"6X c #F3DDC1",
"7X c #EEE1CB",
"8X c #FDE4C4",
"9X c #FDE6C9",
"0X c #FEE9CC",
"qX c #F6E4CA",
"wX c #EEE6D5",
"eX c #EDE6D6",
"rX c #FBEBD3",
"tX c #F5EDDB",
"yX c #F7E9D2",
"uX c #FFF2DB",
"iX c #F9F0DB",
"pX c #FBF5E4",
"aX c #FFFAE2",
"sX c #FFFDEA",
"dX c #F6F1E0",
"fX c #FFFFF4",
"gX c #FFFFF8",
/* pixels */
"                                                      . . . . . . . . . . . . . . .                                                             ",
"                                                      . o . . X X . . o . X X . . X                                                             ",
"                                                    $ - - - - - - - - - - - - - - = o                                                           ",
"                                                  X = 7 0 0 0 0 0 0 0 0 0 0 0 0 0 7 - X                                                         ",
"                                                . X 6 n C C C C C C C B A C C C N b 6 X .                                                       ",
"                                                . X 7 c =.=.=.=.=.=.=.=.=.=.=.-.*.c 2 X .                                                       ",
"                                                . X 4 x &.6.6.5.5.5.5.5.5.5.6.6.&. .4 X .                                                       ",
"                                                . X p | ,.3.2.2.<.2.2.2.<.2.4.3.,.| p X .                                                       ",
"                                              . . X 1 k ..+.+.X.X.X.X.X.X.X.+.+...j 3 . . .                                                     ",
"                                      . . . . . . . @ 3 p a a a a a a a a a a a a 3 # . . . . . . .                                             ",
"                                    . . . X . o . X X X @ @ $ X @ $ @ @ @ @ @ $ $ X X X X X . . . . .                                           ",
"                                    . . X $ - 6 6 - - - = = = = = = = = $ = $ = $ - - - 6 6 6 $ X . .                                           ",
"                                    . . $ 7 n b b b 0 0 9 q q q q 9 9 9 9 9 9 9 9 0 0 b b b 9 7 $ . .                                           ",
"                                    . . - 9 M N N N N B A A C C C B Z B A B Z A A B B M N N M 9 - X .                                           ",
"                                    . X $ 7 9 n n b B R y.u.;.=.;.u.y.E i.y.i.i.y.R B b n 0 0 7 $ . . .                                         ",
"                                    . . X $ 6 6 6 7 P ] J.x.>.5.>.x.z.J.J.J.J.J.D.` B 7 - - - = o . . . . . . . . . .                           ",
"                                    . . . . . . . O F g.P.v.e.9.e.v.`.R._.`.'.'.Y.d.H % . X X @ X X . . . . + O o X . .                         ",
"                                      . . . . . . o H S.{.).c.c.v.I. X@X+X+X2X@X{.j.u . . < 3 4 4 3 < @ X : y F r ; . . .                       ",
"                                              . . O J G.@X.X.XI.)..X*X:X4X7X6X,X}.S.H O # a l } } l d < o y ) S.) r . . . .                     ",
"                                                . O P K.@X<X=X=X&X&X<X6XrXtX5X#X'.k.F & 4 l +.$.%.+.l 3 ; Y F.[.L.^ > . o O O                   ",
"                                              . . + P F.%X1X3X3X3X8X0X0XrXyX#X~.S._ D s j | %.<.2.%.} 4 & T Y.%X[.h.T P J J t w                 ",
"                                            . . . + Y G.OX1X1X3X0XrXuXuXyX2X~.[ U m c z ..@.%.<.3.<...4 ; U L.%X*X'.L.K.L.G.' t .               ",
"                                          . . . . % J h.].OX%X*X:X7X7X7X#X'.l.J 8 p z +.$.%.%.2.3.2...p & Y G.%X<X;X&X&X&X XF.T > .             ",
"                                        . . . X 1 5 D ` k.G.F.F.U.T.W.W.U.h.` m p f ..$.,.,.<.2.7.3.X.p & Y S.@X1X8X8X0X8X;X`.g.T t w           ",
"                                      . . . . 1 d l v D H Y Y Y I ~ ~ ! I H m v z | +.%.,.<.2.7.8.3.X.p $ u j.[.:XqXrXrX8X<XOXR.K.' t O         ",
"                                    . . . . X 4 z +. .s & % % % & ; & % , & p z @.$.%.%.<.3.7.8.8.3...p & y [ R.#X7XiXrX8X1X<X;X XF.P % .       ",
"                                    . . . . X p ..%.+.k 4 3 3 3 1 3 3 1 1 4 j ..$.,.,.<.2.3.7.8.8.2...4 & y g.R.@X,X7X7XqX8X8X3X&XK.P o .       ",
"                                    . . . . . a X.<.<.+.z l l z l z l z l z | +.%.<.<.2.3.7.7.8.7.<.| 4 & t g.R.oX@X2X4XqXuXrX8X&XK.J X .       ",
"                                    + O + + & d ..<.<.,.$.@.@.@.@.$.@.$.$.$.$.$.%.,.2.7.7.7.7.7.3.,.| 4 % y ' Y.R.R.~.@X5XyXuX8X:XL.T : .       ",
"                                  e ! ~ Q Q J K O.X.@.$.%.%.,.%.%.%.%.,.,.<.<.<.<.2.7.7.8.7.3.3.2.,.| 4 @ e ^ ' d.d.g.U.XX7XrX0X>X~.[ U r 8     ",
"        . . . . . . .           . I { W.~.U.K.f.K g k ..$.%.%.%.%.%.%.,.2.3.3.3.3.3.7.7.7.3.2.3.2.,.} p o , w y t r H ) U.+X4XrX7X#X~.S.) t O . ",
"      O O , O , O , O O       . > / W.5XyX6XoXF.U 6 4 } $.,.,.%.%.%.%.<.2.3.7.7.7.7.7.7.7.2.<.2.2.,.| p X . . O o X ; J [ E.+X7XtXyX:X'.k.F O . ",
"    r I ! ~ ~ ~ ~ ~ ~ H e   > i ~ S.$XyXuX0X&XK.I % 3 } ,.2.<.<.,.<.<.<.3.3.7.7.3.7.3.3.3.2.2.2.2.,.| p X . . . . . . w ^ k.^.,XdXiX6X Xl.H O . ",
". + ! { T.Q.Q.Q././.T.{ i , i [ T.$X2X8X0X3X%XH.i % 4 | 2.7.3.2.3.2.2.3.3.2.2.3.3.2.3.2.2.2.<.2.3.<.| p X . .         ; w P [ XXtXuX6XoXl.H O . ",
". O ~ T.5XdXtXeXtXdX5XT.~ e ^ T.5XwXqX<X-X%X'.j.u - 4 ..<.3.7.7.7.7.7.3.2.<.<.<.<.<.2.<.<.<.<.<.<.%.} p X .             . > / Q.eXuX6X}.h.H O . ",
". , ~ Q.dXfXsXuXpXpXyXXXg.( [ XXqXuX3X&X[.P.j.) y % 4 l X.$.<.3.3.7.3.2.<.,.%.,.,.,.<.<.<.,.,.$.X.| j 3 X               . + ! W.wXuX6X}.h.J O . ",
". , ~ Q.tXsXuX0X0X0X6X*XR.L.R.@X>X3X>X@XY.' P r >   < 4 d l +.<.3.3.2.<.%.$.$.$.$.%.,.<.,.,.@.| j a 3 <                 . O ~ W.eXuX6X}.l.F O . ",
". O ~ W.wXuXqX1X<X<X<X-X&X*X@X X}.|. X_.j.U : .       . # a o.1.4.4.1.%.$.@.+.+.@.$.,.,.,.%.+.l 4 @ .                   . O ~ W.eXuX6X}.h.F O . ",
". + Q U.5X0X1X-X&X=X-X<X1X;X XY.S.S.S.d.) r .         . o 9 *.p.p.w.0.q.&.@.@.+.@.$.%.,.,.%.X.k 3 . .                   . O ! W.eXuX1X}.h.H O . ",
". O Q G.#X1X<X&X&X&X&X&X<X%XY.' P F F F t 8           . o n r.n.M.n.s.p.:.@.+.@.@.@.$.%.$.$.+.l 3 . .                   . + ! W.eXuX6X}.l.F O . ",
". O H h.'.|.|.}.[.[.}.|.|._.l.U ; o . % O             . o V b.N.C.N.N.s.:.#.X.X.X.X.X.+.+.+...j 3 X .                   . > / /.wXuX1X}.h.F O . ",
". O t ) k.l.l.l.l.h.l.l.l.k.) y . . . .               . o L b.Z.A.A.N.B.r.x j k k k k k k k j a # . . .               e H / U.$XtXuX4X}.l.F O . ",
"    w t F F H H H H H H J F t 8                       . o L b.Z.A.A.Z.b.W 5 1 < 1 1 1 1 3 3 1 # X . . . .           O I { W.$X5XdXiX1X}.h.H % . ",
"      O O O O O O O O O O O O                         . * L b.N.V.V.N.b.V 2 X @ @ # @ @ @ @ @ @ X X . . . .       . , Q T.5XdXfXpXyX,X}.h.H O . ",
"        . . . . . . . . . .                         < 4 d S p.n.m.m.n.p.S s p p p a p p p 4 3 4 4 3 1 @ . .       . O ~ Q.dXgXgXpXrX>X}.h.F O . ",
"                                                  X 4 l X.&.0.w.a.a.a.q.&.X.......X.X...| } z z z z d < . .       . O ~ W.dXgXgXpXrX4X}.l.F O . ",
"                                                . X p ..<.7.9.9.9.9.9.9.4.3.2.3.2.3.2.3.<.%.$.$.$.+.l 3 X .       . O ~ W.eXfXsXiXyX>X}.h.H O . ",
"                                                . X p ..3.8.7.2.3.2.2.3.7.7.8.7.8.8.8.8.7.2.2.<.<.%.} 4 X .       . O ! U.4XuXuXqXqX>X|.l.H O . ",
"                                                . X 4 ..<.3.<.,.,.%.,.<.2.7.7.3.3.7.7.8.8.7.3.3.2.%.z 4 X .       . O U G.#X6X6X>X>X:X|.l.H O . ",
"                                                . @ a | %.,.$.+.X.X.+.@.%.,.,.<.<.3.3.7.7.7.3.2.,.+.l 4 X .       . O H j.'.oX|.}.|.|._.h.F O . ",
"                                              < 3 p k X.%.@.| k k k k l z | +.%.2.2.3.3.3.7.2.%.+.z f 1 X           O t ) k.l.l.h.l.l.k.) t O . ",
"                                            X 4 k | +.$.@...f 4 1 1 3 3 3 p k +.<.3.3.2.2.2.,.X.k p 1 #               w t F H H H H J H t w     ",
"                                          . X p } $.%.$.X.k 4 @ . . X X . # a } %.<.2.<.<.<.$.z 4 @ .                   O O O O O O O O O       ",
"                                          . . 4 } $.$...k d 1 . . . . . . . 3 j } +.%.<.<.,.+.l 3 . .                     . . . . . . .         ",
"                                          . . 4 z +...j 4 < @               # 3 a k +.<.<.,.+.k 1 . .                                           ",
"                                          . @ 4 z ..z 4 @ .                   . @ a } %.,.%.+.k 4 @ .                                           ",
"                                        < 3 p k ..X.l 3 . .                     . 3 j } X.+.X.} d 3 # @                                         ",
"                                      X 4 j | +.$.@.z 3 X .                       # 3 p j | +...l f 4 # .                                       ",
"                                    . X 4 } $.,.%.+.l 4 X .                         . @ 4 k ..X...z f 1 @ .                                     ",
"                                    . X p ..<.,.+.z f 1 X                             . < a k z | | l a 3 # X                                   ",
"                                    . X p ..,.@.l p 1 #                                 @ < 4 f } X.| l d 4 # .                                 ",
"                                    . X p | @.| a # .                                     . @ 4 k | X.| z d 3 @ .                               ",
"                                      X 4 k z k a 1 < @                                     . < a k z | | l a 3 < #                             ",
"                                        < 3 p a d f p < X                                     @ 1 4 d l | | z j a 1 X                           ",
"                                          . @ 3 f k d 1 . .                                     . @ 3 f } | | z d 1 . .                         ",
"                                            . < a d p # . . .                                     . < a j k k f p < X . .                       ",
"                                              # < 1 < @ . . . .                                     # 1 1 3 3 3 < @ . . . .                     ",
"                                                X . . . . . . . .                                     . X X . X . . . . . . .                   ",
"                                              . . . . . . . . . .                                   . . . . . . . . . . . . .                   ",
"                                      . . . . . . . . . . . . . .                                 . . . . . . . . . . . . . .                   ",
"                                    . . . . . . . . . . . . . . .                               . . . . . . . . . . . . . . .                   ",
"                                    . . . . . . . . . . . . . . .                               . . . . . . . . . . . . . . .                   "
};
