/* XPM */
static char *player_resized[] = {
/* columns rows colors chars-per-pixel */
"72 72 227 2 ",
"   c None",
".  c #010000",
"X  c #0B0101",
"o  c #0A0A04",
"O  c #0D0C0A",
"+  c #070D0B",
"@  c #130100",
"#  c #1C0000",
"$  c #130C04",
"%  c #140B09",
"&  c #1A0B0A",
"*  c #1B0B00",
"=  c #151104",
"-  c #1B1206",
";  c #17130E",
":  c #191613",
">  c #1A1916",
",  c #0E120F",
"<  c #250000",
"1  c #2D0000",
"2  c #280C04",
"3  c #330000",
"4  c #3C0000",
"5  c #390C00",
"6  c #211306",
"7  c #2B1B0A",
"8  c #241B17",
"9  c #3A240B",
"0  c #3B280D",
"q  c #37270C",
"w  c #28231D",
"e  c #292826",
"r  c #342E26",
"t  c #3B332B",
"y  c #36342C",
"u  c #3C3B33",
"i  c #3C3B38",
"p  c #430000",
"a  c #4A0100",
"s  c #4F0803",
"d  c #540000",
"f  c #5A0000",
"g  c #550803",
"h  c #401500",
"j  c #640000",
"k  c #6B0000",
"l  c #730000",
"z  c #7C0000",
"x  c #720B00",
"c  c #62150B",
"v  c #6C1410",
"b  c #44290D",
"n  c #43260A",
"m  c #4A2817",
"M  c #543211",
"N  c #5A3312",
"B  c #5B3A1A",
"V  c #543D00",
"C  c #633411",
"Z  c #603C19",
"A  c #613916",
"S  c #703600",
"D  c #532821",
"F  c #42392F",
"G  c #4C3A27",
"H  c #443B31",
"J  c #493C32",
"K  c #662E26",
"L  c #4C4400",
"P  c #4B4136",
"I  c #44433B",
"U  c #4B443A",
"Y  c #474439",
"T  c #55493D",
"R  c #6E4E2D",
"E  c #7F5C39",
"W  c #6F4400",
"Q  c #4D4B45",
"!  c #4B4B46",
"~  c #514F4A",
"^  c #584E40",
"/  c #595751",
"(  c #54534C",
")  c #6A5C4D",
"_  c #695648",
"`  c #745648",
"'  c #776857",
"]  c #74634E",
"[  c #7A7367",
"{  c #7C7A72",
"}  c #840000",
"|  c #8C0000",
" . c #810D04",
".. c #930000",
"X. c #9C0000",
"o. c #900800",
"O. c #821612",
"+. c #A30000",
"@. c #AC0000",
"#. c #A10A00",
"$. c #B40000",
"%. c #BC0000",
"&. c #B81504",
"*. c #89290A",
"=. c #94290E",
"-. c #962B09",
";. c #8B3518",
":. c #B6300A",
">. c #B83320",
",. c #C40000",
"<. c #CC0000",
"1. c #CB0A00",
"2. c #D40000",
"3. c #DB0000",
"4. c #DA0A00",
"5. c #C41407",
"6. c #C91407",
"7. c #E30000",
"8. c #EA0000",
"9. c #E30B00",
"0. c #D13B00",
"q. c #D32806",
"w. c #EB3F00",
"e. c #D83D31",
"r. c #994F00",
"t. c #BF5E00",
"y. c #825B38",
"u. c #874B2B",
"i. c #83603C",
"p. c #D54A00",
"a. c #EF4600",
"s. c #D47600",
"d. c #83715E",
"f. c #8C6D58",
"g. c #827562",
"h. c #8D7B66",
"j. c #8E7C68",
"k. c #897763",
"l. c #917E69",
"z. c #A67F61",
"x. c #AF5E45",
"c. c #EA6857",
"v. c #D86957",
"b. c #AD8900",
"n. c #EA8500",
"m. c #FF9400",
"M. c #F28E00",
"N. c #ECB300",
"B. c #C48900",
"V. c #FFCD00",
"C. c #F6C800",
"Z. c #F2CB00",
"A. c #FFE100",
"S. c #93816C",
"D. c #9C8368",
"F. c #9C8B74",
"G. c #9A8A75",
"H. c #928877",
"J. c #A58868",
"K. c #A18C75",
"L. c #A7937B",
"P. c #B4977D",
"I. c #E7937B",
"U. c #A79885",
"Y. c #B39C81",
"T. c #A29F93",
"R. c #BDA68C",
"E. c #B7A28A",
"W. c #A7A499",
"Q. c #ACA99E",
"!. c #A8A499",
"~. c #B6A893",
"^. c #AEA08D",
"/. c #AEABA0",
"(. c #C39F83",
"). c #EA9C82",
"_. c #C3AB8F",
"`. c #C0A68A",
"'. c #C5AC91",
"]. c #CCAB90",
"[. c #CDB396",
"{. c #C7B095",
"}. c #D0B79A",
"|. c #D5BA9D",
" X c #D8BB9C",
".X c #F0B194",
"XX c #C5BBA9",
"oX c #D5BEA3",
"OX c #DDC09F",
"+X c #DBC6AB",
"@X c #DAC4A7",
"#X c #DDCBB2",
"$X c #CEC8BA",
"%X c #E3C6A5",
"&X c #EBCDAB",
"*X c #E6CAA9",
"=X c #F3CDAB",
"-X c #EED0AE",
";X c #F0D1AE",
":X c #EBD2B4",
">X c #EDD6BA",
",X c #E7D4BB",
"<X c #F2D5B3",
"1X c #F7DBB9",
"2X c #E1CDB3",
"3X c #FCE1BD",
"4X c #EBDCC5",
"5X c #E5DCCB",
"6X c #F3DDC1",
"7X c #EEE1CB",
"8X c #FDE4C4",
"9X c #FDE6C9",
"0X c #FEE9CC",
"qX c #F6E4CA",
"wX c #EEE6D5",
"eX c #EDE6D6",
"rX c #FBEBD3",
"tX c #F5EDDB",
"yX c #F7E9D2",
"uX c #FFF2DB",
"iX c #F9F0DB",
"pX c #FBF5E4",
"aX c #FFFAE2",
"sX c #FFFDEA",
"dX c #F6F1E0",
"fX c #FFFFF4",
"gX c #FFFFF8",
/* pixels */
"                                                            . . . . . . . . . . . . . . .                                                       ",
"                                                            . o . . . o . . . . . o . . .                                                       ",
"                                                          $ - & - - - - - - - - - - - - - o                                                     ",
"                                                        . = 7 0 b 0 0 0 0 0 0 0 0 0 0 q 7 - o                                                   ",
"                                                      . . 6 n N C C C C C C C C A C C N n 6 . .                                                 ",
"                                                      . X 2 c *.=.=.=.=.=.=.=.=.=.=.=.=.c 2 X .                                                 ",
"                                                      . X 4  .&.6.6.5.5.5.5.5.5.5.6.6.&. .4 X .                                                 ",
"                                                      . X p | 1.3.3.1.2.2.1.2.2.2.2.2.1.| p X .                                                 ",
"                                                    . . . 3 k ..+.+.X.X.X.X.+.X.X.+.+...k 1 X . .                                               ",
"                                            . . . . . . . @ 3 p a a a a a p a a a a a p 3 @ . . . . . . .                                       ",
"                                          . . . . . . o X o X @ @ @ @ @ @ @ @ @ @ @ @ @ X o . o . . . . . .                                     ",
"                                          . . o $ 6 6 6 6 - - = = = = = = = = = = = = = - 6 6 6 6 6 $ o . .                                     ",
"                                          . . $ 7 n b b b b 9 9 9 9 9 9 9 9 9 q q q 9 9 9 n b b b 0 7 & . .                                     ",
"                                          . . - 9 M N N M N B Z Z B Z Z Z N B C C Z A B B N M M N M 9 - . .                                     ",
"                                        . . . = 7 0 b 0 b B R E i.i.i.i.i.y.u.;.*.;.u.E R B b b n n 7 $ . .                                     ",
"                          . . . . . . . . . . . o - - - 7 G ` J.J.J.J.J.J.J.x.:.&.>.x.J.] G 7 6 - 6 $ o . .                                     ",
"                        . . . o O O . . . X X X X @ X . % F d.Y._._.R.~.R.E.v.e.q.e.v.P.g.H O . . . . . . .                                     ",
"                      . . . ; r H r > . @ < 4 4 4 3 # . o u j.{.@X#X#X@X@X}.I.c.c.c.).].S.H o . . . . . .                                       ",
"                    . . . . r ) j.' r % < d l } } l a # O u l.}.:X3X7X7X,X*X.X).).)..X%XH.Y o . .                                               ",
"                  O O o o : ^ L.[.F.I % 1 l +.%.%.+.l 4 & F k.'.2X7XtXyX3X<X=X=X=X=X<X%XF.P O .                                                 ",
"                w t P P J T h.[.*XU.T & 4 } ,.2.<.%...j p D ` l.~.#XwXuX0X0X8X3X6X1X1X&XK.J O . .                                               ",
"              . t ' G.K.K.L.].*X*XU.Y & 4 ..<.3.<.%.+...z c D U [ ^.2X0XuXuXrX0X1X1X<X%XG.J + . . .                                             ",
"            . > T K. X-X&X&X<X<X%XK.I & p ..2.3.<.%.%.%.+.z p 7 Y S.[.2X4X7X7X,X%X%XOX].h.J % . . . .                                           ",
"          w t T d.`.<X3X0X9X6X1XOXS.H & p X.3.7.2.<.,.,.$.| f p m _ S.F.W.W.W.U.K.G.G.j.` D 5 < X . . .                                         ",
"        O u ' K.`. X<X8XrXuXqX:X[.S.y = p X.3.8.7.2.2.,.%.+...l c m H I ! ~ ! ! I Y I F D v l d < . . . .                                       ",
"      . O U D.oX<X<X<X8XrXiX4X2XR.[ y $ p ..2.8.8.7.2.<.%.%.$.@.z p & % % & ; % & % $ & s | X.z p X . . . .                                     ",
"      . o J K.&X3X8X8XqXqX5X4X+X`.[ y & p | 2.8.8.8.3.2.<.,.,.$...f 4 3 3 3 3 3 3 1 3 4 k +.%...p . . . . .                                     ",
"      . o J K.&X9XrXrXwX4X#XoXoX`.k.y & 4 | <.7.8.7.7.3.2.<.<.%.+.| z l l l z l z l l z X.<.2.X.p X . . . .                                     ",
"      . : T L.&X0XuXtX5XoXR._.`.P.' r % 4 } ,.3.7.7.7.8.7.2.,.%.%.$.@.$.$.@.$.@.@.@.@.$.%.2.<.X.g & o , O O                                     ",
"    8 r T [ ~.>X0X0X4XXXU.k.' g.' ( e $ 4 | ,.3.3.3.7.7.7.3.2.<.<.<.<.,.,.%.%.%.,.%.,.%.$.@.X.O.K U Q ~ ! ! e                                   ",
". O r ) S.~.#X7XyX4X+XU.) H y t y w , X 4 | ,.2.3.2.3.7.8.7.3.3.2.3.3.2.,.%.%.%.%.%.,.$...k g K f.K.U.Q.T.{ i +           . . . . . . .         ",
". O F k.'.:XyXtX7X+XE.g.J : . o $ o . o p | ,.2.2.<.3.3.7.7.7.7.7.7.7.2.<.%.%.%.%.%.,.$.z p 2 J l.oX6XrX5XW./ > .       O % , O % , O , O       ",
". O H l.oX6XuXtX,X^.k.^ e . . . . . . X p | ,.3.2.2.2.2.3.3.7.3.7.3.3.3.<.<.,.<.<.<.2.%.} 3 % I F.&X0XuX0XXXH./ i >   e H ~ ~ ~ ~ ~ ~ ! ! e     ",
". % H l.oX6XuXtXXX[ J w ;         . . X p | <.3.2.<.2.2.3.2.3.3.3.3.3.2.3.2.3.2.3.3.7.2.| 4 $ I G.%X3X0X7X,XXXW.{ i , i { T.Q.Q.Q.Q.Q.T.{ H O . ",
". O F l.}.6XuXeXQ./ > .             . X 4 } $.<.<.<.<.2.<.2.<.<.<.<.<.2.3.7.7.7.7.7.3.<.| p % u S._.%X-X<X8XyX5XT.! e ~ T.5XdXtXeXtXdX5XT.~ O . ",
". O F h.}.6XuXeXW.! o .               X 3 j | +.$.%.,.<.<.<.,.,.%.,.,.<.2.3.3.7.3.<.$.X.l 4 & r ) S.P.[.&X8XrXyXXX[ ( g.XXrXsXpXaXsXfXdX/.~ , . ",
". O F h.}.6XuXeXW.! + .                 < 3 a j | @.,.<.<.,.%.$.$.@.$.%.<.2.3.3.<.+.z d 4 <   > e Y ' P.@X<X1X>X@XR.L.R.+X8X9X9X9XuXsXtXQ.~ O . ",
". O F l.}.6XuXeXW.~ O .                   . @ 4 l +.%.,.<.%.$.@.+.+.@.$.,.1.4.4.5.o.a @ .       . : P S._.|.|.|.|.OX*X&X&X<X<X<X1X9XuXwXW.~ , . ",
". O F l.}.6XuXeXW.! O .                   . . 1 k X.$.%.,.%.$.@.+.@.@.&.q.0.p.a.p.-.h . .         o r ) h.S.h.S.P.|.<X1X<X;X=X&X;X6X0X5XU.! O . ",
". O F h.[.6XuXeXW.! o .                   . . 3 l +.$.%.%.$.@.@.+.@.+.:.p.s.n.M.n.r.n o .           > t F F t P ' E.%X<X=X*X*X&X*X<X1X#XG.Y O . ",
". O F l.}.6XuXeX/./ > +                   . X 1 k ..+.+.X.X.X.X.X.X.#.:.s.N.N.C.N.b.V o .             O o o o : P S.'.|.|.[.[.[.[.|. X'.j.H O . ",
". O H h.}.1XiXtX/.U./ i e               . . . < p j l k k k k k k j x r.B.Z.A.A.C.b.L o .               . . . . r ) k.l.l.l.l.l.l.l.l.k.) t O . ",
". O F h.}.4XrXdXeX$X!.{ ! ,           . . . . X # 1 3 3 1 1 1 3 1 < 5 W b.C.A.A.Z.b.L o .                       w t F F H F H H F H H F t w     ",
". O F l.}.>XrXdXsXpX7XT.! O .       . . . . X X @ @ @ @ @ # @ @ @ X 2 V b.N.V.V.N.b.V * .                         O O O % O O O O O O O O       ",
". O H h.}.>XrXpXfXgXdXQ.~ , .       . . @ < 4 4 4 3 4 4 p p p p p 4 s *.t.n.m.m.n.t.*.s 4 <                         . . . . . . . . . .         ",
". O F j.}.>XrXpXfXgXdXQ.~ O .       . . < d z z z z } | ..X.X.X.X...X.&.q.a.a.a.a.q.&.X.k 4 X                                                   ",
". O H j.}.>XyXdXsXsXeXW.~ O .       . X 4 l +.$.$.$.,.<.2.3.3.2.2.2.3.3.4.9.9.9.9.9.7.<...p X .                                                 ",
". O H l.|.<XqXyXuXuX5XU.Q O .       . X 4 z %.<.<.<.3.7.8.8.8.7.8.8.7.7.3.2.2.2.2.3.8.3...p X .                                                 ",
". O H l.|.:X<X>X6X6X2XG.U O .       . X 4 z %.2.2.3.7.8.8.8.7.3.3.3.7.2.<.,.%.,.,.<.3.<...4 . .                                                 ",
". O H k._.|.|.}.|.oX'.h.H O .       . X 4 l @.,.2.3.7.7.7.3.2.2.<.<.,.$.@.+.X.X.+.$.,.,.| a # .                                                 ",
". O t ) h.l.l.h.l.l.k.) t O           X 1 f } X.%.2.7.3.3.3.2.2.%.+.| z l k k j l | @.$.X.k a 3 <                                               ",
"    w t H H H F H H F t w               # 1 p j X.,.2.2.2.3.3.<.+.k a 3 3 3 3 1 4 f | @.$.+.| j 3 X                                             ",
"      O O O O O O O O O                   . @ p z $.,.<.<.2.<.%.| p # . . X X . @ 4 k X.$.%.$.} p X .                                           ",
"        . . . . . . .                     . . 3 k @.,.<.<.%.+.} j 3 . . . . . . . < a l ..$.%.} 4 . .                                           ",
"                                          . . 1 k +.,.2.<.+.k p 3 #               @ < 4 j ..+.z 4 . .                                           ",
"                                          . @ 3 l +.$.,.$.| a # .                   . @ 4 z ..z p @ .                                           ",
"                                        @ # 3 d } X.+.X.} j 3 .                     . . 4 l X...k p 3 <                                         ",
"                                      . # 4 f z ..+.} j p 3 #                       . . 3 z @.$.+.| j 4 X                                       ",
"                                    . @ 1 f z | X...l 4 @ .                         . X 4 l +.%.,.$.} 4 X .                                     ",
"                                  @ # 1 a l ..| z k a < .                             X 1 f z +.,.<...p X .                                     ",
"                                . # 4 f l ....} d 4 < @                                 # < p l @.,...p X .                                     ",
"                              . X 3 f z | ....k 4 @ .                                     X # a | @.| p X .                                     ",
"                            # < 3 a l | | z k a < .                                     @ < 1 a k z k 4 X                                       ",
"                          X < a j z | | l d 4 < #                                     X < p d d a p 3 <                                         ",
"                        . . < f z | | } j 3 X .                                     . . < d k d 3 @ X                                           ",
"                      . . X < p j k k f p < .                                     . . X # p f a < .                                             ",
"                    . . . . @ < 3 3 3 1 < #                                     . . . . @ < 1 < @                                               ",
"                  . . . . . . . X . X X X                                     . . . . . . . X .                                                 ",
"                  . . . . . . . . . . . . .                                   . . . . . . . . . .                                               ",
"                  . . . . . . . . . . . . . .                                 . . . . . . . . . . . . . .                                       ",
"                  . . . . . . . . . . . . . . .                               . . . . . . . . . . . . . . .                                     ",
"                  . . . . . . . . . . . . . . .                               . . . . . . . . . . . . . . .                                     "
};
