/* XPM */
static char *_86e91984e954cd69b00bb96f4a171c1yON2cQ1wGnGMqbtQ[] = {
/* columns rows colors chars-per-pixel */
"24 24 218 2 ",
"   c #0A0601",
".  c #0B0601",
"X  c #0F0902",
"o  c #110A03",
"O  c #120A03",
"+  c #140C03",
"@  c #130B04",
"#  c #150C04",
"$  c #160D04",
"%  c #180E05",
"&  c #190F05",
"*  c #1A0F05",
"=  c #0B1307",
"-  c #00170A",
";  c #0A1A0A",
":  c #081D0B",
">  c #091D0C",
",  c #091E0C",
"<  c #0C1C0C",
"1  c #151106",
"2  c #1B1005",
"3  c #1C1005",
"4  c #1E1206",
"5  c #1F1206",
"6  c #191507",
"7  c #131708",
"8  c #1A1608",
"9  c #171809",
"0  c #141C0A",
"q  c #111E0C",
"w  c #151E0C",
"e  c #201306",
"r  c #221406",
"t  c #231507",
"y  c #271704",
"u  c #241507",
"i  c #271606",
"p  c #2B1903",
"a  c #2D1A06",
"s  c #261708",
"d  c #201C0A",
"f  c #291808",
"g  c #2A1909",
"h  c #2A1A08",
"j  c #2E1B09",
"k  c #2E1C09",
"l  c #311D0A",
"z  c #331E0A",
"x  c #00220F",
"c  c #0A210D",
"v  c #08230E",
"b  c #09230E",
"n  c #002F0E",
"m  c #1D220D",
"M  c #072610",
"N  c #082610",
"B  c #002811",
"V  c #062911",
"C  c #092810",
"Z  c #082C12",
"A  c #1A2710",
"S  c #063215",
"D  c #053717",
"F  c #093315",
"G  c #003A12",
"H  c #023919",
"J  c #043C19",
"K  c #053C19",
"L  c #242005",
"P  c #262207",
"I  c #282506",
"U  c #262208",
"Y  c #2A2508",
"T  c #2B2608",
"R  c #2B290A",
"E  c #322F05",
"W  c #332F07",
"Q  c #37210B",
"!  c #38210B",
"~  c #3E2508",
"^  c #3D240C",
"/  c #342F08",
"(  c #3C3807",
")  c #343008",
"_  c #353008",
"`  c #363208",
"'  c #37310B",
"]  c #383308",
"[  c #3C3709",
"{  c #363B0B",
"}  c #3E3909",
"|  c #42270D",
" . c #43280D",
".. c #4A2B0B",
"X. c #4B2D0F",
"o. c #433C0D",
"O. c #453E0E",
"+. c #5B3404",
"@. c #54310E",
"#. c #58340D",
"$. c #5F380C",
"%. c #5D380F",
"&. c #543211",
"*. c #563311",
"=. c #5A3512",
"-. c #623A0F",
";. c #673B0C",
":. c #663C0F",
">. c #683C09",
",. c #6C3F0B",
"<. c #683D0E",
"1. c #603913",
"2. c #683E11",
"3. c #04411B",
"4. c #054719",
"5. c #00411C",
"6. c #00421D",
"7. c #03421C",
"8. c #00471F",
"9. c #0D4119",
"0. c #03491F",
"q. c #005D1C",
"w. c #004F22",
"e. c #054C20",
"r. c #025022",
"t. c #055123",
"y. c #045725",
"u. c #005826",
"i. c #005A27",
"p. c #025E29",
"a. c #006226",
"s. c #006A26",
"d. c #006B26",
"f. c #046825",
"g. c #00622A",
"h. c #03632A",
"j. c #046129",
"k. c #04622A",
"l. c #00682D",
"z. c #026A2D",
"x. c #006C2E",
"c. c #026D2F",
"v. c #007122",
"b. c #007227",
"n. c #037129",
"m. c #007030",
"M. c #037231",
"N. c #007432",
"B. c #007532",
"V. c #027632",
"C. c #037732",
"Z. c #007834",
"A. c #007A34",
"S. c #007D36",
"D. c #48410A",
"F. c #48420B",
"G. c #4F470B",
"H. c #514B0C",
"J. c #59520D",
"K. c #5E560E",
"L. c #4F4610",
"P. c #564D11",
"I. c #5B5112",
"U. c #515810",
"Y. c #525B14",
"T. c #5C5916",
"R. c #704006",
"E. c #77450B",
"W. c #74450D",
"Q. c #7B480A",
"!. c #7D4A0F",
"~. c #625B0C",
"^. c #675F0F",
"/. c #6D4212",
"(. c #754613",
"). c #7B4911",
"_. c #6B650D",
"`. c #70680D",
"'. c #766F0D",
"]. c #766F0E",
"[. c #7B730E",
"{. c #6C6310",
"}. c #804C0F",
"|. c #824D0E",
" X c #8F530B",
".X c #8F540F",
"XX c #814C10",
"oX c #834E12",
"OX c #9F5E11",
"+X c #847E0C",
"@X c #008027",
"#X c #008729",
"$X c #02842F",
"%X c #008B2A",
"&X c #00932E",
"*X c #02962D",
"=X c #028D32",
"-X c #008E35",
";X c #008238",
":X c #028338",
">X c #008639",
",X c #008F3A",
"<X c #008B3C",
"1X c #00913E",
"2X c #00953C",
"3X c #009B38",
"4X c #00983A",
"5X c #009C38",
"6X c #00AE2C",
"7X c #00AF2D",
"8X c #00B728",
"9X c #00A130",
"0X c #00A532",
"qX c #00A533",
"wX c #00A632",
"eX c #00A135",
"rX c #00AA30",
"tX c #88810D",
/* pixels */
"^.'.I.P.P.P.{.{.^.[.s.a.a.{.P.T.I.I.P.^.P.^.^.{.",
"^.^.{.u.u.u.u.P.s.b.wX5X1Xu.u.P.u.u.Y.^.P.^.U.U.",
"^.P.u.1XwX1Xu.a.b.1X7X7X8XwXu.u.wXeXs.s.^.U.P.P.",
"P.u.5X7XwX5X1Xa.,XqX7XwX1X1X1Xu.4X7XeX3Xa.P.P.P.",
"U.u.5XwX5X1Xu.N.1XwX5X1X1X1X1X1X0.rXrX3X2Xa.T.P.",
"u.1XwXwX1X1Xw.m.<X1X1X1X3X5X1X1X0.c.&X1X-Xs.I.{.",
"u.S.1X5X1X1Xw.m.S.<X1X5XwX5X1X;Xe.3.f.z.Z.d.^.P.",
"u.N.Z.<X;X>X>XH c.x.<X<X<X>X>Xw.8XwX3.k.t.a.^.I.",
"[.J p.Z.A l.u.0 V C u.S.m.N.t.D =XwX5XJ C.0.`.].",
"I.F.c F 7 8 w r | ; = : Z b c m.;X;X=XJ wX*Xw.P.",
"T.{._.D S 4 =.r oX*.| @ N N e.d <XS.D h.C.wX=Xu.",
"^.{.P.P.{.^.s =.OX,.s I.^.8.q < h.e.V h.<X<X9Xu.",
"+XI.I.{.^.^.s XX X:.1.u u r * c < < 1 8.Z.m $Xu.",
"^.P.e.I.[.'.t .Xp <.;.#.u u ~.G.9.E.u 0.8 6 6.P.",
"U.P.e.6.P._.u E.. >.@.u wXu *.P.|.).r r r 0.I.^.",
"[.[.H e.I.u t Q.. ).u wXwX0.u ).|.r s r {.{.P.I.",
"[.e.%X8.[.u O +.u /.u wX0.wXu |.a u 8.P.P.{.P.^.",
"^.e.%Xe.{.r X ,...-.<.u wXwXt $.u wXwX8.{.^.U.{.",
"P.e.#XwXr @.8.8.8.*.%.u wXu *.a u 8.wXwXe.'.^.T.",
"P.e.#XeX0.X.8.wXwX8.z 4 #Xu (.t $.u 8.8.e.+X'.P.",
"tX].5.d.#X8.wXwX@.wX8.^ & $  .4 -.u U.I.~.e.^.].",
"L.E P B q.B b.l Q Q f u & @ z & # ~ & [ P.P.P.^.",
"T.o.( L - n G 4 h h s k f o f & # Y / [ H.I.P.P.",
"P.P.P.J.F.` ) I E P ' Y R ] ' { D.K.^.I.I.U.P.'."
};
