/* XPM */
static char *d2FsbA__[] = {
/* columns rows colors chars-per-pixel */
"72 72 251 2 ",
"   c #150B04",
".  c #190E05",
"X  c #0C1B0B",
"o  c #081A0A",
"O  c #1C1306",
"+  c #131608",
"@  c #141C0A",
"#  c #1B1C0A",
"$  c #181507",
"%  c #0F0F05",
"&  c #241406",
"*  c #2B1606",
"=  c #241A06",
"-  c #2B1A06",
";  c #241608",
":  c #2A1708",
">  c #241B09",
",  c #2B1B08",
"<  c #331D06",
"1  c #331D09",
"2  c #3B1D08",
"3  c #381C07",
"4  c #220F06",
"5  c #06220E",
"6  c #0B230E",
"7  c #022B0F",
"8  c #0D2B0F",
"9  c #13230D",
"0  c #1A230C",
"q  c #172B0E",
"w  c #15320E",
"e  c #052C12",
"r  c #0B2C12",
"t  c #072610",
"y  c #132B11",
"u  c #1A2C11",
"i  c #142712",
"p  c #053315",
"a  c #0B3415",
"s  c #013A14",
"d  c #053C19",
"f  c #0B3B19",
"g  c #0D3A16",
"h  c #123414",
"j  c #1B3411",
"k  c #133A14",
"l  c #1B3C14",
"z  c #1B3D19",
"x  c #133D19",
"c  c #252207",
"v  c #2B2407",
"b  c #2D2A06",
"n  c #23230B",
"m  c #2B240A",
"M  c #2D2A09",
"N  c #232B0B",
"B  c #322C07",
"V  c #34220A",
"C  c #3B230A",
"Z  c #332C09",
"A  c #3B2C0B",
"S  c #382206",
"D  c #27320C",
"F  c #35320A",
"G  c #3A340A",
"H  c #3D3B0B",
"J  c #35370B",
"K  c #252C12",
"L  c #362D10",
"P  c #253911",
"I  c #2B3913",
"U  c #373713",
"Y  c #4D2B05",
"T  c #43250A",
"R  c #44290C",
"E  c #4B2C0C",
"W  c #432606",
"Q  c #512D0C",
"!  c #512E07",
"~  c #42350A",
"^  c #443C0C",
"/  c #4C360C",
"(  c #553106",
")  c #53310C",
"_  c #5B340D",
"`  c #5D3709",
"'  c #4B3211",
"]  c #423412",
"[  c #5A3610",
"{  c #553610",
"}  c #4E2F10",
"|  c #643A0C",
" . c #6A3E0D",
".. c #623709",
"X. c #643B10",
"o. c #683E11",
"O. c #04441D",
"+. c #044B1E",
"@. c #0B4B1D",
"#. c #08451A",
"$. c #154415",
"%. c #1A4315",
"&. c #1D4A1A",
"*. c #16471A",
"=. c #01531D",
"-. c #0B551D",
";. c #1D541E",
":. c #1A5C1D",
">. c #13571D",
",. c #234215",
"<. c #234C1A",
"1. c #294817",
"2. c #3B4D16",
"3. c #374714",
"4. c #24531B",
"5. c #2A531A",
"6. c #245B1E",
"7. c #2A5A1A",
"8. c #3C5317",
"9. c #345319",
"0. c #3A5319",
"q. c #335B19",
"w. c #3B5918",
"e. c #39430D",
"r. c #06621E",
"t. c #1B631F",
"y. c #23631E",
"u. c #28681E",
"i. c #36621B",
"p. c #2D731E",
"a. c #044D20",
"s. c #064A20",
"d. c #035423",
"f. c #095323",
"g. c #025B25",
"h. c #0B5A24",
"j. c #015D28",
"k. c #095E28",
"l. c #1A5620",
"z. c #125C22",
"x. c #175821",
"c. c #104B20",
"v. c #235C20",
"b. c #026424",
"n. c #0B6324",
"m. c #026B25",
"M. c #0B6B23",
"N. c #01642A",
"B. c #016C2C",
"V. c #09682C",
"C. c #136424",
"Z. c #166724",
"A. c #027426",
"S. c #0B7424",
"D. c #037D26",
"F. c #0A7B25",
"G. c #01732C",
"H. c #017C2B",
"J. c #09772C",
"K. c #177825",
"L. c #026F30",
"P. c #017331",
"I. c #007C35",
"U. c #097130",
"Y. c #246621",
"T. c #2A7523",
"R. c #46410C",
"E. c #4B440D",
"W. c #4C4A0E",
"Q. c #51460D",
"!. c #544C0D",
"~. c #5A4B0D",
"^. c #5B520E",
"/. c #5E5C0F",
"(. c #56510D",
"). c #444D13",
"_. c #4C4C12",
"`. c #494513",
"'. c #554D11",
"]. c #594E11",
"[. c #574410",
"{. c #445315",
"}. c #4B5214",
"|. c #465A16",
" X c #4B5B14",
".X c #445918",
"XX c #545312",
"oX c #5B5311",
"OX c #545A12",
"+X c #5C5A11",
"@X c #6E410B",
"#X c #65400D",
"$X c #73430C",
"%X c #7C490E",
"&X c #76490D",
"*X c #62550E",
"=X c #655D0F",
"-X c #695E0F",
";X c #684910",
":X c #754711",
">X c #615510",
",X c #635B10",
"<X c #6A5F10",
"1X c #7E5010",
"2X c #456216",
"3X c #4C6315",
"4X c #536313",
"5X c #586713",
"6X c #576B13",
"7X c #66610F",
"8X c #6B630F",
"9X c #6E6A0F",
"0X c #67680F",
"qX c #736B0E",
"wX c #75670E",
"eX c #75720E",
"rX c #7A720E",
"tX c #7E780D",
"yX c #656111",
"uX c #6B6210",
"iX c #686C10",
"pX c #6F6D10",
"aX c #834D0E",
"sX c #884F0B",
"dX c #88510E",
"fX c #92560E",
"gX c #824D11",
"hX c #8B5210",
"jX c #935810",
"kX c #82790D",
"lX c #01842B",
"zX c #018B2C",
"xX c #078629",
"cX c #02942E",
"vX c #019B2F",
"bX c #008434",
"nX c #008C33",
"mX c #008539",
"MX c #008C3B",
"NX c #009334",
"BX c #009C34",
"VX c #00933D",
"CX c #009A39",
"ZX c #158E2B",
"AX c #00AD2E",
"SX c #00A32E",
"DX c #00B12C",
"FX c #00A433",
"GX c #00AA31",
"HX c #05A134",
"JX c #009540",
/* pixels */
"=X7X8XqXqXuX,XoX].].].].].].].[.].>X<X8X8X8XuX<X<X8XwXrXtX6XT.b.b.b.b.j.g.n.y.3XuX<X>X].].oX+X+XoX>X;XoX>X].].].oX>X<X>XoX'.^.>X=X7X7X8X8X8XuXuX",
"=X8X8XqXqXqX<XoXoX'._.'.'.'._.'.'.oX+X,XuX<X,X,X,XyXuXwXpX6XK.S.m.m.m.N.N.b.Y.2XyX,XoXXXXXoXoXoXoX}.}.oXXX].'.].oX,X,X>XoXoXoX>X=X7X=X7X7X=XuXuX",
"=X8X8X8XqXuX<X,XXX{.8.2.2.2.2.2.2..X.X XOX+X,X+X3X2X3X6X6Xp.K.D.H.G.G.G.G.L.Z.i..X.X{.8..X}.oXXX`..X0.0.0.{.}.XXoX,X<X,X^.oX^.,X7X=X=X=X,X7X5XyX",
"=X7X8X8XuXuXuX,XOX9.4.l.l.;.l.l.l.l.v.v.w. XoX Xq.u.y.T.T.T.xXcXnXzXnXbXmXmXU.Z.v.4.l.4.9.}.XX}.0.4.l.l.4.9.{.OX,X,X<X>XoXXXoX>X=X7X/.(.OX/./.^.",
"7X=X=X8X=X8XuXyX2Xv.k.j.j.k.g.j.g.d.j.h.4.8.}.w.y.M.m.m.F.lXcXvXHXBXCXCXVXVXI.B.n.g.d.g.4.0.}.8.v.k.j.g.k.:.w. X+X5X,X+XoXoXoX*X=X/.+XOXOXOXOXOX",
"=X8X-X=X>X+XOX|.i.C.B.B.B.B.B.B.L.N.j.d.x.4.9.7.t.m.G.H.H.zXvXFXGXGXFXFXHXCXNXlXG.N.N.d.f.4.9.6.V.L.G.G.G.C.y.i.w.2X2X3XXX^./.*X/./.OXOXW.}.XXXX",
"8X7X=X*XoX}.9.6.C.U.I.bXnXnXnXbXI.P.N.d.d.z.x.C.m.m.H.I.mXNXFXAXGXGXGXAXAXAXFXvXzXH.B.d.f.x.;.C.U.nXnXnXbXH.K.Z.t.t.y.i.OX*X>X/.^.OX(.XX(.XX'.'.",
"=X=X*XoX}.8.;.n.L.mXMXNXBXHXBXCXMXI.L.j.g.g.b.m.m.A.I.bXVXCXFXAXDXDXAXAXDXDXAXAXBXnXB.j.d.d.g.B.mXCXHXHXBXzXH.m.A.m.M.Y.2X5X/.+XOXXXXX'.'.'.'.].",
"=XoXXX}.0.6.n.G.I.MXCXHXGXGXFXCXNXMXP.L.B.N.b.N.G.H.bXMXCXHXGXAXDXDXGXAXAXGXGXGXHXNXI.B.N.j.j.B.MXHXGXGXFXvXzXH.H.H.H.K.u.|. XOXXXXX'.].'.'.'.'.",
">XoX{.9.l.C.U.bXNXBXFXGXGXFXFXHXCXVXMXI.P.N.N.B.I.mXNXCXHXFXGXDXAXAXGXGXHXHXCXCXCXVXMXI.L.j.j.B.nXHXFXGXAXSXBXNXzXMXnXJ.Z.y.9.|.'.].'.'.'.].'.].",
"].'.2.;.h.B.lXNXBXGXAXAXGXFXHXCXCXNXVXMXI.B.N.G.I.MXVXFXFXGXGXGXGXGXFXHXVXVXJXMXMXVXMXMXI.L.N.B.I.NXBXFXAXSXFXHXBXCXNXnXH.V.:.0.XX'.XX'.'.'.].'.",
"^._.8.;.j.B.bXCXFXGXAXGXFXFXFXCXCXVXmXI.I.B.G.G.mXVXCXHXFXGXGXGXGXFXBXCXVXMXJXJXJXVXJXVXmXP.L.L.P.bXcXBXAXGXGXFXFXFXCXVXbXG.C.6.0.{.}.oX].'.'.'.",
"^.XX8.;.g.B.bXCXFXFXGXFXFXFXHXJXVXmXI.L.L.B.P.I.mXVXCXHXFXGXFXFXBXCXNXJXJXVXJXMXJXJXJXJXmXmXI.P.B.B.H.NXFXAXGXGXFXFXCXNXnXbXJ.M.Z.9.}.XXoX].'.'.",
"OX|.9.>.j.G.nXCXFXFXFXFXFXJXCXJXJXI.B.j.j.N.P.I.MXMXCXCXFXHXFXCXCXVXVXJXVXJXJXJXJXMXVXJXMXJXMXI.N.g.m.zXvXFXGXGXFXCXCXCXVXMXbXG.n.v..XOXoXoX].'.",
"w.q.6.C.B.I.VXHXFXFXFXFXFXCXJXJXJXP.N.j.j.N.P.I.MXMXVXCXCXFXVXmXVXVXVXMXVXJXVXVXMXVXVXMXJXJXMXI.j.d.b.H.cXBXvXFXFXCXCXVXVXNXbXP.V.l.w.oXoX>XoX>X",
";.x.C.U.I.MXCXFXFXGXFXFXCXCXJXJXMXI.N.d.j.N.P.I.mXMXVXCXVXNXVXJXVXJXJXVXVXNXCXCXVXCXVXJXJXJXMXI.j.d.g.m.lXzXvXBXCXNXVXVXNXVXbXG.B.Z.w.XX>X,X,X<X",
"d.j.B.P.JXVXCXFXGXFXFXFXVXJXJXMXMXI.N.d.j.N.L.P.I.JXJXJXJXJXJXJXMXJXVXJXCXCXCXCXCXNXVXJXMXJXMXI.j.d.d.g.A.D.lXnXNXNXMXMXMXnXlXG.m.Y.w.oX>X,X-XuX",
"d.g.B.I.mXVXCXBXFXFXFXCXCXVXJXJXMXI.N.d.d.N.L.I.I.JXI.JXJXI.JXJXJXVXVXCXCXFXFXCXCXCXVXVXJXJXMXP.j.a.+.=.b.m.D.lXlXbXbXbXnXbXbXG.m.y.|.OX,X,X,X=X",
"g.j.N.P.mXMXVXCXCXCXHXCXVXVXJXJXJXI.N.d.d.N.P.P.I.mXI.JXJXJXJXJXVXVXCXCXFXFXHXFXCXCXVXJXMXJXmXP.j.s.+.+.=.h.m.A.G.J.I.I.I.bXI.G.m.y.2X+X>X>XoXoX",
"d.j.N.L.I.mXMXVXJXCXCXCXVXJXMXJXMXP.N.d.j.N.L.P.P.I.I.JXI.JXI.JXVXCXCXCXFXFXHXHXCXCXVXMXMXmXI.G.j.=.+.+.=.=.r.m.m.B.B.L.P.P.G.G.m.y.2X=X<X>X].].",
"j.d.j.L.I.mXmXMXMXVXVXNXMXJXJXMXJXI.L.N.j.j.N.N.L.I.I.I.I.JXI.JXVXVXNXCXBXBXCXNXVXNXVXMXmXI.P.B.m.m.r.m.r.r.-.g.g.k.N.V.B.B.B.N.n.y.2X5X*XoX].'.",
"d.j.N.L.P.I.I.I.mXmXMXMXMXmXmXJXI.JXI.P.B.d.d.d.N.P.P.I.L.P.JXJXVXVXVXVXVXVXNXVXVXMXMXMXI.L.N.B.D.zXzXzXlXA.g.=.f.j.N.N.j.j.N.b.b.y.2X7X<XoXoX].",
"d.j.V.B.L.L.P.I.I.JXmXJXI.I.I.mXI.JXJXP.N.a.O.s.d.N.L.N.N.P.I.JXJXMXMXMXMXMXMXMXMXmXmXmXL.j.d.m.zXSXAXAXvXlXb.+.a.d.j.j.d.d.g.g.g.y.2X,X=X>XoXoX",
"7.v.x.k.N.B.L.P.I.I.mXI.U.V.L.U.P.I.I.P.N.s.p p s.d.j.d.j.N.L.I.I.mXmXmXmXmXI.mXI.I.I.P.N.d.a.b.lXSXAXAXFXcXA.b.g.d.g.d.j.g.g.g.g.7.3X-X-X-X,X,X",
"6X6Xi.l.f.d.j.N.P.I.I.U.h.c.f.N.L.P.L.N.s.f i r a d d d d s.j.N.P.I.mXmXI.I.P.I.I.I.L.N.d.s.s.d.D.cXSXFXGXBXzXbXN.j.a.d.k.N.j.g.-.4. X0XwXqXwX8X",
"rXpX4X5.#.O.d.j.B.P.U.N.*.h x f.N.N.j.d.O.h i X t r r r r d s.j.B.P.I.P.P.L.L.P.L.N.j.s.s.d d d.G.nXBXFXHXHXBXNXJ.g.#.a.N.P.B.j.-.4. X7X9XqXqXwX",
"wX8X+X3.%.g #.+.a.j.j.f.h 0 y f s.s.s.O.a i @ # # i i 6 5 e p O.s.d.j.j.g.g.j.j.d.a.s.d d s.s.j.G.bXMXNXCXBXBXNXH.g.#.=.B.lXI.m.b.t.q.3X/.7X8X8X",
"uX=X^.).J P h p d O.s.f r @ # y h h a i i @ O > , n n @ o 5 5 e e p d d d s.d d d d r a f a.N.L.I.bXnXMXNXNXNXNXG.=.#.d.H.cXNXzXA.S.t.5.0.OX/.=X",
">XoX]._.^ U D 8 r a a r 6 @ + @ @ # i # # # ; : C L V 0 @ X X X o 6 6 5 r r e r t 5 6 t d s.V.I.J.mXmXmXmXnXnXbXm.f.#.g.H.vXSXvXcXD.n.h.;.0.'.'.",
"oXoX].'.!.`.e.D j h a 7 6 X X + + ; n , , ; ; 1 E ) ' C n # ; # $ % % o 5 t t 5 5 5 t r f c.h.V.I.mXmXmXI.I.P.G.b.f.=.b.H.NXBXFXvXzXH.N.x.4.9.2.",
"oXoX+X>X^.^.(.W.3.l p p e 6 6 + O : L R L : : 2 [ X.X.} R L 1 1 ; $ % o o t t 5 t r p f f h z c.U.mXMXmXbXP.b.g.d.d.d.N.G.lXcXBXBXvXnXG.V.z.x.l.",
"+X+X+X,X=X7X7X/.).1.g p a a y # > 1 R } R 1 : } X.:X:XX.{ } R C 1 ; $ + 9 i t t e p d d f i u *.C.mXmXmXP.N.d.O.O.f.k.B.U.I.nXNXSXBXNXnXG.B.k.d.",
"+X,X,XyXuXuXuX,XW.3.,.l ,.,.I D A A R } R 2 T } :XdXgX$XX.) R C 1 V v M D P j h a p d d y 9 @ x k.I.I.I.L.d.O.d d d.N.B.U.I.mXNXHXHXBXNXlXN.j.d.",
",X,XyXuXuX<X,XoXOX`.).2.).}.XX'.W.' A 2 2 C } o.%XjXhX:X| Q C 1 V A ^ `._._.3.%.d d p r 6 @ 9 a d.L.L.N.g.s.d p d a.N.L.I.mXMXVXNXCXBXBXzXB.j.d.",
"yXyXuXuXuX,X>X].!.'.'.oX*X7XuXuX*XE.L , 1 R [ o.hXjXfX%X .Q C 1 Z ~ '.].*X^.{.;.#.d 8 6 @ + 6 a s.j.j.d.+.d r e d a.N.L.I.mXMXmXMXMXBXNXlXB.g.d.",
"qXqXuXuX<X>XoXoX].oX*X,XuX8X8X8X=XQ.L , 1 } o.%XjXjXfX%X ._ T C A ] ^ [.!.Q.e.,.k r 9 @ X X 6 e d O.s.O.d a t 6 r O.d.L.I.mXI.U.U.J.xXcXlXG.g.d.",
"kXkXeXuX,XoXoXoXoX,X<X<X<XuXuXuX=XQ.Z - C ) $XgXjXfXhX%X .[ Q } R A A A A A M N 0 9 $ $ + X 5 5 e e r e e t X X t d a.N.I.I.L.f.c.h.J.nXlXB.j.d.",
"kXkXrXuX>X].'.].oX,X<XuX<X<XuXuX=XE.A < T ..%XdXsXsXaX . .X.X.[ } C , : = - = ; & & O O $ 9 6 6 t t 6 6 6 @ @ + 6 p s.j.V.L.k.z j $.n.D.G.N.g.d.",
"kXkXqX,X]._.).).}.+X,XuXuX9X9XpX8XQ.Z , T | aXsX%X . . .X.o.X.X.) R 1 , * 4 4 & & * v v b D j q t t i 0 m n ; $ @ f O.a.d.f.x u # h =.b.V.z.l.l.",
"wXqXuX>X'.).1.<.9.}.,X<XwXqXqXqX9X!.A < W  .aX%X..! ! .. .o.o.| [ Q E 2 * 4 4 4 * v ~ E.E.e.J P j h P U / R S ; @ d s.s.d x i # # i #.f.z.5.2.8.",
"<X,X,X>X'.2.*.@.&.3.XX,X9XqXrXrX9X(.A < W @XaX$XY S W (  . . .| | _ Q R b = = & = Z E.^.^.Q.E.e.,.z 1.[. ._ W ; i a d d i # # $ @ i a @.<.2._.].",
"+X+XoXoX'.3.*.s.@.<.2.XX,X9XwXrXqX~.G - W  .%X| S * < Y |  .| | _ Q R A P $.j 0 - S / ~.*X^.Q.W.3.2.`.;X$X| T - 0 i a i @ $ + @ i y k ,.2._.oX*X",
"+XOXoX].'.3.*.O.s.#.&.3.}.+X<X9X8X(.B < W | $X` S O - Y `  .| _ Q T V I :.t.>.j = C / ` ].[.!.].].;X;X:X&X| T - # # i @ $ $ @ i a x 1.2.}.XX=X,X",
"OXOXOXoX'.2.&.s.s.s.s.<.2.oX>X<X=XQ.A - C ` @X( - . & Y | | ` E T V N *.F.cXS.$.n 1 R ' { [.].>X&X&X1X%X$X` C : 4 ; ; ; ; > 0 f *.<.2.'.oX>X=X=X",
"/./.7X7X+X{.<.O.s.s.s.*.3.'.].!.Q.~ b , W ..@X( -   * Y  .| ) R A P &.r.cXSXxX@.u > V R } [.;X;X1XaX%X$X` E 1 & & . & * V A I 1.5.0.{.oX>X>X,X,X",
"9X9XqXqXuXOX<.O.d s.O.*.2._.[./ A V - - W ..@X) -   - !  .| E V j ;.S.zXSXHXzXg.f u n V E X.&X1XgXaX$X_ R 2 * * 4 & & V / W.XXOX X XXX].oXoX>X>X",
"eXeXeXeX9X3X4.@.O.O.s.<.8.XXE.A , & & * S ..@X( - . * _  .| T m %.M.cXFXGXBXlXm.+.f 0 , R | :XaXaX&X` R , ; ; ; & & , A Q.,X-XyXuX>XoX'.].].oXoX",
"tXtXpX0X4Xi.t.-.d.a.s.<.|.oXQ.A & O O & S ` ..( - O 3 [ o.| C > $.D.SXGXcXxXH.A.b.#.y ; T | %X%X&X| ! 3 & # @ 0 n m A ^ ~.<XuX8XuX<X^.].].oXoX+X",
"kXrX0X2X7.t.m.A.b.=.+.5.3X7X^.A ; . . . < Y ..Y 3 * S ` o.[ T ; $.F.vXBXH.m.m.H.H.n.k c W  .%X%X` Y C * & @ i h j U ^ Q.'.oX,X<XuX<XoXoX].^.>X=X",
"rXqX5X5.>.=.A.D.A.g.@.5.5X9X*X~ : .   . * Y ( ! 3 - S _ X.) T , %.S.cXzXm.g.m.zXcXS.%.> T ..$X .E 3 - = > q d #.*.3._.!.'.].>X<XuX,XoXoXoX>X=X=X",
"rX9XOX4.=.g.D.lXA.b.+.5.4XqX*X~ ; .     * Y ( ( W S R _ X._ E A P t.S.S.m.m.H.vXSXF.%.> T .. .| W , n j %.>.r.b.C.4.2.}.'.>X,X<XyX*XoXXX^.+X8X8X",
"qX8X X4.+.g.A.lXA.g.+.<.4X7X~.~ &       * Y ....! R Y _ X.X.[ ) ~ I %.>.m.lXBXGXFXF.%.- 2 Q | Q C , j >.S.lXzXlXJ.h.<.3.XX,X-X<X7X=X+XOX+XyX8X8X",
"wXyX}.<.a.g.A.lXA.b.=.4. X/.~.A , .   $ v Y | | ) Y } [ X.X.X.X.} C n $.F.vXFXSXcXS.l c 2 E _ Y 3 c l M.cXSXFXvXlXb.-.;..X+XuX8X,X,X+XOX+XyXuXuX",
"uX>X{.<.+.g.A.lXlXG.b.:.8.E./ W V > @ @ 0 J R.^ U U U { ` X.o.X.! 2 > %.S.vXSXzXS.:.P V T T E T < = k M.lXBXGXFXBXH.m.t.q.|.OXyXuX,X+X+X+X,XyXyX",
">XoX{.<.=.g.A.zXcXzXlXt.1.G W R A K u a k z ,.,.z z I ' [ X.X.[ Q 2 > %.F.vXzXM.*.I A A T T C 1 * ; h @.m.lXNXFXFXcXzXS.C.5.w.5XuXpXyX,X+X,X,X,X",
">XoX2.<.s.g.A.zXvXvXvXF.%.n 1 E } U z O.+.+.s.+.+.#.&.U ' [ [ [ E 3 n $.K.cXxX*.n V R } E C < * * ; 0 h +.m.zXvXFXFXcXH.b.-.5.OXpXqXpXyXyX+X+X+X",
"].'.3.&.+.r.A.zXvXAXSXD.@.q m R ' U z s.a.j.N.m.N.b.h.1.U ] } } T * > $.S.zXS.$.> 2 Q [ ) 2 , * 1 V m u f =.m.lXzXzXzXG.g.a.4.4XeXtXeX8X7X+XoXXX",
"].'.2.*.+.=.A.zXvXFXSXlX-.f K L ' U z s.g.B.lXzXcXxXG.z.&.K L C 3 * > x A.lXM.k , 2 [ X.[ C , 1 T R C m 0 h =.b.m.m.b.g.a.s.4.6XtXtXrXqX8XoXoX'.",
"].'.).<.=.=.A.lXcXvXvXzXb.a.z U ] U x f.m.lXBXSXFXcXlXb.s.x K m * * ; l r.D.r.k > T [ o.[ C , C E ) E C > 0 g +.a.a.+.+.O.@.7.6XeXtXrXqX8X>XoX].",
"<X,XOXw.7.t.r.D.lXzXcXlXG.N.c.P I ,.>.b.H.BXFXSXZXZXK.G.b.f.$.u , > > u $.-.$.q ; 2 Q [ ) 1 : 1 E ` Q C > n j &.&.&.&.&.&.4.q.2X6XiX9X9X8X=X=X+X",
"rXrXpXiX3Xq.t.r.r.D.lXlXH.A.r.@.*.>.m.lXBXHXGXZXp.i.Y.xXlXG.g.x u m v m w w q @ $ 1 R E R 1 & V E ` Q C , n I 8.0.2.2.).{.{.w.7.q.i.5X7X8X8X8X8X",
"kXkXtXeX0X X1.#.=.r.r.D.lXD.m.=.+.b.lXvXGXHXvXK.0.`.9.T.zXH.b.#.z K V 1 - $ $   O ; 1 R V - & < Y ) E 1 , B e.W.}.XXXXoX=X/.{.4.*.4.}.7X8XqXqXqX",
"rXeXqX8X=XW.,.g #.O.=.r.A.D.m.=.O.g.lXcXcXxXS.v.U ' 2.Y.K.M.f.f u K 1 * 4 .     . & , C 1 ; & * C W T 3 , V F H E.W.!.^.*X*X}.9.<.1.}.+X8XwXqXqX",
"*X*X^.Q.E.H D q 8 p s =.r.r.=.O.s =.A.zXF.t.<.U U R U U 1.,.j K n > - & & .       & , 1 1 & O O - - , V V S v v A H E.!.^.^.(.).3.).XX^.=X8X8X9X",
"!.!.`.^ G B M n 0 6 7 s =.=.=.7 7 #.r.D.r.,.b < S C C V L V , > ; ; ; & O O       O * 1 , & .   . O = < S < & O = B ^ E.Q.^.oX'.'.'.XXoX>X,X<X,X",
"'._.`.H F B B b c 0 6 5 7 #.s 7 7 #.=.r.@.w = * * 1 1 3 1 * : : : ; * ; & O $     . ; , ; & .       & , S v = = c B G R.W.!.].oX].'.].].oXoX>X>X",
"oXXX`.`.H G Z F b 0 0 6 7 7 7 7 7 s #.=.g 0 & & * , , * 1 : : : : : , , ; & O     . & : * O         O = b v c v b Z G ^ W.!.!.].].].].].'.oXoXoX",
"+XoX'.`.^ ^ ~ G B b c 0 X 5 5 7 7 7 s s 8 9 O = - , , , : : : > , , , , , : & .   . & : & O O $     # , b B Z F F G H ^ E.!.!.oXoX].XX].'.'.oXoX",
"oXoXXX[.E.E.^ ^ ~ ~ F b N 0 9 y w w w w 8 0 O = , , c , > , , m , v , 1 c , - = # ; , , c , c > = = b B G ~ R.R.R.R.R.E.W.!.(.(.XXoX'.'.].oX*X>X",
"oXXX'.'.W.Q.Q.W.W.W.E.~ F F D M D D D D b 0 # c b b v c , v m m b m m v m v v b m B B B Z M M M F G H R.Q.Q.(.(.^.'.!.'.'.oXXX(.XX(.XX'.^.=X8X9X",
"'.'.'.'.'.'.'.!.!.!.!.W.R.^ H U J F B F b b c b b B b b v v Z Z Z b v m m M D B F Z F Z F J J H H R.E.(.^.^.*X=X>XoX].].].oX(.OXOX(.'.XX*X8XqXeX",
"'.'.'.'.].'.].].oX^.^.'.W.E.^ G F F F B B b b b b B b b c v B F M b M m M M B F G G G G U J H e.R.E.!.^.*X=X7X7X,X>X>XoX].oX^.OXOX}.XX^.*X9XqXrX"
};
