/* XPM */
static char *enemy_resized[] = {
/* columns rows colors chars-per-pixel */
"72 72 210 2 ",
"   c None",
".  c #000102",
"X  c #0E0101",
"o  c #000709",
"O  c #00090D",
"+  c #0C0D0D",
"@  c #120909",
"#  c #000D12",
"$  c #000F19",
"%  c #001016",
"&  c #0D1215",
"*  c #00141C",
"=  c #0C161C",
"-  c #350102",
";  c #361118",
":  c #001720",
">  c #011A24",
",  c #011E29",
"<  c #0A1D25",
"1  c #01212E",
"2  c #0B2028",
"3  c #152329",
"4  c #012533",
"5  c #022837",
"6  c #0A2837",
"7  c #012B3C",
"8  c #0E2B3A",
"9  c #0F2632",
"0  c #112A39",
"q  c #1C2634",
"w  c #1B333E",
"e  c #39202C",
"r  c #362939",
"t  c #353B3C",
"y  c #490102",
"u  c #520000",
"i  c #580000",
"p  c #77141B",
"a  c #740509",
"s  c #4E1E29",
"d  c #441A26",
"f  c #561924",
"g  c #721C29",
"h  c #5A222E",
"j  c #542634",
"k  c #752634",
"l  c #012F40",
"z  c #0B2F41",
"x  c #013244",
"c  c #0D3344",
"v  c #01364A",
"b  c #0C364A",
"n  c #01384E",
"m  c #0C384C",
"M  c #113549",
"N  c #163B4E",
"B  c #1C3748",
"V  c #013D54",
"C  c #013F58",
"Z  c #0B3C52",
"A  c #1C3F56",
"S  c #203C51",
"D  c #2F3A4F",
"F  c #4E3A50",
"G  c #01425B",
"H  c #084257",
"J  c #144356",
"K  c #1A414F",
"L  c #3B474B",
"P  c #364758",
"I  c #324B5B",
"U  c #014660",
"Y  c #014965",
"T  c #014D6A",
"R  c #0E4B67",
"E  c #174C65",
"W  c #01516F",
"Q  c #0B516F",
"!  c #015474",
"~  c #015778",
"^  c #015A7C",
"/  c #0E5575",
"(  c #105A7C",
")  c #2C596A",
"_  c #375D69",
"`  c #314B68",
"'  c #2C6172",
"]  c #4B4D4C",
"[  c #484759",
"{  c #535454",
"}  c #585659",
"|  c #58425B",
" . c #584D6A",
".. c #42506D",
"X. c #535569",
"o. c #4D5C7B",
"O. c #585A7C",
"+. c #68536A",
"@. c #70546C",
"#. c #6F5B71",
"$. c #6C4D68",
"%. c #4A6D7B",
"&. c #52667B",
"*. c #54717D",
"=. c #7B7F7F",
"-. c #7A617F",
";. c #840000",
":. c #990D14",
">. c #990305",
",. c #A90000",
"<. c #B90000",
"1. c #B50A0E",
"2. c #A30F15",
"3. c #A91218",
"4. c #AD1D28",
"5. c #B6222F",
"6. c #AD2533",
"7. c #D60406",
"8. c #C00F14",
"9. c #E80506",
"0. c #FE0101",
"q. c #E40F14",
"w. c #A33245",
"e. c #92637B",
"r. c #A0677F",
"t. c #015E82",
"y. c #016185",
"u. c #01658A",
"i. c #01688F",
"p. c #016B93",
"a. c #016F98",
"s. c #106A91",
"d. c #01729C",
"f. c #0E739F",
"g. c #396C95",
"h. c #0176A2",
"j. c #0179A6",
"k. c #017DAC",
"l. c #0B77A5",
"z. c #1679A7",
"x. c #007FB0",
"c. c #546788",
"v. c #55778C",
"b. c #4E658C",
"n. c #7B6483",
"m. c #6E7F82",
"M. c #757881",
"N. c #676C88",
"B. c #8B6B86",
"V. c #A46B84",
"C. c #B97B96",
"Z. c #AD7592",
"A. c #BE7FA4",
"S. c #A97EA3",
"D. c #0182B3",
"F. c #0186B9",
"G. c #0189BC",
"H. c #0C84B6",
"J. c #578193",
"K. c #768892",
"L. c #738D94",
"P. c #018DC2",
"I. c #0195CD",
"U. c #0190C6",
"Y. c #0199D2",
"T. c #019FDA",
"R. c #01A0DC",
"E. c #01A6E4",
"W. c #999E9D",
"Q. c #AC849D",
"!. c #9097A6",
"~. c #AC86A6",
"^. c #B489A8",
"/. c #A993A8",
"(. c #B699AF",
"). c #9EAFB7",
"_. c #9DB0B8",
"`. c #A6A6A6",
"'. c #B2AAB7",
"]. c #A5B5BB",
"[. c #B7B6B4",
"{. c #B2A8B5",
"}. c #C5819E",
"|. c #C58AA1",
" X c #D489AB",
".X c #C995AA",
"XX c #DC91AF",
"oX c #DD8DB5",
"OX c #D898B4",
"+X c #E79ABC",
"@X c #D5B0BE",
"#X c #AEB7C3",
"$X c #CDBED1",
"%X c #D8ADC7",
"&X c #E0AAC0",
"*X c #E7B3CA",
"=X c #EAB7D0",
"-X c #F5B5CE",
";X c #ABC1C9",
":X c #DFC3CF",
">X c #D7D6D9",
",X c #D3CCD2",
"<X c #EBC9D8",
"1X c #DBDCE3",
"2X c #F2D8E4",
"3X c #E3E2E5",
"4X c #F9E7EE",
"5X c #FFEAF5",
"6X c #F6E7F2",
"7X c #F9F6F8",
/* pixels */
"                                                                                                                                                ",
"                                                                                                                                                ",
"                                                                                                                                                ",
"        k.k.D.k.k.D.k.                                                                                                                          ",
"      k.k.k.k.k.k.k.k.k.                                                                                                                        ",
"    j.j.j.h.h.h.h.j.j.j.k.                                                                                                                      ",
"k.k.j.h.d.d.d.d.d.d.d.d.j.k.                                                                                                                    ",
"k.k.h.d.p.i.p.p.p.i.p.d.h.k.k.                                                                                                                  ",
"k.k.d.i.t.t.u.i.u.^ y.i.d.k.k.                                                                                                                  ",
"k.j.a.t.W W ~   ^ W W t.a.j.D.              . . . . . . .                             . . . . . . .                                             ",
"D.j.p.~ U G       G U ~ p.j.D.            O o o O O O O O O                         O o o . . . . . .                                           ",
"k.k.d.^ G         H G ~ p.j.D.          * , 4 7 l x v v v 7 ,                     : 7 7 1 # . . . . . .                                         ",
"k.k.h.u.          V G ! i.j.D.        o , n T ~ u.p.d.d.p.! 7 . . . . . . . . . . 5 T ~ G , . . . . . . .                                       ",
"k.k.k.            C U ! p.j.D.      . o 1 Y a.x.P.I.T.R.I.d.n % . o O O o O o o % x t.d.^ l # . . o . o o o                                     ",
"k.D.k.k.          V U ~ p.k.F.      . o 4 T h.G.Y.R.E.E.Y.k.! x 7 7 x l l l l 7 v G ! ^ T v 1 > > : : : : * #                                   ",
"k.k.k.k.D.        V G ~ i.j.G.      . . 4 T h.G.U.I.Y.I.U.D.d.u.y.y.u.u.u.u.i.i.y.~ V x x V V V V v v n x 5 * .                                 ",
"k.k.k.k.k.D.      V U ~ p.j.D.      . O 7 ! h.D.G.G.G.D.D.D.G.G.G.F.F.F.F.F.G.G.k.^ x * 1 V ~ ~ ~ T ! ! Y n > O .                               ",
"k.k.k.k.k.        V G ~ p.h.a.T   o * 4 V ^ j.D.F.D.D.k.j.D.D.G.G.F.D.x.D.k.j.d.u.U 7 > 7 U t.p.p.a.p.i.t.U 7 > # O                             ",
"                  V G ~ a.h.t.v # * 7 G ! a.k.x.D.k.j.d.d.d.h.j.h.a.i.i.u.t.! C x 7 7 7 V T u.d.k.D.k.h.a.! C l , $ .                           ",
"                  G Y ~ a.a.! 5 # > V ~ i.j.k.k.j.d.a.i.u.y.y.y.^ ~ ! T Y C l > * > 7 V Y Q ^ s.z.H.H.k.a.u.W V 5 = @ X                         ",
"                Y ! ~ y.d.d.U > O > C t.a.j.j.j.a.u.y.^ ! W G G G Y Y G v 7 , : * > 7 V S D |  .O.b.g.z.l.a.~ C q ; y y -                       ",
"              G ! t.i.d.k.  7 O O , C t.a.h.h.a.u.~ W T G n 7 1 7 V U V 4 : : > 4 5 l c D k 6.5.6.w.$.g.l.a.! Z j p >.;.y X                     ",
"            G Y ~ i.h.D.      . o , V ^ i.a.a.u.~ T G H x 4 * % , n U n > # * 4 v n x 8 s 3.9.0.0.q.w.o.f.a.W b j 2.7.,.u X .                   ",
"          T W ~ t.a.k.        . o > V ~ u.i.i.t.W G n 7 4 > % * 1 n G x * o $ 4 n n v 0 f 1.0.0.0.0.5. .s.t.T b h 1.9.<.i X .                   ",
"        U ! t.i.a.d.          . o > V ! t.t.t.~ Y V 7 , * * : 4 x V G l * o % 5 H v v 8 f 1.0.0.0.0.5.F ( ^ Y M h 8.9.<.u X .                   ",
"      V U ! i.h.k.            . . > v T ~ ~ ! T U V 5 * O % 1 x V G V 7 * o * 5 v v x 8 h 2.9.0.0.9.4.F Q T G M j 3.7.,.u X .                   ",
"      G U ~ i.k.D.            . o : x T W T Y U G n 4 # . % 5 n G G H 7 * o # 5 v v x 6 e p 2.1.1.:.g D G Y G V F g :.a - X .                   ",
"      V G ! p.k.D.            . . : x Y T U H V V v 4 # o * 7 G G U H 7 * o # 4 v v 7 6 3 e s f f d r M C Y Y U M r d ; @ . .                   ",
"      G G ~ i.j.D.            . o > x U U G n v v l 1 # O : x G Y Y V 7 * o # 4 x v 7 7 5 6 8 0 0 B M J H R Q / R J B 3 & . .                   ",
"      V G ~ p.k.D.D.        o # * 4 v G G V v x 7 4 , * * 4 n U Y U V 5 * o # 4 x x 7 7 7 7 7 J _ %.%.&.b.b.b.c.v.v.%.I 3 + .                   ",
"      V U ~ p.j.D.F.j.~ 5 O # > 7 l n V V V v 7 > * * > 4 l V U Y U V 5 * o # 4 x n x x 7 7 v ) L.#X'./.S.S.~.~.(.#X).m.t + .                   ",
"      G U ~ i.h.D.k.d.! 4 O # 4 v V V V V n l 1 * o # > 5 v V U U G n 5 # o # 4 v v v v x 7 m v.].3X2X=X+XoXoXOX=X2X3X`.] + .                   ",
"        G W t.i.a.a.u.U 1 O # 5 V G G V n 7 1 * o . o * 1 7 n V C V v 1 # o $ 4 x n n b b B P K.,X7X5X<X+X XA.A.%X6X7X[.{ + .                   ",
"          T ! ~ ~ ~ W n > O # 5 n G G G x 1 # o . . . o % , 7 n n v l , # . # 4 v n n n S [ +./.>X7X4X-X XZ.n.N.!.1X7X[.{ @ .                   ",
"            U U U U G 7 * o % 5 n G U G v , # o . o . o O * 1 7 l 7 7 > # O % 4 l v v n D  .B..X,X4X2X&X|.B.` ) J.#X>X`.{ & .                   ",
"              V G G V 1 # o # 4 V G Y Y G 7 1 : * * * % % * : , 1 5 5 , * % * > 4 5 7 b I @.V.}.@X:X*XXXC.n.` H s.K.W.K.L < # o                 ",
"                      : o . % 4 v G T ! T Y G V v 7 7 5 1 , * # * , 1 1 1 , : * * > 5 c P @.r.C.|..X X}.C.e.` H H I ] L B 8 1 * o               ",
"                        . O * 1 x V Y W ~ t.^ ~ T G V n x 1 * o O * , 1 5 4 , # O # , z D $.e.V.C.Q.}.}.Q.B.o.E c < = < 7 n 7 * . .             ",
"                      O % * : , 4 x V Y ~ y.i.u.t.! Y G V 7 > # # % * , 4 5 : O . # > 8 S [ $.B.Q..XOXXX X^.!.v.I 3 . $ x G v > . .             ",
"                    . * 1 7 4 > * , l G ! t.p.a.i.y.~ T C x 5 > * # # % , 1 : O . # > 5 z B P M.{.:X<X-X+X&X$X[.K.t O * n Y V , o .             ",
"                  . . : 7 n 7 : O * 1 n Y ^ p.d.a.p.t.! G V x 7 , # o O * , * O o O * 4 5 5 N *.].>X2X-X+X*X2X>XW.] & 1 H ! H 1 o .             ",
"                  . . * l V x * o O 1 x G ~ y.p.d.d.p.t.! U H v 1 # . o * , * O o o % : , , x _ L.].{./.Q.^.(.`.=.L 2 7 U ^ G 1 o .             ",
"                  . . * l n 7 * o # , x H Y ~ y.a.d.d.p.y.~ T V 5 % o o * , * O . . O O * , 7 K _ *.*.&.X.X.X.{ L w 8 H ~ t.U 1 o .             ",
"                  . O : x V l * o O , 7 v H Y ~ u.a.d.a.p.y.~ G x : O O * , * O . . . o # : 1 5 8 c c c 8 9 = & = 4 H G ^ t.U 1 o .             ",
"                O % : 5 n G x * . o * , 7 v V T ~ y.u.p.p.i.^ ! V 7 : * * * O O . . . . o # * : : : > > > # . . # 4 V T ^ ~ G , o .             ",
"              o % 1 7 V G G x * o . o % , 7 v V G U ! y.i.i.u.~ T H x 1 * O o . . . . . . o O O # O # # O o . . # 4 n Y ! W V : . .             ",
"            . . * 5 V U T U v > o . . o % 1 7 l x x H W y.u.u.y.^ ! G x : O . . . . . . . . . . . . . . . . . . # 4 x V Y Y v , O .             ",
"            . o * 7 V U T Y V 7 : O . . O * , , , 1 7 G W ^ y.i.u.t.! G 7 : # o . . . . . . . . . . . . . . . . # : 4 x H U V x 4 > *           ",
"            . o % 5 n G U U G n 7 , # . . O # # # % , l H W t.i.p.i.y.W G x , % . . . . . .                     O # * 1 v G Y T U n > o         ",
"            . . % 1 x V H G G C V 5 * . . . . . . o % , x G ~ y.i.i.u.y.! G 7 * o . . . .                         . O * 7 V T ^ ^ G 1 o .       ",
"            . . # 1 x v n V V C V 7 * . . . . . . . o * , x G ! y.i.p.i.u.! n , . . . . . .                         . # , l G ~ ^ G , o .       ",
"            . . # 1 7 l 7 l x n v 5 * o . . . . . . . o # , x G W y.i.a.p.y.G 1 . . . . . . .                         O # > 7 U ! V > . .       ",
"            . o # , 5 7 5 4 5 7 7 1 % . . . . . . . . . o # , 7 G ~ u.a.a.u.Y 5 O . . . . . . .                         . O > n G n > O .       ",
"          o O % * , 5 1 > : > > , : # . . . . . . . . . . o % , 7 G ! y.i.y.T 7 : O . . . . . .                         . . * 7 V v 5 * # O     ",
"        . O * : 1 4 4 , * # O # # # O                     o o # 1 7 G W ~ ~ Y V 7 : # . . . . .                         . . % 4 v v l 5 , % o . ",
"      . . # : 1 4 4 1 : O o . . . .                         . o % 1 7 H U T Y G v 5 * . . . . .                         . o % 1 l v n x 4 * . . ",
"      . o O : 4 1 , * * O . . . .                             . O * 1 7 n G T G V 7 * . . . . .                       o O # : 4 7 x n v 5 $ . . ",
"      . . # , 4 1 * # o o                                       o o % 1 7 G G U C 7 * o . . . .                     . O % : 1 4 7 x v x 4 # . . ",
"      . . O : 1 : # . .                                           . O * 5 n G G C l * . . . . .                   . . # : 1 5 5 7 7 l 7 , # o . ",
"      . . O * * * O . .                                         o O % * 5 x H G V 7 : o . . . .                 o O # * , 1 4 4 5 7 7 5 > # . . ",
"      . . . O # O . . .                                       . O * 1 1 5 7 v V n 7 * . . . . .               . O % * * , 1 1 1 4 4 4 1 : # . . ",
"      . . . . . . . . .                                     . . % > 4 5 4 5 7 x v 5 * . . . . .             . . # * 1 1 , : > , , , , , * O . . ",
"      . . . . . . . .                                     o O O % 1 1 4 4 4 7 7 7 4 % . . . .               . o O * 1 1 < > * > , , , < * O . . ",
"      . . . . . . .                                     . o % * * > 1 1 1 1 4 7 4 > # . . .                 . . O * > , > * * * : : > : * O . . ",
"      . . . . . .                                     . . O % : > > > < , 1 1 1 , * O . .                   . . o % * > * % % % * * * * * O . . ",
"        . . . . . .                                   . . O * > > > : : > < , , , * O . .                     . o # % % % O O O O # % # # O . . ",
"          . . . . . .                                 . . o # : > > > > : > , , > * O . .                       o o O o o o o o o o + O o o     ",
"            . . . . . .                               . . o # * * * * * * * : > > * O . .                         . . . . . . . . . . . .       ",
"              . . . .                                 . . . O # # # # # # # % % % # o .                             . . . . . . . . . .         ",
"                                                      . . . o o o o o o O o o O O O o                                                           ",
"                                                      . . . . . . . . . . . . . . .                                                             ",
"                                                      . . . . . . . . . . . . . . .                                                             "
};
