/* XPM */
static char *enemy2_resized[] = {
/* columns rows colors chars-per-pixel */
"72 72 210 2 ",
"   c None",
".  c #000102",
"X  c #0E0101",
"o  c #000709",
"O  c #00090D",
"+  c #0C0D0D",
"@  c #120909",
"#  c #000D12",
"$  c #000F19",
"%  c #001016",
"&  c #0D1215",
"*  c #00141C",
"=  c #0C161C",
"-  c #350102",
";  c #361118",
":  c #001720",
">  c #011A24",
",  c #011E29",
"<  c #0A1D25",
"1  c #01212E",
"2  c #0B2028",
"3  c #152329",
"4  c #012533",
"5  c #022837",
"6  c #0A2837",
"7  c #012B3C",
"8  c #0E2B3A",
"9  c #0F2632",
"0  c #112A39",
"q  c #1C2634",
"w  c #1B333E",
"e  c #39202C",
"r  c #362939",
"t  c #353B3C",
"y  c #490102",
"u  c #520000",
"i  c #580000",
"p  c #77141B",
"a  c #740509",
"s  c #4E1E29",
"d  c #441A26",
"f  c #561924",
"g  c #721C29",
"h  c #5A222E",
"j  c #542634",
"k  c #752634",
"l  c #012F40",
"z  c #0B2F41",
"x  c #013244",
"c  c #0D3344",
"v  c #01364A",
"b  c #0C364A",
"n  c #01384E",
"m  c #0C384C",
"M  c #113549",
"N  c #163B4E",
"B  c #1C3748",
"V  c #013D54",
"C  c #013F58",
"Z  c #0B3C52",
"A  c #1C3F56",
"S  c #203C51",
"D  c #2F3A4F",
"F  c #4E3A50",
"G  c #01425B",
"H  c #084257",
"J  c #144356",
"K  c #1A414F",
"L  c #3B474B",
"P  c #364758",
"I  c #324B5B",
"U  c #014660",
"Y  c #014965",
"T  c #014D6A",
"R  c #0E4B67",
"E  c #174C65",
"W  c #01516F",
"Q  c #0B516F",
"!  c #015474",
"~  c #015778",
"^  c #015A7C",
"/  c #0E5575",
"(  c #105A7C",
")  c #2C596A",
"_  c #375D69",
"`  c #314B68",
"'  c #2C6172",
"]  c #4B4D4C",
"[  c #484759",
"{  c #535454",
"}  c #585659",
"|  c #58425B",
" . c #584D6A",
".. c #42506D",
"X. c #535569",
"o. c #4D5C7B",
"O. c #585A7C",
"+. c #68536A",
"@. c #70546C",
"#. c #6F5B71",
"$. c #6C4D68",
"%. c #4A6D7B",
"&. c #52667B",
"*. c #54717D",
"=. c #7B7F7F",
"-. c #7A617F",
";. c #840000",
":. c #990D14",
">. c #990305",
",. c #A90000",
"<. c #B90000",
"1. c #B50A0E",
"2. c #A30F15",
"3. c #A91218",
"4. c #AD1D28",
"5. c #B6222F",
"6. c #AD2533",
"7. c #D60406",
"8. c #C00F14",
"9. c #E80506",
"0. c #FE0101",
"q. c #E40F14",
"w. c #A33245",
"e. c #92637B",
"r. c #A0677F",
"t. c #015E82",
"y. c #016185",
"u. c #01658A",
"i. c #01688F",
"p. c #016B93",
"a. c #016F98",
"s. c #106A91",
"d. c #01729C",
"f. c #0E739F",
"g. c #396C95",
"h. c #0176A2",
"j. c #0179A6",
"k. c #017DAC",
"l. c #0B77A5",
"z. c #1679A7",
"x. c #007FB0",
"c. c #546788",
"v. c #55778C",
"b. c #4E658C",
"n. c #7B6483",
"m. c #6E7F82",
"M. c #757881",
"N. c #676C88",
"B. c #8B6B86",
"V. c #A46B84",
"C. c #B97B96",
"Z. c #AD7592",
"A. c #BE7FA4",
"S. c #A97EA3",
"D. c #0182B3",
"F. c #0186B9",
"G. c #0189BC",
"H. c #0C84B6",
"J. c #578193",
"K. c #768892",
"L. c #738D94",
"P. c #018DC2",
"I. c #0195CD",
"U. c #0190C6",
"Y. c #0199D2",
"T. c #019FDA",
"R. c #01A0DC",
"E. c #01A6E4",
"W. c #999E9D",
"Q. c #AC849D",
"!. c #9097A6",
"~. c #AC86A6",
"^. c #B489A8",
"/. c #A993A8",
"(. c #B699AF",
"). c #9EAFB7",
"_. c #9DB0B8",
"`. c #A6A6A6",
"'. c #B2AAB7",
"]. c #A5B5BB",
"[. c #B7B6B4",
"{. c #B2A8B5",
"}. c #C5819E",
"|. c #C58AA1",
" X c #D489AB",
".X c #C995AA",
"XX c #DC91AF",
"oX c #DD8DB5",
"OX c #D898B4",
"+X c #E79ABC",
"@X c #D5B0BE",
"#X c #AEB7C3",
"$X c #CDBED1",
"%X c #D8ADC7",
"&X c #E0AAC0",
"*X c #E7B3CA",
"=X c #EAB7D0",
"-X c #F5B5CE",
";X c #ABC1C9",
":X c #DFC3CF",
">X c #D7D6D9",
",X c #D3CCD2",
"<X c #EBC9D8",
"1X c #DBDCE3",
"2X c #F2D8E4",
"3X c #E3E2E5",
"4X c #F9E7EE",
"5X c #FFEAF5",
"6X c #F6E7F2",
"7X c #F9F6F8",
/* pixels */
"                                                                                                                                                ",
"                                                                                                                                                ",
"                                                                                                                                                ",
"                                                                                                                          k.k.k.k.k.k.D.        ",
"                                                                                                                        k.k.k.k.k.k.k.k.k.      ",
"                                                                                                                      j.j.j.h.j.h.h.h.h.j.j.    ",
"                                                                                                                    j.j.h.d.d.d.d.d.d.d.h.j.k.k.",
"                                                                                                                  D.k.h.d.p.i.p.p.p.i.p.d.h.k.k.",
"                                                                                                                  k.j.h.u.t.y.u.i.u.t.t.i.d.j.D.",
"                                            . . . . . . .                             . . . . . . .               D.j.p.t.! W ~   ~ W W ^ a.j.D.",
"                                          . . . . . . o o O                         O O O O O O o o O             D.j.p.~ Y G       G Y ^ p.j.k.",
"                                        . . . . . . # , 7 7 >                     , 7 v v v x l 7 4 , *           D.j.p.! G V         G ^ a.j.D.",
"                                      . . . . . . . 1 G ~ T 5 . . . . . . . . . . 7 ! p.d.d.p.y.~ Y n , o         D.j.p.! U V           y.h.k.k.",
"                                    o o o . o . . O l ^ a.t.l $ . o O O o O o o % V a.I.T.T.Y.P.D.p.Y 4 o .       D.j.p.! U G             k.k.x.",
"                                  # * : : : : : > 1 v T t.! G x x x l l l x 7 7 v ! j.Y.E.E.T.Y.G.h.T 4 . .       F.j.p.! U V           D.k.k.k.",
"                                . * 7 x v v v V V V V x x C ! y.u.u.u.u.u.y.y.y.u.d.D.U.Y.Y.I.U.G.h.T 1 o .       F.j.p.! U V         D.k.k.k.k.",
"                              . O > v T ! ! T ! t.! V , : l ^ k.F.F.F.F.F.F.G.G.F.F.D.D.F.G.G.F.D.h.! 5 # .       D.j.p.! U V       D.k.k.k.k.k.",
"                            O # > 7 U t.u.p.p.a.p.t.Y 5 > 7 T y.d.j.D.D.D.D.F.G.G.D.k.j.k.D.D.D.D.j.t.V 4 * o   T a.j.p.! U V         k.k.k.k.k.",
"                          o % , l G ! p.j.x.D.k.d.y.T n l 5 7 x G W ^ u.u.i.a.d.j.j.d.d.d.j.D.D.D.j.p.! G 7 * # v y.h.p.! G V                   ",
"                        X X = 5 V W y.d.k.H.H.z.s.( Q R V 7 > $ 1 7 G Y W W ~ ^ y.u.y.u.i.a.d.j.k.k.h.p.~ V : # 5 ! d.p.^ Y G                   ",
"                      - y y ; w C ! i.l.z.b.b.c. .[ D S n 7 , * * 1 5 v G U Y G G G W ! ^ y.u.a.j.j.j.a.t.C , O > U d.d.y.~ ! Y                 ",
"                    X y ;.>.p e Z ! p.l.g.$.w.5.6.6.k D c x 7 4 1 * * 4 H Y G 7 1 5 n G T W ~ u.a.j.h.a.t.C > o O 7   j.d.p.t.! G               ",
"                  . X u ,.7.1.j m ! p.l.o.w.q.0.0.9.2.j 8 x v x 4 * % > v G v 1 % * 4 x G G T ~ u.a.a.p.^ V , o .       x.j.i.~ U G             ",
"                  . X i <.0.8.h M T u.s. .5.0.0.0.0.1.f 8 x V n 5 % o * x G n 1 % * > 4 7 n G W t.u.p.y.~ V , o .         k.a.t.! ! T           ",
"                  . X i <.9.8.h b Y ~ ( F 5.0.0.0.0.1.f 0 x n n 5 % o * 7 G n x 1 > * * 1 7 G U ! t.t.t.! V > o .           d.a.u.t.! U         ",
"                  . X u ,.7.3.j M U W R F 4.9.0.0.9.2.s 8 x n n 5 % o * 7 G G n x 1 % O * 5 V G T ! ~ ! T v > o .             k.j.i.! U C       ",
"                  . X - a :.g D n U Y U D g :.1.1.2.p e 8 x v v 4 % O * 7 H G G n 5 % . % 4 n G U T T ! Y x > . .             D.k.p.! U C       ",
"                  . X @ ; d r N U Y Y C M r d f f s e q 5 7 v x 4 % o * 7 G U U G 7 * o # 1 v V V C U T Y x : . .             D.j.p.! U C       ",
"                  . . & 3 B J R Q Q U R N N B 0 0 8 6 5 5 7 x x 1 % o * 7 G G T G x : O % 1 x v n n G U U x > O .             D.j.p.! U G       ",
"                  . o 3 I %.v.v.c.c.b.b.&.&.%.) J x 7 7 7 x v x 4 # o * 5 V U U G v 4 * * , 1 5 l v V G G x 4 * # o         D.D.j.p.~ U V       ",
"                  . + t K.).].(.^.S.S.~./.#X).L.) x 7 7 x x v v 1 % o % 5 V U T U G x 1 : * * , 7 v V V V V l 5 > # O 5 ! j.F.D.j.p.! U G       ",
"                  . + ] W.3X2X=X+XoXoX+X=X2X3X#X*.N 7 x x v n x 1 % O % 4 n G G G G x 5 , % O % 1 x v V V V V v 4 # O 4 ! d.D.k.h.p.! U V       ",
"                  . + { [.7X4X$X^.A. X+X<X5X7X,XK.P B b v v V x 4 % o % 1 x V G G v 7 1 * o . o * 1 7 v G G G n 4 % O 1 U u.p.p.u.y.! G         ",
"                  . + } [.7X1X!.N.n.Z. X-X4X7X>X/.#.[ A m n n v 4 % o O 1 7 v n v 7 , % o . . . o % 1 x G G G v 5 % O > n W ~ ~ ! ! T           ",
"                  . & ] `.>X;XJ.) ` e.Q.&X2X4X,X^.e.+.D n v x l 1 % o % , 7 7 x 7 1 * O . . o o o O , v G U G n 4 % o * 7 G Y Y G U             ",
"                o # = L K.W.L.' H ` e.Q.XX*X:X@X|.V.@.P b 7 7 4 , * % * 1 4 4 1 , : * % % * * * : 1 7 G T T G n 4 % o O 4 V G G G               ",
"              o $ 1 7 B L ] I H C ` B.Z.}..X.X}.C.r.@.P c 5 > * * : , 1 1 1 , * % * , 1 5 5 7 x V G T W W T G v 4 % . . *                       ",
"            . . * 7 n c 2 = 2 8 E c.B.C.}.}.C.C.V.e.+.D z , # o % : 4 5 1 , * O O * 1 x n G G T ~ ^ ^ ~ W U G x 1 % O o                         ",
"            . . > x G x % . 3 I v.!.^. XXXXX.XQ.B.@.[ S 7 , # . O , 4 1 , * % # # : 7 n G T ! ^ u.i.u.~ T G 7 4 , > * % O                       ",
"            . o , V T n % o t K.#X$X&X+X-X<X<X{.M.P B 8 5 : # . O * 1 , * O # * , 5 x V T ~ y.i.a.p.y.W G 7 1 * : 4 7 4 % .                     ",
"            . o , C ! C > = ] W.>X<X*X+X*X2X1X].*.N 5 4 4 * O o O * 1 * O O # > 5 x V G W y.p.a.a.i.^ T v 4 # O * 7 n 7 * o .                   ",
"            . o 4 G ^ Y l < L M.{.(.^.S./.'.].L._ c 1 , > # o o O : , * O . % 1 x G T ! y.p.d.a.p.u.! G x , # o * x V l * . .                   ",
"            . o 4 U t.! V l B L { } X.X.O.*.*._ K 5 , % # o . . O * , * O . % 4 V T ~ y.i.d.d.a.y.~ Y V x 1 # o * l V l * . .                   ",
"            . o , U t.t.Y n 9 = & < 9 z c M c 8 5 1 : # . . . . # * > * O O : x G ! u.i.d.d.a.u.~ Y G v 7 , O o * x V 7 : o .                   ",
"            . . , G ~ ~ T V 5 # . . # : > , * : : * % O . . . . o # % * * > 5 V W y.i.p.p.u.y.! T G v 7 1 % o o * x G n 5 : % O                 ",
"            . . : n ! ! U n 4 # . . o # O O O O O O O . . . . . . . O * 1 x H W ~ u.i.u.y.! Y G V v 5 , # o . . * x G G V 7 1 % .               ",
"            . O , n Y Y V x 1 % . . . . . . o . . . . . . . . . X . O , x G W ^ y.u.u.y.W G x 7 7 7 1 % o . . O , v U T G V 7 * o .             ",
"          % , 4 x V U C x 4 > # . . . . . . . . . . . . . . . . O # * 7 G ! y.u.u.u.^ W G 7 1 1 1 , * O . o O : 5 V Y T U V 7 * . .             ",
"        o , v U T Y U x 4 * # o                     . . . . . . # 1 x H W y.i.p.i.y.W G x , # # # # O . . # , 7 n G U U G V 5 $ o .             ",
"      . o 1 G ^ ^ T V 7 * o .                         . . . . . * x G ! y.i.i.i.u.! G l , # o . . . . . o * 7 V G G C V V x 4 # . .             ",
"      . o , G ^ ~ G l , # .                         . . . . . o 1 n ! y.i.i.u.y.! G x , % O . . . . . . . * 7 V C V V n v x 1 # . .             ",
"      . . > V ! U l : # O                         . . . . . . . 1 G y.p.a.p.y.W G x , % o . . . . . . . . % 5 v n x l l l 7 , # . .             ",
"      . o , n G v , o .                         . . . . . . . O 1 Y u.a.p.u.~ G 7 , # o . . . . . . . . . # , 7 7 5 1 4 7 5 , # o .             ",
"    O # * 4 n V 7 * . .                         . . . . . . # * 7 T u.u.y.! G x , % o . . . . . . . . . . # : , , : : , 4 4 1 * % O o           ",
". o # , 5 x v x 4 % . .                         . . . . . # : 5 H T ~ ~ T G x , # o o                     O # # # O O * , 1 4 , > % O .         ",
". . % 5 x n v l 1 % o .                         . . . . o % 5 v G Y W G V l , % o .                         o . . . o # : 1 4 4 1 : # . .       ",
". o % 5 v n v 7 1 : % O o                       . . . . o * 5 V G Y G V 7 , % O .                             . . . . o % * , 4 4 : # . .       ",
". . % 1 x x x 7 5 1 : * O .                     . . . . o * 7 G G G H x 1 # O o                                       o O # * 1 4 , # . .       ",
". . % 1 7 x 7 7 5 4 1 * # . .                   . . . . . * 7 G G G v 7 * O .                                           . o # : 1 : # . .       ",
". . O , 5 7 5 4 5 4 1 , % # O o                 . . . . o * 7 V G H x 4 : % O o                                         . . O * * % O . .       ",
". . # : 1 4 4 1 1 1 2 , > * % O .               . . . . o * 7 V V v 7 5 1 , * O .                                       . . . O O O o . .       ",
". . O * , 1 1 1 , , : , 1 , * # . .             . . . . . * 4 x v 7 5 4 5 4 > % . .                                     . . . . . . . . .       ",
". . O * > 2 , 1 * > > > 1 1 : O . .               . . . . % 1 7 7 7 4 4 5 1 , % # o o                                     . . . . . . . .       ",
". . O % > , * * * * * * , , * O . .                 . . . % , 4 4 4 1 1 1 1 1 * % # o .                                     . . . . . . .       ",
". . O % * * * * % % % * * > * O . .                   . . O * 1 1 1 , , > > > , > % O X .                                     . . . . . .       ",
". . o # % % # # # O # # % % O o .                     . . O % , , < , > > > > > : % O . .                                   . . . . . .         ",
"    o o o O o o o . o o o O o o                       . . O * , , > > > : > > > : # O . .                                 . . . . . .           ",
"      . . . . . . . . . X . .                         . . O % : > > * * * * % * % # o . .                               . . . . . .             ",
"        . . . . . . . . . .                             . O # % % % # # # # # # # O . . .                                 . . . .               ",
"                                                          o O O O o o o O o o o o o . . .                                                       ",
"                                                            . . . . . . . . . . . . . . .                                                       ",
"                                                            . . . . . . . . . . . . . . .                                                       "
};
