/* XPM */
static char *eexit2_resized[] = {
/* columns rows colors chars-per-pixel */
"72 72 247 2 ",
"   c #010000",
".  c #0A0402",
"X  c #050806",
"o  c #0C0904",
"O  c #0C0B09",
"+  c #130201",
"@  c #1C0201",
"#  c #140B04",
"$  c #190D04",
"%  c #130D0A",
"&  c #1A0B0A",
"*  c #0C100E",
"=  c #151104",
"-  c #1C1206",
";  c #14120C",
":  c #1C140A",
">  c #1C1809",
",  c #1A1611",
"<  c #191613",
"1  c #240100",
"2  c #2C0000",
"3  c #280A03",
"4  c #330000",
"5  c #3C0000",
"6  c #340C02",
"7  c #211407",
"8  c #271807",
"9  c #231609",
"0  c #251909",
"q  c #2A1C0B",
"w  c #371C0B",
"e  c #251C14",
"r  c #26200C",
"t  c #2E210D",
"y  c #33240E",
"u  c #3A240C",
"i  c #35280E",
"p  c #3B280E",
"a  c #2A2417",
"s  c #332513",
"d  c #3B2612",
"f  c #352A13",
"g  c #3B2B13",
"h  c #35291B",
"j  c #3C2D1C",
"k  c #3E3117",
"l  c #352D23",
"z  c #35312A",
"x  c #39332B",
"c  c #440000",
"v  c #4A0101",
"b  c #4D0A04",
"n  c #530100",
"m  c #5C0000",
"M  c #570804",
"N  c #4B190B",
"B  c #640000",
"V  c #6B0000",
"C  c #690A04",
"Z  c #740000",
"A  c #7C0000",
"S  c #740C04",
"D  c #64140C",
"F  c #43270C",
"G  c #432C13",
"H  c #432A17",
"J  c #492E15",
"K  c #443214",
"L  c #493314",
"P  c #4B341B",
"I  c #4A361A",
"U  c #553615",
"Y  c #543D1A",
"T  c #5A3C1D",
"R  c #633411",
"E  c #603B18",
"W  c #532821",
"Q  c #4D3A22",
"!  c #473728",
"~  c #533C23",
"^  c #553C26",
"/  c #443C32",
"(  c #483E34",
")  c #662E26",
"_  c #3E4036",
"`  c #4C4400",
"'  c #57401B",
"]  c #5D451A",
"[  c #5B431C",
"{  c #6F4400",
"}  c #694D1C",
"|  c #6E521E",
" . c #73541E",
".. c #5D4224",
"X. c #5D4825",
"o. c #56422B",
"O. c #5B432A",
"+. c #494338",
"@. c #564C35",
"#. c #584836",
"$. c #644A28",
"%. c #6B5324",
"&. c #765720",
"*. c #755A27",
"=. c #7B5C23",
"-. c #7A5D29",
";. c #644B33",
":. c #694E32",
">. c #6A5236",
",. c #65523A",
"<. c #6C543C",
"1. c #755A3D",
"2. c #7D612B",
"3. c #7C6238",
"4. c #4C4C48",
"5. c #56524A",
"6. c #54524C",
"7. c #695744",
"8. c #735B42",
"9. c #775E45",
"0. c #6B604E",
"q. c #776149",
"w. c #7C654D",
"e. c #786754",
"r. c #756F65",
"t. c #840000",
"y. c #8C0000",
"u. c #810B03",
"i. c #930000",
"p. c #9C0000",
"a. c #821612",
"s. c #A40000",
"d. c #AC0000",
"f. c #A10A00",
"g. c #B40000",
"h. c #BC0000",
"j. c #B81504",
"k. c #8A2D0F",
"l. c #94290D",
"z. c #B6300A",
"x. c #B83320",
"c. c #C40000",
"v. c #CC0000",
"b. c #CB0A00",
"n. c #D40000",
"m. c #DB0000",
"M. c #DA0A00",
"N. c #C61407",
"B. c #E30000",
"V. c #EA0000",
"C. c #E30B00",
"Z. c #D22F04",
"A. c #E13E19",
"S. c #A65400",
"D. c #845533",
"F. c #8D6827",
"G. c #83642C",
"H. c #886629",
"J. c #936E2C",
"K. c #93702F",
"L. c #8D6D31",
"P. c #856638",
"I. c #957232",
"U. c #9A7634",
"Y. c #9D7937",
"T. c #A37D37",
"R. c #CE5100",
"E. c #EF4600",
"W. c #D47600",
"Q. c #886C42",
"!. c #95774A",
"~. c #836C53",
"^. c #836856",
"/. c #867159",
"(. c #897259",
"). c #A96F4B",
"_. c #897965",
"`. c #917E69",
"'. c #847E70",
"]. c #DF6857",
"[. c #AE8A00",
"{. c #AA833A",
"}. c #B38A3D",
"|. c #C48900",
" X c #F18A00",
".X c #ECB300",
"XX c #F2CB00",
"oX c #F9CA00",
"OX c #FFE100",
"+X c #B08A45",
"@X c #B89558",
"#X c #95826C",
"$X c #938977",
"%X c #9B8A75",
"&X c #A58D73",
"*X c #C49743",
"=X c #C69942",
"-X c #CB9D45",
";X c #C39D5C",
":X c #D3A246",
">X c #D4A449",
",X c #D1A44F",
"<X c #D8A749",
"1X c #DAA94B",
"2X c #CDA356",
"3X c #E19B72",
"4X c #98968D",
"5X c #A99984",
"6X c #AA9C8A",
"7X c #BBA58B",
"8X c #A8A59A",
"9X c #B5A691",
"0X c #ADABA1",
"qX c #B1ADA2",
"wX c #C3AB8E",
"eX c #C5AC91",
"rX c #CDB396",
"tX c #D4B99C",
"yX c #D9BC9C",
"uX c #E6A78B",
"iX c #CCBCA6",
"pX c #DDC09F",
"aX c #DDC1A3",
"sX c #DAC6AB",
"dX c #CBC4B5",
"fX c #DCCAB2",
"gX c #E2C5A5",
"hX c #E5C9A9",
"jX c #EBCDAB",
"kX c #EBCEAF",
"lX c #EAD4B9",
"zX c #F2D5B3",
"xX c #F8DBB9",
"cX c #FCE0BD",
"vX c #DAD2C0",
"bX c #E8DCC7",
"nX c #F4DEC1",
"mX c #EEE1CB",
"MX c #FDE4C4",
"NX c #F9E6CB",
"BX c #EDE6D6",
"VX c #F5EBD7",
"CX c #FBECD4",
"ZX c #F9F0DB",
"AX c #FEF3DB",
"SX c #FCF8E5",
"DX c #FFFFF4",
/* pixels */
"- - $ $ # # $ # # $ # $ # # $ - 7 7 q q w d d d d d d g G G G G d y q w H H J J H J H J J J J H u d u G H J L L J J J G F u G F J J U U J H F F ",
"- 7 9 8 q 8 8 8 q 8 q q 0 8 9 7 7 q t d d H j H G H H I I H j d s 8 q t d H H F F H H F H J P H d w d H P L P P P Q P J H d H J P P T P U J G G ",
"- 7 y G Y ' ' ' ' ' T ' T Y K q 9 e j Q ^ ^ o.o.o.o.O.O.o.Q j q 9 7 - 7 9 q q w q q q q d Q Q Q H d G P ~ O.O.O.O.O.O.~ P J P ^ ^ $.;.^ ^ U J J ",
"$ 0 G %.K.U.U.I.U.I.I.U.U.L.&.K 0 h ^ <.7.8.8.8.7.8.8.q.7.o.h & . . o o & # & & % # % - a ! ^ ^ P d ! ^ ;.<.7.8.8.8.<.:.O.~ ..;.<.1.<.<.;.^ T U ",
"# 8 Y J.+X:X:X-X-X-X=X:X-X+XK.Y q j #.9.w.w.w.w.w.w.~.w.9.#.h O   . . . . . . X . .   o e ! #.o.! H Q #.8.w.w.~.~.~.w.8.;.O.;.1.Q.w.w.9.>.$...T ",
"# q ' U.:X1X1X<X<X<X<X<X1X:XU.] q e ! #.,.7.,.,.7.,.,.5.#.! a - = = - - & = - - - - = > e h ! ! H ! o.,.w.e././.(.(.~.9.:.;.:.9.~./.^.w.8.:.....",
"# 8 ' I.-X<X<X:X:X>X:X<X<X=XI.T q 9 s j l j j l j j l h a h s d p p u p F u p p u p u u s e e a j Q ;.8.e./.(.(.(.(.~.q.;.;.>.9.~.~.~.~.9.:...E ",
"$ 8 Y I.=X<X:X:X-X:X:X:X:X=XJ.' q - 9 e t q q t q e 9 % O 9 F R R R R R R U R R R R R R F 7 O > h ~ ;.9.~.(.(.(.(.(.~.9.>.;.<.9.~.(.~.~.9.:...T ",
"# q Y I.=X>X>X-X:X-X-X:X:X=XJ.Y q 8 g Q I I I Y ' ' f *   3 D k.l.l.l.l.l.l.l.l.l.l.l.k.D 3 . ; l ^ >.9.^.~.(.(.(.(.~.q.>.;.:.q.~./.(.~.9.:...T ",
"$ 0 ' I.-X1X>X>X:X:X:X:X:X=XJ.Y q h O.3.P.P.2.P.3.3.o.a + 5 u.j.N.N.N.N.N.N.N.j.N.N.N.j.S 5 + ; l ^ ,.7.8.~.^.(.(.(.~.q.>.;.>.9.~./.~.~.1.:...~ ",
"$ 0 ' I.-X1X1X>X>X:X:X:X:X*XJ.Y t I 3.#X+X{.!.Y.+X(.,.a # 5 y.c.m.n.m.n.n.n.v.n.n.n.m.v.y.c o ; l ( ;.;.>.8.^.^.(./.~.8.>.O.;.1.w.^.~.^.1.:.E T ",
"$ 8 Y I.-X1X1X,X>X:X:X>X>X*XJ.U t P P.+X+XP.2.3.3.1.o.e . 4 B i.s.s.p.p.p.p.p.p.p.s.s.i.V 2 . O e l l ! ! #.7.9.~.~.w.8.;.O.O.>.1.8.1.8.>.$.T U ",
"# 0 Y I.-X1X1X>X:X:X:X:X>X=XK.Y t P 2.T.L.$.k f k h a *   + 4 c v v v v v v v v v v v c 4 +   X % < < , e l #.7.9.9.9.7.O.Q Q ^ ;.;.:.;...~ U J ",
"$ 0 Y U.-X1X1X>X:X:X:X<X<X=XK.Y y L -.I.2.k ; . X O X X   . + + + + + + . + + + + + + + . . . . . . .   O e ! ;.7.1.7.,.Q P P ~ ^ ^ O...^ P J J ",
"$ 8 ' U.-X1X1X>X:X:X:X:X:X=XK.Y q L 2.I.*.f .   o - - 7 7 - $ $ = = = = = # = # = # = # $ - 7 7 7 7 #     , l ^ ;.;.^ ^ Q I Q ~ $.;.:.;...~ J J ",
"$ q ' I.-X1X1X>X:X:X:X:X<X=XJ.Y y K 2.I.*.f . . 8 u F F F F F u u i p i u u u u u u u u u F F F F u 8 $ . % w P Q W Q Q H ! ^ ;.<.9.9.9.>...T U ",
"$ 9 ' I.-X1X<X>X>X>X:X>X>X=XL.Y t I 2.U.-.f o # w L R U U U E E E E ) ) E E E E E E E E R U U U U U w $   % q d d d d d j H ( 8.~.~.~.Q.<.:...T ",
"# 8 ' I.-X<X1X>X>X>X:X>X1X+XL.' t I G.U.-.f . o 8 u F F F U *.D.D.k.k.k.D.D.P.D.D.P.P.D.:.T F F F u 8 $ X . & 9 q 9 7 9 q s ^ 7./.(.(.~.9.:...T ",
"$ 8 Y K.=X<X<X>X>X>X<X,X,X@XI.I t L G.Y.-.f .   . - $ - 8 Q w.`.).N.N.x.).).&X#X&X@X&X`.Q.! q $ - - o .     o # # . . . # : l 7.~.(.(.~.9.:...E ",
"$ 0 Y I.=X>X>X:X>X>X,X,X2X@XQ.o.t L 2.U.2.K O . o o .   # / _.&X].A.x.A.].7XwXeX7XeXeX5X/.! %     + . . . .     X O % . . O e #.9.~.~.w.1.$.E ^ ",
"# q Y J.=X:X:X>X:X:X-X2X2X@XQ.Q t I 2.Y.G.X.k s g f 0 o * / `.eXuX].].].uXrXyXsXsXsXgXeX_.x *   1 4 5 5 4 1 .   < z / l *   ; l #.,.8.8.:.$.~ U ",
"# q Y K.=X:X:X:X:X:X-X,X2X@XQ.Q t K 2.Y.Y.2.%.*.2.-.' > % ( %XyXhXuX3XuXuXgXlXmXmXmXlXtX$Xx O @ v Z t.t.Z n 1 # z e.`.w.l     O e l ^ ;.$.~ U J ",
"# 8 ' K.=X:X:X:X-X:X:X2X2X@XQ.Q y K 2.Y.{.U.I.U.T.U.%.s < / %XhXzXkXjXjXzXzXnXNXVXmXfXeX_.! & 5 Z s.h.h.d.Z 4 % +.%XrX&X5.: X O , e H ~ ~ W J J ",
"$ q ' K.=X>X:X:X:X:X:X2X;X@XQ.Q y K *.{.{.{.{.Y.K.-.Y , % +.%XhXxXzXnXnXMXNXCXZXNXvX9X`.7.W b B i.g.v.n.h.t.5 & 4.5XgXeX_.5.( ( +.! l d G G L U ",
"$ 8 Y I.-X<X<X>X:X:X>X,X;X@XQ.Q q L -.T.}.{.Y.2.X.K > X * / %XyXzXxXnXMXCXAXCXNXlX9Xr.+.W C A i.s.h.v.m.v.i.5 & +.&XjXhXwX&X&X&X%X9.x 7 9 G U ^ ",
"$ 8 ' I.-X<X<X:X>X>X>X,X2X@XQ.o.y K -.T.{.Y.L.%.f =     % / `.eXpXgXgXlXmXBXmXfXeX`.( q c A s.h.h.h.n.m.n.i.c & 4.&XaXzXzXhXkXzXyX%X5.e 9 d P T ",
"# q ' U.-X<X<X:X:X:X,X2X2X@XQ.Q q L -.Y.Y.G.%.k :   . 1 5 ) 8._.`.%X5X5X4X8X8X%X_.7.H c m i.g.c.c.v.n.B.m.i.c & _ $XtXxXcXcXNXMXzXwX_.@.! H j G ",
"# 8 ' I.-X<X<X:X:X:X-X,X2X@XQ.o.s L -.U.G.X.f : o   1 n Z D W / +.+.( 4.4.4.4.4./ W D Z y.s.h.c.n.n.B.V.m.p.c & x #XeXlXNXAXAXMXzXaX7X&X0./ e $ ",
"$ 8 ' I.-X<X<X:X-X:X,X2X2X@XQ.Q q P -.I.-.K #     . 5 A p.t.b 3 % & & & ; & % % & b A d.g.h.h.v.n.B.V.V.m.i.c $ x r.wXfXmXZXCXMXzXzXzXpX#X+.%   ",
"# 8 ' I.-X<X<X:X:X:X,X1X2X@XQ.' y L -.U.*.y         c i.h.d.V 5 2 2 4 4 4 4 4 2 5 m i.g.c.c.v.n.m.B.V.V.v.i.c % _ /.7XsXlXBXNXmXMXMXMXjX&X( X   ",
"$ q ' I.=X<X<X:X<X<X<X2X2X;X(.o.q I G.U.*.s         c p.n.c.s.A Z Z A Z Z A Z Z A y.s.h.c.n.n.m.B.B.V.B.v.y.5 # x _.wXaXsXfXlXBXCXCXNXjX&X/ .   ",
"# 8 Y K.=X:X:X=X=X=X-X-X2X@XQ.Q t K &.L.*.k ; X X & b p.c.n.h.g.d.d.d.g.d.d.d.g.g.g.g.h.v.n.B.V.B.B.B.m.c.y.5 # x r.&X7X7X9XaXbXCXCXNXjX&X5.,   ",
"# q [ U.=X*X{.L.H.F.L.L.P.3.O.g 8 i ' $.,.,.6.4.4.( ) a.p.d.g.h.c.h.h.h.h.c.c.v.v.v.v.v.n.m.V.B.B.m.m.m.c.t.5 + a 4.e._./._.5XiXmXCXCXlXeX^.4.! ",
"# 8 ] Y.=X{.| K i i f j k h s e - - > a @.r.8X9X6X&X^.) M V i.g.c.h.h.h.h.h.c.n.m.m.m.n.m.B.B.B.m.m.n.m.c.y.c . * a z x z / 0.5XiXNXCXmXfX9X%X`.",
"# 8 ' J.}.I.X.r ; < < < < < < - - = * e 0.8XbXVXxXyX%X( 7 5 A g.c.h.h.h.h.h.c.n.B.B.B.B.B.B.B.m.n.n.n.n.c.y.c . X * ; O . , / _.6XiXBXVXBXsXrXeX",
"$ 8 k %.L.3.5.4.4.4.4.4.4.4.x , ; > z 6.$XdXCXAXNXkX%X+.O 4 t.h.n.v.v.c.v.c.n.m.m.B.m.B.B.m.m.m.n.v.n.m.c.y.c . X , y 0 # O e +._.6XvXSXVXnXgXgX",
"- 7 q y ! ,.$X4X0X0X0X0X0X4Xr.z ; z r.8XdXlXmXMXcXhX%Xx O 5 y.n.B.m.m.n.n.n.m.n.n.m.n.m.m.n.n.n.n.v.m.m.c.y.5 . , ' %...y # ; e ( '.iXBXVXnXgXgX",
"- - # . < 6.8XbXZXBXBXBXZXbX8X4.a 6.4XvXCXMXzXjXhXeX`.+.9 c i.v.B.B.B.B.B.B.m.n.n.v.v.v.v.v.n.v.v.v.v.v.h.t.c $ k 2.T.G.I 9 .   < 6.0XBXCXbXyXyX",
"7 - .   O 6.0XSXDXSXSXSXSXCXiX_.5.'.iXBXCXcXjXrX5X(.0.+.H N S p.g.v.m.B.B.m.n.v.c.h.h.c.c.v.v.v.v.h.g.p.y.C N g %.U.}.K.' 7 .   O 4.8XBXCXlXyXyX",
"7 - .   O 4.0XSXSXAXNXNXNXnXsXwX5X7XsXlXxXxXpX7Xe.+.+.@.;.$.N b Z d.v.m.m.n.v.h.g.d.g.g.h.v.v.v.c.d.y.B v N U $.L.{.}.K.Y 9     O 4.0XBXVXnXgXyX",
"- - +   * 5.8XBXAXMXzXzXzXzXjXjXhXpXtXrXtXyXeX`.+.a k <.Q.,.f - v y.b.M.m.v.b.d.s.s.s.d.g.h.v.c.h.s.Z 5 # f ] L.{.+X}.L.' >     * 6.0XBXVXvXsXyX",
"7 - .   O 4.6XbXCXxXzXjXkXkXzXxXzXyX7X`.`.`.`.q.o.k X.P.{.1.a * 6 l.R.E.R.Z.Z.j.d.s.s.d.g.h.c.h.g.p.V 2 o a %.Y.}.+X}.H.' >     * 4.0XBXCXlXyXyX",
"7 7 .   X +.%XfXxXlXjXjXjXjXzXzXhX7Xe.#./ x / #.:.2.I.!.#X%.a = F S.W. X XW.R.j.d.d.d.d.g.g.g.h.g.s.V 4 o r %.U.}.}.}.H.Y 7     * 4.0XBXCXlXyXyX",
"- $ $ . ; +.#XeXyXtXrXrXrXrXrXyXwX`.+.:   . ; g *.I.+X{.3.@.a ; ` [..XoXXX.XW.z.f.p.p.p.p.s.p.s.s.i.B 2 # r X.L.{.}.}.H.U 0 .   e 6.qXBXCXnXyXyX",
"- - 8 t g #.q._.`.#X`.#X`.#X#X#X_.5.a         q ' 2.2.3.:.x ; = ` [.XXOXOXXX|.S.S B B V V V V V V B c @ . > k $.F.{.{.G.K > , x 6.4XqXVXVXlXaXtX",
"- 8 u ] &.$.O.+./ / ( / / / +.( / l <         O t g k j s < X o ` [.XXOXOXXX[.{ 6 1 2 4 2 2 2 2 4 2 @ .   o > f } J.T.G.k : x r.0XdXBXSXVXlXaXyX",
"$ 8 L  .J.=.K ; X O O O O O O O O .             . X o . X     $ ` [.XXoXoX.X[.` 3 . + + + @ + + + + + . .     = K G.T.=.s < 4.4XbXSXSXSXmXkXaXyX",
"# 8 U F.J. .i                                             . 2 b k.R. X X X XR.k.b c c c c c c c 5 4 5 5 5 1   . k 2.T.-.i < 6.qXSXDXDXSXmXlXaXyX",
"$ 8 L  .J. .u                                           . 2 B p.N.Z.E.E.E.E.Z.j.p.i.i.p.p.p.i.i.t.A A A Z n @ . g 2.U.=.i , 4.8XZXDXDXSXmXlXaXyX",
"# 8 L =.F.| i o                                         . c i.v.B.B.C.C.C.C.M.m.m.n.m.n.n.m.n.v.h.g.g.g.s.Z 4 # k 2.{.=.i > 4.8XBXDXSXSXbXlXaXyX",
"= 8 L  .F.| i X                                         . v p.n.B.B.n.n.n.n.m.B.V.V.V.V.V.V.V.B.n.n.v.v.h.A 4 + f 2.{.=.i < 4.6XbXAXCXVXnXkXaXaX",
"- 8 U  .F.| i X                                           c i.v.m.v.c.h.h.c.v.n.m.B.m.m.B.B.V.V.B.m.m.n.h.A 4 + f 2.Y.2.i < +.$XfXnXnXlXlXhXgXaX",
"# 8 L  .F.| i X                                         + v i.c.c.g.s.p.s.s.d.h.c.v.v.v.n.B.B.B.B.m.n.c.d.Z 4 $ k 2.T.=.i ; x `.eXyXtXtXtXrXrXrX",
"# 8 L  .F.| y .                                     + 2 c Z p.h.d.y.Z V V V Z A y.s.h.v.n.m.m.m.B.n.h.p.A M N d ] J.{.-.k : h 5._.`.`.`.`.`.#X#X",
"- 8 K  .F.} u .                                     2 m y.s.g.d.i.m 5 4 4 4 4 5 v Z s.v.m.m.n.n.n.c.p.V v N L %.L.{.{.H.L - , l x / / / / / ( / ",
"# 8 L  .F.} u .                                   . c t.g.h.g.i.V 5 +   . .     + c y.h.v.n.v.v.c.g.A 5 $ y X.H.{.{.{.H.I > # % ; ; % % % O O O ",
"- 8 L  .F.} i .                                   . 5 y.h.g.i.V c @               2 m t.d.h.v.v.c.d.V 2 X r %.U.}.}.}.H.Y 0 = > > r q > = X     ",
"# 8 L  .F.| i X                                     5 A s.i.B 5 1 .               . 1 c Z d.v.n.c.s.V 2 o a %.Y.}.*X}.L.I 0 q K ' [ [ ' p > o   ",
"$ 8 L  .F.} i .                                   + c A i.A 5 +                       + v y.g.c.h.p.V 5 # i $.K.{.}.{.2.K 0 y [ 2.L.G.-.[ i - # ",
"# 8 L  .F.| i X                               + 2 c V i.p.A 5 .                         1 m t.p.d.p.A n 6 w Y $.2.2.2.' s - s %.P.I.L.G.$.p - o ",
"$ 8 L  .F.| i .                             . 2 m t.s.g.d.A 5                           + 2 c B y.p.i.A m b w s f k g t = O i X.P.I.L.2.] d - # ",
"$ 8 L  .F.| i o                             . 5 t.g.c.c.s.Z 4 .                             + 5 V i.p.y.A m 6 # X X o     . s ] G.L.L.2.X.i - o ",
"- 8 L  .H.| y .                             . v i.v.c.s.A n 2                                 @ c V t.y.i.Z v 2 +         X t X.G.I.L.-.} f - # ",
"# q L  .H.| y                                 v i.c.d.Z 5 1 .                                   @ 4 m t.i.i.Z n 4 +       X y X.G.K.L.G.X.f - # ",
"- 9 L  .F. .p #   X X . X . o . X . X . X X o b y.d.y.n @         X . X . X . X . X . X o .   X   # 5 Z i.p.y.A m 2 .     . t [ 2.L.L.2.[ f - o ",
"# 8 L  .J.H.[ p y i i i i i i i i i i i i i u N S t.Z v 2 + . . = > t i i i i y i i i i r r 0 > = - 3 b V A y.t.Z n 4 @ . . r ' 2.G.2.%.' r # . ",
"# 8 K  .J.J.=. .| | |  .| | | | | | | |  . .} R N c v n n 5 @ . > p [ } | | | | | | | | } ' L k i y q 6 5 n A y.y.A B c @ . q Y %.*.| ] K 0 o   ",
"- 8 K } F.J.J.F.F.F.F.F.H.F.F.F.F.F.H.F.F.F.H.] y $ 4 n V n 1 . r '  .H.F.F.F.F.F.F.F.F.=.| ] ' I K t = + 4 m t.y.y.A n 1 . > k ] ] ] ' f - .   ",
"- 7 u Y  . .=. . . . . . . . . . . . . . . .| Y r o @ c n c @ . > k [ |  . . . . . . . .| ] U L L p r = o 1 c m V B B c @ . = t g L K p t - o . ",
"- 7 q p F L L L L L L L L L L L L L L L L U L y 0 # $ 1 2 @ .   o : t p K L U L L L L K L p u y t q 0 - # $ 1 2 4 4 2 @ .   . = > 8 q q 9 - = o ",
"- - - 7 8 8 r 8 8 8 8 8 q 8 8 8 q 8 8 8 q 8 9 8 7 - # . .         . o # - 7 0 0 8 8 8 8 8 7 7 7 7 > 7 - - # . .   . .           . o $ > 7 7 - - ",
"- 7 - - # $ $ = $ $ # $ # - $ $ - # # - - = # - - - # .                 o # $ $ - # # - # $ - - - - - > - # .                     . # $ - - 7 - "
};
