/* XPM */
static char *exit2_resized[] = {
/* columns rows colors chars-per-pixel */
"72 72 131 2 ",
"   c #010000",
".  c #0A0501",
"X  c #0E0802",
"o  c #150B03",
"O  c #1A0E04",
"+  c #1D1106",
"@  c #241405",
"#  c #2A1603",
"$  c #2E1906",
"%  c #241608",
"&  c #27180A",
"*  c #2D1C0A",
"=  c #331701",
"-  c #331A04",
";  c #3B1D03",
":  c #311E0A",
">  c #391F09",
",  c #3D2105",
"<  c #35210D",
"1  c #3C230C",
"2  c #392611",
"3  c #3E2B12",
"4  c #411E02",
"5  c #432305",
"6  c #4A2605",
"7  c #4D2806",
"8  c #42260B",
"9  c #4A270A",
"0  c #45290E",
"q  c #4C2B0D",
"w  c #512A06",
"e  c #522E0C",
"r  c #4F300F",
"t  c #55310E",
"y  c #5B340E",
"u  c #432C12",
"i  c #4C2E11",
"p  c #502F11",
"a  c #473013",
"s  c #4C3315",
"d  c #46321B",
"f  c #4C3619",
"g  c #4F381A",
"h  c #533313",
"j  c #5A3612",
"k  c #543817",
"l  c #5D3915",
"z  c #533B1B",
"x  c #583D1C",
"c  c #623B15",
"v  c #683F16",
"b  c #633E19",
"n  c #4E3921",
"m  c #543E22",
"M  c #5B411E",
"N  c #674017",
"B  c #6C4217",
"V  c #61441D",
"C  c #6B431B",
"Z  c #63491F",
"A  c #72471C",
"S  c #75491D",
"D  c #784C1F",
"F  c #574021",
"G  c #5B4323",
"H  c #614725",
"J  c #654B22",
"K  c #6C4F21",
"L  c #644B29",
"P  c #684F2D",
"I  c #774B20",
"U  c #794C21",
"Y  c #6E5123",
"T  c #6B512D",
"R  c #735424",
"E  c #795726",
"W  c #775827",
"Q  c #7A5927",
"!  c #735628",
"~  c #77592B",
"^  c #7C5C2B",
"/  c #7F5F30",
"(  c #7F602F",
")  c #7F6030",
"_  c #815E2C",
"`  c #82612E",
"'  c #8A672D",
"]  c #8B682E",
"[  c #966D2F",
"{  c #986F2F",
"}  c #846433",
"|  c #886734",
" . c #8A6935",
".. c #876839",
"X. c #8D6C3A",
"o. c #956E31",
"O. c #986F30",
"+. c #906F3E",
"@. c #8F703D",
"#. c #967133",
"$. c #9C7433",
"%. c #91703D",
"&. c #9C7639",
"*. c #9E793B",
"=. c #A17635",
"-. c #A37936",
";. c #A87C37",
":. c #A47C3A",
">. c #A97E3B",
",. c #A47C40",
"<. c #A7803F",
"1. c #AB813E",
"2. c #B0843E",
"3. c #A78142",
"4. c #AD8442",
"5. c #AF8847",
"6. c #AC8749",
"7. c #AF894A",
"8. c #B18643",
"9. c #B38946",
"0. c #B98D46",
"q. c #B58C4A",
"w. c #B98E4B",
"e. c #BB914E",
"r. c #BD9451",
"t. c #C0954F",
"y. c #C19753",
"u. c #C39956",
"i. c #C59C58",
"p. c #C89F59",
"a. c #CAA05B",
/* pixels */
"y y y y j l l l k h h h j h p 9 , , , , , 1 9 a 9 r r s h h h q 8 - = ; 9 t y t p e t t j j j p 9 5 9 e j l l c l l j t e q q y l c b v l e 7 6 ",
"y y y y h y h h h h i i h h q 8 , , , , 1 1 0 3 0 0 q 0 q s q 0 1 - # = 5 e e q q 0 q q p p p 0 8 ; 8 0 s h h k h h h q 9 5 0 q h j j l y t e 7 ",
"y y h e 0 0 0 0 0 8 8 8 8 8 8 > < $ $ $ , < , , 1 1 1 1 8 1 0 1 - @ @ @ $ 8 > > > > > > > > 8 > - # - > 1 1 3 1 1 2 1 1 - - ; < 2 8 8 u q t y y ",
"c j t 0 < < < < : * * : : : : # $ @ @ @ @ @ & $ $ $ * * * : * * & O X o o + O O O + o O O + + O o o o O + @ + + @ + O O + o O + + + + & 1 s c v ",
"c j r < $ & * * : * : * * * * * $ * * * * & & * * * : * * * * @ + X     .     . .     .   .   .   .   .   . .     .   .     .         X * i v A ",
"l y 9 < $ * 3 s f s s s s s s s a F M M F F s a s s s k s u < % o X                                                                     & p C I ",
"y t 8 < * 3 M ! ^ Q Q E R R R R R ( ..X.' ( W R R R Q Q E V u @ o X                                                                   . & f I I ",
"t r 8 - * f ~ $.:.-.$.{ { [ [ [ #.<.5.q.5.<.$.o.#.#.=.=.#.E k $ o                                                                     . & i C I ",
"e i 8 $ : z | ,.9.2.>.>.;.=.=.=.=.2.e.a.e.2.<.=.=.=.;.1.1._ M * o .                                                                   . % s K I ",
"e i > * : m X.7.t.0.8.>.;.=.=.{ =.1.e.t.e.5.<.=.=.=.;.1.=.Q s & o X                                                                   . & s C U ",
"p q 8 * : m +.q.y.e.8.1.;.=.=.{ $.<.q.e.w.1.<.$.=.{ =.1.{ _ s & o                                                                       & i C S ",
"h i 4 : : m +.r.u.e.8.2.;.;.=.{ { <.<.2.9.<.=.=.=.=.=.1.=.Q M & o X                                                                   . @ u c v ",
"j h 8 : : m +.r.t.t.t.>.>.>.;.O.{ $.<.<.<.$.$.<.{ =.=.1.<.R F & o X                                                                     @ 1 y y ",
"l k u : > m +.r.t.t.;.8.,.2.:.$.{ { $.<.<.<.<.<.1.{ =.;.{ W a % o X                       . . .                                       . + 1 e y ",
"l j 0 : : m  .t.t.t.>.>.,.>.-.O.o.{ <.1.<.<.2.2.1.1.1.1.<.Y F * o X X . . . . . . . . . . . . . . . . . .                               + 1 h c ",
"l j 0 : > m X.t.t.0.8.>.;.;.=.$.{ <.1.2.9.2.2.2.2.2.2.1.{ W 3 & O o o o o o o o o o o o o o o O o o o o X . .                         . @ q c B ",
"j p 0 : : m +.r.t.t.2.2.2.<.{ <.{ 1.9.e.r.r.t.r.t.e.2.2.<.Y 3 * @ & * * $ & $ $ $ & & & & % * * * & @ + o X .                         . % i C S ",
"q 0 > # * m +.w.u.t.2.2.1.<.{ <.1.2.e.t.u.u.r.e.2.2.2.1.#.Y F * * 3 g z M M z h g f M M M F F M f a < & O X                           . & s C D ",
"; ; - # * m X.w.u.u.t.0.1.{ 1.1.2.e.t.u.u.u.r.q.1.1.$.<.#.! a : 3 L ) ..} } ' _ ( ` ' } ' ' ) ) ~ K z < + . .                         . & s C S ",
"= - # # * m X.q.y.u.t.2.1.<.1.2.t.t.i.i.u.u.r.q.1.<.{ <.#.Y a < f ^ *.4.5.4.2.;.=.-.<.<.5.6.2.<.$.' M 3 + X                           . & i C S ",
"; ; = @ : z } 4.2.t.e.2.<.<.<.w.r.u.i.i.u.u.r.5.<.{ { $.{ R 3 < f ( 3.0.0.2.2.2.1.1.2.2.t.e.q.q.<.' K 3 + .                             @ 0 c B ",
"5 , ; # * z ) :.2.2.2.2.<.<.1.w.u.i.i.i.i.u.r.5.<.{ <.{ { Y a < f ( :.9.2.2.2.2.1.1.2.2.2.q.2.2.*.' K 3 + . .                         . + 1 t c ",
"7 7 , $ : f ^ *.1.1.<.<.=.<.1.e.u.u.i.i.i.u.r.q.1.<.=.=.[ Y a < f Q :.2.2.1.;.1.-.;.1.1.2.9.2.1.*.' J 3 + .                             + 1 e y ",
"t q 8 - * g ( <.2.1.1.<.=.<.1.q.r.u.u.i.u.u.r.e.2.1.<.<.{ Y a < f ( <.9.2.1.1.<.-.=.;.;.2.2.2.2.*.' J 3 + .                           . + 8 e c ",
"y t 8 * * M ..6.e.w.5.1.<.-.1.q.r.y.y.i.i.i.y.y.q.7.1.<.{ K q < g ` 4.0.9.1.1.;.1.{ 1.1.1.1.2.2.<.' J 3 + .                             % u l C ",
"j t 0 - * M X.q.r.e.9.4.<.-.1.2.q.r.r.r.y.u.y.y.r.q.2.<.{ R a < z ..6.e.9.1.;.;.{ <.{ { 1.1.2.1.&.' K 3 + X .                         . * i C S ",
"c k 0 < < z ..9.e.w.5.1.<.-.<.1.5.7.7.q.e.w.w.0.e.e.0.<.{ K a < g ..7.r.e.2.1.;.{ { { { { 1.1.1.&.' J 3 + o X . . . . . . . . . . . . o * h C I ",
"c l q : * z } 1.9.2.<.<.-.-.-.;.<.<.<.<.1.1.2.2.q.e.2.1.{ K a < M ..7.r.e.e.1.;.<.{ $.$.1.1.1.1.&.' K a & o o o o o o o o o o o o o o + < k I I ",
"c l q < * z ` ;.2.1.<.<.-.<.-.=.<.$.<.$.<.$.<.1.9.q.9.1.{ Y a < F ..r.r.y.e.q.<.{ { { { $.<.<.<.$.' K 3 $ + & $ $ $ & $ * * & * & % % & 3 l C D ",
"j t 0 $ : s ^ -.2.2.1.1.1.1.<.;.<.$.$.=.$.$.$.<.0.q.9.1.{ Y a < F ..7.i.u.e.q.<.<.{ <.{ $.$.$.$.#.' Y a : < 3 s g f f f g z z s s 3 * * 3 x C D ",
"9 0 , $ * f _ ;.2.q.q.q.0.9.2.1.$.=.=.$.$.{ <.<.5.q.q.1.{ Y a < n ) q.r.r.e.q.1.<.{ $.$.$.$.<.#.{ ' K a < 0 M R Q Q ^ ^ ( ) ^ ^ R M 3 * 1 j C D ",
"5 , ; @ * z ` :.0.e.e.r.e.e.9.1.<.{ =.{ $.<.$.1.9.q.2.1.{ Y a < F ..q.r.r.e.w.4.<.<.$.$.$.$.#.&.#.' K s 1 s R o.$.$.$.*.:.,.*.*.X.Y a : 1 k B S ",
"0 5 > $ $ k ..,.t.y.u.u.t.t.t.,.;.=.=.$.<.<.<.2.1.1.1.<.{ K a < F ) 7.u.r.r.7.7.1.{ { { { 1.3.<.<.) R F 1 M Q $.1.1.<.2.5.5.<.3.#.! f * < h N B ",
"p i > * : m X.7.y.u.u.u.t.t.t.,.;.-.{ $.=.1.5.2.<.<.$.<.{ K a < F ..7.u.r.r.w.7.1.1.1.{ 1.1.7.2.] ) K a 1 k ( =.1.1.2.2.5.2.<.<.o.! d * < r c N ",
"j p 8 * < m +.r.i.p.u.u.y.t.t.,.1.=.$.{ $.1.2.2.<.$.<.{ { K a < n ) 7.r.r.e.q.5.1.{ { { 1.2.2.2.<.' K F 1 F ( =.2.5.5.5.<.<.3.<. .R a < < q j c ",
"j p 8 > : m +.r.a.a.i.u.u.y.y.,.1.-.$.#.<.<.1.1.<.#.$.{ [ R a < 3 ) 6.7.q.q.9.<.1.1.1.{ 1.1.2.2.<.' K 3 , M ( =.2.2.2.5.<.<.<.<.o.R d * , r l N ",
"p q 4 : : m %.r.a.a.i.i.i.y.r.q.2.:.*.[ { <.<.<.#.{ $.$.[ K a < 3 ( <.9.1.1.1.1.<.{ 1.1.<.w.e.7.<.Q K r 3 M ( <.5.2.5.5.<.<.$.<.#.! d * 1 h v A ",
"w 0 > * : m %.y.a.a.i.i.i.i.y.w.9.1.*.o.{ { { { $.$.{ <.[ R a < F ! <.<.1.1.1.1.<.1.<.1.2.w.7.7.<.' Z M < M Q <.2.5.5.3.<.{ $.$.#.! s * 1 h B A ",
"q 9 > $ : m +.r.a.a.i.i.i.u.t.t.q.1.*.[ { { { { { $.<.<.<.Y F : 3 ( <.1.9.1.2.1.<.{ <.<.2.q.w.2.<.' K 3 1 M Q <.5.5.2.2.<.$.<.<.$.! s : 1 h V A ",
"9 9 > = : m +.y.a.i.i.i.y.y.t.e.q.4.=.#.{ { $.$.$.{ 1.1.<.( a : F ( <.q.e.e.9.1.<.<.<.<.3.q.e.2.<.Q K M 3 M ( <.5.9.2.2.<.<.<.$.%.Y s * 1 s N C ",
"7 6 ; $ : m +.e.t.t.t.t.t.t.t.w.9.,.-.O.O.O.=.=.{ <.1.2.2.' F * a ) 6.e.r.r.e.2.2.<.<.{ <.1.2.2.*.] Y s 3 z ( <.9.5.5.5.2.<.<.<.#.! d * < r l N ",
"6 4 - # * m | 9.t.t.t.t.w.9.9.9.4.>.=.#.=.=.:.-.1.{ 1.2.1.^ F < F ) 7.r.u.u.e.2.<.<.<.{ 1.1.2.1.&.] Y h 3 M } <.9.9.9.2.5.5.<.<.#.R s * > 0 y y ",
"4 ; = # $ z ` 1.t.t.0.t.,.8.>.>.:.=.O.O.=.>.4.>.<.{ <.1.<.Q F < F ) 7.y.u.u.r.q.1.{ { { { 1.<.<.$.' Z s 0 x ' <.0.0.5.5.9.1.<.1.#.W s * $ , 9 r ",
"; ; = # * z ^ :.,.0.,.,.,.>.>.;.=.$.O.o.=.4.9.9.1.{ { 1.{ W 3 < F ) 7.y.u.u.e.2.1.<.<.{ { { { { #.' Y s 3 x ` <.5.9.5.5.9.5.2.<.#.R s * $ ; 5 5 ",
"; ; - @ * g ` 1.0.9.9.,.9.,.,.,.,.-.O.O.:.8.q.9.<.{ <.{ $.R a < F ) 7.u.i.u.r.q.2.1.<.[ { { { { #.' Y s 3 M ` <.2.1.1.1.5.9.1.1.o.W s * # - ; 4 ",
"5 8 - # * M X.9.t.t.t.w.t.w.0.9.9.,.:.$.:.6.q.9.1.{ $.<.#.! a < F ) 7.y.i.u.y.r.2.1.<.{ { <.1.{ { ] Y s 1 k ( =.<.<.1.1.1.5.5.<.#.W s * # = = ; ",
"9 9 > $ * F X.r.p.i.u.y.t.t.r.r.w.9.:.=.>.5.q.9.<.<.{ <.$.R a < F ) 6.r.r.r.y.r.2.2.<.{ <.<.<.<.$.] R f 3 M ( { <.=.<.<.2.5.<.<.%.W s * @ # = ; ",
"q 0 1 * * F @.r.a.p.i.u.y.y.y.y.e.9.,.=.>.5.w.9.<.$.<.<.{ R a < d ) 3.q.e.e.w.7.2.2.<.<.{ 1.{ 1.#.] R z a M ( =.=.<.$.<.1.5.5.<.&.Q f $ # # = = ",
"p i 1 : < F +.r.a.a.i.i.i.i.r.r.e.5.<.<.<.2.q.9.1.<.{ $.#.R a < s ( <.5.9.2.2.1.1.1.=.=.{ 1.<.=.$.] ! M f G | *.>.-.&.;.<.4.4.4.*.^ g * @ # = = ",
"h i 1 $ * G +.r.a.a.i.a.r.i.r.r.q.2.<.<.1.2.e.9.1.<.$.<.{ R a < s ~ $.2.2.1.<.-.{ =.{ { { =.<.<.#.] ! M n G ..,.<.:.&.-.:.4.4.5.,.) g * # # = ; ",
"h i 8 * * G +.r.a.a.r.r.r.e.r.q.1.<.<.$.<.9.q.q.2.1.<.<.#.! 3 < s ( *.4.4.2.1.1.=.{ { =.1.=.<.=.&.' ! F n L ..,.3.<.:.:.<.4.4.9.:.) z * # = ; , ",
"h i 1 $ * F +.r.a.r.r.r.q.9.4.,.<.<.$.<.<.9.e.q.e.9.2.1.#.! F < s ( 3.q.w.0.9.5.2.1.=.{ { 1.1.=.#.' ! F n L | :.1.1.<.<.<.4.4.9.3.) g * # ; 5 6 ",
"q 0 1 $ * F @.e.u.y.e.9.8.1.;.-.#.$.<.$.<.9.e.r.r.e.w.7.<.! f < f ) 6.r.e.r.e.0.2.2.1.=.=.1.=.1.#.] R M f G } :.1.4.4.4.4.3.4.5.,.) f * $ 4 9 e ",
"9 0 , # * M  .q.e.q.4.1.>.;.:.-.<.<.$.<.1.5.e.r.u.r.e.5.<.! s < g ) 6.r.u.r.r.e.2.2.1.=.=.;.;.{ #.] Y M f G ` -.1.4.4.4.4.4.4.4.*./ f * : 9 e j ",
"5 , < # * z ` <.2.1.:.;.-.-.:.<.<.<.<.<.1.q.e.y.u.r.q.2.#.! a < F ) 6.r.a.r.t.e.e.2.2.1.=.=.=.$.#.] R z d F ^ *.1.4.5.4.4.4.4.4.*.~ f * > 0 j c ",
"5 , ; @ * g ( ;.1.;.$.&.-.:.<.4.2.1.<.1.2.q.e.t.r.e.q.<.#.K 3 < g ) 6.r.r.u.a.r.e.2.2.1.1.1.{ $.#.] Y g 3 x ^ =.1.4.4.5.4.4.3.<.*.~ f * > i l b ",
"9 9 > $ $ k ` ,.1.-.$.=.>.4.9.9.7.7.5.2.5.5.2.5.5.<.1.<.#.R 3 < f ) 3.e.r.r.a.r.e.0.2.2.1.-.$.{ o.' R g a M ( *.4.9.4.4.4.<.<.<.*.~ f * 2 s l C ",
"j p 0 : : z | ,.2.;.=.>.9.q.e.r.r.r.r.q.0.1.<.<.<.<.$.<.#.! s < d ) <.q.r.a.i.r.r.0.0.2.1.-.{ $.o.' ! x f G ' <.9.q.5.4.<.;.:.1.*./ f * > s b C ",
"c c i > * m ..9.0.1.-.1.q.r.r.r.y.y.r.e.5.<.<.{ #.#.$.<.$.~ s < s ~ *.0.r.r.i.r.r.e.0.2.1.=.{ { o.] ! F n L ..6.9.q.4.1.:.-.:.1.:.) g * < s b C ",
"c l u > > n } 7.9.1.;.>.q.r.i.i.u.r.r.q.2.<.{ o.o.o.$.$.$.W a < a ! *.2.e.i.r.a.u.r.0.2.1.=.{ { o.] ! G n P X.6.0.q.5.1.-.$.:.1.,.) g * 1 i b C ",
"k k 0 > : z } 9.0.,.;.>.9.e.y.u.u.t.0.<.<.=.<.{ $.=.$.<.#.W s < a W *.2.e.u.i.i.u.t.2.2.1.$.#.#. .] W G n P +.6.w.q.9.1.:.-.-.1.,./ f < > p c J ",
"p p 8 * > n } ,.8.>.>.>.9.q.r.u.u.e.2.3.<.<.$.$.<.$.<.<.$.W s < a W $.9.e.r.u.u.t.t.0.2.<.*.#.#.o.] ~ G F P +.6.q.9.5.3.:.$.:.1.:./ g * < s b C ",
"k i 2 $ : z ] 0.9.>.;.>.8.w.e.y.u.t.2.2.<.$.<.<.1.2.1.2.<.( g < s W *.2.0.t.t.t.t.t.2.2.1.=.$.#.#.] ~ G F T @.7.e.w.9.4.:.-.:.1.,./ g * 2 i b C ",
"p i 8 $ : x | ,.t.,.>.>.,.9.w.y.t.u.u.2.2.1.<.<.2.0.e.0.5.' g < a ! $.2.9.0.0.0.0.0.0.2.1.<.*.#.#.] ( G F T @.7.e.w.0.8.>.-.>.1.,./ g < > s b C ",
"h i 2 : : g } ,.,.;.O.=.:.,.,.9.q.q.q.7.3.*.{ $.,.9.q.q.3./ f < u R o.*.:.>.;.1.1.1.;.;.=.$.o. .] ' R F n P ..3.9.4.,.,.&.O.$.*.%.~ f * < h b C ",
"p i 8 * $ u H / ` _ ^ ^ _ _ } | ....X.X.} ^ R Q ` | X...} L 3 * 2 x I ~ ^ _ _ ` _ _ ` ` ^ ^ ! R R K G f d F T ) | X.| ` ^ Q ^ ^ ~ H u * 1 s x C ",
"p i 8 * & < u z k f f f f g n g z m m z z f s f g m z n n 3 * % & 2 u f s f k f f s k s f f s s s a u 3 2 3 g m m m m n k f z k s u < * 2 p c C ",
"i i 1 > & & * * * : : : $ : : : : : : : * * * * * * * & & & % + @ & * * < : < * < < : < : * * * * < < * : < < < > > > < > < < 1 1 < * < 8 h c b ",
"8 0 5 1 > > : $ $ $ $ $ # # # = $ $ $ # $ - $ - : > : * * * * : - $ $ > > 2 2 > 1 1 1 > : > > : : : < > 1 1 < < > : > > : > > > 1 1 1 8 i h l c ",
", , 5 0 u 0 9 1 8 5 4 > ; = - ; ; 4 5 ; , ; 5 9 0 q 0 u 3 8 0 8 8 8 0 0 p p h j h h h h s 0 u 8 2 0 0 0 u u u 0 u u 0 u i i i i p p h p p p t e ",
"; ; 5 0 t h q q 7 7 6 6 4 ; 4 6 q w 6 6 6 6 q e j l l j h k h h p p p t c v v A C C B v c j h p i i i s h h h h h p h h p h h l c c c c j t w 7 ",
"= ; 5 e h j h e e e w 6 4 4 4 6 w w w w w w w y c c b c c l j j y t t c v I A A A A A B v c j h p i s h k k j k k h h h h l c b b b v c c t w 7 "
};
