/* XPM */
static char *exit_resized[] = {
/* columns rows colors chars-per-pixel */
"72 72 219 2 ",
"   c #000000",
".  c #090603",
"X  c #0B0904",
"o  c #140B04",
"O  c #180E04",
"+  c #120E08",
"@  c #161007",
"#  c #1C1206",
"$  c #161008",
"%  c #1C1309",
"&  c #1F180A",
"*  c #221507",
"=  c #2A1A07",
"-  c #231709",
";  c #25190A",
":  c #2A1C0B",
">  c #311E0D",
",  c #251C11",
"<  c #2B1E11",
"1  c #2E210D",
"2  c #33230E",
"3  c #39250E",
"4  c #35280F",
"5  c #3A2A0F",
"6  c #2E2314",
"7  c #2E2319",
"8  c #332612",
"9  c #3C2612",
"0  c #362912",
"q  c #3B2B13",
"w  c #34271A",
"e  c #362A1A",
"r  c #3B2D1C",
"t  c #3E3013",
"y  c #3E301A",
"u  c #3C2E20",
"i  c #3E3022",
"p  c #41270F",
"a  c #422A0E",
"s  c #46310F",
"d  c #412712",
"f  c #432C14",
"g  c #492E16",
"h  c #432D1A",
"j  c #482F19",
"k  c #443215",
"l  c #4A3414",
"z  c #4E3A16",
"x  c #45331C",
"c  c #4B341C",
"v  c #47381C",
"b  c #4D3A1B",
"n  c #523616",
"m  c #533C16",
"M  c #593E14",
"N  c #52361A",
"B  c #543D1B",
"V  c #5B3C1D",
"C  c #433521",
"Z  c #4B3521",
"A  c #4D3B23",
"S  c #463729",
"D  c #4D3C2B",
"F  c #513721",
"G  c #533B24",
"H  c #5A3E21",
"J  c #543E2A",
"K  c #583D28",
"L  c #57401C",
"P  c #5B441D",
"I  c #5F481E",
"U  c #644616",
"Y  c #62461B",
"T  c #634A1C",
"R  c #6B4E1C",
"E  c #6E521E",
"W  c #73541F",
"Q  c #78581E",
"!  c #564222",
"~  c #5C4422",
"^  c #5E4921",
"/  c #56422B",
"(  c #5B432B",
")  c #5D492D",
"_  c #544332",
"`  c #5C4531",
"'  c #5D4934",
"]  c #5D4C38",
"[  c #604223",
"{  c #634C22",
"}  c #6B4C22",
"|  c #61472C",
" . c #644A2E",
".. c #6A4D2C",
"X. c #675024",
"o. c #6D5425",
"O. c #6C532B",
"+. c #755722",
"@. c #755A26",
"#. c #7B5C23",
"$. c #755628",
"%. c #765B29",
"&. c #7A5D29",
"*. c #604730",
"=. c #634C33",
"-. c #694E31",
";. c #624E39",
":. c #684F38",
">. c #665133",
",. c #6B5435",
"<. c #6E5937",
"1. c #65513C",
"2. c #6B533C",
"3. c #6F583F",
"4. c #775E31",
"5. c #745B3D",
"6. c #7D612B",
"7. c #7C643A",
"8. c #7C633C",
"9. c #5E4F41",
"0. c #6F5641",
"q. c #6E5942",
"w. c #735C43",
"e. c #785E44",
"r. c #765F48",
"t. c #776047",
"y. c #786046",
"u. c #77614A",
"i. c #7C654D",
"p. c #7E684F",
"a. c #7D6852",
"s. c #7C6A58",
"d. c #815D1F",
"f. c #835F22",
"g. c #836124",
"h. c #8A6525",
"j. c #8C6827",
"k. c #84652C",
"l. c #89672D",
"z. c #87682D",
"x. c #8B6B2E",
"c. c #926E2D",
"v. c #997026",
"b. c #95702C",
"n. c #9B7229",
"m. c #866735",
"M. c #8D6D31",
"N. c #81663A",
"B. c #8B6E3B",
"V. c #906F31",
"C. c #8E713E",
"Z. c #957232",
"A. c #997634",
"S. c #9D7935",
"D. c #94743A",
"F. c #9A7739",
"G. c #9C7B3C",
"H. c #A0762B",
"J. c #A37D36",
"K. c #A87D32",
"L. c #A37E39",
"P. c #846B41",
"I. c #886D42",
"U. c #826B4B",
"Y. c #8D7245",
"T. c #917543",
"R. c #9C7D45",
"E. c #937748",
"W. c #967948",
"Q. c #997C4A",
"!. c #836C53",
"~. c #867057",
"^. c #887157",
"/. c #877158",
"(. c #897259",
"). c #A07F47",
"_. c #A78037",
"`. c #A6803A",
"'. c #AB843A",
"]. c #B0873C",
"[. c #B38A3D",
"{. c #B88E3E",
"}. c #A58143",
"|. c #AC8641",
" X c #AF8943",
".X c #A2814A",
"XX c #AC894C",
"oX c #B68E44",
"OX c #B88F40",
"+X c #B28D4D",
"@X c #BC9242",
"#X c #BC944A",
"$X c #AA8952",
"%X c #BA9554",
"&X c #B79358",
"*X c #B89559",
"=X c #BA9A66",
"-X c #AC9371",
";X c #C49741",
":X c #C69942",
">X c #CB9D46",
",X c #C69A49",
"<X c #C4994C",
"1X c #C39C54",
"2X c #C29C5B",
"3X c #CFA047",
"4X c #CFA048",
"5X c #D3A246",
"6X c #D4A449",
"7X c #D8A74A",
"8X c #DAA94C",
"9X c #CFA351",
"0X c #CCA35B",
"qX c #D1A452",
"wX c #D8A851",
"eX c #D8AB59",
"rX c #C39E60",
"tX c #C2A16E",
"yX c #D5AB62",
/* pixels */
"# # O O o o o o o o o o o o O O O ; = : > 9 3 9 9 9 9 9 d d f e 3 : : > 9 d d d d d d d f g g d 3 3 3 d g g l l g g f d d p p f g g n n g f p p ",
"# * * ; : = = : = = : : = ; ; * * ; > 9 9 d h h q h j x x j x f 9 > > > d g j j g h g g j j x h 9 3 9 f c c c c c c c g f d f g c N N N n g g p ",
"# * > k B L L L B V L L L B f > ; < r Z J J / / / / ( ( ( / J F x 9 8 9 j F F F F F F F F G G c h 9 d c J ! ( (  .( ! G c g c G ( |  .K H N j g ",
"O - f o.c.A.A.Z.A.Z.Z.A.A.c.o.f ; w J 2.w.q.w.w.w.q.w.w.w.0.2.=.K c h j F *.*.*.*.*.*.*.*.*.` G h 9 Z J ' 2.3.q.w.3.3.-.~ G K -.2.3.2.2.*.H V N ",
"o = m x.;X4X3X>X>X>X>X3X>X;XM.m : e ` r.i.a.i.i.i.i.i.i.i.u.w.2.K F j F *.:.:.2.2.0.2.2.0.2.] / C h A ] q.u.a.!.!.!.i.w.=.( =.0.r.!.i.r.2.| H V ",
"o = V A.>X8X8X7X7X7X7X8X8X5XA.B < < S ] 1.1.1.1.1.1.1.1.;.;.' ` J F F K *.2.0.0.0.w.r.r.q.1.] / Z Z / 2.u.!././.(.(.!.e.-. .-.e.!.~.!.i.w...[ V ",
"o = B Z.>X8X8X5X5X5X5X7X7X>XA.V : - 6 r r u u u r u r r r e r r h h F K =.:.0.0.0.r.i.p.r.1.( G A G ' q.s././.(.(.(.!.y.-. .2.e.!.~./.U.e...[ V ",
"o = B Z.:X6X5X5X3X3X>X5X5X;Xb.m ; % - : < 1 : 1 : < 6 < < < ; ; > r j K =.:.2.0.w.u.a.a.w.' J Z F K =.w.!././.(.(.(.!.r.2.*.,.u.!././.U.e.-.[ H ",
"o = B Z.;X6X7X4X3X3X3X5X5X;Xc.V : : e v c c c c v A S D S u , & - 9 j F ` :.:.0.0.r.a.!.r.` A v J K ;.0.i.!.^.^.(.(.!.u.,. .-.r.!.^.^.!.e.-.[ V ",
"o = B Z.,X7X7X4X5X5X5X5X5X;Xc.m : e | 7.N.k.&.&.7.8.U.~.s.9.u ; - > h Z J ' ;.:.0.r.a.!.w.` Z Z J J ;.0.0.!.!.^.(.(.!.e.,.=.,.u.!.^.^.!.e.-.[ V ",
"o = L Z.>X7X7X6X5X6X5X6X6X;Xc.m 2 x 5..XXX}.L.}.|.$X-X-X-Xs.S ; * > h Z K ` =.:.2.w.r.!.0.J Z x D J 9.:.0.w.!.!.(.^.!.r.=. .-.w.U.!.!.U.5...H V ",
"o : B Z.>X7X7X6X6X5X3X5X6X;XV.m > v m.XX+XoX'.|.+X*XtXtX-Xs._ ; = d j F H |  .=.:.0.w.w.:.J x Z D J K K *.0.w.!.!.!.i.w.=.K ( -.0.w.e.w.:.[ V N ",
"o = V Z.>X8X7X7X5X5X5X5X6X:Xc.m 2 k 6.). X'.S.'.oX#X%XtX=X!.! 1 = p M U U E ....=.:.:.:.*.F h x D G K G K ` :.w.r.u.r.2.( Z G ( *.-.=.*.[ N N g ",
"o : V Z.>XwX7X7X5X5X5X5X6X>XA.B : k %.L.`.S.A.S.'.{.#X0X&XI.S ; = p M U U R R | ( *.` ` H c h h Z G F F F K K 9.2.0.0.=.A x c Z K ( ( ~ H N g g ",
"o : L Z.>X8X7X6X7X5X5X5X7X:Xc.m 1 k &.S.`.S.A._.[.{.<X1X&XP.A & * > s n M n n l j C j h h 9 9 h G J G F j j G J ( ` ` K Z j v K *. .-. .( F j g ",
"o : L Z.>X8X7X6X5X5X5X5X7X:XV.m 1 l &.S.'.S.A.`.[.@X#X%X+X8.v & O * = > > > > > > < < > : : < h J =.( Z d h j j Z Z Z x h x D =.0.w.e.w.:.[ V N ",
"o = V b.3X8X7X6X6X5X5X6X6X;XV.m > x &.L.'.L.F.L.[.@X#X%X.X7.! $ o o # % % - - - ; = ; ; - % ; r ` 0.] Z h 3 9 9 h 9 d d h Z K 0.!.!.!.U.3...V V ",
"o = B Z.>X7X7X6X6X6X5X6X6X<XM.b 1 l &.L.'.L.L.`.[.@X#X&X.X7.y $ o @ & - : 1 0 k c c f q 2 - ; r ] r.1.J h 9 d h 9 9 w h Z J 9.r.!.^.^.!.e...[ V ",
"o = B Z.:X7X6X6X6X6X6XqX9X%XB.B : k &.L.`.L.S.L.[.#X#X+X.X<.u & o - 6 q k L T +.6.&.&.} c 2 ; u ] u.w./ j h h x h h d Z K 9.0.!.!.^.^.!.e.-.[ V ",
"o = B Z.:X6X6X6X6X6X6X6X0X*XP.A 2 l &.L.'.L.L.`.[.@X#XXX.X>.y & % 6 y b ^ X.k.A.J.J.F.m.{ 9 : u 1.i.w.` Z Z S D Z j h F K 0.0.i.U.!.!.U.0...V V ",
"o ; L c.:X6X6X5X5X5X5XqX0X*XI.A 1 l &.L.'.L.G.`.[.@XoXXX.X<.r % % 6 k ! ^ o.z.S.]. X}.D.O.k ; r ] u.q._ A Z J ` J F Z F K 9.9.0.w.e.w.w.:.[ V n ",
"o ; m b.;X5X5X5X3X5X3X9X0X&XI.A 1 k &.L.'.L.S.`.].{.oXXXY.<.e % % 6 v b ^ X.6.A.'.'.).T.,.y ; e _ q.q./ A D ] ;.;.J F F J J K *.=.=.-.*.( V g g ",
"o : L b.:X5X5X3X3X3X>X9X0X&XI.A : l &.L.'.`.S.`.].{.[.XXE.<.y % & 6 i ! P { &.b.S.}.).T.,.y ; 6 S ] ] _ S D ] ;.;.J F Z h h Z F ( ( ( [ H N g g ",
"o = L b.:X7X6X5X5X5X3X9X0X&XI.A 1 l &.L.'.G.S.L.].[.oXXXE.<.e % & 7 y A ~ { %.x.S.L.R.Y.,.y ; ; u i i u e h S D D Z h r 9 9 h G ( *.-. .( F n g ",
"o = L Z.>X6X8X5X5X5X5X6X0X*XI.b 1 l &.L.'.G.S.`.'.{.oXXXE.1.y $ $ 7 i ! ! { %.x.A.}.E.Y.>.y & @ , < < , , , 8 w w < > : ; > r J 1.5.w.5.,.~ N N ",
"o : L Z.>X8X8X6X6X6X6X9X0X*XI.A 1 k &.L.'.`.S.`.].{.oXXX.X<.e & % 7 u ! ! { 6.x.Z.`.C.7.>.r & + @ % % * * - ; ; ; ; * * * - r ' t.i.a.p.5.=.[ V ",
"o ; L A.>X8X7X5X5X5X9X9X0X&XI.A 1 l &.L._.S.A.J.].{.oX+X.X,.r % & 6 C ! P { @.x.A.D.C.7.) 0 % $ % , , < 8 8 9 9 9 > > * O - u ;.i.~.~.!.e.-.[ V ",
"o = V Z.>X7X7X5X5X3X3X9X0X&XI.A : f $.S._.S.A.J.].{.oXXX.X<.r % $ 7 C ! P { 6.x.A.D.C.7.) 0 % % , w C Z B H H [ N l p > - ; r ;.p.~.~.!.e.-.[ V ",
"o = L A.>X7X7X5X3X3X3X9X0X&XI.A 2 k @.S.J.S.A.J.].[.oXXX.X<.r $ $ 7 v D P { %.x.A.D.B.<./ w % & u S J  ...$.4.&.$.Y n d = : h ;.a.~.~.!.e.-.[ V ",
"o = B Z.>X6X5X5X>X5X3X9X0X*XY.A > k $.S.J.S.b.J.].{.oXXXE.<.r % $ 7 v ! ! { 6.6.A.D.B.7./ w % ; w S ( O.&.k.m.x.f.$.} n > : u ] a.~.!.!.e.-.[ V ",
"o = B b.:X6X5X5X5X5X5XqX0X*XY.G 1 k @.S.J.A.A.J.'.[.{.XXE.<.e % & e C v ! ^ @.6.Z.D.C.8.) 8 % - e A | %.m.m.V.c.V.m.&.[ 9 : u ' u.!.!.i.w...~ V ",
"o = L Z.:X5X5X5X5X5X6XqX0XrXY.A : l @.J.J.J.b.L.'.{.oXXX.X>.e % $ 6 C v ! ^ @.x.Z.D.Y.8.) e % * e b { %.f.l.Z.A.J.F.V.} q < w J q.r.r.w.:.| H V ",
"o = V A.3X8X8X6X7X7X6XeXyXrXY.A > k #.S._.S.b.S.].[.oXXXE.,.r % & 6 y v ! ^ o.6.M.`.7.p.X.e & & t L X.@.6._._._._._.`.%.v & 1 r D _ _ _ D v j f ",
"o = L A.5X8X8XwXwXwXwXeXyXrXY.! 2 k +.S._.S.S.L.].[.oXXXW.,.r $ $ 6 t v v ^ %.x.B.`..X8.>.e & & t P o.%.6.6.6._._._.].6.L & % , 7 7 7 7 6 < 2 > ",
"o = B x.@X4X,X<X<X<X<X0X2X&XP.A : k @.A.`.S.A.`.].{.oXXXW.,.r # $ , t v v ^ %.x.`.`..X.X>.e & : t ^ o.6.6._.6.`._.{.].6.z * + $ % % % % % # * # ",
"o ; f o.M.A.Z.C.M.C.M.C.Y.y.) e - f @.S._.S.A.`.].OXoXXXQ.,.r % $ 6 t v L ^ %.x.6.`..X7.>.e & & v { o.6.6.6.`._.`.{.].x.z ; @ & 1 1 6 1 : * O O ",
"# * : f B B v k k x y C C y 7 $ @ q +.S._.S.S.`.].OXoXXXW.,.y $ $ 1 0 v L { @.x._.`..XC.<.e & ; k { o.6.6._._.x.`.OX].M.z ; ; q b P P L k 1 * o ",
"# * ; : : ; # X X X X X X X     X 0 +.A.'.S.S.S.[.{.oXXXE.,.q % $ & t v L { @.x.7.`..Xp.<.y & : t { o.6.6.6.x.x.`.oX].z.z : 1 z X.%.6.%.P 5 * o ",
"# * > 5 k 2 o                   . 0 o.S._.S.A.`.].OX+XXXW.<.y $ $ 1 t v L X.@.x.`.`..XY.<.e & ; k { o.6.6.x.V._.'.OX'.z.z ; 2 L o.k.z.6.T q & o ",
"O * f R @.P 1                   . 0 o.S._.S.A.`.].{.oXXXE.<.r % & & t v P X.&.x.M.}..X.X<.e & ; v T o.@.6.j.V._.`.OXoXz.b ; 1 L O.6.k.6.T q * o ",
"o = m g.J.&.f .                 X 8 o.S._.S.A.`.].{.oXXXQ.,.e $ + & t L P X.%.x._.C..XY.<.y $ ; v ^ X.@.6.k.M.A.'.OX].l.z ; 8 m o.6.6.6.I 5 # o ",
"o ; m h.K.g.t X                 X 0 @.S.'.L.A._.{.@X#XXX.X<.y % @ 1 t v ^ o.6.x.`.`..XY.>.y & & k { o.@.6.z.M.A.`.oX].l.z = 6 B o.6.k.6.I 0 % o ",
"O ; n h.H.Q 5 X                 X 0 @.S._.`.S._.[.{.oX+XQ.<.y $ + 6 t v ^ o.6.6.x.`..XC.>.y & : k I o.6.6.z.Z.A.'.{.].l.c : 2 B +.6.6.6.I 5 & o ",
"O ; l d.v.Q 5 X                 . 4 X.Z.S.b.c.A.`.'.|..XY.>.8 $ @ , y v ^ o.6._.M.`..XY.<.0 & & k { o.6.z.x.Z.A.`.[.'.k.z = 4 L @.6.k.@.P 0 % X ",
"O ; n d.v.Q 5 X                 . ; v X.o.X.X.o.%.6.6.%.>.A , + + 1 t v ^ o.6.6.`.`..XP.>.t & & k I o.6.z.M.Z.A.'.[.'.h.l : 2 L @.6.k.6.P 5 % o ",
"o = l d.n.Q 5 X                   $ ; 8 5 4 4 4 0 q e e 6 , + X + & e L X.o.&.6.x.C..XY.>.0 & 1 k { o.6.z.x.Z.A._.[.'.k.z ; 4 P 6.k.k.6.I 5 # o ",
"O ; z g.n.Q 5 X                     . . . . . . . X X . . .     + & t v ^ %.6._.B.`.Y.C.>.0 $ & t ^ @.6.z.x.Z.A.J.].'.k.c : 4 L @.6.k.%.P 5 * o ",
"o = l g.n.Q 5 X                                               . + 1 y L ^ o.6.7.M.`..XP.<.t & & v ^ 6.6.x.Z.Z.b._.[.'.g.z = 0 L 6.k.k.6.I 5 % o ",
"O ; l Q c.W 5 .                                                 + , 0 L ^ o.6.z.M.S.`.D.O.q & ; k { 6.6.6.`.B._.`._.'.h.L 1 1 L @.6.z.6.P 5 % o ",
"O - l Q j.E 4 X                                                 + & t y P E 6.z.c.A.S.b.o.q % ; v { 6.x.`.V._.x.`.'.[.6.t 1 4 L 6.6.k.6.P 4 # o ",
"O - l Q h.E 4 .                                                 + 1 t ! P X.6.6.Z._._.A.@.t % ; y { 6.z.x.`.M.`._.].'.6.s & 4 L %.k.k.%.P 4 % X ",
"O - l Q h.E 4 .                                               . + 6 t ! P { 6.6.Z.`.'.S.@.t % ; v { %.x.`.V.`.M.`.].'.6.z 1 4 L %.6.6.6.I 5 % o ",
"O - l Q h.E 4 .                                                 + 1 e L L ! { 6.M.A.S.b.o.q # ; t { %.x.Z.`.V.`._.].'.g.l - 2 L +.6.z.%.I 4 O o ",
"O - s Q h.R 4 .                                                 X & , 6 0 y L ! X.o.@.X.z : $ - t { 6.x.Z.Z._.Z._.[.'.k.z 1 4 P %.k.z.6.P 3 # X ",
"O - l W h.R 3 .                                                 . X + $ % & & 1 0 0 0 8 ; + X & t { 6.z.Z.M.Z.V._.'.'.g.l ; 4 I k.M.z.&.I 0 # o ",
"O = s W h.R 3 X                                                 . . . .   . . . . . . .     . & t { @.z.V.`.Z._._.[.'.k.l 1 5 { k.M.M.6.I 0 O o ",
"O - k W h.R 4 .                                                                             . & t ^ 6.z.Z.S.S.S.'.{.[.z.z : 5 { z.M.M.6.^ 0 # o ",
"O - l Q h.E 4 .                                                                               & t I 6.z.A.S.S.`.[.{.[.z.v : 0 T z.x.M.6.I 0 O o ",
"O - s Q j.E 4 .                                                                             . & t ^ o.6.z.M.Z.D.`.].'.6.k ; 0 { k.B.M.6.I 0 # X ",
"O ; l Q j.E 4 .                                                                               @ 6 t L P { X.X.o.@.6.6.L 2 # 0 ^ k.M.M.6.^ 0 # o ",
"O = l W j.E 0 .                                                                               X $ & & 1 6 2 8 8 e q q 1 + + 1 ^ k.M.B.6.I 0 O o ",
"O - l Q j.E 4 .                                                                                 . . . . . . . . X X X     . 6 ^ k.M.M.6.I 5 # X ",
"O - l Q j.E 2 .                                                                                                             1 ^ k.M.M.6.I 0 # o ",
"O - k Q h.E 2                                                                                                               1 ^ k.Z.M.6.^ 9 # o ",
"O - l Q j.E 5 + .   X . . . X . . . . . . . . . . . . . . . . . . . . . . . . . . . . . . .   .   . . . . . .   . . .     X 4 ^ 6.M.z.6.P 4 @ X ",
"o = l Q c.f.P 5 2 2 4 4 4 4 4 4 4 4 4 4 4 4 4 4 4 4 4 4 4 4 2 1 1 1 1 2 4 4 4 4 4 4 4 4 1 1 ; & & @ @ & & 1 1 1 2 1 1 1 ; 1 t T 6.6.6.o.L 1 + . ",
"O = a Q v.c.f.E R E W R E o.E E E E E E E E W E E E E E E E T T T T T T R E E E E E E E T L l 5 4 4 5 5 t L P I U U P L L L L R W W E P k ; . . ",
"O - k R j.v.c.j.j.h.j.j.h.j.j.j.j.j.j.h.j.j.h.h.j.j.j.j.h.h.f.6.f.#.f.f.h.h.j.j.j.j.j.h.Q E I m l k z L I R Q Q 6.Q Q E I I P U T T P L 4 @ .   ",
"# * 3 m E Q Q W W Q W Q Q Q Q Q Q @.W Q Q Q W Q Q Q W Q W W E E R E R E W Q Q W +.Q W W E P m l s 5 s s L L U R E R T Y P m m z z l s 5 1 @ X . ",
"# * = 3 a l l l l l l l k l k s s l l l k l l l l l l l s l k a f a s k k s l l l l l l a 5 4 2 1 1 1 2 2 4 5 s s a 5 a 5 3 4 2 2 2 2 = ; % @ o ",
"# # * * ; ; * ; = - - - ; - ; = ; - ; - - - = - - - - ; = - ; ; = - - - - - - = ; ; = ; = = * * * * # * * * - - - - = * = * * * * * * # * # # # ",
"# # # O O O O o O O O O O O O O O O O O O O O O O O O O o O O O O O O O O O O O @ @ o o O O O # # # # # # # @ # O O o O O O # O O # # # # # # # "
};
