/* XPM */
static char *floor_resized[] = {
/* columns rows colors chars-per-pixel */
"72 72 231 2 ",
"   c #041B0A",
".  c #111D07",
"X  c #2D1A04",
"o  c #351903",
"O  c #361A02",
"+  c #3C1D02",
"@  c #002402",
"#  c #0D2806",
"$  c #04220B",
"%  c #0A250C",
"&  c #022B0C",
"*  c #0E2D0B",
"=  c #17250A",
"-  c #1B240D",
";  c #0B3305",
":  c #05370B",
">  c #0D320B",
",  c #143B05",
"<  c #13340B",
"1  c #17380B",
"2  c #0C2610",
"3  c #0D2C11",
"4  c #122D12",
"5  c #1B2B15",
"6  c #023A12",
"7  c #183415",
"8  c #28230B",
"9  c #3E2105",
"0  c #3E220A",
"q  c #36280B",
"w  c #26390C",
"e  c #3B3708",
"r  c #232C14",
"t  c #282E15",
"y  c #3A2D12",
"u  c #273419",
"i  c #3A3318",
"p  c #2C3924",
"a  c #343D26",
"s  c #411E02",
"d  c #442305",
"f  c #4A2606",
"g  c #4D2907",
"h  c #44250A",
"j  c #45280C",
"k  c #482808",
"l  c #4C2A0B",
"z  c #522D0B",
"x  c #552E0A",
"c  c #55310E",
"v  c #5A330E",
"b  c #462A12",
"n  c #4C2C13",
"m  c #4E2F18",
"M  c #512F13",
"N  c #4E3115",
"B  c #4E321A",
"V  c #48391A",
"C  c #543214",
"Z  c #5B3513",
"A  c #5D3915",
"S  c #54351A",
"D  c #5A371B",
"F  c #56391B",
"G  c #5C3B1C",
"H  c #603711",
"J  c #623B14",
"K  c #693F15",
"L  c #623E1C",
"P  c #4A3920",
"I  c #553720",
"U  c #563B22",
"Y  c #5C3D22",
"T  c #613F21",
"R  c #1D420A",
"E  c #184608",
"W  c #024514",
"Q  c #034A17",
"!  c #194812",
"~  c #065517",
"^  c #185B15",
"/  c #264A0A",
"(  c #254D0A",
")  c #37480B",
"_  c #324B0C",
"`  c #2D5709",
"'  c #32540E",
"]  c #345A0A",
"[  c #274714",
"{  c #344F17",
"}  c #345414",
"|  c #0C6417",
" . c #38660A",
".. c #2C6011",
"X. c #2E4622",
"o. c #334A25",
"O. c #37472A",
"+. c #3F5922",
"@. c #3B4632",
"#. c #3C4933",
"$. c #465C0C",
"%. c #4C4A18",
"&. c #6C4117",
"*. c #65401D",
"=. c #6B431C",
"-. c #71471D",
";. c #4B620C",
":. c #49690B",
">. c #51690B",
",. c #457609",
"<. c #4C740A",
"1. c #4D7B0A",
"2. c #527409",
"3. c #48442A",
"4. c #5E4123",
"5. c #564528",
"6. c #5D442A",
"7. c #4C592C",
"8. c #424E36",
"9. c #434E38",
"0. c #5A4D34",
"q. c #565639",
"w. c #634324",
"e. c #6A4623",
"r. c #624D21",
"t. c #6C4925",
"y. c #654529",
"u. c #69462A",
"i. c #66492C",
"p. c #6C4B2B",
"a. c #754C24",
"s. c #784F26",
"d. c #714E2B",
"f. c #6C512F",
"g. c #73512E",
"h. c #7A542E",
"j. c #664B31",
"k. c #654B34",
"l. c #6B4D32",
"z. c #6D5134",
"x. c #665638",
"c. c #6E5439",
"v. c #735434",
"b. c #795633",
"n. c #785737",
"m. c #7C5935",
"M. c #73553A",
"N. c #75593C",
"B. c #7B5C3C",
"V. c #566A2D",
"C. c #586A2D",
"Z. c #7B623F",
"A. c #5B5C43",
"S. c #645C43",
"D. c #755B42",
"F. c #7B5D42",
"G. c #785F48",
"H. c #5B6344",
"J. c #686449",
"K. c #7D6143",
"L. c #756648",
"P. c #7E6349",
"I. c #707544",
"U. c #696951",
"Y. c #796D54",
"T. c #7A7459",
"R. c #7B755A",
"E. c #80562D",
"W. c #825C35",
"Q. c #815E3B",
"!. c #83613D",
"~. c #89643D",
"^. c #836343",
"/. c #8A6742",
"(. c #876846",
"). c #8A6946",
"_. c #82654A",
"`. c #85694D",
"'. c #8C6C4C",
"]. c #906D47",
"[. c #926F4A",
"{. c #89774E",
"}. c #93714D",
"|. c #856B51",
" X c #8A6D53",
".X c #8C7255",
"XX c #86775C",
"oX c #8D7459",
"OX c #927354",
"+X c #997856",
"@X c #92755A",
"#X c #957A5D",
"$X c #9A7D5E",
"%X c #857C62",
"&X c #957C61",
"*X c #997E62",
"=X c #8A8759",
"-X c #9C805F",
";X c #A0815F",
":X c #9D8263",
">X c #97876C",
",X c #9D8569",
"<X c #96896A",
"1X c #998B71",
"2X c #A18565",
"3X c #A68867",
"4X c #A2866A",
"5X c #A5896B",
"6X c #A98B6A",
"7X c #AD906F",
"8X c #A58D71",
"9X c #A98E72",
"0X c #A69174",
"qX c #AB9275",
"wX c #A69874",
"eX c #AD9579",
"rX c #AD997B",
"tX c #B19576",
"yX c #B1967A",
"uX c #B39A7D",
"iX c #B69E81",
"pX c #B89F81",
"aX c #B7A083",
"sX c #BBA385",
"dX c #BEA689",
"fX c #BFA88A",
"gX c #C2A88A",
"hX c #C2AA8C",
"jX c #C5AE90",
"kX c #C8AF90",
"lX c #C7B092",
/* pixels */
"g z z v A A H A J &.&.&.A A A J J J L J J J J J H J J K &.&.&.&.&.&.K H Z z z z l c c c c v A v x g g g g g g g f s s s f g g g g g z l k d O O ",
"g z c J *.=.=.=.&.&.=.&.*.=.=.=.e.e.e.e.e.e.e.=.*.=.=.K &.-.-.a.a.s.a.=.H Z C Z A *.4.*.*.*.*.A v g g g g g x g g s s s g x x M C D G A C h 9 O ",
"x C L d.m.!.!.m.h.a.=.a.h.B.Z.!.Q.Q.Q.Q.!.!.Q.B.n.v.d.e.-.s.W.~././.~.h.=.G L p.v.n.B.m.Z.Z.m.d.G c x x v x x v g s s s f x Z T y.d.v.v.w.N d 9 ",
"v J d.).$X3X2X;X'.m.d.m.[.$X2X2X2X2X:X4X2X2X:X$X+X X!.h.s.W.}.;X6X6X2X].v.e.g.).-X:X:X:X;X:X-X/.t.c c v H H H H x x x g z x T v.^. X$X@XK.w.l 9 ",
"A =.m.$XuXsXsXuX2X!.v.~.:XuXsXsXiXpXpXiXpXpXiXrX8X:X(.m.h.~.;XyXsXuXyX-XB.d.B.;XuXsXsXuXsXsXuX#Xv.F Z *.-.-.=.K L H D M M Z T _.#X8XuXyX#Xz.C k ",
"J =.Q.2XsXkXlXsX6X).m.).6XsXhXhXfXgXhXgXhXhXdXuX5X@X(.h.s.W.}.6X7X7X3X}.m.d.^.2XsXjXhXhXhXhXsX,XN.4.*.g.!.!.W.m.d.T T D Z D T _.*XqXiXpX:XM.C k ",
"J e.!.2XsXhXhXsX6X).W.].6XsXhXhXgXdXgXdXhXhXsXtX;X).m.d.a.g.!.].}.[./.W.p.t.^.2XsXhXhXhXhXhXaX2XZ.t.f.(.+X+X+X'._.Q.Q.T T D d._.#X8XuXaX-Xv.S l ",
"J e.Z.2XpXhXhXsX6X[.!.].6XaXgXgXdXgXpXdXdXdXpX5X}.b.g.a.a.g.h.W.!.!.W.g.e.t.!.,XuXfXfXsXfXhXaX:X!.f.Z.@X0XwX5X4X*X X_.T T T T ^.#X5XuXuX:XM.F l ",
"*.r.!.:XuXhXhXdX6X[.~.].6XsXgXgXhXhXgXgXgXhXpX,XZ.5.i.M.(.].).).~.].~.!.t.t.K.:XuXhXfXfXfXfXiX:X^.g._.*X8XiXiXiX*X*X XM.T T T _.@X4XiXiX&XM.F l ",
"J -.!.:XsXhXhXuX6X[.~.[.6XaXhXhXhXjXgXgXhXjXpX%Xq.a 3.L.2X6X6X4X6X6X;X[.b.p.Z.$XuXfXfXdXhXsXuX:XQ.l.Q.&XiXiXiXiXiX*X@X_.T T T F.@X5XyXiX&Xv.F l ",
"J =.!.;XuXjXhXsX6X[.!.].6XaXsXaXaXiXiXiXpXdXiXXXO.7 O.Y.9XiXiXiXsXsXuX;XZ.p.B.@X0XuXuXaXuXuX0X@XF.u.D.@X8XiXaXaXiX*X*X_.k.T T _.@X5XiXuX*Xn.D l ",
"*.t.!.3XuXjXhXsX3X[.~.[.6XsXuX>XR.R.R.%X,X0X8XY.3.u a A.%X1XiXiXhXhXsX3X!.p.v.^.oX-X,X2X,X;X@X(.l.u.D.oXiXiXaXiXpXiX9X@Xl.T T _.&X9XpXpX*XB.G c ",
"A =.Z.;XuXjXhXuX3X].~.[.7XaX1XU.9.O.@.9.A.XX&X_.0.i i a 9.U.%XiXdXdXsX6X/.p.t.i.v.B.Z./.^.Z.n.i.T Y M.#XiXaXaXiXsXsXyX*XM.T T _.:XyXpXpX2XZ.*.Z ",
"*.=.Z.3XaXfXhXsX3X].W.].6XqXXX8.7 $ $ 4 a S.|.F.u.M q - 5 #.R.0XuXdXuX6X'.b.t.w.4.w.f.b.v.h.p.w.D S l..X*XiXiXiXiXpXyX@XM.T u._.*X0XiXyX$XB.*.Z ",
"J e.!.;XsXjXjXsX6X~.g.Z.=X=XI.o.; @ @ ; u 3.0.k.U n X . % p U.>XuXsXsXtX$X).m.w.*.i.b././.^.Z.v.4.G p.^.@X*X8X9X*X9X*X_.T D T F.'.$X:X-X).d.A c ",
"A =.!.3XsXjXjXsX3X~.=.*.C.V.7.( E , , R 7 7 u a b b X . $ a S.,XtXsXsXuXtX3X'.n.t.v.'.:X5X3X-X(.v.w.w.v._.|.@X&X&X X_.T D M D T n.!.^.!.g.G l d ",
"A =.B.$XuXsXsXuX&Xn.G V ) ] } ' ' '  .} / < 3 - O q 8 . % a S.&X6XuXsXdXgXuX:X!.h.^.:XuXdXsXuX2X(.g.e.w.i.v.P.|.Y.z.w.F N m D w.f.g.h.g.*.C k 9 ",
"v J g.).$X2X,X#X^.y.M k e ) _ $.7.V.C.C.7.! # # - 8 - = 1 O.J.&X9XuXaXhXhXsX5X(.b.^.6XsXjXjXsXqX+X/.g.w.G 4.k.c.k.6.G G Y y.i.B.K./.(.!.f.S j 9 ",
"c v *.p.n.B.N.v.6.B 0 0 9 e %.x.Z.T.=X=XC.7./ # # . = 1 / 7.Z.=X5XyXuXsXhXsX5X).b./.6XsXjXhXdXuX6X-X^.i.B N S 5.4.4.4.t.N._..X$X3X3X3X;X/.r.n 9 ",
"g z c A L 4.4.4.S b h 0 d n w.Z.=X3XtXwX<XC.} / < % ; , _ 7.Z.{.*X4XqXuXuXuX:X!.g.^.2XuXdXdXdXsXuX0X.Xj.B b m B G w.t.Z. X:X9XuXuXsXsXyX@Xz.C k ",
"d d g z Z *.i.j.k.Y U B n C y._.:XyXgXuXwX=XC.+./ > ; , ! %.0.F.'.OX@X*X3X:X'.v.w.v.'.2XtXpXsXfXfXrXXXc.S V U j.z.B.(.OX4XqXiXsXdXhXjXsX:Xv.S k ",
"+ d h z A g.K..XoXP.D.k.Y D j.|.,XrXfXhXsXwX<XC.7.[ ; ; < u %.y.v.n.Q.~.^.~.v.4.F 4.n.).$XqXsXhXfXaX:XN.Y 4.c.Y.oX$X4X9XyXpXpXdXdXhXjXsX:Xv.F l ",
"o + d z *.B.@X5X0X,X@XK.y.Y z.`.,X0XrXuXuXfXuX=XC.} R ; * r V Y T d.v.b.m.v.i.G B F w.g.).6XiXdXfXuX:XM.4.k.|.,XqXuXiXpXsXpXdXdXdXdXfXuX#Xc.D k ",
"o o d c =.~.2XuXpXrX,X Xv.w.i.B..X#X;XwXuXuXuXwXI.C.{ r 5 y 5.z.Q.Q.^._.(.(.B.z.6.4.*.i.^.:XyXsXsXeXoXc.4.z..X0XiXpXdXdXhXhXdXdXdXfXdXuXoXz.S g ",
"X o s v t.~.3XuXfXaX0X@Xm.e.w.p.v.B.Z.'.$X9XyX0X=XI.x.V i U D.oX*X*X4X3X3X*X*X XP.c.i.y.B.@X8XrXqX4X|.k.U l.oXqXiXiXiXpXgXhXhXhXdXsXiX9X.Xj.C h ",
"o o d v -.~.3XyXaXuX5X@XZ.t.=.e.t.t.p.h.(.+X6X8X:XoXD.4.F j.|.,XyXpXpXsXpXpXeX8X%XP.k.w.c.`.:X,X*X@XG.U B y.|.4X0X0X9XyXiXiXpXpXiXuX9X:XP.w.n h ",
"o + d v *.h.'.-X,X:X@X(.b.t.t.b.B.v.t.t.v.(.@X+X+X`.B.w.L p._.&X9XiXdXhXfXdXpXiX8X Xz.Y w.n._.`.`.G.k.I n U N. X@X@X@X+X*X5X5X5X:X$X XP.k.F j s ",
"+ s d l Z w.g.B.B.N.v.f.t.t.m.}.#X'.v.G w.g.B.Z.B.m.g.e.L w.g.^.#XqXpXgXfXdXdXsXeX@XM.D F 4.i.p.y.T B b + n U k.M.M.n.F.^.(.(./.Q.B.l.6.S j + + ",
"d d k C S 4.i.p.i.w.4.*.*.h.).3XqX-XM.G G w.g.h.b.b.g.d.t.e.e.d.(.4XpXhXfXdXfXdXiX&XM.S m m D D S m n + o h n I T w.y.g.m.m.m.m.d.w.D l h s + + ",
"g z F w.f.n.B.B.f.w.G w.v.(.-XqXeX#XM.G w.v.^.).).).).^.!.m.d.p.^.4XpXhXjXsXfXsXyX&XM.L D D T T Y I m h o b I y.l.z.N.B.^.(.(.(.Q.p.D h + + + + ",
"c A t.B..X&X:X#X(.g.w.v.'.:X7XeX0XOXv.Y p.).,X6X6X3X3X6X2X[.m.d.^.4XpXjXhXdXsXiXqX@XW.T T T l.c.z.k.U m s I j.G.`. X+X$X:X2X6X5X*X(.w.n d d d d ",
"J *.b.OX5XiXaXuX:XB.f.B.:XuXuXeX2X`.p.T v.#XyXaXaXpXsXsXuX2X!.v.^.:XiXsXpXiXiX0X*X'.b.T u.M.F._._.D.k.I n U D.&X:X5X0XyXuXpXsXsXyX$XM.F l g g g ",
"&.=.Q.#XrXdXhXdX3X^.f.^.5XpXpXqX*X_.l.T M.@XqXiXsXhXhXhXaX3X^.g.m.'.2X6X3X2X:X@X|.N.u.L u.v.G._.|._.l.I m Y _.&X4XyXyXiXgXdXhXhXsX5X`.l.Y C z k ",
"&.-.Q.$XeXfXhXsX,X^.g.^.4XiXiX9X*X XT T T  X*XiXpXgXhXhXsX3X^.p.d.m.^./.).(.!.B.g.w.L D T z.G._.|._.D.I m T _.@X9XyXiXgXgXgXgXhXsXrX:X`.z.G l f ",
"&.-.Q.+X9XiXuXuX:XZ.g.!.4XiXuX4X@XQ.T T T `.@X9XuXsXhXgXaX2XZ.t.e.p.h.b.m.n.v.d.u.L C C Y l.F._. X_.M.I m Y M.@X4XyXiXgXdXdXdXdXsXuX0X<X_.y.C h ",
"&.=.h.).$X2X6X2X}.v.i.F.4XiXiX5X X_.T T T _.@X*XtXsXhXhXaX2X^.t.t.m.^.(.).).^.^.B.p.G m Y z._.|. X_.D.I m T T _.&X9XiXsXdXdXdXdXdXsXuX6X Xi.C k ",
"J K e.m.~.).).~.m.e.w.Z.2XaXuX5X XQ.T T T ^.OX*XyXsXhXhXaX2X!.p.v.}.:X6X6X3X6X2X&X_.y.m Y M._. X X XM.I n m T b. X*XyXpXsXdXdXgXfXdXaX0XoXg.G l ",
"A J =.s.E.W.W.W.a.4.4.M.*XuXtX:X XM.T D T D.'.*XqXpXgXhXaX2X^.g.Z.-XuXsXaXaXsXsXuX&Xl.D I M._.|. X_.D.I n n H T Q.&X9XiXiXdXdXiXsXuXuX0X.Xz.A c ",
"J K d.W.~.[.].(.m.e.4.f.`.*X$X`.Q.T D D L T F. X2XrXiXsXuX:X^.g.^.,XaXfXfXhXhXhXpX*XM.S I u.M.N.D.D.T I n n M T n.@XqXiXsXgXiX9X5X:X:X@XZ.w.C k ",
"K -.h.[.2X6X6X3X(.z.*.e.v.Q.Q.v.T D M n M D T N. X,XqXuXuX:XK.g.Z.;XuXsXfXfXhXhXiX*XM.S m D T T D I I m m m D T Q.+X9XiXpXsX*X&X'./.!.B.t.G k d ",
"&.a.~.;XuXgXsXuX$XQ.u.T d.g.g.u.T T m M n M m T F..X*X9X9X@XB.f.B.#XeXaXsXgXhXhXuX,XF.4.C M M M n b b P I S D L n.@X*XiXiX*X*X Xb.g.g.d.*.N k 0 ",
"&.a.~.3XsXhXjXsX4X^.t.t.m.!.!.n.M.l.l.T D M M T j.B.`..X.X^.f.w.B.#XrXaXsXsXsXhXsX6X.XN.u.G M l h s b b B S S G T ~.@X*X@X@X'.Q.s.h.m.!.f.G l d ",
"-.s.~.3XsXhXhXsX5X(.g.B.[.:X2X$X@X@X X Xk.I n n D y.p.z.l.y.G F c.@XrXiXsXsXsXgXsXuX5X#X^.p.D g h h j N B m N C T T Q.Q.B.D.b.d.g.!.+X$X).f.A x ",
"&.s./.3XsXhXhXaX*X^.b.~.:XuXiXyX9X*X*X*X_.T n n S T w.w.w.D m B j..X0XuXsXsXgXgXsXaXeX1X{.z.G C m M B B F F F S D T T T Y T T T p.(.3XqX;Xm.*.v ",
"-.s.~.3XsXhXhXuX*X^.b.^.*XiXdXaXiXiXiX8X Xu.m I i.v.N.n.v.6.S N w.P.-X7XuXdXhXhXsXrX<XR.A.3.V V 6.l.v.c.c.c.k.k.6.S y y 0 y i i 5.L.,XiX6X!.=.v ",
"-.s.~.3XsXhXfXuX&XD.u.F.*XiXdXdXaXaXiX9X@Xk.I T P.#X:X-X.XK.4.S 4.g.~.;X7XdXkXkXsX1XU.#.p 5 5 3.S.@X#X#X&X&X@X|.S.a r - - - - - u A.>XiX3XQ.*.v ",
"&.a.!.;XuXuXuX0X@XD.T D.&X9XiXiXiXaXiX9X@Xk.k._.:XrXaXuX6X.Xz.F Z =.h.].3XuXdXdXrXR.9.7     3 O.U.<XqXrX0X0X8X%XJ.a = $ $ %   $ 4 9.R.0X$XM.G z ",
"&.&.h.}.:X3X:X@X|.T U T _.&X4XeXyXeX8X&X X_.G. X6XdXfXdXuXXXv.G Z &.d.~.+X3X2X=XT.q.o., ; ; 1 X.q.T.>XrXpXeX%XU.q.X.1 < < < < > ! o.H.Y.J.5.y q ",
"c v =.b.Z.~.Z.N.f.G S 4.f.Z..X:X1X&X X_._. X&X1XuXsXdXsXyX#XM.L L K a.E.~.(.D.q.@.X.[ ( ( ( ( [ X.#.U.1XuX1XU.#.X.[ _ _ _ _ _ ` ` } o.@.p u 5 = ",
"x v *.r.g.h.h.f.i.G S F *.i.B.|.&X|.D.k.G.&X0XiXsXsXdXaXqX#XB.w.L K a.E.E.m.0.a 7 ! ( ..]  .` / > 7 9.%X1XXX8.7 1 _ $.$.;.;. .:. .` ! < % % $   ",
"v A =.b.!.(.(.~.N.c.j.i.T Y l.K.Y.G.k.y.D.*XiXdXdXdXdXsXiX*XQ.e.e.h.W.Q.~.Q.c.0.8.X.[ ( ( ( ( E > < X.H.Y.J.O.7 w ) ;.>.>.2.2.<.,. .( , & & $   ",
"J =.h.'.;X3X<X6X:XoX|.N.w.F 4.c.D.D.6.T M.*XiXfXdXdXfXfXpX*XQ.t.d.Q.].OXOXOXoXoXT.H.o., ; ; : , , R [ o.O.O.{ _ ] $.>.>.2.1.1.1.1.,. . .R > $   ",
"&.-.~.;XuXuXuXuXeX8X&XG.y.S F y.k.k.U U c.&XiXfXdXdXdXsXuX$XB.e.d.^.@X@X&X&X*XqX0XR.8.4   % 3 < / / R > 4 7 _ $.;.:.:.:.:.,.,.,.,.,.,. .` 1 $   ",
"&.s.~.3XhXlXkXhXiX,X|.D.Y n n I Y I B S l.&XiXiXsXiXyX8X*X(.u.L T M._. XoX&X9XiXqXXXq.u u O.@.O.[ R , 6 6 ! ' $.>.>.>.:. . .` ` ` `  .` ( w - - ",
"-.a.~.3XgXkXkXhX8X|.z.Y m h h n m n j m k.oX8XiXiXeX,X.XF.i.S n M Y T _._. X&X8X6XoXc.5.0.L.T.H.O.< 6 6 W ! ' $.>.2.<. .( E , , , , , , w w e y ",
"&.a.~.;XuXgXuXuX:XD.U m n n n n n n h n y.`.,X8X1X:X.XD.w.S l j h n D T z.F.|.@X@X`.n.p.Z.*X8XT.#.4 & Q ~ ^ ^ $.;.<.,. .R 3 % 2 3 3 3 4 t b N C ",
"*.=.h.).;X3X3X-X_.i.S N U w.w.Y I I n M T D. XoXoX X_.W.T T I m m n n m D T D._.~.F.u.t.W.OX*XY.3.r 3 6 Q ^ ^ .... . ._ w t u a #.#.#.#.3.P Z Z ",
"v A =.m.Z.^.^.Z.f.U S 4.c.P.P.F.M.k.D Z T T n.M.k.l.T T T T T k.T D n n m m I T u.u.T T u.M.B.z.6.a u 7 6 Q ~ | | E R w i 3.0.L.R.R.%XR.L.j.*.Z ",
"c v G e.g.h.g.p.w.F S i.`.*X*X&X XQ.u.T T T u.T I I D T W.Q._.Q.D.T I n h h n I T T L T T y.p.j.i.6.i r % 6 ~ | ~ W * t F d.).2XeXsXsXeX#Xv.4.c ",
"v A =.v.!.^.!.Z.f.w.4.v.@X9XqX9X*X.XQ.l.u.u.l.T D m T W.].}. X XD.T I m h s n I T p.l.z.v.N.B.K.^.K.0.u $ & W Q W > - i 6.Q.+XtXhXlXlXsX:Xn.G z ",
"J &.h.[.:X3X3X:X'.v.p.K.*XyXpXiXqX4X.X^.F.D.c.6.U S p.`.*X*X*X@X_.c.k.I b b I T F.^._. XoX#X:X3X5X:XJ.a $ $ & 6 > r y Y M.`.2XyXfXhXhXuX#Xv.A l ",
"&.-.!.:XuXdXsXuX2X^.b.).4XiXdXdXpXqX4X@X X|.L.x.U Y M.*XyXyX*X&X|._._.k.I m T F. X&X*X*X6XeXaXsXdXrXR.8.4   $ % 5 0 M T B. X*XtXrXaXuX0X{.f.V l ",
"-.s.~.3XsXjXjXsX3X).m./.5XaXhXhXdXiXqX4X&X|.L.j.Y 4.N.,XpXiX4X@X X X_.D.T I T _.@X*X5X6XeXsXfXhXjXsX1XU.8.p r - 8 0 M T l.F. X+X:X:X$X.XN.w.N k ",
"-.s.~.3XsXhXjXsX5X).m./.4XsXdXgXdXsXpXeX*X`.v.6.G 4.F.2XsXpX4X&X@X X XG.T T T _.&X:X8X0XuXsXfXhXfXsXrX1X%XS.P y q h l M T u.v.N.K.B.M.k.r.F z z ",
"-.a.~.3XuXhXhXsX3X(.m.(.5XsXhXgXdXdXsXuX,X^.p.4.4.r.K.,XuXyX5X&X@X@X X_.T T M._.*X*XyXyXuXpXdXdXdXsXgXsXeX#Xz.N k n M C D T y.i.p.p.i.4.F C C x ",
"&.s.~.;XuXjXhXsX5X).m.(.5XsXhXhXdXgXdXuX:XB.w.4.i.M.|.,XrXqX5X&X*X*X@X_.T T T  X*XqXyXiXpXsXdXgXgXgXhXkXgX2XB.4.D w.j.v.N.B.B.F.K.F.M.z.r.G Z c ",
"-.a.~.;XuXfXhXsX3X(.h.(.3XsXhXhXfXdXaXqXoXz.G 4.c.Y.&X,X5X5X*X*X*X*X@X_.T T Q. X*XiXiXpXdXgXgXhXhXhXhXkXsX3XB.w.i.Z.oX#X*X:X4X4X,X,X$XoXK.t.A v ",
"&.a.W.+X0XuXuXuX:X!.h.!.:XuXsXsXuXuXqX<XY.6.B 5.D.|.&X&X*X&X&X@X@X@X XQ.T T T  X*X*XyXiXiXpXiXpXiXiXaXaXeX-Xn.e.v.'.,X0XqXuXuXuXuXqXqX,X'.v.J v ",
"H *.g.~.@X-X-X-X(.g.e.f.(.-X:X:X:X#XoX`.v.U N F k._._.`._._._.^._._.^.l.F m Y v. X@X@X*X*X&X&X#X#X#X&X=XoXK.r.G i.K.oX#X:X:X:X,X:X:X-XoX^.t.J Z ",
"v A *.r.m.m.n.v.p.G S 4.r.n.n.n.N.n.z.f.4.N 0 N Y u.k.T T T T T T T T Y j 0 b I T T v.b.v.v.l.M.z.z.z.j.i.4.N n S r.v.n.v.M.n.N.B.N.v.v.t.*.J v ",
"g x v *.*.*.*.A Z z k c S A A *.*.*.A F z l 9 j M D Z Z Z M Z M Z Z C n + X o b I M D M m I m m N N b b j 0 0 d l c A G F F G G *.G A A J v v v ",
"g g c v v v c c l k k k l c x v c c c z l 0 9 k l x M z l l l z g z z s o X o + n M n n l s s h d 0 9 9 O O O 9 0 l z z l l l z c c v x c v v v "
};
