/* XPM */
static char *wall_resized[] = {
/* columns rows colors chars-per-pixel */
"72 72 251 2 ",
"   c #150B04",
".  c #190E05",
"X  c #0C1B0B",
"o  c #081A0A",
"O  c #1C1306",
"+  c #141608",
"@  c #141C0A",
"#  c #1A1C0A",
"$  c #181507",
"%  c #0F0F05",
"&  c #241406",
"*  c #2B1606",
"=  c #241A06",
"-  c #2B1A06",
";  c #241608",
":  c #2A1708",
">  c #241B09",
",  c #2B1B08",
"<  c #331D06",
"1  c #331D09",
"2  c #3B1D08",
"3  c #381C07",
"4  c #220F05",
"5  c #06230E",
"6  c #0B230E",
"7  c #022B0F",
"8  c #0D2B0F",
"9  c #13230D",
"0  c #1A230C",
"q  c #172C0D",
"w  c #16320E",
"e  c #062510",
"r  c #052C12",
"t  c #0B2C12",
"y  c #082710",
"u  c #132B11",
"i  c #1A2C12",
"p  c #142711",
"a  c #053315",
"s  c #0B3415",
"d  c #013A13",
"f  c #053C19",
"g  c #0B3B18",
"h  c #0D3A16",
"j  c #123414",
"k  c #1C3412",
"l  c #143A14",
"z  c #1B3C14",
"x  c #1B3D19",
"c  c #133C19",
"v  c #252207",
"b  c #2B2407",
"n  c #2D2A06",
"m  c #23230B",
"M  c #2B240A",
"N  c #2D2A09",
"B  c #232B0C",
"V  c #322C07",
"C  c #34220A",
"Z  c #3B230A",
"A  c #332C09",
"S  c #3B2C0B",
"D  c #382206",
"F  c #27320C",
"G  c #35320A",
"H  c #3A340A",
"J  c #3D3B0B",
"K  c #35370B",
"L  c #252C12",
"P  c #362D10",
"I  c #263911",
"U  c #2B3913",
"Y  c #373713",
"T  c #4C2C05",
"R  c #43250A",
"E  c #44290C",
"W  c #4B2C0C",
"Q  c #432605",
"!  c #512D0C",
"~  c #512E07",
"^  c #42350A",
"/  c #443C0C",
"(  c #4C360C",
")  c #54310C",
"_  c #5A350D",
"`  c #5A3408",
"'  c #4B3211",
"]  c #423411",
"[  c #583610",
"{  c #4E2F10",
"}  c #643A0C",
"|  c #6A3E0D",
" . c #613709",
".. c #643B10",
"X. c #683E11",
"o. c #04441D",
"O. c #0A441B",
"+. c #044B1E",
"@. c #0B4B1D",
"#. c #034616",
"$. c #154415",
"%. c #1A4315",
"&. c #1D4A1B",
"*. c #16471A",
"=. c #01531D",
"-. c #0B551D",
";. c #1D541E",
":. c #1A5C1D",
">. c #13571D",
",. c #234215",
"<. c #234C1A",
"1. c #294817",
"2. c #3B4C16",
"3. c #374714",
"4. c #24531B",
"5. c #2A531A",
"6. c #255B1E",
"7. c #2A591A",
"8. c #3C5217",
"9. c #345319",
"0. c #3A5319",
"q. c #335B19",
"w. c #3B5918",
"e. c #39430D",
"r. c #06621E",
"t. c #1B631F",
"y. c #23641E",
"u. c #28681E",
"i. c #36611B",
"p. c #2D731E",
"a. c #044D20",
"s. c #064A20",
"d. c #035423",
"f. c #0A5423",
"g. c #025B25",
"h. c #0B5A24",
"j. c #015D28",
"k. c #095E28",
"l. c #1A5620",
"z. c #125B22",
"x. c #165821",
"c. c #104B20",
"v. c #235C20",
"b. c #026425",
"n. c #0A6324",
"m. c #026B25",
"M. c #0B6B23",
"N. c #01642A",
"B. c #016C2C",
"V. c #09682B",
"C. c #136424",
"Z. c #166724",
"A. c #027426",
"S. c #0B7424",
"D. c #037D26",
"F. c #097B25",
"G. c #01732C",
"H. c #017C2B",
"J. c #09772C",
"K. c #177825",
"L. c #026F30",
"P. c #017331",
"I. c #007C35",
"U. c #097130",
"Y. c #256620",
"T. c #2A7523",
"R. c #46410C",
"E. c #4B440C",
"W. c #4C4A0E",
"Q. c #51460D",
"!. c #544C0D",
"~. c #594C0D",
"^. c #5B520E",
"/. c #5E5C0F",
"(. c #56500D",
"). c #444C13",
"_. c #4C4C12",
"`. c #494413",
"'. c #554D11",
"]. c #594E11",
"[. c #574410",
"{. c #445315",
"}. c #4B5214",
"|. c #465A16",
" X c #4B5B14",
".X c #445918",
"XX c #545312",
"oX c #5B5311",
"OX c #545A12",
"+X c #5C5A11",
"@X c #6E410B",
"#X c #65400D",
"$X c #73440C",
"%X c #7C490E",
"&X c #76490E",
"*X c #62550E",
"=X c #655D0F",
"-X c #6A5E0F",
";X c #674910",
":X c #754711",
">X c #615610",
",X c #635B10",
"<X c #6A5E10",
"1X c #7E500F",
"2X c #456216",
"3X c #4C6316",
"4X c #536313",
"5X c #586713",
"6X c #576B13",
"7X c #66610F",
"8X c #6B630F",
"9X c #6E6A0F",
"0X c #67680F",
"qX c #736B0E",
"wX c #75670E",
"eX c #75720E",
"rX c #7A730E",
"tX c #7E780D",
"yX c #656110",
"uX c #6B6210",
"iX c #686C10",
"pX c #6F6D10",
"aX c #834D0E",
"sX c #884F0B",
"dX c #88510E",
"fX c #92560E",
"gX c #824D11",
"hX c #8B5211",
"jX c #935711",
"kX c #82790D",
"lX c #01842B",
"zX c #018B2C",
"xX c #078629",
"cX c #02942E",
"vX c #019B2F",
"bX c #008434",
"nX c #008C33",
"mX c #008539",
"MX c #008C3B",
"NX c #009334",
"BX c #009C34",
"VX c #00933D",
"CX c #009A39",
"ZX c #158E2B",
"AX c #00AC2E",
"SX c #00A32E",
"DX c #00B12C",
"FX c #00A433",
"GX c #00AA31",
"HX c #05A134",
"JX c #009540",
/* pixels */
"=X8X8XqXeXuX,XoX].].].].].].].[.].>X<XwXuXuXuX<X<XuXwXrXeX6XT.r.m.b.g.b.g.b.y.4XuX<X>X].oXoX+X+XoX;XoXoX>X].].].oX>X,X,XoXoX^.>X=X7X7X8X-X8XuXuX",
"=X8X8X9XqXwX,X>X].'._.'.'.'._.'._.oX>XyXyX<XyX,X,XyXuXqXeX6XT.A.B.m.B.b.N.b.Y.2XyX,XoX'.XXoX+XoXoX}.oXoXXX'.'.].oX>XyX>XoX].oX>X=X7X=X7X=X8X8X8X",
"=X8X8X8XwX8X<X>XXX{.{.2.2.2.0.2.8.{..X XOX+X>X+X3X3X3X6X6Xp.K.D.H.G.G.G.P.B.Z.i.|..X{.8.{.}.oXXX}.0.0.0.{.{.}.oXoX,X<X>X^.].^.>X=X7X=X/.=X/.yX0X",
"=X7X8X8X8X8X<X<X X0.;.l.;.;.;.l.l.l.v.v.w. XoX Xq.y.y.T.T.T.xXcXzXnXnXbXbXmXU.Z.v.4.l.;.9.{.XX}.0.;.l.l.;.9.{.XX,X,X<X,XoXXXoX,X=X7X/./.OX/.+XOX",
"7X=X-X=X=X8XuX5X.Xv.h.j.j.g.g.g.g.k.j.f.4.8.}.w.y.M.m.A.S.lXcXvXFXFXCXCXVXVXI.B.b.g.d.h.6.8.}.8.;.k.j.j.h.l.q. X+X5X5X*XoXoXoX*X7X/.OXOXOXXXOXOX",
"=X8X=X=X*X+XOX|.i.C.B.G.L.B.B.L.N.N.j.d.f.4.9.7.C.m.G.G.H.nXBXGXGXFXFXFXFXCXNXlXG.N.j.g.c.<.9.6.V.L.G.G.G.M.u.i.w.|.3X XXX^.^.,X/./.OX(.XX}.XXXX",
"8X7X=X=XoX}.0.6.Z.U.I.bXnXnXnXbXI.L.N.j.h.x.:.z.M.m.G.I.nXNXFXGXGXGXGXAXAXAXFXvXzXH.N.g.h.c.l.Z.U.nXnXnXbXH.K.Z.t.t.y.i. X+X=X/.OX(.XX(.(.XX'.XX",
"=X=X*XoX}.8.;.n.L.mXnXVXBXFXBXVXMXI.L.j.g.g.b.b.m.A.I.nXMXCXFXAXDXAXAXDXDXDXAXGXBXnXB.j.g.g.j.B.mXCXHXHXBXzXH.m.m.A.S.u.2X+X/.+XOXXXXX'.'.'.'.'.",
",X>XXX).9.6.n.G.I.MXCXFXFXFXFXHXVXnXI.B.N.N.b.B.G.H.bXNXVXFXGXAXDXDXAXAXAXGXGXGXFXnXI.B.j.j.j.B.MXHXGXGXFXvXzXH.H.H.H.K.i.|. XOXXXXX'.'.].'.[.'.",
"oXoX{.9.l.C.J.bXNXBXFXGXGXGXFXHXCXVXMXI.G.B.B.B.I.bXVXCXFXGXGXDXAXAXGXGXFXCXCXCXCXVXMXI.L.j.j.B.nXCXGXGXAXSXBXNXnXnXnXH.M.Y.q.{.'.].].'.'.'.].'.",
"].XX8.4.h.B.lXNXFXGXGXGXGXFXHXJXCXVXMXMXI.B.B.B.I.VXVXCXFXGXGXAXGXFXFXBXCXVXMXJXVXVXVXMXI.L.N.B.I.NXFXFXAXSXFXFXBXCXVXnXG.M.l.0.}.].'.].].'.].'.",
"oX'.0.&.j.B.bXCXFXGXGXAXGXFXHXHXCXMXMXI.I.B.B.G.bXVXCXFXFXGXGXGXGXFXFXCXMXJXJXMXJXJXJXMXmXP.L.L.P.bXzXBXAXAXGXFXFXFXCXNXbXP.Z.v.0..X}.XX].'.'.'.",
"^.XX9.;.g.B.bXCXFXGXGXFXFXHXCXJXMXmXI.L.N.L.P.I.mXVXCXCXGXFXFXFXBXCXVXVXVXVXJXJXMXJXJXJXMXmXI.P.B.B.H.NXSXGXGXGXFXFXCXVXMXbXJ.M.l.q..XoXoX].'.'.",
" X}.9.:.j.G.nXCXFXFXFXFXHXJXHXJXJXI.L.j.N.B.P.I.mXVXVXFXFXFXFXCXCXVXVXJXVXJXVXVXMXJXMXJXMXJXMXI.N.g.m.zXBXGXGXGXFXBXCXVXVXVXbXB.n.v..XOXoXoX].].",
"w.q.6.C.B.I.VXCXFXFXFXFXCXCXJXJXJXP.N.g.j.N.P.I.MXMXVXCXBXCXMXJXVXVXVXMXVXVXVXVXVXVXVXVXJXJXMXI.j.d.b.H.zXBXFXSXFXCXNXCXVXVXbXG.V.x.w.OX>XoX>XoX",
";.:.C.U.I.nXCXFXFXGXFXFXCXCXJXJXJXI.N.d.g.N.P.I.mXMXVXCXVXVXJXJXVXJXJXVXVXVXCXCXVXVXVXVXJXJXJXP.j.d.g.m.lXzXcXvXBXVXVXVXNXVXbXH.V.Z.w.oX>X,X,X,X",
"d.g.N.I.MXVXFXFXGXFXFXFXCXJXMXJXMXP.N.d.j.N.L.I.mXJXJXJXJXJXmXJXVXJXJXVXCXCXCXCXCXCXVXMXJXJXMXI.j.a.d.b.A.D.zXnXNXnXMXMXNXnXbXG.m.Y.0.oX>X,X<XuX",
"d.g.N.I.MXVXCXCXFXFXFXCXVXJXJXJXJXI.j.d.d.N.L.I.I.mXmXmXmXJXJXJXMXVXVXCXCXFXFXBXCXCXVXJXJXJXMXP.j.a.+.d.b.m.D.lXlXbXbXbXbXnXbXG.A.y.|.OX>X,X,X<X",
"d.j.N.P.mXMXVXCXCXCXFXCXVXVXVXJXMXI.j.d.j.N.L.I.mXmXmXmXJXJXJXJXJXVXCXFXFXFXFXBXCXCXJXVXMXMXmXP.g.+.o.+.=.h.m.A.H.G.I.I.bXI.I.G.m.y.|.+X<X>X>XoX",
"j.j.N.L.I.mXMXVXVXCXCXCXVXVXJXJXMXI.N.g.d.j.L.L.P.I.I.JXmXmXmXJXVXCXCXCXCXFXFXBXCXCXMXMXJXmXI.G.j.=.+.+.=.=.r.m.V.B.B.B.G.I.G.B.m.y.2X=X>X>X].'.",
"d.j.j.L.I.mXmXmXMXVXVXVXJXmXJXJXJXI.P.j.j.j.j.N.L.P.I.mXI.JXI.JXVXVXCXCXBXBXBXCXVXVXVXMXmXI.P.B.m.m.r.r.r.b.-.g.h.N.N.V.B.B.B.N.M.Y.2X5X=XoX].'.",
"d.j.N.L.P.I.I.mXmXmXMXMXmXJXI.JXI.JXI.P.N.j.a.j.N.P.I.P.P.I.mXJXVXMXVXVXVXVXVXVXVXMXMXnXI.B.N.B.lXzXzXzXzXA.g.=.d.g.N.N.j.j.j.b.b.y.2X,X*XoX].oX",
"d.k.k.V.L.P.P.I.mXJXmXJXI.I.I.mXI.JXJXP.N.a.o.s.j.N.L.L.L.P.I.JXMXMXMXMXMXmXMXmXmXmXmXbXL.j.g.m.zXSXAXAXvXlXb.+.a.d.j.j.j.d.g.g.b.y.3X,X<X>XoXoX",
"Y.v.Z.k.N.N.L.L.U.I.mXI.P.V.L.P.I.I.I.I.j.o.a f s.d.d.d.d.j.P.I.mXmXmXmXmXmXmXmXmXI.I.P.N.d.+.b.lXSXAXAXSXcXA.b.g.d.d.j.d.d.j.g.d.6. X8X-X<X,X*X",
"5X3Xi.v.=.d.j.B.P.I.I.P.h.c.f.k.L.P.P.N.f.g y t a f f f f s.j.N.P.I.mXmXI.I.I.I.I.P.L.N.d.s.o.d.D.NXHXGXGXBXnXH.V.g.+.f.j.V.j.d.-.5. X0XwXwX8XqX",
"rXpXOX5.O.+.a.j.N.P.P.V.*.j c f.j.j.j.d.o.u 9 @ y t t t r f s.j.N.P.P.P.P.L.L.P.P.N.k.a.s.f o.d.G.zXCXFXFXHXBXNXH.d.o.f.N.G.B.j.=.4.3X7X9X9X9XqX",
"wX8X+X2.%.c O.+.a.k.k.s.j 0 u h s.s.s.O.s p @ # # p p 6 e r f o.a.g.j.j.g.g.j.g.d.a.s.s.f s.a.k.J.bXnXNXCXBXBXCXH.d.o.=.B.H.I.G.b.:.i. X5X7X8XwX",
"-X=X(.).K k j a f s.s.g u @ 9 p j s s u p # # > , m m @ o o 5 e r a f f f s.f f f a t r f a.j.L.I.bXnXMXnXNXCXnXJ.d.o.=.H.NXcXzXD.M.t.7.8.XX*X=X",
">XoX'._.`.K F 8 r a s t 6 @ + @ # @ p # # # 4 : Z P C 0 @ X X + o o e e t t r t y e 6 y g a.V.P.I.mXmXmXmXbXnXlXB.f.+.d.lXvXBXvXcXH.m.h.4.0._.].",
"oXoXoXoXQ.R.e.F k j a r 6 X X + + ; : L , ; ; 1 E [ { Z m # # # + + % o 5 e e e 6 e e t g c.h.U.J.mXmXmXbXI.I.G.b.f.=.b.H.cXBXSXvXzXG.b.x.4.9.2.",
"oXoXoXoX^.^.(.W.3.z a r r y 6 + O , Z E P : : Z [ X...[ E C C C > $ % % o e e 5 e y a f g j c c.U.mXMXmXI.P.b.g.=.f.d.N.J.bXNXvXFXcXlXH.V.z.l.l.",
"+X+X,X,XyX8X7X/.).1.l a s s u # ; 1 E ' E 1 1 E ..:XX.X.[ { E Z 1 ; $ + 6 p y y r a f f g p i x V.mXmXmXP.N.d.o.o.d.j.V.G.H.bXBXBXFXNXbXI.V.g.d.",
"+X,X,X,XuXuXuX,X}.e.,.z ,.,.I G S S E E R Z Z ) :XgXgX$X..{ E Z 1 C M N F I z j s a f g s 0 0 c k.P.I.I.B.g.o.f f d.j.L.P.I.mXNXBXFXCXNXH.B.j.d.",
",X,XyXuXuXuX,XoX(.).).2.).}.XX_.Q.] E Z 2 Z { X.%XfXhX%X} ! Z 1 C S / `.W._.3.%.f f a r 6 @ 9 s f.L.P.N.j.a.g r f d.N.L.I.mXMXVXCXCXBXBXlXB.j.d.",
"yXyXyXuXuX,X>X].'.'.'.oX=X=XuXuXoXQ.S 1 1 E _ X.hXjXfX%X| ) 3 1 A ^ [.oX/.^.8.<.O.f 8 6 @ X 6 a s.j.j.d.s.f a t s s.N.L.I.mXMXmXMXnXBXBXzXA.g.d.",
"qXqXwXuX<X>X>X].].oX>X=X=X8X8XuX,XQ.P : 1 { X.%XfXjXfX%X| _ E Z S ] / [.Q.!.e.,.j t 9 @ + o 6 e f s.s.o.f r y 6 r s.j.B.I.mXI.U.V.J.zXcXlXB.g.g.",
"kXkXeXuX,X>X].].oX,X<X<X<XuXuXuX=XW.S - Z _ $XgXfXfXhX%X| _ [ { E S S S S S A B 0 9 $ $ + X 5 5 e r a r r e X X t f a.j.P.I.U.f.c.z.J.bXH.B.j.g.",
"kXkXeXuXoX].].XXoX,X<XuXuXuXuXuX=XQ.A , Z  .:XhXhXsX%X$X| ....[ { Z : : - = ; ; = O O O + 9 6 6 e e 6 6 6 @ + + 6 a s.j.L.L.k.x j $.n.D.G.V.g.d.",
"kXkXqX<XoX_.).).}.+X,XuXuXuXuXwX7X!.S , R } aXsX%X$X| | ....X.[ [ E 3 * & 4 & 4 & - b V n F k q p y p B M M & $ 9 a s.a.d.f.c i # j =.b.V.z.l.&.",
"qXqX<X>X'.).1.<.9.}.,X<XwXqXrXeX8X~.G < Q | aX%X .~ ~ ` | | X.| _ ! E 2 3 & . 4 & D ^ R.R./ K F j s k H ' E < = p s o.o.O.j p 0 # u O.f.x.4.9.8.",
"<X,X,X>X'.9.&.O.&.3.XX>XuXeXrXeXqX(.H - Q @XaX$XT D D `  .| | } .._ ! E n = = & - A E.~.].!.E.e.,.x 1.[.#X` Z : 9 s f g p # # + @ p s O.<.2._.].",
",X+XoXoX'.3.&.s.c.,.0.XX,XwXqXeXqX~.S < Q | %X} Q & < ~  .| |  ._ ! E G ,.%.w 0 = Z ( ~.^.~.!.).2.3.`.;X&X} Q - 0 p s t @ + + # p u l <.3._.oX*X",
"OXOXoXXX'.3.*.o.s.s.&.2.}.+XuXwX8X(.H - Q  .$X .< & - T } | _ _ ! R Z I :.t.>.k > 3 ) [.].~.~.].].#X;X1X%X} R = # 0 0 @ O O # t s x 1.2.}.oX*X=X",
"OXOXoXoX'.2.&.s.s.s.s.&.2.XX>X<X*XQ.V < Q  .| ` - . & T  .| _ ) R 1 B *.F.zXS.$.m < E ) [ [.].>X&X&X%X%X$X_ R & 4 O ; ; ; ; i s O.<.8.'.oX,X=X7X",
"5X/.7X=X+X{.<.o.o.o.s.*.2._.].].Q.^ b - Z  .@X` -   * T } } [ E S I %.r.cXHXxX-.i > C E ' [.;X;X1XaX%X$X} E Z * . & & - C A Y 1.4.9.}.oX>X>X,X,X",
"9X9XqXwXuX X<.O.o.o.o.*.2.'.Q.( H C - - Q  .@X~ -   - ~ | } W C I >.S.zXHXSXzXg.h u m C W ..:X1XgXgX$X_ E 3 * & & & & C ] [.(. X XOXXX].].oX>X>X",
"rXeXeXeX9X3X5.+.o.s.s.&.).'.( H , & O - Q  .@X` - . * _ $X} R , z S.cXFXAXvXzXb.s.s 0 , E } :XaXaX&X_ E , ; ; ; & & : S ~.,XyXuXyX>XoX].].oXoXoX",
"tXrXeX0X6Xi.:.=.d.a.s.4.{.+XQ.S = . . = D ` } ~ < . 1 [ X. .Z > $.D.FXFXcXlXH.A.b.@.u > R } %X%X$X| ~ D ; O # 0 0 M S / !.,XuXuXuX<XoX].].oXoX>X",
"kXqX0X|.7.t.r.A.b.=.+.5.3X8X~.S ; . . . 1 ~ ` T 3 & 3 ` X._ R > $.F.FXvXH.m.A.H.H.n.l > R | %X$X .T D * & # p s I Y / [.'.oX,X-XuX<XoX].oX^.,X=X",
"kXqX5X7.@.b.A.lXA.g.+.5.4X9X*X^ : .     * T ` T 3 < Z ` ..[ R , %.S.cXzXm.g.m.zXcXS.$.M R  .%X| W D - : > q f O.*.3._.'.'.].>X<XuX,XoX].oX>X,X=X",
"rX9XOX4.+.g.A.lXA.g.+.5.4X9X*X^ :       * T ` ` Q D E _ .._ W Z I :.S.S.m.b.H.BXSXF.$.> 2  .|  .Q - m k %.-.b.b.n.5.2.{.oXoX,X<XyX,XoXXX/./.=X8X",
"wX9X X<.+.r.D.lXA.b.+.5.OX8X^.^ &       - T  . .~ Q W _ ...._ ' ^ U %.>.m.lXNXGXFXF.%.: 2 ` } ` Z v k >.S.xXzXlXA.z.<.3.XX,X<X-X8X+X+XXX+X=X8XuX",
"wXyX X<.s.g.A.lXA.g.=.4. X*X(.S > .   . , T } } ) W ' [ [ X.....{ Z B $.S.vXGXGXcXS.z v 2 ! ` ! 2 v $.M.cXSXSXvXlXm.-.&..X5X-X-XyX,X+XXX+XyXuXuX",
"<X,X{.<.a.g.A.lXlXA.M.:.8.W.( Q 1 > @ 6 B K R./ K Y ] [ ........! 2 = %.S.SXSXxXS.:.I C R R R R < > l n.lXBXFXFXNXH.m.t.7. X+XyXuXuX5X+X+X,X<XyX",
",XoX{.<.+.g.A.zXzXzXxXZ.1.H Q W S P i a h z ,.%.x x U ] [ ......! 3 > %.F.vXzXM.%.U P E E R Z 3 & ; j @.m.lXvXFXFXvXzXS.Z.5.w.5XuXuXyX,X+X,X,X,X",
">X].2.&.a.g.A.zXvXFXvXS.$.M C E ' Y x o.s.a.+.+.+.@.,.Y ' [ _ [ W 3 > $.F.cXF.*.B 1 E ' E Z 1 , * : 0 j +.m.lXBXFXFXvXH.b.@.5.OXpXqXpXyXyX+X+X+X",
"].'.2.&.+.g.A.zXvXSXSXD.@.i M E { Y x s.a.j.b.m.m.m.f.<.Y ] ' W R * m $.S.cXS.l , 2 { [ ! R , * 1 C M i h +.m.lXzXzXlXG.g.a.4.4XeXtXqX0X=X*XoXXX",
"].'.3.%.+.=.A.zXvXGXSXlX-.g L S { Y x s.j.B.lXzXzXlXG.x.x U P Z 2 * ; c m.xXr.$., 2 ) ..[ Z : 1 R E Z M 0 h =.b.m.m.b.g.a.+.7.6XtXtXrXqX8X+XoXXX",
"].'.).<.=.g.A.lXcXvXvXlXN.a.x Y Y Y %.+.N.zXvXSXFXcXlXb.f.c L M * : # l r.D.r.z > Z _ X.[ Z : 1 W ) W Z > i h +.a.d.+.+.#.@.7.6XeXtXrXqX8X>XoX'.",
"uX,XOXw.7.:.M.A.lXzXcXzXG.j.f.I U ,.x.m.lXNXFXHXZXZXK.G.b.f.c k , , , i $.-.$.q > 2 ) [ ! Z : Z W ` ~ Z : 0 k &.&.&.&.&.&.<.q.2X6XiX9X9X8X7X*X+X",
"rXrXpXiX4Xi.:.r.r.A.lXlXD.A.b.@.*.>.A.lXBXFXGXZXT.i.Y.K.lXG.f.g i M M M w w w @ O , E { E C & 1 ) ` ! Z : M U 2.0.2.).).|.{.w.7.7.w.5X8X8X8X9X8X",
"kXkXrXeX0X2X<.#.=.r.A.A.D.D.m.d.+.g.H.vXFXHXvXK.0.`.w.K.zXlXb.O.x L C 1 = O $   . ; 2 E C : & < E ` W 1 - N e.}. XXXXXoX/.+X{.5.&.4.|.=XwXqXqXqX",
"rXeXqX8X*XW.,.l #.#.=.r.A.D.r.=.o.g.lXcXcXxXK.v.] ' ).Y.K.M.c.g i L 1 - 4 .     . & 1 Z 1 ; & - Z Q Q 1 , V G R.R.E.~.oX=X,X}.5.<.1.}.>X7XwXqXqX",
"*X*X^.!.E.J F q 8 a #.#.r.m.=.#.d =.A.lXxXt.<.U Y E Y U <.,.k i m , - * 4 .       & , 1 , ; O O - , , 3 3 C b M A ^ / Q.^.^.(.).2.).}.^.=X7X8X8X",
"!.'.E./ G V N B 0 6 7 d #.=.#.d 7 #.r.A.r.,.n C 1 Z Z C A , , , ; ; ; & O .       O : , : & $ . . . = 3 D < & = v V ^ E.!.(.oX'.'.'.'.oX>X,X,XuX",
"'._.`./ A A V b v 9 6 7 d #.d 7 7 #.=.r.$.q = - - 1 1 1 1 1 , : : : : ; & & .     $ : , * O         O - C b = O = V J R.W.!.'.].].].].oXoXoX>X>X",
"XXXX'.`.J G G A n v 0 6 5 7 7 7 7 d #.#.#.9 & * * , 1 , 1 : : : : : , * ; ; O .   . & : & &         $ - b b b b n A J / E.!.].^.oX].].].].oXoXoX",
"oXoX_.`./ / ^ J V n v 0 X 5 5 7 7 7 d #.8 @ O = : : : , : : > : , , , , : : ; . . . ; ; & & $ $ . . O v V V V G G H J R.E.!.!.^.oX'.].'.'.'.(.oX",
"oXoX'.Q.E.E./ R.^ J G n m 0 0 q w w w w 8 0 O = - b v - > = , M M 1 , M M , = # # = = M - v > > = v b G H J / R./ E./ E.Q.!.(.(.XXoX'.].oX^.>X*X",
"oXXX'.'.!.E.Q.E.W.E.E.^ K G F F F F F F q v v v b b n b , M M M b M b M M M n b b b C A A N N G V H ^ R.E.~.!.(.].'.Q.!.'.XXXX(.(.XX'.'.oX=X8X9X",
"'.'.].'.'.'.'.!.!.!.!.W.E.J Y H K V V G n n b v V V n v v b A A A n b v M N n G H G A G G K K K R.R.E.!.(./.=X*X,XoXoX].oXoX(.OXOXXXXXXX*X8XqXqX",
"'.'.'.'.].'.'.oXoX^.^.^.E.`./ H G G K V V n n n V V n n b b V G V V M B N N V G H H H H K K J e.R.E.!.(.*X=X8X7X,X>XoXoX].oX(.OX XXX(.XX*X8XeXrX"
};
